<?xml version="1.0" encoding="utf-8"?>
<!-- Generator: Adobe Illustrator 16.0.0, SVG Export Plug-In . SVG Version: 6.00 Build 0)  -->
<!DOCTYPE svg PUBLIC "-//W3C//DTD SVG 1.1//EN" "http://www.w3.org/Graphics/SVG/1.1/DTD/svg11.dtd">
<svg version="1.1" id="Calque_1" xmlns="http://www.w3.org/2000/svg" xmlns:xlink="http://www.w3.org/1999/xlink" x="0px" y="0px"
	 width="1080px" height="1620px" viewBox="0 0 1080 1620" enable-background="new 0 0 1080 1620" xml:space="preserve">
<path id="line" fill="none" d="M356.604,1088.558c-47.904-215.102,61.511-438.678,42.122-685.597"/>
<path id="end" fill="none" stroke="#000000" stroke-miterlimit="10" d="M406.331,477.833c-1.244,0-2.496-0.42-3.525-1.28l-81.333-68
	c-1.698-1.42-2.38-3.72-1.729-5.836c0.65-2.116,2.507-3.636,4.709-3.856l120.576-12.058l-66.95-57.635
	c-2.302-1.981-2.562-5.454-0.58-7.756c1.983-2.301,5.455-2.561,7.757-0.58l76.667,66c1.667,1.435,2.318,3.726,1.657,5.823
	c-0.662,2.098-2.509,3.6-4.698,3.818l-120.317,12.032l71.298,59.609c2.331,1.949,2.64,5.417,0.692,7.748
	C409.465,477.162,407.903,477.833,406.331,477.833z"/>
<path id="start" fill="none" stroke="#000000" stroke-miterlimit="10" d="M378.618,1161.668c-1.648,0-3.307-0.329-4.672-1.003
	l-107.801-53.211c-2.25-1.111-3.154-2.911-2.292-4.567c0.862-1.655,3.323-2.845,6.242-3.016l159.813-9.437l-88.736-45.101
	c-3.05-1.551-3.395-4.269-0.769-6.07c2.628-1.8,7.23-2.003,10.281-0.453l101.615,51.646c2.209,1.123,3.073,2.914,2.196,4.556
	s-3.326,2.817-6.227,2.988l-159.47,9.414l94.499,46.646c3.089,1.525,3.5,4.239,0.917,6.063
	C382.772,1161.143,380.703,1161.668,378.618,1161.668z"/>
</svg>
