<?xml version="1.0" encoding="utf-8"?>
<!-- Generator: Adobe Illustrator 16.0.0, SVG Export Plug-In . SVG Version: 6.00 Build 0)  -->
<!DOCTYPE svg PUBLIC "-//W3C//DTD SVG 1.1//EN" "http://www.w3.org/Graphics/SVG/1.1/DTD/svg11.dtd">
<svg version="1.1" id="Calque_1" xmlns="http://www.w3.org/2000/svg" xmlns:xlink="http://www.w3.org/1999/xlink" x="0px" y="0px"
	 width="1080px" height="1620px" viewBox="0 0 1080 1620" enable-background="new 0 0 1080 1620" xml:space="preserve">
<path id="line" fill="none" d="M738.08,1022.083c-117.305-179.698,8.373-334.796-70.915-533.99"/>
<path id="end" fill="none" stroke="#000000" stroke-miterlimit="10" d="M654,503.167c-40.345,0-73.167-32.823-73.167-73.167
	s32.822-73.167,73.167-73.167s73.167,32.823,73.167,73.167S694.345,503.167,654,503.167z M654,365.833
	c-35.382,0-64.167,28.785-64.167,64.167s28.785,64.167,64.167,64.167s64.167-28.785,64.167-64.167S689.382,365.833,654,365.833z"/>
<path id="start" fill="none" stroke="#000000" stroke-miterlimit="10" d="M715.955,1105.167
	c-74.507,0-135.122-27.047-135.122-60.291s60.615-60.291,135.122-60.291s135.122,27.047,135.122,60.291
	S790.462,1105.167,715.955,1105.167z M715.955,992.001c-65.342,0-118.501,23.72-118.501,52.875s53.159,52.875,118.501,52.875
	s118.501-23.72,118.501-52.875S781.297,992.001,715.955,992.001z"/>
</svg>
