<?xml version="1.0" encoding="utf-8"?>
<!-- Generator: Adobe Illustrator 16.0.0, SVG Export Plug-In . SVG Version: 6.00 Build 0)  -->
<!DOCTYPE svg PUBLIC "-//W3C//DTD SVG 1.1//EN" "http://www.w3.org/Graphics/SVG/1.1/DTD/svg11.dtd">
<svg version="1.1" id="Calque_1" xmlns="http://www.w3.org/2000/svg" xmlns:xlink="http://www.w3.org/1999/xlink" x="0px" y="0px"
	 width="1080px" height="1620px" viewBox="0 0 1080 1620" enable-background="new 0 0 1080 1620" xml:space="preserve">
<path id="line" fill="none" d="M307.604,1392.558c-47.904-215.102,61.511-438.678,42.122-685.597"/>
<path id="end" fill="none" stroke="#000000" stroke-miterlimit="10" d="M391.663,755.833c-0.841,0-1.69-0.235-2.448-0.728
	c-2.084-1.354-2.675-4.141-1.322-6.225c0.061-0.092,5.99-9.272,10.388-20.162c5.302-13.131,6.112-23.182,2.282-28.299
	c-5.178-6.918-20.665-6.957-43.609-0.108c-28.918,8.632-46.162,8.056-52.718-1.766c-4.739-7.1-3.073-18.009,4.952-32.426
	c5.508-9.895,12.048-17.958,12.323-18.296c1.57-1.927,4.403-2.215,6.329-0.646c1.928,1.569,2.217,4.403,0.648,6.33
	c-9.922,12.195-21.686,32.681-16.767,40.043c1.82,2.725,9.622,7.999,42.657-1.863c27.994-8.357,45.461-7.264,53.394,3.345
	c5.969,7.981,5.565,20.493-1.199,37.186c-4.729,11.669-10.875,21.17-11.134,21.568C394.576,755.112,393.135,755.833,391.663,755.833
	z"/>
<path id="start" fill="none" stroke="#000000" stroke-miterlimit="10" d="M380.03,1485.25c-1.885,0-3.793-0.285-5.492-0.882
	c-4.675-1.639-6.001-5.015-2.965-7.539c0.134-0.11,13.438-11.23,23.302-24.42c11.896-15.904,13.714-28.077,5.12-34.275
	c-11.616-8.38-46.359-8.427-97.831-0.132c-64.874,10.456-103.561,9.757-118.267-2.139c-10.632-8.6-6.894-21.812,11.109-39.273
	c12.357-11.984,27.029-21.75,27.647-22.159c3.522-2.335,9.877-2.685,14.199-0.783c4.322,1.899,4.973,5.332,1.455,7.666
	c-22.261,14.771-48.649,39.582-37.615,48.501c4.083,3.3,21.584,9.687,95.697-2.257c62.802-10.123,101.985-8.798,119.781,4.051
	c13.39,9.667,12.485,24.821-2.69,45.038c-10.608,14.134-24.397,25.642-24.978,26.124
	C386.566,1484.377,383.331,1485.25,380.03,1485.25z"/>
</svg>
