<?xml version="1.0" encoding="utf-8"?>
<!-- Generator: Adobe Illustrator 16.0.0, SVG Export Plug-In . SVG Version: 6.00 Build 0)  -->
<!DOCTYPE svg PUBLIC "-//W3C//DTD SVG 1.1//EN" "http://www.w3.org/Graphics/SVG/1.1/DTD/svg11.dtd">
<svg version="1.1" id="Calque_1" xmlns="http://www.w3.org/2000/svg" xmlns:xlink="http://www.w3.org/1999/xlink" x="0px" y="0px"
	 width="1080px" height="1620px" viewBox="0 0 1080 1620" enable-background="new 0 0 1080 1620" xml:space="preserve">
<path id="end" fill="none" stroke="#000000" stroke-miterlimit="10" d="M751,263.5c-0.396,0-0.795-0.052-1.188-0.16l-112-30.667
	c-2.396-0.656-3.808-3.132-3.151-5.529c0.655-2.397,3.134-3.808,5.528-3.152l100.593,27.543l-54.221-83.417
	c-1.021-1.572-0.961-3.613,0.151-5.123c1.111-1.51,3.044-2.169,4.848-1.66l94.379,26.711l-57.364-87.242
	c-1.365-2.077-0.789-4.867,1.287-6.232c2.076-1.364,4.867-0.789,6.232,1.288l64,97.333c1.032,1.57,0.98,3.617-0.13,5.132
	c-1.112,1.516-3.05,2.181-4.855,1.67l-94.473-26.738l54.138,83.289c1.018,1.566,0.962,3.599-0.14,5.107
	C753.773,262.833,752.413,263.5,751,263.5z"/>
<path id="start" fill="none" stroke="#000000" stroke-miterlimit="10" d="M812.069,880.819c-0.545,0-1.096-0.047-1.638-0.146
	l-154.364-27.891c-3.303-0.598-5.248-2.85-4.343-5.029c0.902-2.181,4.318-3.463,7.619-2.866l138.642,25.05l-74.729-75.867
	c-1.408-1.431-1.324-3.287,0.209-4.659c1.53-1.373,4.194-1.973,6.681-1.51l130.077,24.294l-79.062-79.347
	c-1.881-1.888-1.087-4.426,1.774-5.667s6.708-0.718,8.591,1.171l88.208,88.524c1.422,1.428,1.351,3.289-0.18,4.667
	c-1.533,1.379-4.203,1.984-6.691,1.52l-130.208-24.318l74.616,75.75c1.402,1.426,1.325,3.272-0.193,4.646
	C815.892,880.213,814.018,880.818,812.069,880.819z"/>
<path id="line" fill="none" d="M810.312,834.363c-146.962-218.545,7.791-405.409-92.146-647.271"/>
</svg>
