<?xml version="1.0" encoding="utf-8"?>
<!-- Generator: Adobe Illustrator 21.0.0, SVG Export Plug-In . SVG Version: 6.00 Build 0)  -->
<svg version="1.1" id="Calque_1" xmlns="http://www.w3.org/2000/svg" xmlns:xlink="http://www.w3.org/1999/xlink" x="0px" y="0px"
	 viewBox="0 0 1080 1620" style="enable-background:new 0 0 1080 1620;" xml:space="preserve">
<style type="text/css">
	.st0{fill:none;}
	.st1{font-family:'AkzidenzGroteskBE-Bold';}
	.st2{font-size:48px;}
	.st3{font-family:'AkzidenzGroteskBE-Md';}
	.st4{font-size:24px;}
</style>
<g>
	<path class="st0" d="M348.65,493.66c-19.33,0-19.33,24.3-19.33,28.38c0,5.7,0.69,11.96,2.64,17.17l31.55-31.55
		c-0.87-3.04-2.18-6.04-4.21-8.5C358.05,497.57,354.15,493.66,348.65,493.66z"/>
	<path d="M108.14,571.18c21.11,0,31.75-9.76,36.89-14.55v11.71h24.48v-69.53h-54.46v23.77h28.03c-0.89,6.56-1.95,13.3-10.11,18.62
		c-5.14,3.37-11.53,4.79-17.21,4.79c-9.58,0-18.09-3.9-22.88-9.05c-6.03-6.21-9.93-17.74-9.93-31.93c0-20.93,9.05-40.62,32.82-40.62
		c17.38,0,24.66,11,29.09,17.74l23.77-14.37c-5.85-7.63-21.99-28.91-55.17-28.91c-35.65,0-61.73,26.78-61.73,67.05
		C51.74,542.8,73.2,571.18,108.14,571.18z"/>
	<path d="M216.69,516.19c0-11.71,3.9-13.66,17.03-15.96l9.05-1.42v-24.12c-14.19,1.42-20.75,5.5-26.78,10.64v-9.76h-26.61v92.77
		h27.32V516.19z"/>
	<rect x="256.59" y="475.57" width="26.96" height="92.77"/>
	<rect x="256.59" y="442.93" width="26.96" height="21.11"/>
	<path d="M329.31,522.05c0-4.08,0-28.38,19.33-28.38c5.5,0,9.4,3.9,10.64,5.5c2.03,2.46,3.35,5.46,4.21,8.5l27.54-27.54v-37.02
		h-26.43v39.56c-4.97-3.73-12.24-9.4-24.48-9.4c-18.62,0-38.49,14.37-38.49,49.31c0,5.71,0.01,22.71,11.46,35.5l18.86-18.86
		C330,534,329.31,527.75,329.31,522.05z"/>
	<path d="M97.14,695.17c-10.29,0-19.51-5.5-26.96-12.77l-17.21,15.61c5.85,5.5,19.16,17.92,44.88,17.92
		c21.82,0,43.81-10.64,43.81-32.46c0-22-21.64-26.96-40.26-30.33c-8.87-1.6-14.72-2.66-14.72-7.98c0-2.66,2.48-6.92,13.13-6.92
		c6.39,0,14.54,2.48,23.24,9.22l16.85-15.61c-6.39-4.43-19.51-13.84-41.33-13.84c-25.9,0-39.02,15.79-39.02,31.04
		c0,6.92,2.84,13.3,6.92,17.38c4.08,4.08,9.76,6.39,15.43,7.98c4.08,1.24,8.34,2.13,12.42,2.84c5.32,0.89,11.71,1.42,15.79,3.55
		c1.6,0.89,3.55,2.13,3.55,5.32C113.64,693.04,103.71,695.17,97.14,695.17z"/>
	<polygon points="174.83,621.03 145.74,621.03 170.41,700.76 188.91,682.26 	"/>
	<polygon points="234.43,621.03 205.34,621.03 191.96,679.21 226.82,644.35 	"/>
</g>
<g>
	<path d="M540.36,694.82c13.66,0,20.75-6.92,25.01-11.18v8.69h24.83v-88.21l-27.54,27.54c1.63,5.72,1.64,11.6,1.64,14.38
		c0,5.14,0,19.33-9.58,25.9c-2.66,1.77-5.85,2.84-8.87,2.84c-7.74,0-12.26-4.94-14.74-11.57l-18.86,18.86
		c0.64,0.72,1.31,1.42,2.03,2.11C521.56,691.27,531.14,694.82,540.36,694.82z"/>
	<path d="M373.81,840.98c0,6.56-6.92,6.56-11.35,6.74h-9.58v21.64h19.69c7.1-0.18,13.3-0.53,19.69-7.45
		c4.61-5.14,6.56-10.82,8.69-16.85l25.03-76.72l-34.86,34.86l-1.88,8.16l-1.17-5.11l-18.49,18.49l2.99,9.67
		C373.1,836.37,373.81,838.68,373.81,840.98z"/>
	<path d="M481.65,777.13c-8.87-1.6-14.72-2.66-14.72-7.98c0-2.66,2.48-6.92,13.13-6.92c6.39,0,14.54,2.48,23.24,9.22l16.85-15.61
		c-6.39-4.43-19.51-13.84-41.33-13.84c-25.9,0-39.02,15.79-39.02,31.04c0,6.92,2.84,13.3,6.92,17.38c4.08,4.08,9.75,6.39,15.43,7.98
		c4.08,1.24,8.34,2.13,12.42,2.84c5.32,0.89,11.71,1.42,15.79,3.55c1.6,0.89,3.55,2.13,3.55,5.32c0,6.92-9.93,9.05-16.5,9.05
		c-10.29,0-19.51-5.5-26.96-12.77L433.23,822c5.85,5.5,19.16,17.92,44.88,17.92c21.82,0,43.81-10.64,43.81-32.46
		C521.92,785.46,500.28,780.5,481.65,777.13z"/>
	<path d="M568.56,718.24h-27.14v28.73h-13.48v16.67h13.48v44.7c0,8.87,0.18,15.43,3.9,20.93c5.85,8.51,16.14,9.05,25.54,9.05
		c4.97,0,8.51-0.53,14.37-1.42v-21.29l-9.76,0.35c-7.27,0-7.27-4.79-7.1-10.47v-41.68h18.09v-16.67h-17.92V718.24z"/>
	<path d="M810.49,742.71c-14.72,0-22.17,6.39-27.49,10.82c-4.97-5.14-10.46-10.82-25.72-10.82c-15.97,0-23.06,8.34-26.25,12.06
		v-9.58h-26.96v92.41h26.96v-52.68c0-6.39,0.18-13.84,6.21-17.92c2.48-1.6,5.32-2.13,7.45-2.13c4.44,0,8.52,1.95,10.64,4.79
		c2.49,3.55,2.66,9.05,2.66,13.13v54.81h26.96v-50.38c0-10.11,0-15.43,5.14-19.51c2.66-2.13,6.21-2.84,8.87-2.84
		c2.13,0,9.4,0.53,11.88,8.34c1.07,3.55,1.07,10.47,1.07,15.79v48.6h26.96V777.3c0-9.93-0.18-16.32-2.48-21.29
		C833.55,750.34,825.74,742.71,810.49,742.71z"/>
	<path d="M643.41,819.88c-14.72,0-21.29-11.53-21.11-23.06h19.76v-17.03h-19.58c0.89-3.9,1.77-8.16,5.5-12.24
		c2.66-2.84,7.27-6.03,13.84-6.03c4.79,0,9.93,1.77,13.3,5.14c3.9,4.08,4.61,9.22,5.14,13.13h-18.2v17.03h46.41
		c-0.36-10.46-1.07-28.56-13.13-41.51c-11.89-12.77-27.85-13.3-33.35-13.3c-36.54,0-47.54,28.74-47.54,51.09
		c0,30.33,19.33,47.89,46.83,47.89c14.9,0,26.96-5.68,34.94-13.13c4.79-4.43,7.98-9.05,11.17-13.84l-20.58-10.47
		C663.45,810.12,658.31,819.88,643.41,819.88z"/>
</g>
<rect x="347.17" y="884.48" class="st0" width="892.92" height="455.61"/>
<text transform="matrix(1 0 0 1 347.1736 918.3633)" class="st1 st2">Josef Müller-Brockmann</text>
<rect x="51.74" y="1277.97" class="st0" width="312.62" height="287.78"/>
<text transform="matrix(1 0 0 1 51.7364 1294.916)"><tspan x="0" y="0" class="st3 st4">The grid system is an aid, </tspan><tspan x="0" y="28.8" class="st3 st4">not a guarantee. It permits a </tspan><tspan x="0" y="57.6" class="st3 st4">number of possible uses </tspan><tspan x="0" y="86.4" class="st3 st4">and each designer can look </tspan><tspan x="0" y="115.2" class="st3 st4">for a solution appropriate to </tspan><tspan x="0" y="144" class="st3 st4">his personal style. But one </tspan><tspan x="0" y="172.8" class="st3 st4">must learn how to use the </tspan><tspan x="0" y="201.6" class="st3 st4">grid; it is an art that requires </tspan><tspan x="0" y="230.4" class="st3 st4">practice.</tspan></text>
<rect x="390.71" y="1277.97" class="st0" width="312.62" height="287.78"/>
<text transform="matrix(1 0 0 1 390.7116 1294.916)"><tspan x="0" y="0" class="st3 st4">A grid subdivides a page </tspan><tspan x="0" y="28.8" class="st3 st4">vertically and horizontally </tspan><tspan x="0" y="57.6" class="st3 st4">into margins, columns, in</tspan><tspan x="271.44" y="57.6" class="st3 st4">-</tspan><tspan x="0" y="86.4" class="st3 st4">ter-column spaces, lines of </tspan><tspan x="0" y="115.2" class="st3 st4">type, and spaces between </tspan><tspan x="0" y="144" class="st3 st4">blocks of type and images. </tspan><tspan x="0" y="172.8" class="st3 st4">These subdivisions form the </tspan><tspan x="0" y="201.6" class="st3 st4">basis of a modular and sys</tspan><tspan x="292.51" y="201.6" class="st3 st4">-</tspan><tspan x="0" y="230.4" class="st3 st4">tematic approach to the </tspan><tspan x="0" y="259.2" class="st3 st4">layout, particularly for multi</tspan><tspan x="295" y="259.2" class="st3 st4">-</tspan></text>
<rect x="735.9" y="1277.97" class="st0" width="300.2" height="287.78"/>
<text transform="matrix(1 0 0 1 735.8983 1294.916)"><tspan x="0" y="0" class="st3 st4">page documents, making </tspan><tspan x="0" y="28.8" class="st3 st4">the design process quic</tspan><tspan x="260.43" y="28.8" class="st3 st4">-</tspan><tspan x="0" y="57.6" class="st3 st4">ker, and ensuring visual </tspan><tspan x="0" y="86.4" class="st3 st4">consistency between re</tspan><tspan x="256.92" y="86.4" class="st3 st4">-</tspan><tspan x="0" y="115.2" class="st3 st4">lated pages.</tspan></text>
</svg>
