<?xml version="1.0" encoding="utf-8"?>
<!-- Generator: Adobe Illustrator 19.2.0, SVG Export Plug-In . SVG Version: 6.00 Build 0)  -->
<svg version="1.1" xmlns="http://www.w3.org/2000/svg" xmlns:xlink="http://www.w3.org/1999/xlink" x="0px" y="0px"
	 viewBox="0 0 500 500" style="enable-background:new 0 0 500 500;" xml:space="preserve">
<g id="Calque_2">
</g>
<g id="Calque_1">
	<g>
		<path d="M280.354,193.906c3.335,0,5.873,0.915,7.614,2.744c0.649,0.679,1.15,1.468,1.505,2.369c0.354,0.9,0.531,1.911,0.531,3.032
			c0,1.771-0.45,3.194-1.351,4.271c-0.899,1.077-2.146,1.867-3.74,2.368v0.133c0.886,0.207,1.719,0.524,2.501,0.952
			s1.461,0.959,2.036,1.594c0.576,0.634,1.025,1.379,1.351,2.235c0.324,0.856,0.486,1.815,0.486,2.877
			c0,1.24-0.199,2.369-0.597,3.387c-0.398,1.018-0.967,1.911-1.705,2.678c-0.885,0.944-1.999,1.682-3.342,2.213
			s-2.87,0.797-4.581,0.797h-14.121v-31.65H280.354z M284.405,206.101c1.077-0.9,1.615-2.177,1.615-3.829
			c0-1.535-0.494-2.737-1.482-3.608s-2.368-1.306-4.139-1.306h-9.473v10.093h8.941C281.815,207.451,283.328,207.001,284.405,206.101
			z M285.844,220.376c0.442-0.472,0.789-1.011,1.04-1.616s0.377-1.291,0.377-2.058c0-1.978-0.628-3.453-1.882-4.427
			c-1.254-0.974-2.84-1.461-4.759-1.461h-9.693v11.155h9.959C283.07,221.97,284.723,221.439,285.844,220.376z"/>
		<path d="M297.085,206.477c0.679-1.121,1.602-2.081,2.767-2.877c1.166-0.796,2.516-1.195,4.051-1.195
			c0.324,0,0.59,0.022,0.797,0.066c0.206,0.044,0.428,0.11,0.664,0.199v3.453h-0.133c-0.266-0.088-0.51-0.147-0.73-0.177
			c-0.222-0.029-0.51-0.044-0.863-0.044c-0.886,0-1.727,0.162-2.523,0.487s-1.505,0.782-2.125,1.372
			c-0.619,0.59-1.106,1.321-1.46,2.191c-0.354,0.871-0.531,1.837-0.531,2.899v12.704h-3.586V202.67h3.586v3.807H297.085z"/>
		<path d="M310.673,193.906v4.426h-3.586v-4.426H310.673z M310.673,202.67v22.885h-3.586V202.67H310.673z"/>
		<path d="M318.662,225.378c-1.254-0.561-2.316-1.365-3.188-2.412c-0.87-1.048-1.542-2.317-2.014-3.807
			c-0.473-1.49-0.708-3.15-0.708-4.98c0-1.889,0.258-3.585,0.774-5.09s1.225-2.767,2.125-3.785c0.899-1.018,1.962-1.8,3.187-2.346
			s2.546-0.819,3.962-0.819c1.623,0,3.04,0.354,4.25,1.062c1.209,0.708,2.184,1.608,2.921,2.7h0.089v-11.996h3.585v31.65h-3.585
			v-2.789h-0.089c-0.855,1.121-1.845,1.977-2.966,2.567c-1.121,0.59-2.493,0.885-4.116,0.885
			C321.325,226.22,319.916,225.939,318.662,225.378z M326.298,222.523c0.915-0.458,1.667-1.084,2.258-1.881
			c0.59-0.797,1.025-1.741,1.306-2.833s0.42-2.287,0.42-3.585c0-1.328-0.154-2.545-0.464-3.652
			c-0.311-1.107-0.775-2.059-1.395-2.855c-0.62-0.797-1.388-1.417-2.302-1.859c-0.915-0.443-1.963-0.664-3.144-0.664
			c-1.092,0-2.043,0.229-2.854,0.686s-1.49,1.092-2.036,1.904c-0.546,0.812-0.96,1.771-1.24,2.877
			c-0.28,1.107-0.42,2.294-0.42,3.563c0,1.298,0.14,2.494,0.42,3.585s0.694,2.036,1.24,2.833s1.231,1.424,2.058,1.881
			s1.786,0.686,2.878,0.686C324.291,223.209,325.383,222.981,326.298,222.523z"/>
		<path d="M339.199,231.487c-1.638-1.122-2.561-2.671-2.767-4.648h3.319c0.178,1.269,0.827,2.169,1.948,2.7s2.567,0.797,4.338,0.797
			c2.125,0,3.748-0.479,4.869-1.438c1.121-0.959,1.683-2.442,1.683-4.449v-3.231h-0.089c-0.855,1.092-1.785,1.955-2.789,2.589
			c-1.003,0.634-2.331,0.952-3.983,0.952c-1.476,0-2.826-0.28-4.051-0.841c-1.225-0.561-2.279-1.343-3.165-2.346
			c-0.885-1.003-1.571-2.199-2.059-3.585c-0.486-1.387-0.729-2.907-0.729-4.56c0-1.771,0.258-3.357,0.774-4.758
			c0.517-1.402,1.225-2.59,2.125-3.563c0.899-0.974,1.939-1.712,3.12-2.213s2.435-0.752,3.763-0.752
			c1.683,0,3.076,0.302,4.184,0.907c1.106,0.605,2.043,1.454,2.811,2.545h0.089v-2.921h3.585v21.646
			c0,1.505-0.236,2.811-0.708,3.917c-0.473,1.106-1.151,2.029-2.036,2.767c-0.886,0.738-1.948,1.284-3.188,1.638
			s-2.611,0.531-4.116,0.531C343.146,233.169,340.837,232.609,339.199,231.487z M349.226,221.107
			c0.885-0.428,1.593-1.025,2.124-1.793c0.531-0.767,0.915-1.667,1.151-2.7c0.236-1.033,0.354-2.154,0.354-3.364
			c0-2.509-0.554-4.486-1.66-5.932c-1.106-1.446-2.885-2.169-5.334-2.169c-2.154,0-3.771,0.768-4.848,2.302
			c-1.077,1.534-1.615,3.541-1.615,6.02c0,2.508,0.553,4.515,1.66,6.02c1.106,1.505,2.722,2.258,4.847,2.258
			C347.233,221.749,348.34,221.535,349.226,221.107z"/>
		<path d="M364.649,225.224c-1.372-0.634-2.53-1.498-3.475-2.589c-0.944-1.092-1.667-2.368-2.169-3.829s-0.752-3.018-0.752-4.67
			c0-1.653,0.258-3.209,0.774-4.67c0.517-1.46,1.254-2.737,2.213-3.829c0.959-1.092,2.103-1.955,3.431-2.59
			c1.328-0.634,2.804-0.952,4.427-0.952c1.712,0,3.224,0.317,4.537,0.952c1.313,0.635,2.412,1.52,3.298,2.656
			s1.557,2.494,2.014,4.072c0.458,1.579,0.687,3.312,0.687,5.201h-17.706c0.059,1.151,0.266,2.228,0.619,3.231
			c0.354,1.003,0.842,1.874,1.461,2.612c0.62,0.738,1.372,1.313,2.258,1.726c0.885,0.414,1.903,0.62,3.055,0.62
			c1.682,0,3.054-0.391,4.116-1.173c1.062-0.782,1.8-1.955,2.213-3.519h3.497c-0.531,2.479-1.652,4.382-3.364,5.71
			c-1.711,1.328-3.865,1.992-6.462,1.992C367.579,226.175,366.022,225.858,364.649,225.224z M366.266,205.481
			c-0.826,0.369-1.527,0.885-2.103,1.549s-1.048,1.446-1.417,2.346c-0.368,0.9-0.612,1.867-0.73,2.899h13.767
			c-0.117-2.302-0.745-4.102-1.881-5.4s-2.737-1.948-4.803-1.948C368.036,204.928,367.092,205.112,366.266,205.481z"/>
		<path d="M383.04,202.67v-7.215h3.585v7.215h4.427v2.921h-4.427v14.874c0,0.796,0.199,1.35,0.598,1.66
			c0.398,0.31,0.967,0.465,1.704,0.465c0.354,0,0.709-0.037,1.062-0.111c0.354-0.074,0.635-0.14,0.842-0.199h0.133v3.099
			c-0.413,0.089-0.863,0.163-1.351,0.222s-0.996,0.088-1.527,0.088c-1.476,0-2.686-0.332-3.63-0.996s-1.416-1.808-1.416-3.431
			v-15.67h-3.32v-2.921H383.04z"/>
		<path d="M425.179,193.906c1.387,0,2.655,0.207,3.807,0.62c1.15,0.414,2.132,1.003,2.943,1.771
			c0.812,0.768,1.446,1.682,1.903,2.745c0.458,1.062,0.687,2.243,0.687,3.541c0,1.948-0.436,3.586-1.306,4.914
			c-0.871,1.328-2.266,2.302-4.184,2.922v0.133c0.797,0.295,1.469,0.656,2.015,1.084c0.546,0.428,0.995,0.966,1.35,1.616
			c0.354,0.649,0.62,1.409,0.797,2.279s0.31,1.896,0.398,3.077c0.089,1.269,0.185,2.316,0.288,3.143
			c0.103,0.826,0.221,1.49,0.354,1.992c0.133,0.502,0.266,0.878,0.398,1.129s0.273,0.42,0.421,0.509v0.177h-4.294
			c-0.177-0.147-0.317-0.347-0.421-0.598c-0.103-0.251-0.191-0.634-0.266-1.151s-0.147-1.203-0.221-2.058
			c-0.074-0.856-0.155-1.948-0.244-3.276c-0.147-2.332-0.723-3.962-1.726-4.892c-1.004-0.929-2.567-1.394-4.692-1.394h-8.809v13.368
			h-3.984v-31.65H425.179z M423.762,208.956c2.213,0,3.873-0.517,4.98-1.549c1.106-1.033,1.659-2.449,1.659-4.25
			c0-1.948-0.486-3.401-1.461-4.36c-0.974-0.959-2.626-1.438-4.957-1.438h-9.605v11.598H423.762z"/>
		<path d="M440.89,193.906v4.426h-3.586v-4.426H440.89z M440.89,202.67v22.885h-3.586V202.67H440.89z"/>
		<path d="M447.972,193.906v31.65h-3.586v-31.65H447.972z"/>
		<path d="M456.58,225.224c-1.372-0.634-2.53-1.498-3.475-2.589c-0.944-1.092-1.667-2.368-2.169-3.829s-0.752-3.018-0.752-4.67
			c0-1.653,0.258-3.209,0.774-4.67c0.517-1.46,1.254-2.737,2.213-3.829c0.959-1.092,2.103-1.955,3.431-2.59
			c1.328-0.634,2.804-0.952,4.427-0.952c1.712,0,3.224,0.317,4.537,0.952c1.313,0.635,2.412,1.52,3.298,2.656
			s1.557,2.494,2.014,4.072c0.458,1.579,0.687,3.312,0.687,5.201h-17.706c0.059,1.151,0.266,2.228,0.619,3.231
			c0.354,1.003,0.842,1.874,1.461,2.612c0.62,0.738,1.372,1.313,2.258,1.726c0.885,0.414,1.903,0.62,3.055,0.62
			c1.682,0,3.054-0.391,4.116-1.173c1.062-0.782,1.8-1.955,2.213-3.519h3.497c-0.531,2.479-1.652,4.382-3.364,5.71
			c-1.711,1.328-3.865,1.992-6.462,1.992C459.51,226.175,457.953,225.858,456.58,225.224z M458.196,205.481
			c-0.826,0.369-1.527,0.885-2.103,1.549s-1.048,1.446-1.417,2.346c-0.368,0.9-0.612,1.867-0.73,2.899h13.767
			c-0.117-2.302-0.745-4.102-1.881-5.4s-2.737-1.948-4.803-1.948C459.967,204.928,459.022,205.112,458.196,205.481z"/>
		<path d="M474.284,233.037c-0.486-0.059-0.981-0.192-1.482-0.398v-3.187h0.177c0.236,0.147,0.554,0.266,0.952,0.354
			s0.893,0.133,1.482,0.133c0.768,0,1.417-0.185,1.948-0.553c0.53-0.369,1.018-1.114,1.46-2.235l0.886-2.258l-8.941-22.221h3.896
			l5.4,14.253c0.177,0.501,0.354,1.011,0.53,1.527c0.178,0.516,0.34,0.996,0.487,1.438c0.177,0.531,0.354,1.033,0.531,1.505h0.089
			c0.147-0.472,0.31-0.974,0.486-1.505c0.147-0.443,0.311-0.922,0.487-1.438c0.177-0.517,0.354-1.026,0.531-1.527l5.224-14.253
			h3.807l-9.783,24.745c-0.472,1.18-0.937,2.139-1.395,2.877c-0.457,0.738-0.944,1.321-1.46,1.749
			c-0.517,0.428-1.062,0.716-1.639,0.863c-0.575,0.147-1.217,0.221-1.925,0.221C475.354,233.125,474.771,233.096,474.284,233.037z"
			/>
	</g>
	<g>
		<path d="M33.644,272.961v9.003l8.927-9.003h2.866l-7.329,7.253l7.938,10.88h-2.663l-6.822-9.332l-2.917,2.916v6.416h-2.282
			v-18.133H33.644z"/>
		<path d="M54.366,289.293h-0.051c-0.473,0.643-1.01,1.154-1.61,1.534c-0.6,0.381-1.382,0.571-2.346,0.571
			c-1.353,0-2.426-0.381-3.221-1.142c-0.795-0.761-1.192-1.826-1.192-3.195v-9.079H48v9.028c0,0.862,0.258,1.525,0.773,1.991
			c0.516,0.465,1.238,0.697,2.168,0.697c0.524,0,0.998-0.094,1.42-0.279s0.782-0.443,1.078-0.773s0.524-0.714,0.685-1.154
			c0.161-0.439,0.241-0.921,0.241-1.445v-8.064h2.054v13.111h-2.054V289.293z"/>
		<path d="M60.454,279.707c0.474-0.626,1.044-1.12,1.712-1.483s1.484-0.545,2.447-0.545c1.37,0,2.447,0.358,3.233,1.077
			s1.179,1.763,1.179,3.132v9.206h-2.054v-9.028c0-0.862-0.262-1.521-0.786-1.978c-0.524-0.457-1.251-0.686-2.181-0.686
			c-0.524,0-1.006,0.089-1.446,0.267s-0.82,0.423-1.141,0.735s-0.571,0.693-0.748,1.142c-0.178,0.448-0.266,0.942-0.266,1.483v8.064
			h-2.054v-13.111h2.054v1.725H60.454z"/>
		<path d="M71.665,290.27c-0.981-0.803-1.522-1.948-1.623-3.437h2.104c0.068,0.575,0.211,1.049,0.431,1.421
			c0.22,0.371,0.495,0.667,0.824,0.887c0.33,0.22,0.706,0.377,1.129,0.47c0.422,0.093,0.879,0.14,1.369,0.14
			c1.082,0,1.86-0.207,2.333-0.622c0.474-0.414,0.71-0.925,0.71-1.534c0-0.372-0.063-0.681-0.19-0.926s-0.33-0.452-0.608-0.621
			c-0.279-0.169-0.634-0.312-1.065-0.431s-0.951-0.245-1.56-0.381c-0.643-0.135-1.259-0.278-1.851-0.431s-1.112-0.368-1.56-0.646
			c-0.448-0.279-0.808-0.647-1.078-1.104c-0.271-0.457-0.406-1.04-0.406-1.75c0-1.099,0.402-1.974,1.205-2.625
			c0.803-0.65,1.974-0.977,3.513-0.977c1.64,0,2.87,0.364,3.689,1.091c0.82,0.728,1.306,1.733,1.458,3.018h-2.105
			c-0.102-0.862-0.397-1.491-0.888-1.889s-1.226-0.597-2.206-0.597c-0.947,0-1.623,0.183-2.029,0.546s-0.609,0.808-0.609,1.331
			c0,0.355,0.076,0.646,0.229,0.875c0.152,0.229,0.38,0.419,0.685,0.57c0.304,0.152,0.676,0.279,1.116,0.381s0.938,0.211,1.496,0.33
			c0.66,0.135,1.281,0.283,1.864,0.443c0.583,0.16,1.099,0.389,1.547,0.685c0.448,0.296,0.799,0.681,1.053,1.154
			c0.253,0.473,0.38,1.09,0.38,1.851c0,0.66-0.127,1.239-0.38,1.737c-0.254,0.499-0.609,0.913-1.065,1.243
			c-0.457,0.329-1.001,0.579-1.636,0.748c-0.634,0.169-1.332,0.254-2.092,0.254C74.04,291.475,72.646,291.072,71.665,290.27z"/>
		<path d="M82.952,277.982v-4.134h2.054v4.134h2.536v1.674h-2.536v8.521c0,0.456,0.114,0.773,0.342,0.95
			c0.228,0.178,0.554,0.267,0.977,0.267c0.203,0,0.406-0.021,0.608-0.063c0.203-0.042,0.364-0.08,0.482-0.114h0.076v1.775
			c-0.237,0.051-0.495,0.093-0.773,0.127c-0.279,0.034-0.571,0.051-0.875,0.051c-0.845,0-1.539-0.19-2.08-0.57
			c-0.541-0.381-0.812-1.036-0.812-1.966v-8.978H81.05v-1.674H82.952z"/>
		<path d="M90.916,279.707c0.474-0.626,1.044-1.12,1.712-1.483s1.484-0.545,2.447-0.545c1.37,0,2.447,0.358,3.233,1.077
			s1.179,1.763,1.179,3.132v9.206h-2.054v-9.028c0-0.862-0.262-1.521-0.786-1.978c-0.524-0.457-1.251-0.686-2.181-0.686
			c-0.524,0-1.006,0.089-1.446,0.267s-0.82,0.423-1.141,0.735s-0.571,0.693-0.748,1.142c-0.178,0.448-0.266,0.942-0.266,1.483v8.064
			h-2.054v-18.133h2.054v6.746H90.916z"/>
		<path d="M109.38,289.268h-0.025c-0.203,0.254-0.439,0.503-0.71,0.748s-0.583,0.47-0.938,0.672
			c-0.355,0.203-0.757,0.364-1.205,0.482c-0.448,0.118-0.951,0.178-1.509,0.178c-0.626,0-1.209-0.072-1.75-0.216
			s-1.01-0.368-1.408-0.672c-0.397-0.305-0.71-0.685-0.938-1.142c-0.229-0.456-0.342-0.997-0.342-1.623
			c0-0.777,0.144-1.411,0.431-1.901c0.288-0.491,0.685-0.888,1.192-1.192c0.507-0.305,1.111-0.537,1.813-0.697
			c0.702-0.161,1.458-0.309,2.27-0.444c0.457-0.067,0.879-0.139,1.268-0.215c0.389-0.076,0.723-0.178,1.002-0.305
			s0.495-0.296,0.646-0.507c0.152-0.212,0.229-0.495,0.229-0.85c0-0.744-0.254-1.314-0.761-1.712
			c-0.507-0.397-1.234-0.596-2.181-0.596c-1.065,0-1.868,0.232-2.409,0.697s-0.829,1.196-0.862,2.193h-1.978
			c0.017-0.626,0.135-1.213,0.355-1.763c0.22-0.549,0.545-1.019,0.977-1.407s0.972-0.697,1.623-0.926s1.407-0.343,2.27-0.343
			c0.693,0,1.335,0.072,1.927,0.216s1.104,0.376,1.534,0.697c0.431,0.321,0.77,0.748,1.015,1.281
			c0.245,0.532,0.368,1.188,0.368,1.965v6.239c0,0.541,0.089,0.942,0.266,1.204c0.178,0.263,0.554,0.325,1.129,0.19h0.076v1.496
			c-0.135,0.051-0.287,0.098-0.456,0.14c-0.169,0.042-0.389,0.063-0.66,0.063C110.335,291.221,109.583,290.569,109.38,289.268z
			 M107.224,289.433c0.507-0.229,0.921-0.512,1.243-0.85s0.562-0.714,0.723-1.129c0.161-0.414,0.241-0.815,0.241-1.204v-2.231
			c-0.338,0.22-0.782,0.41-1.332,0.57s-1.103,0.292-1.661,0.394c-0.507,0.101-0.989,0.202-1.445,0.304
			c-0.457,0.102-0.85,0.25-1.18,0.444c-0.33,0.194-0.591,0.443-0.786,0.748c-0.194,0.304-0.292,0.693-0.292,1.166
			c0,0.439,0.081,0.799,0.241,1.078c0.16,0.279,0.368,0.494,0.621,0.646s0.541,0.258,0.862,0.317
			c0.321,0.059,0.651,0.089,0.989,0.089C106.125,289.775,106.717,289.661,107.224,289.433z"/>
		<path d="M115.544,272.961v18.133h-2.054v-18.133H115.544z"/>
		<path d="M119.678,272.961v18.133h-2.054v-18.133H119.678z"/>
		<path d="M124.611,290.903c-0.786-0.363-1.45-0.857-1.991-1.483c-0.541-0.625-0.955-1.356-1.243-2.193
			c-0.287-0.837-0.431-1.729-0.431-2.676c0-0.946,0.148-1.839,0.444-2.676s0.719-1.567,1.268-2.193
			c0.549-0.625,1.205-1.12,1.965-1.483s1.606-0.545,2.536-0.545c0.98,0,1.847,0.182,2.6,0.545c0.752,0.363,1.382,0.87,1.889,1.521
			s0.892,1.429,1.154,2.333s0.393,1.897,0.393,2.979h-10.144c0.034,0.66,0.152,1.277,0.355,1.852
			c0.203,0.575,0.482,1.074,0.837,1.496c0.355,0.423,0.786,0.753,1.293,0.989s1.09,0.355,1.75,0.355c0.963,0,1.75-0.225,2.358-0.672
			c0.608-0.448,1.031-1.12,1.268-2.017h2.003c-0.304,1.42-0.947,2.511-1.927,3.271c-0.981,0.761-2.215,1.142-3.703,1.142
			C126.289,291.449,125.397,291.267,124.611,290.903z M125.537,279.593c-0.473,0.212-0.875,0.508-1.205,0.888
			c-0.33,0.381-0.6,0.828-0.812,1.344s-0.351,1.069-0.418,1.661h7.887c-0.068-1.318-0.427-2.35-1.078-3.094
			s-1.568-1.115-2.751-1.115C126.551,279.276,126.01,279.382,125.537,279.593z"/>
		<path d="M151.838,272.961c1.911,0,3.364,0.524,4.362,1.572c0.372,0.39,0.659,0.842,0.862,1.357s0.304,1.095,0.304,1.737
			c0,1.014-0.258,1.83-0.773,2.447c-0.516,0.616-1.23,1.069-2.143,1.356v0.076c0.507,0.118,0.985,0.3,1.433,0.545
			c0.448,0.245,0.837,0.55,1.167,0.913s0.587,0.79,0.773,1.28s0.279,1.04,0.279,1.648c0,0.711-0.114,1.357-0.342,1.94
			c-0.228,0.583-0.554,1.095-0.976,1.534c-0.507,0.541-1.146,0.964-1.915,1.269c-0.769,0.304-1.644,0.456-2.625,0.456h-8.09v-18.133
			H151.838z M154.159,279.948c0.617-0.516,0.926-1.247,0.926-2.194c0-0.879-0.283-1.567-0.85-2.066s-1.357-0.748-2.371-0.748h-5.427
			v5.782h5.123C152.675,280.722,153.542,280.464,154.159,279.948z M154.983,288.127c0.253-0.271,0.452-0.579,0.596-0.926
			c0.144-0.347,0.215-0.74,0.215-1.18c0-1.133-0.359-1.978-1.078-2.536c-0.719-0.558-1.627-0.837-2.727-0.837h-5.554v6.392h5.706
			C153.394,289.04,154.34,288.735,154.983,288.127z"/>
		<path d="M162.504,290.903c-0.786-0.363-1.45-0.857-1.991-1.483c-0.541-0.625-0.955-1.356-1.243-2.193
			c-0.287-0.837-0.431-1.729-0.431-2.676c0-0.946,0.148-1.839,0.444-2.676s0.719-1.567,1.268-2.193
			c0.549-0.625,1.205-1.12,1.965-1.483s1.606-0.545,2.536-0.545c0.98,0,1.847,0.182,2.6,0.545c0.752,0.363,1.382,0.87,1.889,1.521
			s0.892,1.429,1.154,2.333s0.393,1.897,0.393,2.979h-10.144c0.034,0.66,0.152,1.277,0.355,1.852
			c0.203,0.575,0.482,1.074,0.837,1.496c0.355,0.423,0.786,0.753,1.293,0.989s1.09,0.355,1.75,0.355c0.963,0,1.75-0.225,2.358-0.672
			c0.608-0.448,1.031-1.12,1.268-2.017h2.003c-0.304,1.42-0.947,2.511-1.927,3.271c-0.981,0.761-2.215,1.142-3.703,1.142
			C164.183,291.449,163.291,291.267,162.504,290.903z M163.43,279.593c-0.473,0.212-0.875,0.508-1.205,0.888
			c-0.33,0.381-0.6,0.828-0.812,1.344s-0.351,1.069-0.418,1.661h7.887c-0.068-1.318-0.427-2.35-1.078-3.094
			s-1.568-1.115-2.751-1.115C164.445,279.276,163.904,279.382,163.43,279.593z"/>
		<path d="M174.336,280.163c0.389-0.642,0.917-1.191,1.585-1.647c0.668-0.457,1.441-0.686,2.321-0.686
			c0.186,0,0.338,0.013,0.457,0.038c0.118,0.025,0.245,0.063,0.38,0.114v1.979h-0.076c-0.152-0.051-0.292-0.085-0.418-0.102
			s-0.292-0.025-0.495-0.025c-0.507,0-0.989,0.093-1.445,0.279c-0.457,0.186-0.862,0.447-1.217,0.786
			c-0.355,0.338-0.634,0.756-0.837,1.255c-0.203,0.499-0.304,1.053-0.304,1.661v7.278h-2.054v-13.111h2.054v2.181H174.336z"/>
		<path d="M182.173,279.707c0.474-0.626,1.044-1.12,1.712-1.483s1.484-0.545,2.447-0.545c1.37,0,2.447,0.358,3.233,1.077
			s1.179,1.763,1.179,3.132v9.206h-2.054v-9.028c0-0.862-0.262-1.521-0.786-1.978c-0.524-0.457-1.251-0.686-2.181-0.686
			c-0.524,0-1.006,0.089-1.446,0.267s-0.82,0.423-1.141,0.735s-0.571,0.693-0.748,1.142c-0.178,0.448-0.266,0.942-0.266,1.483v8.064
			h-2.054v-13.111h2.054v1.725H182.173z"/>
	</g>
	<g>
		<path d="M215.754,278.439v-1.421c0.524-0.017,1.031-0.08,1.521-0.189c0.49-0.11,0.926-0.296,1.306-0.559
			c0.38-0.262,0.697-0.608,0.951-1.039c0.253-0.432,0.422-0.969,0.507-1.61h1.648v17.473h-2.13v-12.654H215.754z"/>
		<path d="M228.22,291.068c-0.702-0.271-1.314-0.65-1.839-1.142c-0.93-0.845-1.572-1.881-1.927-3.106s-0.533-2.734-0.533-4.526
			c0-1.353,0.144-2.578,0.431-3.678c0.288-1.099,0.714-2.041,1.281-2.827s1.268-1.395,2.105-1.826
			c0.837-0.431,1.805-0.646,2.904-0.646c0.862,0,1.623,0.135,2.282,0.405s1.213,0.626,1.661,1.065s0.799,0.951,1.052,1.534
			c0.254,0.583,0.415,1.188,0.482,1.813h-2.105c-0.034-0.406-0.135-0.795-0.304-1.167s-0.393-0.692-0.672-0.963
			c-0.279-0.271-0.613-0.486-1.002-0.647c-0.389-0.16-0.837-0.24-1.344-0.24c-0.846,0-1.564,0.164-2.156,0.494
			s-1.069,0.799-1.433,1.407c-0.363,0.609-0.634,1.345-0.812,2.207c-0.177,0.862-0.274,1.825-0.292,2.891h0.051
			c0.558-0.777,1.23-1.374,2.016-1.788s1.704-0.621,2.751-0.621c0.795,0,1.539,0.152,2.232,0.456
			c0.693,0.305,1.297,0.724,1.813,1.256s0.926,1.153,1.23,1.864c0.304,0.71,0.457,1.462,0.457,2.257
			c0,0.812-0.148,1.576-0.444,2.295s-0.71,1.349-1.243,1.89c-0.532,0.541-1.154,0.968-1.864,1.28s-1.471,0.47-2.283,0.47
			C229.754,291.475,228.922,291.339,228.22,291.068z M232.227,289.445c0.482-0.203,0.896-0.486,1.243-0.85s0.617-0.799,0.812-1.306
			c0.194-0.508,0.292-1.065,0.292-1.674s-0.102-1.171-0.304-1.687c-0.203-0.516-0.482-0.955-0.837-1.319
			c-0.355-0.363-0.778-0.646-1.268-0.849c-0.49-0.203-1.015-0.305-1.572-0.305c-0.625,0-1.196,0.097-1.712,0.292
			c-0.516,0.194-0.959,0.473-1.332,0.836c-0.372,0.364-0.659,0.8-0.862,1.307c-0.203,0.507-0.304,1.073-0.304,1.699
			c0,0.608,0.11,1.171,0.33,1.687s0.52,0.955,0.9,1.318s0.833,0.646,1.357,0.85c0.524,0.203,1.09,0.305,1.699,0.305
			C231.225,289.75,231.745,289.648,232.227,289.445z"/>
		<path d="M240.001,288.583v2.511h-2.46v-2.511H240.001z"/>
		<path d="M250.274,291.106c-0.659-0.229-1.222-0.583-1.687-1.065c-0.465-0.481-0.82-1.103-1.065-1.863s-0.368-1.666-0.368-2.714
			v-0.254h2.257v0.178c0,0.812,0.063,1.483,0.19,2.017c0.126,0.532,0.321,0.959,0.583,1.28s0.587,0.55,0.976,0.685
			c0.39,0.136,0.854,0.203,1.396,0.203c0.913,0,1.623-0.249,2.13-0.748s0.761-1.323,0.761-2.473v-13.391h2.282v13.543
			c0,0.727-0.109,1.391-0.329,1.99c-0.22,0.601-0.55,1.12-0.989,1.56s-0.985,0.782-1.636,1.027
			c-0.651,0.245-1.416,0.368-2.295,0.368C251.669,291.449,250.933,291.335,250.274,291.106z"/>
		<path d="M267.773,289.268h-0.025c-0.202,0.254-0.439,0.503-0.71,0.748s-0.583,0.47-0.938,0.672
			c-0.354,0.203-0.756,0.364-1.204,0.482s-0.951,0.178-1.509,0.178c-0.626,0-1.209-0.072-1.75-0.216s-1.01-0.368-1.407-0.672
			c-0.397-0.305-0.71-0.685-0.938-1.142c-0.229-0.456-0.343-0.997-0.343-1.623c0-0.777,0.144-1.411,0.432-1.901
			c0.287-0.491,0.685-0.888,1.191-1.192c0.508-0.305,1.112-0.537,1.813-0.697c0.701-0.161,1.458-0.309,2.27-0.444
			c0.457-0.067,0.879-0.139,1.269-0.215c0.389-0.076,0.723-0.178,1.001-0.305c0.279-0.127,0.495-0.296,0.647-0.507
			c0.151-0.212,0.228-0.495,0.228-0.85c0-0.744-0.253-1.314-0.761-1.712c-0.507-0.397-1.234-0.596-2.181-0.596
			c-1.065,0-1.868,0.232-2.409,0.697s-0.828,1.196-0.862,2.193h-1.979c0.018-0.626,0.136-1.213,0.355-1.763
			c0.22-0.549,0.545-1.019,0.977-1.407c0.431-0.389,0.972-0.697,1.623-0.926c0.65-0.229,1.407-0.343,2.27-0.343
			c0.693,0,1.336,0.072,1.928,0.216s1.103,0.376,1.534,0.697c0.431,0.321,0.769,0.748,1.014,1.281
			c0.246,0.532,0.368,1.188,0.368,1.965v6.239c0,0.541,0.089,0.942,0.267,1.204c0.177,0.263,0.554,0.325,1.128,0.19h0.076v1.496
			c-0.135,0.051-0.287,0.098-0.456,0.14s-0.389,0.063-0.659,0.063C268.729,291.221,267.977,290.569,267.773,289.268z
			 M265.618,289.433c0.507-0.229,0.922-0.512,1.243-0.85c0.32-0.338,0.562-0.714,0.723-1.129c0.16-0.414,0.24-0.815,0.24-1.204
			v-2.231c-0.338,0.22-0.781,0.41-1.331,0.57s-1.104,0.292-1.661,0.394c-0.507,0.101-0.989,0.202-1.445,0.304
			c-0.457,0.102-0.85,0.25-1.18,0.444c-0.329,0.194-0.592,0.443-0.786,0.748c-0.194,0.304-0.291,0.693-0.291,1.166
			c0,0.439,0.08,0.799,0.24,1.078c0.161,0.279,0.368,0.494,0.622,0.646c0.253,0.152,0.541,0.258,0.861,0.317
			c0.321,0.059,0.651,0.089,0.989,0.089C264.52,289.775,265.111,289.661,265.618,289.433z"/>
		<path d="M273.913,279.707c0.473-0.626,1.044-1.12,1.712-1.483c0.667-0.363,1.483-0.545,2.447-0.545
			c1.369,0,2.447,0.358,3.233,1.077s1.179,1.763,1.179,3.132v9.206h-2.054v-9.028c0-0.862-0.263-1.521-0.786-1.978
			c-0.524-0.457-1.252-0.686-2.182-0.686c-0.523,0-1.006,0.089-1.445,0.267s-0.82,0.423-1.141,0.735
			c-0.321,0.312-0.571,0.693-0.749,1.142c-0.177,0.448-0.266,0.942-0.266,1.483v8.064h-2.055v-13.111h2.055v1.725H273.913z"/>
		<path d="M292.682,289.293h-0.051c-0.474,0.643-1.01,1.154-1.61,1.534c-0.601,0.381-1.382,0.571-2.346,0.571
			c-1.353,0-2.426-0.381-3.221-1.142s-1.192-1.826-1.192-3.195v-9.079h2.055v9.028c0,0.862,0.258,1.525,0.773,1.991
			c0.516,0.465,1.238,0.697,2.168,0.697c0.524,0,0.998-0.094,1.42-0.279c0.423-0.186,0.782-0.443,1.078-0.773
			s0.524-0.714,0.685-1.154c0.161-0.439,0.241-0.921,0.241-1.445v-8.064h2.054v13.111h-2.054V289.293z"/>
		<path d="M304.703,289.268h-0.025c-0.202,0.254-0.439,0.503-0.71,0.748s-0.583,0.47-0.938,0.672
			c-0.354,0.203-0.756,0.364-1.204,0.482s-0.951,0.178-1.509,0.178c-0.626,0-1.209-0.072-1.75-0.216s-1.01-0.368-1.407-0.672
			c-0.397-0.305-0.71-0.685-0.938-1.142c-0.229-0.456-0.343-0.997-0.343-1.623c0-0.777,0.144-1.411,0.432-1.901
			c0.287-0.491,0.685-0.888,1.191-1.192c0.508-0.305,1.112-0.537,1.813-0.697c0.701-0.161,1.458-0.309,2.27-0.444
			c0.457-0.067,0.879-0.139,1.269-0.215c0.389-0.076,0.723-0.178,1.001-0.305c0.279-0.127,0.495-0.296,0.647-0.507
			c0.151-0.212,0.228-0.495,0.228-0.85c0-0.744-0.253-1.314-0.761-1.712c-0.507-0.397-1.234-0.596-2.181-0.596
			c-1.065,0-1.868,0.232-2.409,0.697s-0.828,1.196-0.862,2.193h-1.979c0.018-0.626,0.136-1.213,0.355-1.763
			c0.22-0.549,0.545-1.019,0.977-1.407c0.431-0.389,0.972-0.697,1.623-0.926c0.65-0.229,1.407-0.343,2.27-0.343
			c0.693,0,1.336,0.072,1.928,0.216s1.103,0.376,1.534,0.697c0.431,0.321,0.769,0.748,1.014,1.281
			c0.246,0.532,0.368,1.188,0.368,1.965v6.239c0,0.541,0.089,0.942,0.267,1.204c0.177,0.263,0.554,0.325,1.128,0.19h0.076v1.496
			c-0.135,0.051-0.287,0.098-0.456,0.14s-0.389,0.063-0.659,0.063C305.659,291.221,304.906,290.569,304.703,289.268z
			 M302.548,289.433c0.507-0.229,0.922-0.512,1.243-0.85c0.32-0.338,0.562-0.714,0.723-1.129c0.16-0.414,0.24-0.815,0.24-1.204
			v-2.231c-0.338,0.22-0.781,0.41-1.331,0.57s-1.104,0.292-1.661,0.394c-0.507,0.101-0.989,0.202-1.445,0.304
			c-0.457,0.102-0.85,0.25-1.18,0.444c-0.329,0.194-0.592,0.443-0.786,0.748c-0.194,0.304-0.291,0.693-0.291,1.166
			c0,0.439,0.08,0.799,0.24,1.078c0.161,0.279,0.368,0.494,0.622,0.646c0.253,0.152,0.541,0.258,0.861,0.317
			c0.321,0.059,0.651,0.089,0.989,0.089C301.449,289.775,302.041,289.661,302.548,289.433z"/>
		<path d="M310.843,280.163c0.389-0.642,0.917-1.191,1.585-1.647c0.668-0.457,1.441-0.686,2.32-0.686
			c0.186,0,0.338,0.013,0.456,0.038s0.245,0.063,0.381,0.114v1.979h-0.076c-0.152-0.051-0.292-0.085-0.419-0.102
			c-0.126-0.017-0.291-0.025-0.494-0.025c-0.507,0-0.989,0.093-1.445,0.279c-0.457,0.186-0.862,0.447-1.218,0.786
			c-0.354,0.338-0.634,0.756-0.837,1.255c-0.202,0.499-0.304,1.053-0.304,1.661v7.278h-2.055v-13.111h2.055v2.181H310.843z"/>
		<path d="M326.11,283.156v1.876h-6.796v-1.876H326.11z"/>
		<path d="M334.012,288.114c0.397-0.82,0.904-1.534,1.521-2.144c0.617-0.608,1.302-1.146,2.055-1.61
			c0.752-0.465,1.509-0.917,2.27-1.356c0.575-0.321,1.086-0.63,1.534-0.926s0.833-0.608,1.154-0.938
			c0.321-0.329,0.566-0.688,0.735-1.077c0.169-0.39,0.253-0.846,0.253-1.37c0-1.064-0.338-1.927-1.014-2.587
			c-0.677-0.659-1.598-0.988-2.765-0.988c-0.608,0-1.141,0.097-1.598,0.291c-0.456,0.194-0.846,0.461-1.166,0.799
			c-0.339,0.372-0.588,0.82-0.749,1.345c-0.16,0.523-0.24,1.233-0.24,2.13h-2.231c0-1.116,0.139-2.046,0.418-2.789
			c0.279-0.744,0.688-1.387,1.229-1.928c0.559-0.541,1.227-0.947,2.004-1.218s1.614-0.405,2.511-0.405
			c0.879,0,1.678,0.131,2.396,0.393c0.719,0.263,1.331,0.63,1.839,1.104c0.507,0.474,0.896,1.035,1.166,1.687
			c0.271,0.65,0.406,1.365,0.406,2.143c0,0.846-0.136,1.56-0.406,2.144c-0.271,0.583-0.634,1.095-1.09,1.534
			c-0.457,0.439-0.994,0.841-1.61,1.204c-0.617,0.364-1.272,0.74-1.966,1.129c-0.474,0.254-0.964,0.537-1.471,0.85
			c-0.508,0.312-0.985,0.65-1.433,1.015c-0.448,0.363-0.842,0.756-1.18,1.179s-0.566,0.871-0.685,1.344h9.484v2.029H333.34
			C333.391,289.927,333.614,288.934,334.012,288.114z"/>
		<path d="M346.656,278.439v-1.421c0.524-0.017,1.031-0.08,1.521-0.189c0.49-0.11,0.926-0.296,1.306-0.559
			c0.381-0.262,0.698-0.608,0.951-1.039c0.254-0.432,0.423-0.969,0.508-1.61h1.648v17.473h-2.131v-12.654H346.656z"/>
		<path d="M357.283,288.583v2.511h-2.46v-2.511H357.283z"/>
		<path d="M377.877,272.961v2.004h-10.018v5.655h8.344v1.928h-8.344v8.546h-2.282v-18.133H377.877z"/>
		<path d="M380.858,290.903c-0.786-0.363-1.45-0.857-1.991-1.483c-0.541-0.625-0.955-1.356-1.242-2.193
			c-0.288-0.837-0.432-1.729-0.432-2.676c0-0.946,0.148-1.839,0.444-2.676s0.718-1.567,1.268-2.193
			c0.55-0.625,1.205-1.12,1.966-1.483s1.605-0.545,2.536-0.545c0.98,0,1.847,0.182,2.599,0.545c0.753,0.363,1.383,0.87,1.89,1.521
			s0.892,1.429,1.154,2.333c0.262,0.904,0.393,1.897,0.393,2.979h-10.144c0.033,0.66,0.151,1.277,0.354,1.852
			c0.203,0.575,0.482,1.074,0.837,1.496c0.355,0.423,0.786,0.753,1.294,0.989c0.507,0.236,1.09,0.355,1.749,0.355
			c0.964,0,1.75-0.225,2.358-0.672c0.609-0.448,1.032-1.12,1.269-2.017h2.003c-0.304,1.42-0.946,2.511-1.927,3.271
			s-2.215,1.142-3.703,1.142C382.536,291.449,381.645,291.267,380.858,290.903z M381.784,279.593
			c-0.474,0.212-0.875,0.508-1.205,0.888c-0.33,0.381-0.601,0.828-0.812,1.344s-0.351,1.069-0.418,1.661h7.887
			c-0.067-1.318-0.427-2.35-1.078-3.094c-0.65-0.744-1.568-1.115-2.751-1.115C382.798,279.276,382.257,279.382,381.784,279.593z"/>
		<path d="M394.49,290.979c-0.659-0.329-1.259-0.866-1.8-1.61h-0.051v1.725h-2.055v-18.133h2.055v6.898h0.051
			c0.49-0.677,1.073-1.209,1.75-1.598c0.676-0.389,1.496-0.583,2.46-0.583c0.828,0,1.585,0.156,2.27,0.469s1.271,0.761,1.763,1.344
			c0.49,0.584,0.87,1.307,1.141,2.169s0.406,1.834,0.406,2.916c0,1.048-0.127,1.999-0.381,2.854
			c-0.254,0.854-0.625,1.58-1.116,2.181c-0.49,0.6-1.086,1.061-1.787,1.382c-0.702,0.321-1.492,0.482-2.371,0.482
			C395.928,291.475,395.15,291.31,394.49,290.979z M398.308,289.356c0.465-0.262,0.85-0.621,1.153-1.078
			c0.305-0.456,0.533-0.997,0.686-1.623c0.151-0.625,0.228-1.31,0.228-2.054c0-0.727-0.076-1.407-0.228-2.041
			c-0.152-0.635-0.381-1.184-0.686-1.648c-0.304-0.466-0.685-0.829-1.141-1.091c-0.457-0.262-0.998-0.394-1.623-0.394
			c-0.71,0-1.332,0.136-1.864,0.406s-0.968,0.643-1.306,1.115c-0.339,0.474-0.592,1.023-0.761,1.648
			c-0.17,0.626-0.254,1.294-0.254,2.004c0,0.744,0.084,1.429,0.254,2.054c0.169,0.626,0.427,1.167,0.773,1.623
			c0.347,0.457,0.781,0.816,1.306,1.078s1.133,0.394,1.826,0.394C397.297,289.75,397.843,289.618,398.308,289.356z"/>
		<path d="M405.778,280.163c0.389-0.642,0.917-1.191,1.585-1.647c0.668-0.457,1.441-0.686,2.32-0.686
			c0.186,0,0.338,0.013,0.456,0.038s0.245,0.063,0.381,0.114v1.979h-0.076c-0.152-0.051-0.292-0.085-0.419-0.102
			c-0.126-0.017-0.291-0.025-0.494-0.025c-0.507,0-0.989,0.093-1.445,0.279c-0.457,0.186-0.862,0.447-1.218,0.786
			c-0.354,0.338-0.634,0.756-0.837,1.255c-0.202,0.499-0.304,1.053-0.304,1.661v7.278h-2.055v-13.111h2.055v2.181H405.778z"/>
		<path d="M419.854,289.293h-0.051c-0.474,0.643-1.01,1.154-1.61,1.534c-0.601,0.381-1.382,0.571-2.346,0.571
			c-1.353,0-2.426-0.381-3.221-1.142s-1.192-1.826-1.192-3.195v-9.079h2.055v9.028c0,0.862,0.258,1.525,0.773,1.991
			c0.516,0.465,1.238,0.697,2.168,0.697c0.524,0,0.998-0.094,1.42-0.279c0.423-0.186,0.782-0.443,1.078-0.773
			s0.524-0.714,0.685-1.154c0.161-0.439,0.241-0.921,0.241-1.445v-8.064h2.054v13.111h-2.054V289.293z"/>
		<path d="M431.876,289.268h-0.025c-0.202,0.254-0.439,0.503-0.71,0.748s-0.583,0.47-0.938,0.672
			c-0.354,0.203-0.756,0.364-1.204,0.482s-0.951,0.178-1.509,0.178c-0.626,0-1.209-0.072-1.75-0.216s-1.01-0.368-1.407-0.672
			c-0.397-0.305-0.71-0.685-0.938-1.142c-0.229-0.456-0.343-0.997-0.343-1.623c0-0.777,0.144-1.411,0.432-1.901
			c0.287-0.491,0.685-0.888,1.191-1.192c0.508-0.305,1.112-0.537,1.813-0.697c0.701-0.161,1.458-0.309,2.27-0.444
			c0.457-0.067,0.879-0.139,1.269-0.215c0.389-0.076,0.723-0.178,1.001-0.305c0.279-0.127,0.495-0.296,0.647-0.507
			c0.151-0.212,0.228-0.495,0.228-0.85c0-0.744-0.253-1.314-0.761-1.712c-0.507-0.397-1.234-0.596-2.181-0.596
			c-1.065,0-1.868,0.232-2.409,0.697s-0.828,1.196-0.862,2.193h-1.979c0.018-0.626,0.136-1.213,0.355-1.763
			c0.22-0.549,0.545-1.019,0.977-1.407c0.431-0.389,0.972-0.697,1.623-0.926c0.65-0.229,1.407-0.343,2.27-0.343
			c0.693,0,1.336,0.072,1.928,0.216s1.103,0.376,1.534,0.697c0.431,0.321,0.769,0.748,1.014,1.281
			c0.246,0.532,0.368,1.188,0.368,1.965v6.239c0,0.541,0.089,0.942,0.267,1.204c0.177,0.263,0.554,0.325,1.128,0.19h0.076v1.496
			c-0.135,0.051-0.287,0.098-0.456,0.14s-0.389,0.063-0.659,0.063C432.832,291.221,432.079,290.569,431.876,289.268z
			 M429.721,289.433c0.507-0.229,0.922-0.512,1.242-0.85c0.321-0.338,0.562-0.714,0.724-1.129c0.16-0.414,0.24-0.815,0.24-1.204
			v-2.231c-0.338,0.22-0.781,0.41-1.331,0.57s-1.104,0.292-1.661,0.394c-0.507,0.101-0.989,0.202-1.445,0.304
			c-0.457,0.102-0.85,0.25-1.18,0.444c-0.329,0.194-0.592,0.443-0.786,0.748c-0.194,0.304-0.291,0.693-0.291,1.166
			c0,0.439,0.08,0.799,0.24,1.078c0.161,0.279,0.368,0.494,0.621,0.646c0.254,0.152,0.541,0.258,0.862,0.317
			c0.321,0.059,0.651,0.089,0.989,0.089C428.622,289.775,429.214,289.661,429.721,289.433z"/>
		<path d="M438.015,280.163c0.389-0.642,0.917-1.191,1.585-1.647c0.668-0.457,1.441-0.686,2.32-0.686
			c0.186,0,0.338,0.013,0.456,0.038s0.245,0.063,0.381,0.114v1.979h-0.076c-0.152-0.051-0.292-0.085-0.419-0.102
			c-0.126-0.017-0.291-0.025-0.494-0.025c-0.507,0-0.989,0.093-1.445,0.279c-0.457,0.186-0.862,0.447-1.218,0.786
			c-0.354,0.338-0.634,0.756-0.837,1.255c-0.202,0.499-0.304,1.053-0.304,1.661v7.278h-2.055v-13.111h2.055v2.181H438.015z"/>
		<path d="M446.385,278.439v-1.421c0.524-0.017,1.031-0.08,1.521-0.189c0.49-0.11,0.926-0.296,1.306-0.559
			c0.381-0.262,0.698-0.608,0.951-1.039c0.254-0.432,0.423-0.969,0.508-1.61h1.648v17.473h-2.131v-12.654H446.385z"/>
		<path d="M458.267,291.106c-0.719-0.245-1.34-0.588-1.864-1.027c-0.523-0.439-0.942-0.977-1.255-1.61s-0.486-1.331-0.52-2.092
			h2.155c0.084,0.964,0.448,1.754,1.091,2.371c0.642,0.617,1.547,0.926,2.713,0.926c0.659,0,1.23-0.093,1.712-0.279
			c0.481-0.186,0.892-0.474,1.23-0.862c0.523-0.558,0.899-1.314,1.128-2.27s0.368-2.084,0.419-3.386h-0.051
			c-0.559,0.71-1.234,1.256-2.029,1.636c-0.794,0.381-1.716,0.57-2.764,0.57c-0.795,0-1.543-0.151-2.245-0.456
			c-0.701-0.305-1.314-0.723-1.838-1.255c-0.524-0.533-0.938-1.154-1.243-1.864c-0.304-0.71-0.456-1.463-0.456-2.257
			c0-0.812,0.147-1.577,0.443-2.296c0.296-0.718,0.719-1.348,1.269-1.889c0.549-0.541,1.195-0.968,1.939-1.281
			c0.744-0.312,1.556-0.469,2.435-0.469c0.862,0,1.623,0.118,2.282,0.354c0.66,0.237,1.234,0.55,1.725,0.938
			c0.998,0.761,1.683,1.779,2.055,3.057c0.372,1.276,0.558,2.887,0.558,4.831c0,1.774-0.19,3.292-0.57,4.552
			c-0.381,1.26-1.002,2.27-1.864,3.03c-1.065,0.93-2.426,1.396-4.083,1.396C459.775,291.475,458.985,291.352,458.267,291.106z
			 M462.286,283.029c0.524-0.203,0.968-0.486,1.331-0.85c0.364-0.363,0.647-0.803,0.85-1.318c0.203-0.516,0.305-1.078,0.305-1.687
			c0-0.609-0.109-1.167-0.33-1.674c-0.22-0.508-0.523-0.942-0.912-1.307c-0.39-0.363-0.842-0.646-1.357-0.85
			c-0.516-0.202-1.061-0.304-1.636-0.304c-0.608,0-1.162,0.102-1.661,0.304c-0.498,0.203-0.93,0.486-1.293,0.85
			c-0.363,0.364-0.646,0.799-0.85,1.307c-0.203,0.507-0.305,1.064-0.305,1.674c0,0.608,0.106,1.171,0.317,1.687
			s0.503,0.955,0.875,1.318s0.808,0.646,1.306,0.85c0.499,0.203,1.027,0.305,1.585,0.305
			C461.17,283.334,461.762,283.232,462.286,283.029z"/>
		<path d="M470.759,286.567c0.423-1.497,0.964-2.921,1.623-4.273s1.421-2.596,2.282-3.729c0.862-1.132,1.784-2.096,2.765-2.891
			v-0.051h-9.916v-1.902h12.147v1.75c-0.896,0.778-1.767,1.708-2.611,2.79c-0.846,1.082-1.61,2.286-2.296,3.613
			c-0.685,1.327-1.251,2.765-1.699,4.312c-0.447,1.547-0.714,3.183-0.799,4.907h-2.282
			C470.074,289.572,470.336,288.063,470.759,286.567z"/>
		<path d="M479.94,278.439v-1.421c0.524-0.017,1.031-0.08,1.521-0.189c0.49-0.11,0.926-0.296,1.306-0.559
			c0.381-0.262,0.698-0.608,0.951-1.039c0.254-0.432,0.423-0.969,0.508-1.61h1.648v17.473h-2.131v-12.654H479.94z"/>
	</g>
</g>
</svg>
