<?xml version="1.0" encoding="utf-8"?>
<!-- Generator: Adobe Illustrator 19.2.0, SVG Export Plug-In . SVG Version: 6.00 Build 0)  -->
<svg version="1.1" xmlns="http://www.w3.org/2000/svg" xmlns:xlink="http://www.w3.org/1999/xlink" x="0px" y="0px"
	 viewBox="0 0 500 500" style="enable-background:new 0 0 500 500;" xml:space="preserve">
<g id="Calque_2">
</g>
<g id="Calque_1">
	<g>
		<path d="M91.417,217.351c5.526,0,9.733,1.516,12.618,4.548c1.076,1.125,1.908,2.434,2.495,3.926
			c0.587,1.491,0.88,3.167,0.88,5.025c0,2.935-0.746,5.294-2.238,7.079s-3.558,3.094-6.199,3.925v0.221
			c1.467,0.343,2.849,0.868,4.145,1.577c1.296,0.709,2.421,1.59,3.375,2.641c0.954,1.052,1.7,2.287,2.237,3.705
			c0.538,1.419,0.807,3.008,0.807,4.769c0,2.055-0.33,3.926-0.99,5.612c-0.66,1.688-1.602,3.167-2.825,4.438
			c-1.467,1.565-3.313,2.788-5.539,3.669c-2.225,0.88-4.756,1.32-7.593,1.32H69.188v-52.455H91.417z M98.13,237.562
			c1.785-1.492,2.678-3.607,2.678-6.347c0-2.543-0.819-4.536-2.458-5.979c-1.638-1.443-3.925-2.165-6.859-2.165h-15.7V239.8h14.82
			C93.838,239.8,96.345,239.054,98.13,237.562z M100.514,261.222c0.734-0.782,1.309-1.675,1.724-2.678
			c0.416-1.002,0.624-2.14,0.624-3.411c0-3.277-1.039-5.723-3.118-7.336c-2.079-1.614-4.708-2.422-7.887-2.422H75.791v18.488h16.507
			C95.917,263.863,98.656,262.982,100.514,261.222z"/>
		<path d="M119.149,238.186c1.125-1.858,2.654-3.448,4.585-4.769c1.932-1.32,4.169-1.98,6.713-1.98c0.538,0,0.978,0.036,1.321,0.109
			c0.342,0.073,0.709,0.184,1.1,0.33v5.723h-0.22c-0.44-0.146-0.843-0.244-1.21-0.293c-0.367-0.049-0.843-0.073-1.43-0.073
			c-1.468,0-2.861,0.269-4.182,0.807c-1.32,0.538-2.494,1.296-3.521,2.274c-1.027,0.978-1.834,2.188-2.421,3.631
			c-0.587,1.443-0.88,3.045-0.88,4.806v21.056h-5.942v-37.93h5.942v6.31H119.149z"/>
		<path d="M141.671,217.351v7.336h-5.942v-7.336H141.671z M141.671,231.876v37.93h-5.942v-37.93H141.671z"/>
		<path d="M154.914,269.512c-2.079-0.929-3.839-2.262-5.282-3.998s-2.556-3.839-3.338-6.31c-0.783-2.47-1.174-5.221-1.174-8.253
			c0-3.13,0.428-5.942,1.284-8.438c0.856-2.494,2.03-4.585,3.521-6.272s3.252-2.983,5.282-3.888c2.03-0.905,4.218-1.357,6.566-1.357
			c2.69,0,5.038,0.587,7.043,1.761s3.62,2.665,4.842,4.476h0.146v-19.882h5.943v52.455h-5.943v-4.622h-0.146
			c-1.418,1.858-3.057,3.277-4.916,4.255c-1.858,0.979-4.133,1.468-6.823,1.468C159.328,270.906,156.992,270.441,154.914,269.512z
			 M167.569,264.78c1.516-0.758,2.763-1.798,3.742-3.118c0.978-1.32,1.7-2.886,2.164-4.695c0.465-1.81,0.697-3.79,0.697-5.942
			c0-2.201-0.256-4.219-0.77-6.053s-1.284-3.411-2.311-4.731c-1.027-1.321-2.299-2.348-3.815-3.082
			c-1.516-0.733-3.252-1.1-5.209-1.1c-1.81,0-3.387,0.379-4.732,1.137c-1.345,0.758-2.47,1.81-3.375,3.154
			c-0.905,1.346-1.59,2.935-2.054,4.769c-0.465,1.835-0.697,3.803-0.697,5.906c0,2.152,0.232,4.133,0.697,5.942
			c0.464,1.81,1.149,3.375,2.054,4.695s2.042,2.36,3.411,3.118c1.37,0.758,2.959,1.137,4.769,1.137
			C164.243,265.917,166.053,265.538,167.569,264.78z"/>
		<path d="M188.955,279.637c-2.714-1.858-4.243-4.427-4.585-7.703h5.502c0.293,2.103,1.37,3.595,3.228,4.475
			c1.859,0.881,4.255,1.32,7.19,1.32c3.521,0,6.211-0.794,8.07-2.384c1.859-1.59,2.788-4.047,2.788-7.373v-5.355H211
			c-1.418,1.81-2.959,3.24-4.622,4.292c-1.663,1.051-3.864,1.577-6.603,1.577c-2.445,0-4.683-0.465-6.713-1.395
			c-2.03-0.929-3.778-2.225-5.246-3.888s-2.604-3.644-3.411-5.942c-0.807-2.299-1.21-4.818-1.21-7.557
			c0-2.935,0.428-5.563,1.284-7.887s2.03-4.292,3.521-5.906s3.216-2.837,5.172-3.668c1.956-0.831,4.035-1.247,6.236-1.247
			c2.788,0,5.099,0.501,6.933,1.504c1.834,1.003,3.387,2.409,4.659,4.219h0.147v-4.843h5.942v35.876
			c0,2.494-0.391,4.658-1.174,6.492s-1.908,3.362-3.375,4.585c-1.468,1.223-3.229,2.128-5.282,2.715
			c-2.055,0.587-4.329,0.88-6.823,0.88C195.496,282.424,191.669,281.495,188.955,279.637z M205.572,262.433
			c1.467-0.709,2.641-1.699,3.521-2.972c0.88-1.271,1.516-2.763,1.907-4.475c0.392-1.712,0.587-3.57,0.587-5.576
			c0-4.157-0.917-7.434-2.751-9.83c-1.834-2.397-4.781-3.596-8.84-3.596c-3.57,0-6.249,1.272-8.034,3.815s-2.678,5.869-2.678,9.978
			c0,4.157,0.917,7.483,2.751,9.978c1.834,2.494,4.512,3.741,8.033,3.741C202.27,263.496,204.104,263.142,205.572,262.433z"/>
		<path d="M231.14,269.256c-2.274-1.052-4.194-2.482-5.759-4.292s-2.763-3.925-3.595-6.347c-0.832-2.421-1.247-5.001-1.247-7.739
			c0-2.739,0.428-5.319,1.284-7.74s2.079-4.536,3.668-6.346c1.59-1.81,3.485-3.24,5.686-4.292c2.201-1.052,4.646-1.577,7.336-1.577
			c2.836,0,5.343,0.525,7.52,1.577c2.177,1.052,3.999,2.519,5.466,4.401c1.468,1.884,2.58,4.134,3.338,6.75
			c0.759,2.616,1.138,5.49,1.138,8.62h-29.346c0.098,1.907,0.44,3.692,1.027,5.355s1.394,3.106,2.421,4.329s2.274,2.176,3.742,2.86
			c1.467,0.686,3.155,1.027,5.062,1.027c2.788,0,5.062-0.647,6.823-1.944c1.761-1.296,2.983-3.24,3.668-5.832h5.796
			c-0.881,4.108-2.739,7.263-5.577,9.464c-2.836,2.201-6.407,3.302-10.711,3.302C235.994,270.833,233.414,270.307,231.14,269.256z
			 M233.817,236.535c-1.37,0.611-2.531,1.467-3.485,2.567s-1.736,2.396-2.348,3.889c-0.611,1.491-1.015,3.094-1.21,4.806h22.816
			c-0.195-3.815-1.235-6.799-3.118-8.951c-1.883-2.151-4.537-3.228-7.96-3.228C236.752,235.618,235.187,235.924,233.817,236.535z"/>
		<path d="M261.623,231.876v-11.958h5.942v11.958h7.336v4.843h-7.336v24.65c0,1.32,0.33,2.237,0.99,2.751s1.602,0.771,2.824,0.771
			c0.587,0,1.174-0.062,1.761-0.184s1.052-0.232,1.395-0.33h0.22v5.135c-0.685,0.147-1.431,0.27-2.237,0.367
			c-0.808,0.098-1.651,0.146-2.531,0.146c-2.445,0-4.451-0.55-6.016-1.65c-1.565-1.101-2.348-2.996-2.348-5.686v-25.971h-5.503
			v-4.843H261.623z"/>
		<path d="M331.465,217.351c2.299,0,4.402,0.342,6.31,1.026c1.907,0.686,3.533,1.664,4.879,2.935
			c1.345,1.272,2.396,2.788,3.154,4.549s1.138,3.717,1.138,5.869c0,3.229-0.722,5.942-2.165,8.144
			c-1.442,2.201-3.754,3.814-6.933,4.842v0.221c1.32,0.489,2.434,1.088,3.338,1.797c0.905,0.709,1.65,1.602,2.238,2.678
			c0.586,1.076,1.026,2.336,1.32,3.778c0.293,1.443,0.514,3.143,0.66,5.099c0.146,2.104,0.306,3.84,0.477,5.209
			c0.171,1.37,0.367,2.47,0.587,3.302c0.221,0.831,0.44,1.455,0.66,1.871c0.221,0.415,0.453,0.696,0.697,0.843v0.294h-7.116
			c-0.294-0.244-0.526-0.574-0.697-0.99s-0.317-1.052-0.44-1.907c-0.122-0.856-0.245-1.993-0.366-3.412
			c-0.122-1.418-0.257-3.228-0.403-5.429c-0.245-3.864-1.198-6.566-2.861-8.106c-1.663-1.541-4.255-2.312-7.776-2.312h-14.6v22.156
			h-6.604v-52.455H331.465z M329.117,242.294c3.668,0,6.42-0.855,8.254-2.567s2.751-4.06,2.751-7.043
			c0-3.229-0.808-5.637-2.421-7.227c-1.614-1.59-4.354-2.385-8.217-2.385h-15.92v19.222H329.117z"/>
		<path d="M357.509,217.351v7.336h-5.942v-7.336H357.509z M357.509,231.876v37.93h-5.942v-37.93H357.509z"/>
		<path d="M369.247,217.351v52.455h-5.942v-52.455H369.247z"/>
		<path d="M383.517,269.256c-2.274-1.052-4.194-2.482-5.759-4.292c-1.565-1.81-2.764-3.925-3.596-6.347
			c-0.831-2.421-1.247-5.001-1.247-7.739c0-2.739,0.428-5.319,1.284-7.74c0.855-2.421,2.078-4.536,3.668-6.346
			s3.485-3.24,5.686-4.292c2.201-1.052,4.646-1.577,7.337-1.577c2.837,0,5.343,0.525,7.52,1.577s3.999,2.519,5.466,4.401
			c1.467,1.884,2.58,4.134,3.338,6.75s1.138,5.49,1.138,8.62h-29.346c0.098,1.907,0.439,3.692,1.026,5.355s1.395,3.106,2.422,4.329
			c1.026,1.223,2.273,2.176,3.741,2.86c1.467,0.686,3.154,1.027,5.062,1.027c2.788,0,5.062-0.647,6.823-1.944
			c1.761-1.296,2.983-3.24,3.668-5.832h5.796c-0.88,4.108-2.738,7.263-5.575,9.464s-6.407,3.302-10.712,3.302
			C388.371,270.833,385.791,270.307,383.517,269.256z M386.194,236.535c-1.369,0.611-2.531,1.467-3.485,2.567
			c-0.953,1.101-1.736,2.396-2.348,3.889c-0.611,1.491-1.015,3.094-1.21,4.806h22.816c-0.196-3.815-1.235-6.799-3.118-8.951
			c-1.883-2.151-4.536-3.228-7.96-3.228C389.129,235.618,387.563,235.924,386.194,236.535z"/>
		<path d="M412.862,282.204c-0.808-0.098-1.627-0.317-2.458-0.66v-5.282h0.293c0.392,0.244,0.918,0.44,1.578,0.587
			s1.479,0.22,2.457,0.22c1.272,0,2.348-0.306,3.229-0.917c0.88-0.611,1.688-1.846,2.421-3.704l1.468-3.742l-14.82-36.829h6.456
			l8.95,23.624c0.294,0.831,0.588,1.675,0.881,2.53c0.293,0.856,0.562,1.651,0.807,2.385c0.294,0.88,0.587,1.712,0.881,2.494h0.146
			c0.245-0.782,0.514-1.614,0.807-2.494c0.245-0.733,0.514-1.528,0.808-2.385c0.293-0.855,0.587-1.699,0.88-2.53l8.657-23.624h6.31
			l-16.214,41.011c-0.782,1.957-1.553,3.546-2.311,4.769s-1.565,2.189-2.421,2.898c-0.856,0.709-1.761,1.186-2.715,1.431
			c-0.954,0.244-2.018,0.366-3.191,0.366C414.635,282.351,413.669,282.302,412.862,282.204z"/>
	</g>
</g>
</svg>
