<?xml version="1.0" encoding="utf-8"?>
<!-- Generator: Adobe Illustrator 20.1.0, SVG Export Plug-In . SVG Version: 6.00 Build 0)  -->
<svg version="1.1" id="Calque_1" xmlns="http://www.w3.org/2000/svg" xmlns:xlink="http://www.w3.org/1999/xlink" x="0px" y="0px"
	 viewBox="0 0 1080 1620" style="enable-background:new 0 0 1080 1620;" xml:space="preserve">
<style type="text/css">
	.st0{fill:#EEE8E8;}
	.st1{fill:#CECECC;}
	.st2{fill:#ED7A5F;}
	.st3{fill:#1A9638;}
	.st4{fill:#E83E2D;}
	.st5{fill:#3D2776;}
	.st6{fill:#0037C1;}
	.st7{fill:#EAAF9D;}
	.st8{fill:#F9CB0A;}
	.st9{fill:none;stroke:#CE1B1B;stroke-width:2;stroke-miterlimit:10;}
	.st10{fill:#DADADA;}
	.st11{fill:#010202;}
	.st12{fill:#6D6499;}
	.st13{fill:#E8EAEF;}
	.st14{fill:none;stroke:#000000;stroke-width:6;stroke-linejoin:round;stroke-miterlimit:10;}
	.st15{fill:none;}
	.st16{fill:#FFFFFF;stroke:#000000;stroke-width:4;stroke-miterlimit:10;}
	.st17{fill:none;stroke:#000000;stroke-width:4;stroke-miterlimit:10;}
	.st18{fill:none;stroke:#000000;stroke-width:4;stroke-linejoin:round;stroke-miterlimit:10;}
	.st19{stroke:#000000;stroke-width:4;stroke-linejoin:round;stroke-miterlimit:10;}
	.st20{fill:none;stroke:#000000;stroke-width:2;stroke-linejoin:round;stroke-miterlimit:10;}
</style>
<g id="affiche">
	<g id="fond">
		<polygon id="fond_blanc" class="st0" points="1079.9,0.1 1080.1,1153.9 406.4,772.6 407.1,-0.1 		"/>
		<polygon id="fond_gris" class="st1" points="0.2,0.1 406.9,-0.1 407.3,773 183.8,646.9 0,755.6 0.2,45.4 		"/>
		<polygon id="fond_rose" class="st2" points="0,1619.9 1079.9,1620.1 1079.9,1154.1 183.8,646.9 0,755.6 		"/>
	</g>
	<g id="eclair">
		<polygon id="eclair_vert" class="st3" points="575.5,0 712.1,0 897.1,280.8 814.7,462.4 903.8,620.6 854.6,708 968.7,911.2 
			948.8,942.1 959.6,908 813.8,752.1 829.6,712.2 792.9,694.8 850.4,618.1 735.6,485.6 806.4,295 		"/>
		<polygon id="eclair_rouge" class="st4" points="793.5,-0.1 950,284.8 867.7,448.1 934.6,653.6 895.6,706.6 933,745.4 925.2,756.3 
			932.4,950.9 970.5,723.5 933.2,704.6 986.5,661.1 936.1,426.3 1038.9,292.4 916.6,0 		"/>
	</g>
	<g id="forme_milieu">
		<polygon id="rectangle_bas_violet" class="st5" points="328.5,1349.7 370.3,1246.6 570.2,1240.1 613.5,1349.7 467.1,1349.7 		"/>
		<polygon id="triangle_bleu" class="st6" points="427.8,412.4 465.5,412.2 506.9,412 487.1,445.2 468,477.1 447,443.2 		"/>
		<polygon id="triangle_rose" class="st7" points="318.6,562.6 395.3,519.7 467.7,479.5 530.6,513.8 618.2,561.5 475.1,562 		"/>
		<polygon id="carré_triangles_jaunes" class="st8" points="402.5,785.3 351.2,649.1 318.6,562.6 459.9,562.2 496.1,697.3 
			401.6,643.8 		"/>
		<path id="demi_cercle_jaune" class="st8" d="M529,811.3c95.2,56.1,127,178.7,70.9,273.9s-178.7,127-273.9,70.9l49-83.3l95.4-162.2
			L529,811.3z"/>
		<polygon id="eclair_triangle" class="st6" points="575.2,561.1 459.9,562.2 496.1,697.3 401.6,643.8 402.9,829.8 405.4,1146.7 
			618.2,561.5 		"/>
		<g id="trait">
			<path id="trait4" class="st9" d="M471.9,572.8c15.3-6.4,8.2,2.9,15.8,9.2c6.1,5.1,14-1.9,21.8-0.9c0.6,10.5,1.5,34.4-16.2,23.6
				c-8.8-5.5-4.7-16.9-16.1-19.5c-0.6,7.7-2.3,25.7,4.1,31.3c5.3,4.6,7.1,0.1,13-1.1c6.2-1.3,9.8,0,15.9,1.2
				c13.8,2.6,16.7-0.8,16.9-15.2c0.2-14.7-4.9-15.9-12.1-27.3c12.5-6.2,20.4,2.7,32.6,5.8c6,1.6,10,4.4,16.8,1.1
				c6.3-3.2,5.8-8.9,14-8.2c25.2,2-14.8,32.6-16.6,39.8c-3.2,12.9,8.6,30.9,4.2,43.9c-7.2,21.3-23.2-12.6-23.7-20.7
				c-0.8-13.1,5.6-21.4,8.6-33c1.5-5.7,5.1-9.8-4.1-10.4c-5.2,9-9.7,18.8-12.5,28.9c-3,11-13.7,25.7-11.7,37
				c2,11.8,13.8,19.4,18.8,27.9c5.7,9.7,5.8,24.4,16.2,5.7c4.5-8.1,7.7-18.4,9.4-27.5c1.4-7.2,0.4-15.2,4.6-21.6
				c6.9-10.8,9.7-6.4,9.7-20.9c0-6.2-1.2-13.6,2.1-19.3c2.7-4.8,9.9-6.4,12.6-11.3c3.8-6.9-0.7-13.3-0.8-20.3
				c-3.9-0.3-7.5-1.6-10.8-3.6c-0.3-0.6,0.9,2.1,1,2.4c-8.7,3.4-17.8,1.6-25.3,9c-4.6,4.6-8.8,13.6-11,19.7
				c-5.7,15-0.7,29.2-2.2,44.3c-1.3,12.4-13,25.6-26.6,20c-7.9-3.2-12.1-24-21.5-20.1c-14.6,5.9,7.6,56.3,12.4,66.2
				c4.2,8.5,13.2,30.7,21.9,26.6c25.9-12.3-9.3-44.3-8.9-61.3c-13.9,23.4,3.3,45,2.2,69c-0.4,7.6-4.1,14.3-5.8,21.8
				c-1.7,7.1-1.9,16.3-6.1,22c-3.8-17.6,1.3-35.9-4-53.3c-6.2-20.5-16.9-7.5-28.9-18.2c-6.1-5.5-7.7-15.9-12.8-22.3
				c-5.2-6.4-13.7-14.6-20.5-19.6c-10.2-7.6-24.1-9.8-36-14c-1,13.5,8.5,16.5,18.3,19.4c11.2,3.3,14.9,5.2,20.3,17.4
				c8.2,18.8,20.1,112.6,47,109c6.4-24.4,18-71.1-19.6-71.7c-10.2,30.9,16.7,45.6,29.7,67.1c3,4.9,4.5,1.8,5,7.4
				c0.9,10.3-15.8,21.9-19.6,31.8c-2.6,6.8-1.9,12.1-3.5,19.2c-2.2,10.2-11,17.4-2.6,27.7c-1.4,0.4-3.1,0.5-4.5,0.3
				c4.1-8.1-1.6-19.1-2.2-28c-1.2-16.8,0.3-34.5-5.3-50.6c30.3-9.7-3.9,83.1-3.8,82.6c-4.7,14.4-18.9,41.3-10.7,56.7
				c9.5-12.7,26.5-48.7,2.3-53.2c-28.9-5.3-24.8,79.2-24.6,98.3c6.6-4.1,12.6-12.4,15.6-19.4c-9.7-8.3-9.1-27.1-8.3-38.7
				c0.2-3,2.9-38.2,12.9-25.5c6.7,8.6-1.9,32.7,0.6,43.8c1,4.3,3.6,8.4,5.3,12.5c-4,5.2-11.5,7.3-14.8,13.2c-3.2,5.7-3,17-5,23.6
				c-3.3,11-8.1,23.8-18.1,29.3c-2.4-5.1-8.6-12.4-3.4-17.3c-1.6-4.5-4.3-10.5-4.9-15.6c-1.2-9.4,4-10.2,5.9-17.8
				c2.9-11.3-13.1-35.5,2.1-39.6c0.2,1,0,2.3,0,3.3c-0.4-0.4-1.8-1.7-2.1-1.7c0.4,13.1-9.5,25.6-9.2,38.7c0.2,9.7-4.6,35.8,1,43.9
				c-0.7,10.6,3.4,20.2,5.2,30.3c1.7,9.7-1.5,9.6-4.4,17.4c-3.7,9.9,0.8,22.2-5.8,31c-7.5-18.3,2.6-45.9,16.4-59
				c0.1,17.2-6.5,27.5-11.3,42.5c-2.6,8.4-4.6,20.2-7.1,26.7c0-24,2-47.6,2-71.6c0-25.7-2.6-48.4-4.1-73.5
				c-0.7-11.5-3.5-31,6.3-36.7c4.6-2.6,7.9,1.2,12.1-4.1c3.1-4,1-11.8,3.7-16.4c10.4,21.7,5.6,38.6,5.2,61.2
				c-3.2-6.7-3.7-17.5-4.7-25.6c-0.7-5.8,2.4-27.9-1.8-32.9c-3-3.6-7.7,0.1-10.4-3.6c-4.6-6.1,1.2-24.6,3.7-30.3
				c4.6-10.3,23.5-36.9,24.7-13.6c0.2,4.5,1.3,22.8-5.8,24.9c-4.8,1.4-6.8-3.5-6.5-8.3c-9.7,0,1,41.4,15,20.3c6.5-9.8-1.4-42,7-47
				c10.4-6.2,13.8,12.3,13.6,18.3c-10.4-8.3-9.7-22.4-15.4-33.4c-4.5-8.7-3-7.8-11.4-3.1c-10.5,5.8-16.4,20.7-28.9,21.3
				c-1-15.9-0.8-49.4,13-58.9c0.4,9.7-0.1,21.9,3.2,31.2c4.9-5.6,14.4-17.8,21.3-19c7.8-1.4,14.5,4.3,13.3,12
				c0-12.8,8.5-32.8-4.1-41.6c-3.1,4.5-12.3,16.4-19.4,14.4c-9.3-2.6-1.9-23.7-10.8-23.5c-5.6,0.1-14.5,19.4-16.3,24.6
				c-2.3,6.9-2.9,15.7-3.3,23c1.1-6.8,11.3-30,22.4-26.1c6.4,2.2,6.7,18,15.4,18.5c4.7,0.2,10.4-7.4,15.1-9.4
				c2.4,17.7-9.7,32.3,9.5,47.1c5.4-14.5-0.1-43.2-1.2-58.9c-0.4-6.3,1.2-23.5-5.2-28.1c-9.2-6.6-14.7,7.2-18.9,13.3
				c-3.1-4.8-11.2-23.6-16.6-14c-13.1-9.7-20.5,12.9-21.5,22c0.8-9.6,5.3-23.4,13.3-29.5c8.5-6.4,17.8-8.7,25.4-16.6
				c10.1,5.7,14.6,44.8-1.9,45.2c-16.8,0.5-8.1-46-26.3-41.8c-1-4-3.3-7.9-7.2-8.1c0.2,4.6-0.5,9.4-1.3,13.9
				c9.3-6.2,12.9-9.9,19.5-20.1c4.5-6.8,11.2-15.6,20.3-15.3c-0.2,13.8,8.8,24.1,4.3,38c-11.9-1.5-21.9-23.4-27-34
				c-5-10.2,0.3-22.9-14.7-20.3c6.3-5,16-9.7,24.1-10.5c4.2,10.1,9.6,36.8-9.9,23.9c-11.5-7.7-5.9-24.9-9.4-37.5
				c9.8,8.5,23.9,11.2,33.8,19.6c6.3,5.4,6.2,11.8,11,16.9c12,12.6,27.2-10.1,40.4-10.7c3.6-13.1,17.7-48.9,2.8-62.2
				c-7.1-6.3-12.7-2.1-17.8-13.6c-4.6-9.9-5.3-20.4-9.7-30.6C475.6,587.4,473.3,579.1,471.9,572.8z"/>
			<path id="trait2" class="st9" d="M409.6,717.7c4.3-1.7,26.7-11.6,27.9-14.9c3.3-9.7-16.2-17.3-22.5-17c-0.4,0.9-0.6,1.8-1,2.6
				c-3.2-19.7,17.5-15.3,31.3-12c25.1,6.2,6.8,24,17.6,40.1c-12.3-10.6-17.7-32.1-34.5-36.9c-3.6,9.7-5.8,12,1.5,21.3
				c8.8,11.6,20.4,21.1,29.3,32.5c7.2,9.2,9.7,20.1,15.2,29.7c5.1-8.9,2-22.3-2.8-30.5c-3.5-5.8-12.5-8.1-13.4-13.7
				c11.9-1.7,36.9,17,45.2,6.1c7.7-10.1-3.9-23.3-5.3-32.9c-1.2,4.9-15.3,26.9-17.2,11.2c7.1-0.4,24.3,3.4,29.2-1.7
				c4.6-4.6,1.9-21,0.6-26.3c-1.9-7.1-6.1-9.8-9.3-15.5c-2.8-5-4.2-10.6-7-15.6c-3.2-5.6-5.6-7-6.4-14c-1.5-11.2,3.7-26.1-1.2-36.6
				c-3.8-8-13.5-12.6-15.1-21.5c20.9-1.7,42.4,1.7,63.4,0.8c12-0.5,13.5,7.6,21.9,9.2c0.8-6.7-3-13.3-5.3-19.3
				c-3.3,1.5-4.4,5.8-7.7,7.4c-6.7,3.3-17.4,0-24.4-1.3c-10-1.9-19.1,1.3-29.3-0.1c11.3,6.9,27.2,24,28.8,37.9
				c1.6,13.6-11.7,23.2-10.3,36.5c16.3,2.8,25.2-3.3,31.9-17.9c3-6.4,4.1-14.2,7.5-20.4c1.3-2.2,4.7-3.1,5.8-5.3
				c7.1-14.1,6-26.8,26.2-26.6c-0.9,0.4-3.9,4.5-5.6,6.9c-12.4,17.6-28.1,33.6-38,53c-4.8,9.4-9,19.9-12.2,29.6
				c3.8-15.3,1.4-31,7.6-46.2c3.1-7.7,6.4-12.9,3.7-21.5c12.5,15.2,5.1,50.6,5.1,68c0,24-2.1,45-7.2,68.3
				c-4.5,20.6-2.7,52.8-20.4,67c-3.8-15.9-2.4-33.2,0.1-49.2c3-19.7,0.1-38.6,0.8-58.3c0,26.4,4.2,61.9-14.5,83.8
				c-13.1-9-14.7-29.5-18.3-42.8c-1.9,25.2,7.6,49.3,7,74.6c-0.4,15.7-4.4,30.5-7.8,45.8c-3.3,15.3-2.8,34.1-9.7,47.8
				c-3.2-26.7-4.2-60.5,5.7-85.9c4-10.4,9.7-20.3,14-30.5c3.3-7.7,6.9-29.5,15.4-33.4c0.6,24.4-4.5,50.2-7,74.5
				c-2.3,22-13.5,41.7-16,64.5c7.1-28.9,16.7-59.3,26.4-87.3c-6.8,11.4-10.5,24.2-15.1,36.6c-8.1,21.6-17.7,42.6-24.4,64.8
				c-3.7,12.5-6.7,25.2-7.8,38.2c-0.7,8.3,1.8,25-2.2,32.6c-7.3,13.9-31.3,1.9-37.1-9.8c-11.2-22.3,16.7-58.7,37.9-63.2
				c5.8,25.2-13,43.3-17.4,66.2c-18.6-13.6-31.3-50.4-32.1-72.2c-0.9-23.2,13-29.4,27.4-44.5c14.2-14.8,17.3-21,4-36.7
				c5,17,9.5,33.8,11,51.6c0.4,4.9,4.3,27.2,0,31.3c-6.8,6.6-10.5-5.7-13-12.2c-7.5-20-12.8-55,2.3-72.3c5.3-5.9,14.7-3.3,18.8-8.2
				c5.8-7-5.8-23.8-8.2-29.8c-3.2-8.1-5.9-32.5-18.7-26.5c-10.6,5-18,43.5-18,53.5c0.1,14.3,7.3,10.3,17.5,17.4
				c11.5,7.8,7.3,17.4,5.3,31.3c-4,27.2-8.2,54.3-10.3,81.7c-0.9,10.7-2.8,19.5-7,29.3c-2,4.8-9.3,13.4-9.3,17.8
				c-0.2,16.5,16.5,13.6,26.4,12.5c1.6,10.3-15,18.2-18,27.9c-3.1,9.8,1.9,21-0.7,31.5c-3.1,12.6-4.3,34.4-10.7,44.8
				c-2.2-19,3-41.1,9.1-59.1c5-14.7,15.3-26.3,14.4-42.4c0,11.9,0,23.7,2.1,35.4c0.4-13.4-7.1-31.1-9.9-44.1
				c-2.4-11.3-6.1-21.3-9.6-32.2c-4.3-13.7-6.4-29.3-6.6-43.7c-5.3,11.3-7,52.3-0.9,64.5c10.4-22,14.1-57.7,16.6-81.6
				c2.4-24.4,1.4-49.3,5.5-73.5c1.5,8,1.9,17.4,2.4,25.7c1.4,16.6,2,33.1,2.3,49.8c0.1,4.2,2.3,18.7,0,22.7
				c-9.3,16.2-15.9-22.5-17.5-30c-2.3-10.7-5.4-20.7-6.3-31.7c-0.8-8.6-4.8-28.2,0.3-36.1c8.2-12.9,17,3.1,27.9,2.9
				c9.1-15.9,6.9-67-3.1-83.1c-2.5,15.1,1.9,34.9-3.2,48.7c-15.5,0-12.3-25.2-22.6-29.7c-0.6,11.4-0.6,22.7,2.2,33.9
				c5.3-22.4,0.8-52.6,14-73.1c0,6.2-5.2,13.1-12.1,12.2C415,726.3,415.8,721.4,409.6,717.7z"/>
			<path id="trait3" class="st9" d="M431.4,1044.7c-1.3-4.6-5.8-4.6-9.9-4.4c-1.7-5.4,1.1-12.1-0.9-17.1
				c-2.7-6.6-12.2-5.8-13.6-12.2c-1.8-8.5,12.3-21,14.1-7.6c0.7,5.6-3.3,5-5.9,10.5c-3.3,7.1,0.5,14.9-0.3,22.2
				c-1,9.1-3.2,8.6-0.3,17.2c1.5,4.6,1.6,12.6,5.1,15.8c3.6-7.3,4.5-16.3,5.8-24.2c-12.6-2.7,8-31.1,10.1-36.8
				c-6.6-5-11-3.7-10-12.9c0.9-8,2.3-12.8-8.6-15.2c-0.2-8.1,1.6-14.9,3.7-22.6c-0.9,0.7-2.1,1.4-2.9,1.8c5.1-4.5,17.8-7.4,21.4-0.4
				c4.6,8.9-8.4,19.6-5.9,27.9c-3-0.3-5.6-2.4-6.8-5c9.8,2.7,4.7,23.4,6.4,31.1c0.5,2.6,2.7,2.2,2.9,5.8c0.2,4.8-4.5,10.5-5.8,15.2
				c5.5-11,12-19.4,14.4-32.1c2.3-11.8,3.2-23.7,7.1-35.1c-7,0.4-13.5,3.4-20,5.6c-0.1-14.6-5.3-6.5-14.3-5.1
				c-0.2-3.9,1.4-9.4-4.3-8.6c-0.9-6,4.4-12.3,6.8-17.6c-0.6,0-1.8-0.3-2.5-0.3c-0.2-3,0-6.1-0.2-9.1c-1.4,0.3-3.4-0.5-4.8-0.2
				c-0.4-1.7-0.4-4.6,0-6.2c0.2,0,1.8,0,1.9,0c0.8,15.1-3.7,28.8-4.2,43.7c-0.3,8.7,3.8,16.4,3.7,24.9c14-9.6,21.3-27.6,21.5-44.2
				c0.2-14.6,9.3-30.6,24.3-34.5c3.5,18.7-25.2,33.4-22.9,52c0.4,2.9,2.5,5.6,2.9,9c0.7,6.6-3.5,11.2-3.5,17.1
				c7.6,1.8,10.1-4.7,11.4-10.4c2.8-12.7,0.9-21,8.6-32.7c4.2-6.4,7.8-12.6,5-21.4c-0.9-2.7-3.7-7.3-7.1-6.5
				c-6.5,1.5-6,18.3-5.8,22.4c0.3,5.5,4.4,13.9,2.9,19.2c-1.3,4.5-5.1,7.1-8.7,2.8c-7-8.5-0.2-31.1,5.2-38.8
				c4.4-6.3,13.2-11.3,16.4-18.3c1.4-3,2.3-5.6-0.1-8.8c-4.6-6-8.5-3.4-11.7,0.3c-5.5,6.2-9.7,24.6-19.6,16.2
				c-14-11.9,2.5-20,9.3-27.2c8.3-8.9-10.1-13.7-15.9-7.2c-9.2,10.2,1.8,30.2-3,41.6c-5.3,12.7-10.8-11.1-10.6-16.8
				c0.3-13.2-0.6-28.1,1.5-41c1.8-11.5,10.4-5.8,16.5,1c12.7,14.2-19,98.8,9.7,97c13.5-0.9,18.9-31.6,19.7-42.6
				c0.8-10-4.8-31,3.2-38.8c12.7-12.5,9.8,27.6,7.5,34.5c-0.7-7.4,10.9-16.5,15.9-21.3c-1.9-1.3-7.5-1.7-8.8-3.2
				c-2.3-2.9-0.6-10.3-0.8-13.9c-19.2,0-17.3-19.4-12.7-34.4c-6.3-0.6-12.6,1.1-18.8,0.5c-0.3-6.6-6.4-9-9.6-14.1
				c-5.9-9.7,0-21.2,4.3-30.5c-3.3,0.2-15.2,0.5-17.7,2.5c-5.1,3.9-4.2,15.3-2.6,20.4c1.7,5.1,12,19.1,18,10.7
				c3.4-4.8-2.8-15.5-5.6-19.7c-2,1.8-4.8,3.2-7.6,2.7c-1.8-14.2,16.1-20.7,26.3-12.9c6.7,5.2,10.9,14.2,18.8,17.7
				c4.8,2.1,10.6,1.7,15.7,1.8c1.1,8.9-3.1,17.7-3.6,26.7c-0.3,6.8,0,29.4-10,29.3c-10.1-0.1-4.6-37-3.5-43.5
				c2.6-16.7-1.7-34.2-4.4-50.6c-2.2-13.4-2.9-26-2.9-39.7c0-4.9,1.3-36.7,12.7-25.1c6,6.1,4.7,23.8,4.6,31.5
				c-0.1,9.7-2.4,18.5-4.5,28c-4.1,18.5-7.2,41.7,1.5,59.4c3.4,7,5.6,9.4,10.9,4.3c10.9-10.5,6.9-40.7,5.8-53.8
				c-1-12.6-2.9-26.1-1.5-38.8c1.4-12.1,1.8-19.2-6.9-29.1c-9.9-11.1-20.1-21.3-29.8-32.5c-6.4-7.4-19.7-16.2-30.1-10.6
				c-9,4.9-7,23.2,1,27.8c15.7,9,27.2,4.6,29.7,25.9c2.8,24,1.7,48.8,1.8,72.9c0,7.1,2.7,29.2-7.6,32.9
				c-11.7,4.2-15.7-22.8-19.1-30.9c-1.6-3.9-4.6-10.3-9.9-10.1c-4.8,0.2-6.8,6.5-9.9,9.3c0-10.2-7.2-33.7-0.3-40.8
				c1.4,4.6,7.5,33.9-2.6,32.2c-1.3-25.2-3.1-53.2,5.7-77.4c-0.3,11.9,4.4,24.6,2.7,36.4c-4.7-4.2-1.1-18.3-0.1-23.8
				c1.2-6.3,9.5-23.6,5.1-29.1c-8.1-10-11.1,6.3-11.3,11.3c8.9,1.2,1.6-21.9,0.6-26.5c-2.6-11.7-4.8-21.1-2-32.9
				c4.4,3.5,1.2,14.4,4.9,19.2c2.2,2.8,4.1,1.1,6,5.3c1.5,3.5,1,9.4-0.9,12.2c-7.7-3.7-2.6-22.5-3.6-29.6c-1-6.9-6-9.5-7.9-15.7
				c4.8,0,11.7,9.6,15.9,12.7c4.7,3.3,9.3,5,7.6,12.3c-4.5-1.5-4.5-9.6-10.6-9.2c0.9,17.4-13.2,30.2-11.6,48.3
				c0.1,1.7-0.8,5.2,0.3,6.6c1.9,2.3,4.7,1.5,7.3,2.1c13.4,3.1,24.6,8.7,36.2,15.9c13.2,8.1,32.6,18.1,36.5,34.8
				c2.9,12.5,0.5,25.9,3.4,38.6c3.5,15.1,8.6,28.2,8.1,44.1c-0.3,10.4-6,17.6-10.1,27c-3.7,8.6-7.2,19.2-9.5,28.3
				c-3.4-12.6,1.8-28.4,4.5-41c6.4-30.1,12.1-60.4,16-90.9c2.3-18.3,8.3-41.1-12.6-49.1c-12.3-4.7-25.2-7.8-37.6-12.3
				c-11-4-6.8-17.4-8.7-28.1c-0.6,8.4,0.1,16.9,0.4,25.4c0.3,8.3-3.5,26.5,0.9,34.1c7.5,13,26.7-7.9,35.2,0.6
				c6.8,6.8-0.3,26.5-3.9,33.3c-4,7.4-11.8,16.5-21.3,16c-12.3-0.7-16.9-15.2-17.7-25.2c-1-12.5,3.7-21.8,10.6-32.2
				c7.9-11.9,14.9-22.6,29.4-22.4c11,0.1,21.2,2.9,11.3-7.5c-7.6-8-15.3-16.4-20.9-25.9c10.8,6.7,18.2,7.6,3.1,15.6
				c-3.9-4.5-6.5-10.8-8.5-16.6c-0.7,2.9-1.9,5.6-4.3,7.1c-1.9-3.8-3.3-7.8-5.4-11.5c-0.6,2.6-1.4,5.5-3.3,7.3
				c0.5-9.1-5.6-16.7-11.5-22.8c-1.9,13.3,21.1,27.6,30.4,33.2c8.5,5.1,27.5,17.1,37.4,13.5c-4.3-4.3-11.8-10.4-17.3-12.9
				c-3-1.3-6.5-0.5-9.7-2.2c5.4,10.5,29.2,0.6,32.4,12.5c2.3,8.8-5.4,20-3.2,29.1c2.1,8.7,19.6,18.6,29.2,15.8
				c9-2.6,7.2-20.2-3-18.8c-1.4,17.4-8.3,33.1-12.2,49.9c-1.9,8.2,0.1,27.7-9.1,31.6c-9.1-37.9,10.8-75.1,16.7-111.6
				c2.1-13.3,6.5-18-8.8-18.8c-6.5-0.3-10.8,0.6-13.2-5.7c-1.1-2.9,1-7-0.2-9.7c-0.8-1.8-3.9-2.2-5-4.6c-1.2-2.7-0.1-8.9,0.6-11.5
				c3,0,6.2,1.1,8.1,2.9c4.5-3.9,25.9-21,18-26.6c-25.5,3.4,11.1,25.4,13.3,32.3c3.5,11.4-5.6,15.1-8,24.6
				c-1.5,5.7-2.1,23.9,4.5,26.8c14.2,6.3,22.4-70.8,22.8-80.5c0.2-4.3,6.4-28.7-5.9-22.5c-10.6,5.4-6.1,38.2-6.5,48
				c-0.7,16.5-4.3,34.8-7.2,51.1c-1,5.6-5.5,24.2-11.4,25c-0.5-6.7,3.5-26.4,11.4-18.5c3.3,3.3,3.8,14.3,2,18.5
				c-13.4,1.8-23.3-34.7-27.3-43.6c-3-6.8-7.1-13-10.7-19.5c-2.7-4.9-6.2-6.8-9.5-10.6c-2.4-2.8-2.1-4.2-4.2-8.5
				c-0.6,9.5,4.5,18.1,7.6,26.7c1.4,3.8,2.7,22.3,7.9,15.4c2.2-2.9,0.6-13.7,0.2-16.8c-0.9-8.3-4-19-7.8-26.5
				c-3.3-6.4-8.5-10.1-11.1-16.7c-1.9-4.7-4.6-10.3-4.7-15.4c-0.1-7.4,8.5-20.8,16.4-20.7c0.1,7.4-0.7,16.5,0.8,23.5
				c1.9,8.9,5.4,4.6,12.9,4.5c0.3,8.4,2,20.6-5,26.6c-8.8-12.7-1.3-24.2,8.6-33.5c8.3-7.8,13.6-16.8,16.5-27.9
				c0.1-0.6,1.3-8.5,2.3-8.9c8.2-3.5,6.9,17.4,6.1,20.3c-3.2,12.1-10.7,23.5-7.3,36.7c0.8,3.2,3.4,4.5,3.1,8.1
				c-6.9,1-8.1-10.2-7.8-15.1c0.5-7.8,4.7-11.4,11.5-14.9c9.7-5.1,32.7-1.8,30.8-17.8c-6.3-1.1-11.3-9.4-12-15.1
				c5.6-0.7,19.3,1.1,22,6.3c4.7,9-10.6,25.9-13.4,34.5c-4.2,12.9-0.3,25-5.8,38.8c-6.1,15.1-11.8,28.1-15.1,44.2
				c-1.2,5.6-1.8,20.9-10.1,21.2c-13.1,0.5-7.2-39.4-7.2-46c-17.5,0-22.5-13.4-17.7-29.8c2.8-9.4,3.6-37-11.1-29.9
				c-9.7,4.7-13.5,7.2-15-7.7c-1.2-12.4,1.2-25.9-5.9-37.5c-4.2-6.8-8.7-11.4-16.5-11.4c3.7,7.4,7.5,22.4,14.6,27.4
				c14.8,10.4,8.1-20.2,10.6-25.4c5.8-11.7,9.4,9.8,11.3,15c2.6,7.2,9.8,14.3,12.2,4.3c1.1-4.6,1.3-18.2-5.6-17.1
				c-0.4,8.4-13.5,18.7-21.5,18.5c-1.1-5.8,8.5-12.2,13.4-10c9.1,4.1,9.7,22.9,18.7,27.2c2.4-4.2,7.1-9.4,6.6-14.6
				c-0.6-6.1-5-10.5-5.1-17.5c0-10.1,12-11.8,20.9-8c10.7,4.5,10.8,22.9-4.6,9.7c-3.6-3.1-4.3-6.3-8.9-0.2c-5,6.6,0.4,14.7,7.2,17.7
				c7.6,3.4,19.5-0.4,24.9-6.3c5.3-5.8,3.3-12.6,2.3-19.3c6.5-0.4,13.3,3.3,19.3,2.9c6.8-0.5,12.6-4,20-3.6
				c1.4,7.4-6.9,23.7-12.7,27.1c-0.4-5.7-1.3-27.5,6.2-27.8c0.4,8.2,3.9,17,1.4,24.3c-2.4,6.9-22.2,48.2-26.5,26.8
				c-2.2-10.9,5.3-23.2,6.4-34.1c0.3-2.8-1.5-13,1-14.8c4.3-3.1,6.3,4.3,4.9,7.1c-2.4,4.6-9.5,1.5-13.6-0.5
				c-1.1,25,11.8,57.3-0.3,80.2c-3.9,7.3-7.5,14.7-9.9,22.7c-2.4,7.8-2.1,10.1-8,14.7c-8,6.3-18.2,10-26.7,15.6
				c-8.3,5.5-25.6,12.9-28.8,23c-4,12.3,15.8,22.3,11.8,33.9c-4.4,12.5-23.4,16.9-34.5,18.4c-5.2,0.7-21,0.6-23.1,6.7
				c-1.2,3.5,8.5,17.9,10.2,21.4c2.9,6,6.7,13.9,12.2,17.4c8.6-16.3,6.6-39,0.4-55.7c-2.9-7.9-7.3-24.3-15.4-28.3
				c-3.2,11.4-13.9,19.2-16.8,31.4c-4.6,19.5-4.7,44.7-1.3,64.4c3.9,22.9,4.3,54.5,19.3,73.5c5.1,6.5,9.6,7.6,10.8,16.5
				c0.6,4.2,0.9,8.9,0.9,13.1c0,12.9-22,25.3-26.9,38.7c-2.8,7.6-1.8,16.6-1.8,24.6c0.2,0.7,0-0.2,0-0.6c2,4.8,3,8.3,4.3,13.4
				c-3.1,0.2-8.1,3.4-10.1,5.7C435.1,1030.1,435.1,1041.6,431.4,1044.7z"/>
		</g>
		<path id="demi_cercle_gris" class="st10" d="M528.3,811.3c59.1,34.6,98.1,98.9,98.1,172.5c0,110.5-89.4,199.9-199.7,199.9
			c-11.8,0-23.4-1.1-34.6-2.9l-20.1,57c16.1,3.1,32.7,4.7,49.7,4.7c143.7,0,260.1-116.6,260.1-260.3c0-97.6-53.7-182.7-133.2-227.3
			L528.3,811.3z"/>
		<path id="demie_cercle_barre_noir" class="st11" d="M553.3,714.8l8,3.4l57.5-156.4l-41.5-0.5L525.5,703L513,738
			c98.5,37.4,168.3,132.4,168.3,243.6c0,143.9-117,260.5-261.6,260.5c-16.1,0-32.1-1.5-47.5-4.4l-12.2,36.5
			c21.6,5.1,42.3,6.7,65.5,6.7c162,0,293.5-133.3,293.5-297.9C719.1,864.4,652,762.6,553.3,714.8z"/>
		<circle id="rond_vert" class="st3" cx="406.5" cy="881.7" r="50.6"/>
		<polygon id="rectangle_bleu_droite" class="st6" points="542.8,1183.9 624.6,1231.4 698.8,1274.6 785.7,1153.4 870.4,1035.1 
			835.4,1014.8 701.9,1091.9 		"/>
		<path id="rectangle_vague_violet" class="st5" d="M403.3,864.4c0,0-95.6,0-127.2,0H70l16.5,145.5c0,0,6.9-8,25.9-14
			s40.8,2.7,57.1,2.9c34.1,0.4,58.2-40.6,68.4-46.6c10-6,19-9.8,28.1-10.3c22.9-3.3,31,4.5,49.7,4.5c17.4,0,24.7-5.3,37.6-16.1
			c9.6-9.6,16-22,25.8-29.2c6.7-4.9,24.5-8.9,24.5-8.9L403.3,864.4z"/>
		<path id="barre_vague_noir" d="M131.3,1018.1c17.2-2.4,35.6,4.4,49.9,4.5c34.1,0.4,58.2-40.6,68.4-46.6c10-6,19-9.8,28.1-10.3
			c22.9-3.3,31,4.5,49.7,4.5c17.4,0,24.7-5.3,37.6-16.1c9.6-9.6,16-22,25.8-29.2c1.5-1.1,7.1-4.9,13.4-5.8c0-3.3-0.4-27.2-0.4-27.2
			s-18,4-24.5,8.9c-9.8,7.3-16.1,19.6-25.8,29.2c-12.9,11.1-20.3,16.1-37.6,16.1c-18.7,0-26.8-7.8-49.7-4.5
			c-9.1,0.4-18.1,4.2-28.1,10.3c-10,6-34.1,47.2-68.4,46.6c-12.2-0.2-27.6-5.1-42.4-4.9L131.3,1018.1z"/>
	</g>
	<g id="rond_triangle_haut_gauche">
		<polygon id="barre_triangle_bleu" class="st6" points="310.6,317.7 237.3,235.5 237.5,565.1 310.6,484.6 268.3,445.4 310.6,400.9 
			267.2,359.6 		"/>
		<path id="rond_rose" class="st7" d="M335.1,198.5c0,21.2-7.8,40.8-20.5,55.7c-15.6,18.3-38.8,29.9-64.8,29.9
			c-21,0-40.3-7.6-55.1-20.5c-18.3-15.8-29.9-39.2-29.9-65.3c0-20.1,6.9-38.6,18.3-53.2c15.6-19.8,39.7-32.5,66.9-32.5
			c22,0,41.9,8.3,57.1,22.1C324.2,150.4,335.1,173.3,335.1,198.5z"/>
		<polygon id="triangle_violet" class="st12" points="89.1,678.9 72.9,662.4 56.1,645.1 87.4,645.1 121.9,645.1 103.4,664 		"/>
		<rect id="rectangle" x="32.2" y="206.4" class="st13" width="204.6" height="437.8"/>
		<rect x="57.1" y="547.6" class="st3" width="43.6" height="75.6"/>
		<rect x="175.5" y="547.2" class="st4" width="43.7" height="75.6"/>
	</g>
</g>
<g id="typo">
	<g id="mitsukoshi">
		<path class="st14" d="M831.7,1538c0,0-14.9,0-20.6,0c-5.7,0-7.7,5-7.7,8.3s3.3,7.6,7.1,7.6s11,0,14.5,0s7.5,3.9,7.5,8.1
			s-3.5,8.1-7.6,8.1s-22.5,0-22.5,0"/>
		<path class="st14" d="M991.1,1538c0,0-14.9,0-20.6,0c-5.7,0-7.7,5-7.7,8.3s3.3,7.6,7.1,7.6s11,0,14.5,0s7.5,3.9,7.5,8.1
			s-3.5,8.1-7.6,8.1s-22.5,0-22.5,0"/>
		<path class="st14" d="M844,1536c0,0,0,19.3,0,24.1c0,5.7,5.9,10.1,15.5,10.1s15.5-4.4,15.5-9.9c0-4.5,0-24.3,0-24.3"/>
		<polyline class="st14" points="905.7,1535.3 886.8,1553.1 907.5,1571.6 		"/>
		<path class="st14" d="M934,1537.6c-11.4,0-18,7.2-18,15.9c0,8.7,5.4,17.2,18,17.2s18-8,18-17.2S945.7,1537.6,934,1537.6z"/>
		<polyline class="st14" points="1005.4,1572 1005.4,1535.9 1005.4,1552.8 1036.8,1552.8 1036.8,1535.9 1036.8,1572 		"/>
		<line class="st14" x1="1054.2" y1="1535.9" x2="1054.2" y2="1572"/>
		<polyline class="st14" points="780.4,1572 780.4,1538 764.4,1538 780.4,1538 796.5,1538 		"/>
		<line class="st14" x1="754.1" y1="1536" x2="754.1" y2="1572"/>
		<polyline class="st14" points="736.9,1572 736.9,1536 732.8,1536 716,1570.2 713.7,1570.2 697.9,1536 694,1536 694,1572 		"/>
	</g>
	<g id="ecriture">
		<path d="M1022.8,1173.7c-0.4,0.8-0.8,1.2-1.2,1.2c0,1.2,0.8,2.7,0.4,3.1c-1.2,1.2-1.5,4.2-4.2,2.7c-0.8-0.4-1.9,0-2.7,0
			s-1.5-0.4-1.9-1.2c-0.8-0.4-1.2-1.2-1.9-2.3c0.4-0.4,0.8-1.2,1.2-1.5c-0.4-0.4-1.2-0.8-1.5-1.2c1.9-2.3,2.3-6.5,1.2-8.4
			c1.9-1.2,7.3-1.2,11.1,0C1021.3,1168.7,1021.3,1172.6,1022.8,1173.7z"/>
		<path d="M872.9,1344c2.3,0.8,0.8,2.3,0,3.1c0.4,1.5,0.8,2.3,0.8,3.5c-1.2-0.4-2.7-0.4-3.8-0.8c-1.5,0.4-2.7,0.8-4.2,1.2
			c-0.4,0-0.8-0.4-1.2-0.8c0-0.4,0-0.8,0.4-1.2c0.4-0.8,0.4-1.5,0.8-2.3l-0.8-0.4c-0.4,0.4-1.2,1.2-1.5,1.9c0,0.4-0.4,0.8-0.4,1.2
			h-0.4c0-0.4-0.4-1.2,0-1.5c1.5-3.1,0.4-6.5,0.4-9.6c0-1.5,0.4-2.3,1.9-1.9c1.9,0,3.8,0,6.1,0c1.5,0,2.7,0.8,2.3,2.7
			C873.7,1340.1,873.3,1341.7,872.9,1344z"/>
		<g>
			<path class="st15" d="M892.5,1236.6c1.2,1.2,2.3,2.3,3.5,3.5C896.3,1237.4,895.9,1235.8,892.5,1236.6z"/>
			<g>
				<path class="st15" d="M892.5,1236.6c1.2,1.2,2.3,2.3,3.5,3.5C896.3,1237.4,895.9,1235.8,892.5,1236.6z"/>
				<g>
					<path class="st15" d="M892.5,1236.6c1.2,1.2,2.3,2.3,3.5,3.5C896.3,1237.4,895.9,1235.8,892.5,1236.6z"/>
					<path d="M902.4,1237c0-1.2-0.4-2.7-1.2-3.1c-1.5-1.2-4.6,0-5.4,0.8c-1.5-0.4-2.7-0.8-4.2-0.8c0,3.1,0,5.4,0,8.1
						c0,2.3,0,4.6,0,6.9c0.4,0,0.4,0,0.8,0c0-1.5,0-2.7,0.4-4.2c0.8,0.4,1.9,0.8,1.9,1.2c0.4,2.7,2.7,3.1,5,3.1
						c2.3,0.4,3.1,0,3.1-2.7C902.8,1242.7,902.8,1239.7,902.4,1237z M896.3,1240.1c-1.2-1.2-2.3-2.3-3.5-3.5
						C895.9,1235.8,896.3,1237.4,896.3,1240.1z"/>
				</g>
			</g>
		</g>
		<path d="M1052,1166.8c0,4.2,0,8.1,0,11.9c0,2.3-0.4,2.7-2.7,2.3c-1.5-0.4-2.7-0.4-4.6-0.4c0-1.5,0-3.5-2.3-3.1
			c-0.4-1.9-0.8-3.8-1.2-6.5c0.8-1.5,1.9-3.8,3.1-6.1c1.5,1.5,2.7,2.3,4.6,1.2C1049.7,1165.7,1051.2,1166.4,1052,1166.8z"/>
		<g>
			<path class="st15" d="M929.7,1375.8c0,0.4,0,0.4,0,0.8c0.4,0.4,1.2,0.4,1.9,0.8c-0.4,0.8-0.4,1.2-0.8,1.9l0.4,0.4
				c0.4-0.4,1.2-0.8,1.2-1.2c0-0.8,0-1.5-0.4-1.9C931.6,1375.8,930.4,1375.8,929.7,1375.8z"/>
			<path class="st15" d="M925.8,1375c-0.8,0.4-1.5,0.8-1.9,1.5c-0.8,1.9-0.4,2.7,1.9,2.3c-1.5-1.9-1.2-2.3,0.8-2.7
				c0.8,0,1.2-0.4,1.5-0.8C927.4,1375,926.6,1374.6,925.8,1375z"/>
			<path d="M925.1,1369.3c-1.9-0.4-2.7,0.8-2.7,2.3c0,3.5,0,7.3,0,10.7h0.4c0.4-0.8,0.8-1.2,1.2-1.5c3.1-0.8,0.4,2.7,2.3,3.1
				c0.4-0.8,0.8-1.5,1.5-3.1c0.8,1.2,1.2,1.9,1.9,3.1c0-0.8,0-1.2,0.4-1.9c0.4-1.5,2.3-1.5,2.3-0.4c0,0.8-0.8,1.5-1.5,2.3
				c0.8,0.8,1.9,1.5,1.9-0.4c0.4-1.5,0.4-3.5,0.4-5c0-3.1,0.4-5.8,0.4-9.2C930.8,1369.3,928.1,1369.7,925.1,1369.3z M926.6,1376.2
				c-2.3,0.4-2.3,0.4-0.8,2.7c-1.9,0.8-2.7-0.4-1.9-2.3c0.4-0.8,1.2-1.2,1.9-1.5c0.8-0.4,1.5,0,2.3,0.4
				C927.7,1375.4,927,1375.8,926.6,1376.2z M932.3,1378.1c0,0.4-0.8,0.8-1.2,1.2l-0.4-0.4c0.4-0.4,0.4-1.2,0.8-1.9
				c-0.8-0.4-1.2-0.4-1.9-0.8c0-0.4,0-0.4,0-0.8c0.8,0,1.5,0,2.3,0.4C932.3,1376.6,932.3,1377.3,932.3,1378.1z"/>
		</g>
		<path d="M1042.4,1272.3c1.2-1.9,3.1-4.2,6.1-3.8c1.9,0.4,3.5,1.5,5,2.3c0.4,0,0,1.5-0.4,2.3c0,0.8-0.8,1.9-0.8,2.7
			c0,2.3,0.4,5,0.8,8.1c-2.3-0.8-4.2-1.5-6.1-2.3c-0.8,2.7-3.1,1.9-5,2.3C1043.9,1279.6,1044.7,1276.1,1042.4,1272.3z"/>
		<path d="M928.9,1388.4c0.4-0.4,0.8-0.8,0.8-1.2c1.5,0,2.7,0.4,3.8,0.4c0,0,0,1.5,0,1.9c-0.4,0.4-1.2,0.8-1.9,1.2
			c1.2,0.4,1.5,0.4,2.3,0.8c0,0,0,0.4,0.4,0.4c-0.8,0.4-1.5,0.8-2.7,1.2c0.8,0.4,1.5,0.8,2.7,1.2c-0.4,0.8-0.8,1.2-1.5,1.9
			c1.5,0.8,1.9,1.9,0,2.7c0.4,0.8,0.8,1.2,1.5,1.9c-2.7,0-5,0.4-7.7,0.4c0-1.5-0.4-3.5-0.4-5c-0.4,0-0.8,0-1.2,0
			c-0.4,1.9-0.4,3.5-0.8,5.8c-0.4-1.2-0.8-1.5-0.8-1.9c0.4-2.7,0.4-5-1.2-7.3c-0.8-1.2,0.4-3.1,1.9-3.8c0.4,1.2,0.4,2.3,0.8,3.8
			c2.7-1.5,0.8-3.5,1.2-5c-0.8,0.4-1.5,0.4-2.3,0.8c0.4-0.8,0.4-1.9,0.8-1.9c1.5,0.4,3.1,0.8,4.2,1.2
			C928.5,1388.1,928.5,1388.4,928.9,1388.4z"/>
		<path d="M989.9,1309.5c1.9,1.2,3.1,1.5,4.2,2.3c-0.8,0.4-1.5,0.8-2.7,1.5c-0.4,1.2,3.5,1.5,1.5,3.5c-1.9,0.4-2.7-3.8-5-1.2
			c-0.4-0.8-0.8-1.2-1.5-1.5c-0.8,0.4-1.5,1.2-2.3,1.5c-0.4,0.4-1.2,0-1.9,0c0.4-0.4,0.8-1.2,1.2-1.5c0.4-0.4,0.4-0.4,1.2-0.8
			c-1.2-0.4-1.9-0.8-2.3-0.8c0.4-1.5,0.4-1.5,3.1-1.9c0-0.4,0-0.4,0-0.8s-0.4-0.8-0.4-0.8c-1.2,0-1.9,0-2.7,0
			c0.8-0.8,1.2-1.5,1.9-1.9c0.4-0.4,0.8-0.4,1.9-0.8c-1.2-0.8-1.5-1.2-2.3-1.2c-0.4,0-0.8-0.4-1.2-0.8c0.4-0.4,0.8-0.8,0.8-0.8
			c2.3,0.4,4.6-1.9,6.9,0c0.8,0.4,1.5,0.4,2.7,0.4c-0.8,0.8-1.2,1.9-1.9,2.7c0.4,0,0.8,0,1.2,0.4s0.8,1.2,1.2,1.9
			c-0.8,0-1.2,0-1.9,0C991.4,1309.1,990.6,1309.5,989.9,1309.5z"/>
		<path d="M891.7,1265c0.8-0.8,1.9-1.5,2.7-2.3c-0.4-2.3-3.8-3.5-1.2-6.1c-1.9-1.5-1.9-1.5,1.2-5c2.3,0.4,4.6,0.4,6.9,0.8
			c1.9,0,2.3,0.8,1.2,2.3c-1.5,3.1-1.2,6.5,0.8,9.2c0.4,0.4,0,1.2-0.4,1.5c-0.8,0-1.9,0-1.9-0.4c-0.4-1.2-0.4-2.3-0.4-3.5
			c0-0.8-0.4-1.2-0.4-1.9c-0.4,0.4-1.2,0.4-1.5,0.8c-0.4,0.8-0.4,1.5-0.4,2.3c0,0.4,0.8,0.4,0.8,0.8s0.4,0.8,0,1.2
			c0,0.4-0.8,0.4-0.8,0.4C895.9,1263.1,894,1265.4,891.7,1265z"/>
		<path d="M903.6,1195.6c-0.8,0.8-1.2,1.5-1.5,2.3c-0.4-0.8-1.2-1.5-1.5-2.3c-0.4-1.2-0.4-2.7-0.8-4.6c-1.5,1.9-2.7,2.7-1.5,4.6
			c0.4,0.4,0.4,1.5,0,2.3c-2.3-3.1-3.8,0.8-6.1,0.4c0-0.8,0.4-1.5,0.4-1.5c2.3-0.4,2.3-1.9,1.5-4.2c1.2,0.4,1.9,0.4,2.7,0.8l0.4-0.4
			c-0.4-0.4-0.8-1.2-1.2-1.5c-0.4-0.4-0.8,0-1.2,0c-0.8,0-1.5-0.4-2.3-0.8c0.4-0.4,1.2-1.2,1.5-1.9c-0.8-0.4-1.5-0.8-1.9-0.8
			c0-3.1,1.5-4.2,4.2-3.8c1.2,0,2.3,0,3.5,0c0.8,0,1.9,0.8,2.7,0.8c0,0.4,0,0.4-0.4,0.8c-1.5,0-2.7,0-4.2,0.4v0.4
			c0.8,0,1.9,0.4,2.7,0.4C902,1189.4,899.4,1193.3,903.6,1195.6z"/>
		<path d="M873.7,1256.2c-1.2,0.4-2.3,0.8-3.5,1.5c1.2,0.8,2.7,1.2,2.7,1.9c0.4,1.5,0.4,3.8,0,5.4c-1.2,2.3-3.8,1.2-5.4,0.8
			c-3.5-1.2-0.8-4.2-1.5-6.5c0.4,0,0.8,0,1.2,0c0.4-0.4,0.8-0.8,1.2-0.8c-0.4-0.4-0.8-0.8-1.2-0.8c-0.8,0-1.9,0.4-2.7,0.4
			c-0.4,0-1.2,0-1.5,0s-0.8-0.8-0.4-1.2c0-1.2,0.4-1.5,1.2-1.5c1.5-0.4,3.1-0.8,4.6-1.2c-1.5-1.9-4.6,0.8-5.8-2.3
			c3.1-0.4,6.1-0.8,9.2-1.5l0.4,0.4c-0.4,0.4-0.8,1.2-1.2,1.5c-0.4,0.4-0.8,0.8-1.2,1.2c0.4,0.4,0.8,0.8,1.5,0.8
			c0.4,0.4,1.2,0.4,1.5,0.4C873.3,1255.4,873.3,1255.8,873.7,1256.2z M872.1,1263.1c-0.8-2.3-3.8-3.5-5-1.9c-0.4,0.4,0,1.9,0.4,1.9
			C869.1,1263.4,870.6,1263.1,872.1,1263.1z"/>
		<path d="M1049.3,1306.4c0.8,0.8,1.5,1.2,2.3,1.5c3.1,1.9,3.1,2.3,2.3,5.8c-0.8,2.7-4.6,4.6-6.9,3.5c-0.8-0.4-1.9-1.5-1.9-2.7
			s0.8-2.7,1.5-3.1c0.8-0.4,1.9,0.8,3.1,1.2c0.8,0.4,1.5,1.2,2.3,1.5c0.4-0.8,1.2-1.9,0.8-2.3c-0.4-1.2-1.5-2.3-2.3-2.3
			c-2.3,0-4.6,1.2-7.3,1.5c0.4-3.1,4.2-3.1,5.8-6.1c-0.8,0-1.5,0-2.3-0.4s-1.2-0.8-1.5-1.2c0.4-0.4,1.2-0.8,1.5-0.8
			c1.2,0,2.3-0.4,3.8,0c0.8,0,1.2,0.8,1.9,1.2c-0.4,0.8-0.8,1.5-1.5,2.3C1050.1,1306,1049.7,1306,1049.3,1306.4z"/>
		<path d="M953,1406.1c1.5-0.4,2.7-1.5,4.2-1.5c1.9,0,3.5,0.4,5.4,0.8c0.4,0,0.8,0.8,0.4,1.2c0,0.4-0.8,0.8-1.2,1.2
			c-1.5,0.4-2.7,0.4-4.2,0.8c2.3-0.8,2.7,3.1,5,1.9c0,0,0.8,0.4,0.8,0.8s-0.4,0.8-0.4,1.2c-0.8,0.8-1.9,1.5-2.7,1.9
			c-1.2,0.4-2.3,0.4-3.1,0.8c0,0.4,0,0.8,0,1.2c1.9,0.4,3.8,0.8,5.8,1.5c-0.8,1.9-2.7,1.5-3.8,1.5s-2.7-0.8-3.1-1.9
			c-0.4-1.5-0.8-3.1,1.2-4.2c0.4-0.4,0.4-1.2,0.8-1.5c-0.8,0-1.5,0-1.9,0.4c-1.2,0.8-1.9,1.9-3.1,2.7c-0.4,0-0.4-0.4-0.8-0.4
			c0.8-1.2,1.2-1.9,1.9-3.1c1.5-2.3,1.5-3.1-1.2-3.8C953.4,1406.5,953,1406.5,953,1406.1z"/>
		<path d="M867.2,1246.2c-0.4-1.2-0.4-1.9-0.8-2.3c-1.2-0.8-1.9-1.2-2.7-1.5c0-0.4,0-0.4,0.4-0.8c0.8,0,1.9-0.4,2.7-0.8
			c0-0.8,0-1.5,0-2.7c-1.5,0.4-3.1,0.8-5,1.2c0.8-1.5,1.2-3.1,1.9-4.6c1.5,1.5,1.5,1.5,4.2-0.8c0.4,2.3,1.5,3.1,3.1,2.7
			c0.4,0,1.2,0.8,1.9,1.2l-0.4,0.4c-0.8,0-1.9,0-2.7,0.4c-0.4,0-1.2,0.8-1.5,1.2c0.4,0.4,1.2,1.2,1.5,1.5c0.4,0,0.8,0,1.2,0
			c0.4,0.4,0.8,0.8,1.2,1.2c-0.4,0.4-0.8,0.8-1.2,0.8s-1.2,0-1.2,0c-0.8,0.4-1.2,1.2-1.9,1.5c0.8,0.4,1.2,1.5,1.9,1.5
			c0.8,0.4,1.5,0,2.3,0c0.8,0.8,1.2,1.2,1.2,1.5s-0.8,0.8-1.2,0.8c-3.1,0-6.1,0-9.2,0c-0.4,0-0.8-0.4-1.2-0.8
			c0.4-0.4,0.8-0.8,1.2-0.8C864.5,1246.6,865.6,1246.6,867.2,1246.2z"/>
		<path d="M923.5,1253.1c1.9,1.2,3.8,1.2,5-1.2c0.8,0.8,1.2,1.5,1.9,1.9c2.3,1.2,3.1,3.1,2.7,5.4c-0.4,2.7-0.8,5.4-3.8,6.5
			c-0.4,0-0.8,0-1.5,0c0-0.4,0-1.2,0.4-1.2c0.4-0.4,0.8-0.8,1.5-1.2c3.5-2.7,3.5-5-0.4-8.1c-0.4,0.8-0.8,1.5-1.2,2.3
			c-0.8,1.9-1.9,3.8-2.7,5.8c-0.4,1.2-1.5,2.3-2.7,1.2c-0.8-0.8-1.2-1.9-1.2-3.1c0-1.5,0-2.7,0.4-4.2
			C922.8,1255.8,923.1,1254.2,923.5,1253.1z M925.4,1262.7c-0.4-1.5-0.8-2.7-1.2-3.8c0,0-1.5,0-1.5,0.4
			C922.8,1260.4,922.4,1261.9,925.4,1262.7z"/>
		<path d="M1042,1191.4c0.4-2.7,3.8-3.1,5-5.4c0-2.3-3.8,0.4-3.1-3.1c2.3,0,4.2,0.4,6.5,0.4c0,0.4,0,0.4,0,0.8
			c-0.8,1.2-1.5,1.9-2.7,3.1c1.2,0.4,1.9,0.8,2.7,1.5c1.9,1.5,2.3,4.6,1.2,6.5c-1.2,1.9-4.6,3.1-6.5,1.9c-0.8-0.4-1.5-1.9-1.5-2.7
			s0.4-1.9,1.2-2.3c1.2-0.4,2.3-0.4,3.1,1.2c0.4,0.8,1.5,1.2,2.3,1.5c0.4-0.8,1.2-1.5,1.2-2.3s-1.2-2.3-1.5-2.3
			C1047,1190.2,1044.3,1191,1042,1191.4z"/>
		<path d="M1052,1357c-1.9,0.8-3.1,1.2-4.6,1.5c0,0.4,0,0.8,0,0.8c1.2,0,2.7,0.4,4.2,0.4c0.4,0.8,1.5,1.9,1.9,3.1
			c0.8,1.9,0,3.1-1.2,4.6c-1.5,1.5-3.5,1.2-5,0.4c-0.8-0.4-1.2-2.3-1.2-3.5c0.4-2.3-1.5-2.3-3.1-2.7c-0.4-2.3,1.2-2.3,2.7-2.3
			c0-0.4,0-0.4,0.4-0.8c-0.8-0.8-1.5-1.2-2.3-1.9c0.8-0.8,2.3-1.9,3.1-2.7C1048.5,1355.1,1050.1,1355.9,1052,1357z M1050.1,1361.6
			c-1.9,0.4-3.1,0.8-3.1,2.3c0,0.8,1.5,1.9,2.7,2.3c1.5,0.4,3.1-0.4,2.7-1.9C1052.7,1363.1,1051.2,1362.4,1050.1,1361.6z"/>
		<path d="M958.4,1316c1.5-1.5,3.1-2.7,3.8-4.2c0.8-1.5,0-5-1.2-5.8c-0.4-0.8-1.2-0.8-1.9-0.8c-0.4,0-0.8,1.2-0.8,1.5
			c-0.8,2.7-1.2,5-1.9,7.7c-0.4,0.8-1.2,1.5-1.9,1.5s-1.9-0.8-1.9-1.5c-0.8-3.8-1.2-7.3,1.9-10.4c1.9-1.9,6.5-1.5,8.1,0.8
			c2.7,4.2,1.9,8.4-1.5,11.5C959.9,1317.1,959.2,1317.1,958.4,1316z M952.7,1310.2c0,0,0.4,0,0.4,0.4s0,0.4,0,0.8
			c0.4,0.8,0.8,1.5,1.2,2.3c0.4-0.4,1.2-1.2,1.5-1.5c0.4-1.5,1.2-3.1,1.2-4.6c0-0.4,0-1.5-0.4-1.5c-0.4-0.4-1.5,0-1.9,0
			C954.2,1307.2,953.4,1308.7,952.7,1310.2z"/>
		<path d="M1012.5,1259.2c0-2.7,2.3-1.2,3.8-2.7c-1.2-0.8-2.3-1.2-3.8-2.3c1.5-0.8,2.7-1.9,3.8-2.3c1.2,0.4,1.9,0.8,2.7,1.2
			c0.8,0.4,1.2,0.8,1.9,1.2c-0.8,0.4-1.2,0.8-1.9,0.8c-0.8,0.4-1.5,0.8-1.9,1.2c0.8,0.4,1.2,0.8,1.9,0.8c1.9,0,3.5,1.2,4.2,2.7
			c0.4,1.2,0.4,3.1,0,4.2c-0.4,1.5-5,2.7-6.1,1.5c-0.8-0.8-0.8-2.3-1.2-3.5C1015.2,1259.6,1015.2,1259.2,1012.5,1259.2z
			 M1022.4,1263.1c0-0.4,0.4-0.8,0.4-1.5c-1.2-0.8-2.3-1.9-3.5-2.3c-0.8,0-2.3,0.8-2.7,1.5c-0.4,0.8,0.4,2.7,0.8,2.7
			C1019.4,1263.8,1020.9,1263.4,1022.4,1263.1z"/>
		<path d="M983,1292.2c1.2-0.8,1.9-1.2,2.7-1.5c-0.8-0.8-1.5-1.2-2.3-1.9c1.2-0.8,2.3-1.9,3.5-3.1c0.8,1.9,2.3,2.3,4.6,1.9
			c0,1.9-1.2,1.9-2.3,1.9c-0.8,0-1.2,0.8-1.5,0.8c0.8,0.4,1.2,1.2,1.9,1.2c1.9-0.4,3.1,0.8,3.8,2.3c1.2,1.5,1.5,3.5,0,5.4
			c-1.2,1.5-3.5,1.9-5.4,1.2c-0.8-0.4-1.5-1.5-1.9-2.7c-0.4-1.5,0.4-3.5-2.3-3.8C983.3,1293.7,983,1292.6,983,1292.2z M989.5,1298
			c0,0.4,0.4,0.4,0.4,0.8c0.8-0.8,1.9-1.5,2.3-2.3c0.4-1.9-1.5-2.3-2.7-2.3s-2.3,0-2.3,1.5C986.8,1297.2,987.2,1298.3,989.5,1298z"
			/>
		<path d="M958,1202.1c-1.5,2.3-3.1,4.2-4.6,6.5c-1.2-1.2,3.1-4.6-1.5-4.6c0-0.4,0-0.4,0-0.8c1.2-0.8,2.7-1.5,3.5-2.3
			C956.5,1201.3,957.3,1201.7,958,1202.1c1.2,0,2.3,0,3.1,0c0.4,0,0.8,0.4,1.2,0.8c0,0.4-0.4,0.8-0.4,1.2c-0.4,0.4-1.5,1.2-1.5,1.5
			c0.4,1.5,0.4,3.1,1.2,4.2c1.5,1.9,1.5,1.9-0.8,2.7c-0.4,0.4-1.2,0.4-1.2,1.2c-1.2,1.5-2.7,1.5-3.5,0.4c-0.8-1.2,0-2.7,0-4.2
			c0-0.4,0.4-0.4,0.8-0.8c2.7-1.2,2.7-3.1,2.3-5.4c0-0.4,0-0.8,0-1.2C958.8,1202.5,958.4,1202.1,958,1202.1z"/>
		<path d="M956.5,1171.4c1.9,1.2,5.4-1.2,6.1,2.3c-1.9,0.4-3.8,0.4-5,1.2c-0.8,0.4-1.5,1.5-1.2,1.9c0,0.8,1.2,1.5,1.9,1.5
			c0.4,0.4,1.5,0.4,2.7,0.4c0,1.5-0.4,1.9-1.9,2.3c-3.5,0-4.6-1.5-4.2-4.6c0-0.4-0.8-1.5-1.5-1.9c-0.4-0.4-1.2,0-2.7,0
			c1.9-2.7,4.6-3.5,6.9-5.8c-1.2-0.4-1.9-0.4-2.7-0.4c-0.4,0-0.8-0.4-1.2-0.8c0-0.4,0.4-1.2,0.8-1.2c1.9,0,3.8,0,5.8,0
			c0,0.4,0.4,0.4,0.4,0.8C959.2,1168.7,957.6,1169.9,956.5,1171.4z"/>
		<path d="M1042.8,1237c1.2-0.8,2.3-1.2,3.1-1.5c1.5,0.4,2.7,1.2,4.2,1.5c0,0.4-0.4,1.2-0.4,1.5c-1.2,0-2.3,0.4-3.8,0.4
			c0,0.4,0,0.4,0,0.8c1.2,0.4,2.3,0.4,3.1,0.8c2.7,0.8,3.8,3.5,3.1,5.8c-0.8,1.9-3.1,3.1-5.4,2.3c-0.8,0-1.5-0.8-0.8-2.3
			c1.5,0,2.7,0.4,4.2,0.4c1.2,0,2.3,0,1.9-1.9c0-1.5-0.4-2.3-2.3-2.3s-3.1,0-3.5,1.5c-1.2-0.8-2.3-1.2-3.5-2.3
			c0.4-0.4,1.2-0.8,1.9-1.5c0.4-0.4,0.8-1.2,0.8-1.9C1042.4,1240.1,1042.8,1238.1,1042.8,1237z"/>
		<path d="M1018.2,1200.6c1.9,0.8,3.5,1.5,5,2.3v0.4c-1.2,0.4-2.3,0.4-3.5,0.8c0,1.5,0,3.5,0,5c0,1.9-0.8,3.8-1.9,5.4
			c-1.5,1.5-2.3,1.2-3.1-1.2c0.8-0.4,1.9-0.4,3.1-0.8c-2.3-1.2-3.8-3.1-3.1-5c0.4-1.2,1.9-2.3,2.7-3.5c-0.8,0-1.9,0-2.7,0
			s-1.5-0.4-2.3-0.8c0.8-0.4,1.2-1.2,1.9-1.2C1017.5,1201.3,1017.5,1201.3,1018.2,1200.6z M1018.2,1208.6c0-0.4,0-0.8,0-1.5
			c-0.8,0-1.9,0-2.7,0.4c0,0.4,0.4,1.2,0.4,1.2C1016.7,1208.6,1017.5,1208.6,1018.2,1208.6z"/>
		<path d="M958,1244.3c-1.2-1.5-1.9-2.3-2.7-3.5c0.4-0.4,0.4-0.4,0.8-0.8c1.2,0.4,2.3,1.2,4.2,1.9c0-1.9,0-3.8-0.4-3.8
			c-1.5,0-3.1,0-4.6,0.4c-0.8,0.4-1.2,1.5-1.9,2.3c-0.4,0.4-1.2,0.4-1.9,0.8c1.9-3.1,3.1-5.4,4.6-8.1c0.8,2.3,2.7,1.9,4.6,1.9
			c1.2,0,1.9,0,1.9,1.5c-0.4,4.6-1.9,8.4-5.8,11.1c-0.8,0.4-2.3,0.4-3.5,0.8c0-0.4-0.4-0.8-0.4-0.8
			C955,1246.6,956.5,1245.4,958,1244.3z"/>
		<path d="M928.9,1352.4c0,1.9,0.8,3.5,3.1,2.7c0.4,0,1.2,0.4,1.5,0.8c0,0.4,0,0.4,0,0.8c-1.5,0.4-2.7,0.8-4.2,1.2
			c-0.4,1.9,0,3.5,2.3,4.6c0.4,0.4,1.2,0.8,1.5,1.2c0.4,0.4,0.4,1.2,0.4,1.5c-0.4,0-1.2,0-1.5,0c-0.8-0.4-1.5-0.8-1.9-0.8
			c-1.2,1.2-1.9,1.9-2.7,2.7c-1.9,1.2-4.2,0-3.8-2.3c0.4-3.1,0.8-4.2,3.5-4.6c1.5,0,1.5-1.2,1.5-2.7
			C928.5,1355.9,928.5,1353.9,928.9,1352.4C928.1,1352.8,928.5,1352.8,928.9,1352.4z M927.4,1365.4c0-2.7,0-3.1-3.1-2.7
			C923.9,1365.1,925.4,1365.1,927.4,1365.4z"/>
		<path d="M928.1,1319.4c0.4,1.9,1.5,1.9,2.7,2.3c0.8,0,1.5,0.8,1.9,1.2c-0.8,0.4-1.5,0.8-2.3,1.2c-0.4,0-0.8,0-1.2,0
			c-1.2,2.3-0.4,3.8,1.9,5c1.9,0.8,1.9,1.2,1.2,3.1c-0.4-0.4-1.2-0.8-1.5-0.8c-0.8,0-1.9,0-2.3,0.8c-1.2,1.9-2.7,1.9-4.2,1.2
			c-1.9-0.8-1.5-2.7-1.2-4.2c0.4-1.9,1.5-2.7,3.5-2.3c0.4,0,0.8,0,1.5,0C928.1,1324.4,928.1,1321.7,928.1,1319.4z M927.7,1331.7
			c-0.8-3.1-1.5-3.5-4.2-1.5C925.1,1330.9,926.2,1331.3,927.7,1331.7z"/>
		<path d="M1049.3,1340.1c0.8,0,1.9,0,2.7,0c0.4,0,1.2,0.4,1.5,0.4c-0.4,0.8-0.8,1.5-1.5,1.9c-0.8,0.4-1.9,0-2.7,0.4
			c-0.8,0-1.9,0.4-2.7,0.8c-0.8,0.4-1.5,1.5-1.5,1.9c0,0.8,1.2,1.9,1.9,1.9c1.5,0.4,3.1,0.4,4.6,0.4c0.8,0,1.9,0,2.7,0
			c0,1.5-0.4,2.7-2.3,2.3c-2.3-0.4-4.6,0-6.5-1.2c-2.3-1.2-2.7-4.2-1.2-6.1s4.6-3.5,3.1-6.9c0.4,0,0.8,0,1.2,0
			C1048.5,1337.8,1048.9,1339,1049.3,1340.1z"/>
		<path d="M861.8,1190.6c1.5-2.7,2.7-5.4,4.2-8.1c1.2,3.5,3.8,1.2,5.8,2.3c1.5,5.4-1.9,10.7-8.1,13c-0.4-1.5,0.4-1.9,1.5-2.7
			c2.7-1.2,2.7-1.2,1.2-3.8c-0.4-0.4-0.4-1.2-0.4-1.9c0.4,0.4,1.2,0.4,1.5,0.8c0.8,0,1.9,0.4,1.9,0.4c0.8-0.8,1.2-1.9,1.2-2.7
			c0-0.4-1.2-0.8-1.5-1.2c-2.7-0.8-4.2,1.2-5.8,3.1c-0.4,0.4-0.4,0.4-0.8,0.8C862.2,1190.6,862.2,1190.6,861.8,1190.6z"/>
		<path d="M921.2,1173.3c1.5-2.3,4.2,0.4,5-2.3c-1.5-0.4-2.7-0.8-4.2-0.8c0-0.4,0-0.4-0.4-0.8c1.5-0.8,3.1-1.9,4.6-2.7
			c0.8,1.2,1.9,2.7,3.8,0.4c0,0,0.8,0,1.2,0.4s0.4,0.8,0.4,1.2c-0.8,0.4-1.9,1.2-3.1,2.3c1.2,0.4,2.3,0.8,3.8,1.2
			c-0.8,0.8-1.2,1.2-1.5,1.9c-0.4,0.4-0.4,1.2-0.4,1.5C927.4,1174.5,924.3,1174.1,921.2,1173.3z"/>
		<path d="M986.4,1202.9c-1.5,0-2.7,0-4.2,0.4c-0.8-1.9,0.8-2.3,1.9-2.3c1.9,0,3.5,0,5.4,0s2.7,0.4,3.1,1.9
			c-1.9,1.2-4.2,2.3-5.8,3.8c-0.8,0.8-1.2,2.7-0.8,3.5c0.8,1.2,2.3,1.9,3.5,2.3c0.4,0.4,1.2,0,1.9,0.4c0.4,0,0.8,0.8,0.8,0.8
			c0,0.4-0.4,0.8-0.8,1.2c-2.7,0.8-6.5-1.2-6.5-3.8c-0.4-2.7,0.4-5.4,2.7-7.3C986.8,1203.6,986.4,1203.2,986.4,1202.9z"/>
		<path d="M953.8,1337.4c0.8,1.2,1.9,3.1,2.3,2.7c2.3-0.8,5.8-0.8,5.8-4.6c0.8,0.4,1.5,0.8,1.9,1.2c-0.8,1.2-1.2,2.7-2.3,3.5
			c-0.8,0.8-2.3,1.5-3.5,1.5c-3.5,0.8-3.5,0.8-3.5,4.6c1.2,0.4,2.7,0.4,4.2,0.8c1.5,0,2.7,0,4.6,0.4c-0.8,0.8-0.8,1.5-1.2,1.5
			c-2.7,0-5.4,0-8.4,0c-0.4,0-0.8-0.8-0.8-1.2C953.4,1344.7,953.8,1341.3,953.8,1337.4C953.8,1337.8,953.8,1337.4,953.8,1337.4z"/>
		<path d="M865.2,1287.2c1.2,0.4,1.9,1.5,2.7,1.5s1.2-1.5,1.9-1.9c0.8-0.8,1.2-0.8,1.9-1.2c0.4,0.8,0.4,1.2,0.8,1.9
			c0,0.4-0.4,0.8-0.8,1.2c0.8,0,1.5,0.4,2.3,0.4c-0.4,0.8-0.4,1.5-0.8,1.5c-2.7,0.8-2.3,3.1-3.1,5c-0.8,2.7-2.7,4.2-5.4,3.1
			c0.8-0.4,1.5-1.2,1.9-1.2c1.9-0.8,3.5-3.1,2.7-5c-0.4-1.2-1.2-2.3-2.3-1.2c-1.5,1.2-3.1,0-4.6-0.4c-0.4-0.4-0.8-0.8-0.8-1.2
			s0.4-0.8,0.8-1.2C863.7,1288.4,864.5,1287.6,865.2,1287.2z"/>
		<path d="M927,1271.5c-1.2,0-2.3,0-3.5,0c-0.4,0-0.8-0.8-1.2-1.2c0,0,0.4-0.8,0.8-0.8c3.1,0,6.5,0,9.6,0c0,0.4,0.4,0.4,0.4,0.8
			c-0.8,0.4-1.5,1.2-1.9,1.5c-1.5,1.2-3.5,2.7-5,4.2c-1.2,1.2-0.4,3.5,1.2,4.2c0.8,0.4,1.9,0.8,3.1,1.2c0.4,0.4,0.8,1.2,1.2,1.5
			c-0.8,0-1.5,0.8-1.9,0.4c-5.4-1.5-6.9-5.8-3.1-10.4C926.6,1272.3,926.6,1271.9,927,1271.5z"/>
		<path d="M1017.5,1235.8c-0.4,3.8,3.1,1.9,5,2.7c0,1.5-1.2,1.9-2.3,2.3c-1.5,0.4-3.1,0.4-4.2,1.2c-0.8,0.4-1.9,1.5-1.9,2.7
			c0,0.8,1.2,1.5,2.3,1.9c1.5,0.4,3.1,0,4.6,0.4c0.8,0,1.2,0.8,1.5,1.2c-0.4,0.4-0.8,0.8-1.5,1.2c-2.7,1.2-5,0.4-7.3-0.8
			c-1.5-0.8-2.3-3.1-1.2-4.6C1014.4,1240.4,1015.9,1237.8,1017.5,1235.8z"/>
		<path d="M957.3,1273.4c0.4,0.4,0.8,1.2,1.2,1.5c0.8-0.4,1.5-0.8,1.9-1.2c0.4-0.8,0.8-1.5,1.2-2.3c-0.8-0.4-1.5-0.8-2.3-0.8
			c-1.9,0-3.5,0-5.4,0c-0.4,0-1.2-0.4-1.5-0.8c0.4-0.4,1.2-1.2,1.5-1.2c1.2-0.4,2.3,0,3.1,0c1.9,0,3.8,0,5.8,0
			c0.4,3.1,0,5.4-2.3,7.3l0,0c-3.1,0-3.5,3.5-5,5c-0.4,0.4-0.8,0.8-1.5,1.2l-0.8-0.4c0-0.4,0-0.8,0-1.2c3.1-1.5,3.5-4.2,3.5-7.3
			C956.9,1273.4,956.9,1273.4,957.3,1273.4z"/>
		<path d="M863.3,1230.9c1.5-2.7,3.1-5.4,4.2-8.1c0.4,0,1.5,1.2,1.9,0.8c0.8-0.4,1.5-1.5,2.3-2.3c-0.8-0.4-1.5-1.2-2.3-1.5
			c-1.9-0.4-3.8,0-5.8,0c-0.8,0-1.5-0.8-2.3-1.2c0.8-0.4,1.5-0.8,1.9-0.8c2.3,0,4.6,0,6.9,0c0.8,0,1.5,1.2,1.9,1.5
			c1.2,1.5-0.8,5.4-2.3,6.1c-0.4,0-0.8,0.4-0.8,0c-1.5-0.4-1.5,0.4-1.9,1.5C866.8,1229.3,865.2,1230.5,863.3,1230.9z"/>
		<path d="M1047,1217.4c0.4,0.4,1.2,1.2,0.8,1.5c-0.4,2.3,1.2,2.3,2.7,2.3c0.4,0,1.2,0.4,1.5,0.8c-0.4,0.4-1.2,0.8-1.5,0.8
			c-1.9,0.8-3.5,0.8-5.4,1.5c-0.8,0.4-1.5,1.5-1.5,2.3c0,0.4,1.2,1.5,1.9,1.9c1.9,0.4,3.8,0.8,5.8,0.8c0.4,0,1.2,0,1.5,0
			c0,0.4,0.4,0.4,0.4,0.8c-0.8,0.4-1.2,0.8-1.9,1.2c-1.5,0.4-2.7,0.4-4.2,0.4c-1.9,0-3.8-1.2-4.2-2.7c-0.4-1.9-0.8-4.6,1.5-5.8
			c2.3-1.2,2.7-3.1,1.9-5.4C1046.2,1217.8,1046.6,1217.8,1047,1217.4z"/>
		<path d="M923.1,1226.3c0-2.7,0-5.8,0-9.2c0.8,1.2,1.2,1.5,1.5,2.7c0.8-0.8,1.2-1.5,1.5-1.9c1.9-1.5,4.2-0.8,4.6,1.5
			c0.4,2.3,0.4,5,0.4,7.3c-0.4,3.5-3.5,5.4-7.3,4.2c0.8-0.4,1.5-1.2,2.7-1.5c2.7-0.8,4.2-2.3,4.2-5c0-1.2,0-2.3-0.4-3.1
			c-0.4-0.8-1.2-1.9-1.9-1.9c-0.8,0-1.5,0.8-2.3,1.5c-0.8,0.8-0.8,1.9-1.2,3.1c-0.4,0.8-0.8,1.5-0.8,2.7
			C923.5,1226.3,923.5,1226.3,923.1,1226.3z"/>
		<path d="M899.4,1202.1c1.2,0,2.3,0,3.5,0.4c-0.4,0.8-0.4,1.2-0.4,1.5c-2.7,1.9-2.7,3.8-0.4,6.5c1.5,1.5,1.2,1.9-0.8,2.7
			c-1.5,0.4-2.7,2.3-4.6,0.8c-0.8-0.8-1.2-1.9-1.5-3.1c0-0.8,0-1.9,1.9-1.9c1.2,0,3.1-0.8,2.3-3.1
			C899,1205.2,899.4,1203.6,899.4,1202.1z"/>
		<path d="M985.3,1257.3c3.1-0.4,3.5,0,3.8,3.5c0,0.8,0.4,1.9,0.8,2.7c0.4,0,0.8,0,1.2,0c0.8-1.5,1.2-3.5,1.9-5
			c0.8,1.5-0.4,6.1-1.9,6.5c-1.5,0.8-2.7,0-3.1-1.9c0-1.2-0.4-2.3-0.4-3.5c-3.5,0-3.8,3.1-5,5c0-4.6,1.9-8.8,3.5-13
			c0.4,0,0.4,0,0.8,0C986,1253.5,985.6,1255.4,985.3,1257.3z"/>
		<path d="M1012.5,1194c0-2.3,0-4.2,0-5.8c0.4,0,0.4,0,0.8,0c0,0.8,0.4,1.2,0.4,1.9c1.9-0.4,3.5-1.2,5-1.5c1.9-0.4,3.1,1.5,3.5,3.8
			c0.4,1.5-1.2,4.6-2.7,5c-1.2,0-2.7,0.4-4.2,0.4c-0.4,0-1.2-0.8-1.5-1.2c0.4-0.4,1.2-1.2,1.5-1.2c1.2-0.4,2.3,0,3.5-0.4
			c1.5-0.4,2.7-0.8,2.7-2.7s-1.2-1.5-2.3-1.9C1015.9,1189.8,1014.8,1192.1,1012.5,1194z"/>
		<path d="M956.9,1191.7c-2.3,0.4-4.2,2.3-4.6,5.4c-0.4-0.4-0.8-0.8-0.8-1.2c1.2-4.2,2.7-8.4,3.8-13c0.4,0,0.8,0,0.8,0.4
			c-0.4,1.9-1.2,3.8-1.9,6.1c3.8-1.2,3.8,1.2,4.2,3.5c0,0.8,0.4,1.9,0.8,2.7c2.7-1.2,2.3-3.8,3.1-6.1c1.2,2.7-0.4,6.9-2.3,7.7
			c-1.5,0.4-2.3-0.4-2.3-1.5C957.3,1194.4,956.9,1192.9,956.9,1191.7z"/>
		<path d="M983,1393.8c0-2.3,1.9-2.7,3.5-3.1c1.2,0,2.3,0,3.5,0c2.7,0,3.5,1.2,3.5,3.5c0,3.8-3.5,8.1-7.7,6.9c0-1.5,0.4-2.3,1.9-2.3
			c0.8,0,1.5-0.4,2.3-0.4c1.2-0.8,2.7-1.5,2.3-3.5c-0.4-1.9-2.3-1.5-3.8-1.5C986.4,1393.4,984.9,1393.4,983,1393.8z"/>
		<path d="M987.6,1344.7c-3.1,0.4-2.7,3.1-4.2,4.6c-1.2-1.5,1.5-11.1,3.5-11.9c0,0.8-0.4,1.5-0.4,2.3c-0.4,1.5-1.2,3.5,1.9,2.7
			c0.4,0,0.8,0.8,0.8,1.5c0.4,1.5,0.4,3.1,0.8,4.6c1.2-0.4,1.9-0.8,3.1-1.2l0.4,0.4c-1.2,1.2-1.9,2.3-3.5,3.8
			c-0.8-1.5-1.2-2.7-1.5-3.5C987.9,1347,987.9,1345.9,987.6,1344.7z"/>
		<path d="M984.9,1376.9c0.4-1.5,0.8-2.7,1.5-4.2c0.4,0.4,1.5,0.4,2.3,1.2c0.4-0.8,0.8-1.5,1.2-2.7c1.5,1.9,5,2.3,3.8,5.8
			c-0.4,1.5-0.8,3.1-3.1,3.1c0.4-1.2-0.4-3.1,1.9-2.3c0.4-2.7-1.2-2.3-2.7-2.3s-1.9,0.8-1.5,2.3s0.4,3.1,0.4,4.6
			C986.8,1380.8,988.3,1376.6,984.9,1376.9z"/>
		<path d="M926.2,1240.8c0.8-0.8,1.2-1.2,1.5-1.5s0.8-0.8,1.2-1.2c-0.4-0.4-1.2-0.8-1.5-0.8c-0.8,0-1.5,0-1.9,0
			c-0.8,0.8-1.2,1.5-1.9,2.7c-0.8-1.2-1.5-1.9-2.3-3.5c1.2,0,1.9,0,2.7-0.4c0.4,0,1.2,0,1.5,0c1.5-1.9,3.8-1.5,6.1-1.5
			c0.8,0,1.2,0.4,1.9,0.8c-0.4,0.4-0.8,1.2-1.5,1.5c-0.4,0.4-0.8,0.4-1.2,0.8c0.8,0.4,1.2,0.4,1.5,0.8c0.4,0.4,0.8,1.2,0.8,1.5
			s-0.8,0.8-1.2,0.8C929.7,1240.8,928.1,1240.8,926.2,1240.8z"/>
		<path d="M903.2,1271.1c0,0.4,0,0.8-0.4,0.8c-2.7,1.9-3.1,4.6-0.4,6.9c0.4,0.4,0.8,1.5,0.4,1.5c-1.5,0.8-3.1,1.5-4.6,1.9
			c-1.9,0.8-2.7-1.2-2.7-2.3s1.2-3.5,1.9-3.5c3.1,0,2.3-2.3,2.3-3.5C899.7,1270.3,900.1,1270,903.2,1271.1z M897.1,1279.2
			c0,0.4,0,0.4-0.4,0.8c0.8,0.4,1.2,1.2,1.9,1.2c0.4,0,1.2-0.4,1.9-0.8c-0.4-0.4-0.4-0.8-0.8-1.2
			C898.6,1279.2,897.8,1279.2,897.1,1279.2z"/>
		<path d="M955.3,1387.3c0,4.2,3.8,4.6,6.1,6.9c1.2,1.2,2.3,1.5,0,3.1c-1.2-0.8-2.7-1.9-3.8-2.7c-0.4-0.4-1.2-0.4-1.5-0.4
			c-0.4,0.4-0.4,1.2-0.4,1.5c0,1.9,0,3.8,0,6.1c-0.8-0.4-1.5-0.8-1.5-1.2c0-4.2,0-8.4,0.4-13C955,1387.3,955.3,1387.3,955.3,1387.3z
			"/>
		<path d="M985.3,1186c-0.4,1.2-0.4,1.9-0.8,2.7c0.4,0.4,0.4,0.4,0.4,0.4c3.1-0.8,3.1,1.2,3.5,3.5c0,0.8,0.8,1.5,1.5,2.3
			c0.4-0.8,1.2-1.5,1.5-2.3s0.4-1.5,0.8-2.7c0.8,1.9-0.4,6.5-1.5,6.9c-0.4,0.4-1.5,0.4-2.3,0c-0.4,0-0.8-1.2-0.8-1.5
			c-0.4-1.5-0.8-3.1-0.8-4.2c-1.5,0.4-2.7,0.8-3.8,1.2c0-1.2,0-2.7,0.4-3.8c0.4-1.2,0.8-1.9,1.2-2.7
			C984.9,1185.6,985.3,1186,985.3,1186z"/>
		<path d="M993.3,1362c-1.2,1.5-1.5,3.5-3.1,4.2c-1.2,0.8-3.1,1.2-4.2,0.8c-0.8-0.4-1.5-1.9-1.5-3.1c-0.4-2.7-0.4-5.4-0.4-8.4
			c0-0.8,0.4-1.5,0.8-2.3c0.4,0,0.4,0,0.8,0c0,3.1,0,6.1,0,9.2c0,0.8,0.8,2.3,1.5,2.7c1.2,0.4,2.3-0.4,3.5-1.2
			c0.8-0.8,1.5-1.9,2.3-2.7C992.9,1361.6,992.9,1362,993.3,1362z"/>
		<path d="M931.2,1207.8c0.4,0,0.4,0,0.4,0c0.8,2.3-1.2,3.8-2.3,5.4c-0.4,0.8-2.3,1.2-3.8,0.8c-1.9-0.4-2.7-1.9-2.7-3.8
			c0-3.1-0.4-6.1-0.4-9.2c0-0.4,0.4-0.8,0.8-1.2c0.4,0,0.4,0,0.8,0c0,1.9,0,3.8,0,5.8c0,0.8-0.4,1.9,0,2.7c0.4,1.2,1.2,3.1,2.3,3.1
			c0.8,0.4,2.3-0.8,3.5-1.9C930.8,1209.8,930.8,1208.6,931.2,1207.8z"/>
		<path d="M871.4,1167.2c0,0.8-0.4,1.5-0.8,1.9c-1.9,1.5-2.3,3.5-1.9,5.4c0,1.9,0,4.2,0,6.1c-0.4,0-0.8,0-1.2,0
			c0-2.3-0.4-4.6-0.4-7.3c-1.9,0.8-3.1,1.2-5,1.9c0.4-0.8,0.4-1.9,0.8-1.9c2.7-2.3,5.4-4.2,8.1-6.1H871.4z"/>
		<path d="M864.1,1282.2c0.4-0.4,1.2-1.2,1.5-1.5c0.8-0.8,1.5-1.9,1.5-2.7c0.8-2.3-0.4-3.5-3.1-3.1c-0.8,0-1.2,0-1.9,0
			c0-0.4,0-0.8,0-1.2c3.5-0.4,7.3-0.8,10.7-1.2c0,0.4,0.4,0.4,0.4,0.8c-0.8,0.4-1.5,1.5-1.9,1.5c-2.7-0.4-3.1,1.5-3.5,3.5
			c-0.4,1.9-0.8,3.8-3.1,4.6C864.5,1282.6,864.5,1282.2,864.1,1282.2z"/>
		<path d="M1042.8,1294.1c0-0.8,0-1.5,0.4-1.9c0.8-1.2,1.2-2.3,2.3-3.1c0.4-0.4,1.9-0.4,2.3,0c2.3,2.3,4.2,5,6.1,7.7
			c0.4,0.4,0,1.2,0,1.9c-0.4,0-0.4,0.4-0.8,0.4c-2.3-2.7-4.2-5.4-6.9-8.8c-1.2,1.5-1.9,2.7-3.1,3.8
			C1043.2,1294.1,1043.2,1294.1,1042.8,1294.1z"/>
		<path d="M932.7,1242c0,2.7,0,4.6,0,6.5c-1.9,0-3.8,0-6.1,0c0-1.5,0-3.5,0.4-5c0-0.4,0.8-1.2,1.5-1.5
			C929.7,1242,931.2,1242,932.7,1242z M930,1247.3c0.8-0.8,1.5-1.5,1.5-2.3c0-0.4-1.2-1.5-1.5-1.2c-0.8,0.4-1.5,1.2-2.3,1.9
			C928.5,1245.8,928.9,1246.6,930,1247.3z"/>
		<path d="M925.4,1193.7c1.9-0.4,2.7-0.8,3.8-1.2c1.5-0.4,2.7-1.2,2.3-2.7c-0.4-1.9-1.9-2.3-3.5-1.9c-1.5,0-3.1,0.4-4.6,0.8
			c0-0.4,0-0.8,0-0.8c0.8-1.2,6.5-2.3,7.7-1.5c1.5,1.2,1.9,3.1,1.5,4.6c-0.8,2.7-3.5,4.2-5.8,3.8
			C926.6,1194.8,926.2,1194.4,925.4,1193.7z"/>
		<path d="M984.5,1274.2c0.8-0.8,1.5-1.5,2.3-1.9c0-0.4,0-0.4-0.4-0.8c-1.2,0-1.9,0-3.1,0c-0.4,0-0.8-0.4-1.2-0.8
			c0.4-0.4,0.8-1.2,1.2-1.2c3.1,0,5.8-0.4,8.8,0c0.4,0,0.4,1.2,0.8,1.5c-1.9,1.2-3.5,1.9-4.6,2.3
			C987.2,1273.8,986,1273.8,984.5,1274.2L984.5,1274.2z"/>
		<g>
			<path class="st15" d="M986,1177.9c0.8,0.4,1.5,0.8,2.3,1.2c0.4-0.4,0.4-0.8,0.8-1.2c-0.8-0.4-1.5-0.8-2.3-1.2
				C986.8,1176.8,986.4,1177.6,986,1177.9z"/>
			<g>
				<path class="st15" d="M986,1177.9c0.8,0.4,1.5,0.8,2.3,1.2c0.4-0.4,0.4-0.8,0.8-1.2c-0.8-0.4-1.5-0.8-2.3-1.2
					C986.8,1176.8,986.4,1177.6,986,1177.9z"/>
				<path d="M992.2,1177.2c-0.8-1.2-1.9-2.7-2.7-3.5c-0.8,0.4-1.5,0.8-2.7,1.2c-1.5,0.8-2.7,2.3-1.9,4.2c0.4,1.5,1.9,2.3,3.5,1.5
					c1.2-0.4,2.7-1.2,3.8-1.5C992.2,1178.7,992.2,1177.6,992.2,1177.2z M988.3,1179.1c-0.8-0.4-1.5-0.8-2.3-1.2
					c0.4-0.4,0.8-1.2,0.8-0.8c0.8,0.4,1.5,0.8,2.3,1.2C988.7,1178.3,988.7,1178.7,988.3,1179.1z"/>
			</g>
		</g>
		<path d="M951.9,1225.5c2.7-2.7,6.5-4.6,8.8-7.7c0.4,0.4,0.4,0.4,0.8,0.8c-0.4,0.8-0.4,1.2-1.2,1.5c-2.3,1.5-2.3,3.8-1.9,6.5
			c0.4,1.5,0,3.1,0,4.2c-0.4,0-0.8,0-1.2,0c0-1.9-0.4-4.2-0.8-6.9c-1.5,0.8-3.1,1.5-4.6,1.9C952.3,1225.9,951.9,1225.5,951.9,1225.5
			z"/>
		<path d="M961.9,1352.4c0.4,0.4,0.8,0.8,0.8,1.2c0,2.7,0,5.4,0,7.7c-0.4,3.1-2.7,5-5.4,5.8c-0.8,0.4-1.5-0.8-2.3-0.8
			c0.4-0.4,1.2-1.2,1.5-1.5c2.7,0,4.6-2.3,4.6-5c0-2.3,0-5,0-7.3C961.5,1352.8,961.5,1352.8,961.9,1352.4z"/>
		<path d="M872.9,1302.9c-3.8,3.1-3.5,7.3-3.5,11.5c-0.4,0-0.8,0-0.8,0c0-0.8-0.4-1.5-0.4-2.3s-0.4-1.9-0.8-2.3
			c-0.4-0.4-1.5,0.4-1.9,0.4c-0.4,0.4-0.8,0.8-1.5,1.2c-0.4,0-0.4-0.4-0.8-0.4c0-0.8,0.4-1.9,0.8-1.9c3.1-0.8,4.6-3.5,6.1-5.4
			c0.4-0.4,1.2-0.8,1.5-1.2C872.1,1302.6,872.5,1302.6,872.9,1302.9z"/>
		<path d="M985.3,1319c0,2.7,0,5.8,0,8.4c-0.4,3.5,1.2,4.6,4.6,3.5c0.4,0,0.4-0.4,0.8-0.4c0.4,0,0.4,0.4,0.8,0.4
			c-0.4,0.8-0.8,1.9-1.2,1.9c-1.5,0.8-3.1,1.9-4.6,0c-1.2-1.2-1.5-2.3-1.2-4.2c0.4-3.1,0-6.1,0-9.2l0.4-0.4
			C984.9,1319,984.9,1319,985.3,1319z"/>
		<path d="M954.6,1264.2c0.8-0.4,1.2-0.8,1.9-0.8c3.8-1.2,4.6-2.7,4.2-6.9c0-1.9,0-3.5,0.4-5.8c0.4,0.4,0.8,0.4,0.8,0.4
			c0,3.8,1.2,8.1-1.2,11.5c-0.8,1.2-2.3,1.9-3.8,2.7c-0.4,0.4-1.5-0.8-2.3-0.8C954.6,1264.6,954.6,1264.2,954.6,1264.2z"/>
		<path d="M956.1,1293.4c0.4-2.7,0.8-5,1.2-7.3h0.4c0.8,2.3,1.2,4.6,2.3,6.5s2.3,3.8,3.8,6.1c-1.9,0.4-3.5-0.8-4.2-3.5
			C958.8,1293.7,958,1292.2,956.1,1293.4z"/>
		<path d="M952.7,1331.7c1.2-1.2,2.3-1.9,3.5-3.1s1.9-2.3,2.7-3.1c1.5,1.9,2.7,3.8,4.2,5.8c0.4,0.4,0,1.2,0,1.5
			c-0.4,0-1.2,0-1.5-0.4c-0.4-0.4-0.8-0.8-1.2-1.5c-1.5-1.9-2.3-1.9-3.8-0.4C955,1332.5,955,1332.5,952.7,1331.7z"/>
		<path d="M1044.7,1208.2c-0.4,0.8-0.4,1.9-0.4,2.7c2.7,2.7,6.1,0.4,8.8,1.5c-2.3,2.7-7.7,2.7-10,0.4
			C1042,1211.7,1042.8,1209.4,1044.7,1208.2z"/>
		<path d="M988.7,1243.1c0-0.8,0-2.3-0.4-2.7c-1.2-1.2-2.7-0.8-3.1,1.2c-1.2-0.8-1.9-1.2-3.1-2.3c0.4-0.4,1.2-1.2,1.5-1.5
			c0.8-0.4,1.5-0.8,2.3-1.2c0.8,0.4,1.9,0.8,2.7,1.2c0.8,0.4,1.9,1.2,1.9,1.9C989.9,1240.4,991,1242.4,988.7,1243.1L988.7,1243.1z"
			/>
		<path d="M923.9,1337.1c0.4,3.5,0.4,6.5,0.8,10c1.5-0.4,2.3-0.4,3.5-0.8l0.4,0.4c-0.8,0.8-1.5,1.9-2.7,2.7c-0.4,0.4-1.5,0-1.9-0.4
			C922.4,1347,922.4,1340.1,923.9,1337.1z"/>
		<path d="M984.5,1274.2c0.4,0.8,1.2,1.2,1.2,1.9c0,2.7,1.2,3.8,3.8,4.2c0.8,0,1.5,0.4,2.7,0.4c0.4,1.5-0.4,1.9-1.9,2.3
			c-2.7,0.4-6.5-2.7-5.8-5.8C984.9,1276.5,984.5,1275.3,984.5,1274.2L984.5,1274.2z"/>
		<path d="M1045.1,1328.2c-0.4,2.3,0.4,3.1,2.3,3.1c1.5,0,2.7,0,4.2,0c0.4,0,0.8,0.4,1.5,0.8c-0.4,0.4-0.8,1.2-1.2,1.2
			c-2.3,0.4-4.6,1.2-6.9-0.4C1043.2,1331.7,1043.2,1330.9,1045.1,1328.2z"/>
		<path d="M922.4,1240.8c2.3,0,2.7,0.4,3.1,3.8c0.4,3.1,0,3.5-3.8,4.2C922,1245.8,922,1243.5,922.4,1240.8z"/>
		<path d="M1048.9,1324c-1.2-0.4-1.9-0.8-3.1-1.5c-0.8-0.4-1.2-0.8-1.9-1.5c0.8-0.4,1.2-0.8,1.9-0.8c1.5,0,3.1,0,4.2,0
			c0.8,0,1.5,0.4,1.9,0.8c-0.4,0.8-0.4,1.5-0.8,1.9c-0.8,0.8-1.5,1.2-2.3,1.5C1048.9,1324.8,1048.9,1324.4,1048.9,1324z"/>
		<path d="M863.3,1332.8c0.8-0.8,1.2-1.9,1.9-2.3c3.1-0.8,5.4-2.7,6.5-5.8c0-0.4,0.4-0.4,0.8-0.8c0.8,1.5,0.4,3.1-2.7,6.1
			c-1.5,1.5-3.8,2.3-5.8,3.5C863.7,1333.2,863.7,1333.2,863.3,1332.8z"/>
		<path d="M1013.2,1225.9c1.2,3.1,1.9,3.5,5,3.1c0.8,0,1.9,0,2.7,0c0.4,0,0.8,0.4,1.2,0.8c-0.4,0.4-0.8,1.2-1.2,1.2
			c-2.3,0-5,0-7.3-0.4c-0.4,0-0.8-1.2-0.8-1.5C1012.9,1228.2,1013.2,1227,1013.2,1225.9z"/>
		<path d="M895.5,1270.3c0-0.8,0.4-1.2,0.4-2.3c0.8,1.5,1.5,2.3,2.3,3.5c-3.8,1.2-2.7,5.4-5.4,7.7c0-0.8,0-1.5,0-1.9
			c0.8-1.9,2.3-3.8-0.4-5.4c0,0,0.4-1.2,0.8-1.5C893.6,1270.3,894.4,1270.3,895.5,1270.3z"/>
		<path d="M929.7,1407.6c1.2-1.9,0-4.2,2.7-4.2c0.8,0,1.9,1.2,2.3,1.9c0.4,1.9-1.2,4.6-2.3,4.6
			C931.2,1409.2,930.4,1408.4,929.7,1407.6z"/>
		<path d="M924.3,1313.7c1.5-0.4,2.3-0.4,3.1-0.4c0,0.4,0.4,0.4,0.4,0.8c-0.8,0.8-1.9,1.9-2.7,2.7c-2.7-2.3-3.5-10.4-1.2-12.7
			C923.9,1307.2,924.3,1310.2,924.3,1313.7z"/>
		<path d="M959.2,1322.9c-1.9-0.4-3.8-0.8-6.1-1.2c0.8-0.8,1.2-1.5,1.5-1.5c1.9,0,3.5,0,5.4,0c0.4,0,1.5,0.8,1.5,1.2
			c0,1.2-0.8,2.3-1.2,3.5c-0.4-0.4-1.2-1.2-1.5-1.5C958.8,1322.9,958.8,1322.9,959.2,1322.9z"/>
		<path d="M991.8,1409.5c-1.9-1.5-2.3-3.8-0.8-5.4c1.2-1.2,2.7-0.8,3.1,0.8C994.8,1407.6,994.5,1408,991.8,1409.5z"/>
		<path d="M982.2,1174.1c1.9-1.9,1.9-3.1-0.8-3.8c0-0.8,0-1.2,0-1.9c0.8,0,1.2,0,1.9-0.4c0.8-0.4,1.2-0.8,1.5-1.2
			c1.2,0.8,1.9,1.2,2.7,1.9l0,0c-1.5,1.5-3.1,3.1-3.8,5.4C983.3,1174.1,982.6,1174.1,982.2,1174.1L982.2,1174.1z"/>
		<path d="M923.5,1176.4c1.9,4.2,5.4,1.5,8.1,1.9c-1.2,2.3-4.2,3.1-7.3,1.9C922.8,1179.5,922.8,1178.3,923.5,1176.4z"/>
		<path d="M1047.8,1205.5c0-1.2,0-1.9,0-2.3c-1.5-0.8-3.5,0.8-5-1.5c3.1,0,5.8,0,8.4,0c0,0.4,0.4,0.4,0.4,0.8
			C1050.8,1203.2,1049.3,1204.4,1047.8,1205.5z"/>
		<path d="M1021.7,1219.3c-1.2,0.8-1.9,1.9-2.7,2.3c-1.9-0.8-3.5-1.5-5.4-2.3v-0.8c2.7-0.4,5-0.4,7.7-0.4
			C1021.3,1218.6,1021.7,1219,1021.7,1219.3z"/>
		<path d="M895.9,1200.2c0.4,0.8,1.2,1.9,1.9,3.5c-0.8,0.8-1.9,1.5-3.1,2.3c-0.4-1.2-0.8-1.9-1.2-3.1c-0.4,0.4-0.8,0.8-1.5,0.8
			C893.2,1202.5,894.4,1201.3,895.9,1200.2z"/>
		<path d="M870.6,1211.7c-1.2,1.9-3.1,3.1-5.4,3.5c-0.4,0-1.2-0.4-1.2-0.8c0,0,0-0.8,0.4-1.2c1.9-0.8,4.2-1.9,6.1-2.7
			C870.6,1210.9,870.6,1211.3,870.6,1211.7z"/>
		<path d="M933.1,1347.8c-0.8-3.5-1.5-6.5-2.3-10C933.1,1339,934.3,1343.2,933.1,1347.8z"/>
		<path d="M932.3,1314.1c1.2-3.1-2.3-5.8-1.2-9.2C933.5,1307.5,934.3,1312.5,932.3,1314.1z"/>
		<path d="M862.9,1271.1c1.5-2.3,5.4-2.7,8.8-1.5c0,0.4,0,0.4,0,0.8C869.1,1270.3,866,1270.7,862.9,1271.1z"/>
		<path d="M991.4,1388.1c-1.2,1.9-3.5,1.9-6.5,0C987.2,1386.5,989.5,1386.5,991.4,1388.1z"/>
		<path d="M953.4,1259.2c0-2.7,0-5.4,0-8.1c0.4,0,0.4,0,0.8,0C953.4,1253.9,955.7,1256.5,953.4,1259.2z"/>
		<path d="M953.4,1353.9c1.9,1.2,1.9,5.4,0.4,7.3C953.8,1358.9,953.8,1356.6,953.4,1353.9z"/>
		<path d="M988.7,1243.1c1.2,1.2,1.2,4.2-0.4,5c-0.8,0.4-1.5,0-2.7-0.4C988.3,1247,989.1,1245,988.7,1243.1L988.7,1243.1z"/>
		<path d="M955.3,1294.5l0.8,0.8c-0.8,1.5-1.9,3.1-3.1,4.2c0,0-0.8,0-1.2-0.4c0-0.4,0-1.2,0.4-1.5
			C953.4,1296.8,954.2,1295.7,955.3,1294.5z"/>
		<path d="M866.4,1324c-0.8-1.2-3.8-1.5-1.9-4.2C865.6,1321,867.9,1321.3,866.4,1324z"/>
		<path d="M992.5,1242c-0.8-1.9-1.5-3.1-2.3-5C992.9,1237.4,994.1,1239.3,992.5,1242z"/>
		<path d="M1018.2,1183.3c-0.4,2.7-1.5,2.3-2.7,1.9c-0.4,0-0.8-0.8-1.2-1.5C1015.5,1183.3,1016.7,1183.3,1018.2,1183.3z"/>
		<path d="M982.2,1247.3c0.8-1.9,1.5-3.5,1.9-5.4c0.4,0,0.4,0,0.8,0.4c-0.4,1.9-1.2,3.5-1.5,5.4
			C983,1247.7,982.6,1247.3,982.2,1247.3z"/>
		<path d="M930.4,1286.1c3.1,0,3.5,1.2,2.3,3.5C932,1288.4,931.2,1287.2,930.4,1286.1z"/>
		<path d="M961.1,1380c-1.9,2.3-3.1,2.7-4.2,1.2c1.5-0.8,2.7-1.2,4.2-1.5C961.1,1379.6,961.1,1380,961.1,1380z"/>
		<path d="M1051.6,1370c2.3,0.4,2.7,1.9,2.3,3.8C1052.4,1373.1,1052,1372.7,1051.6,1370z"/>
		<path d="M1024.4,1271.5c-1.2,0-1.9,0.4-2.3,0c-1.2-0.8-1.2-1.9,0-3.5C1022.4,1269.2,1023.2,1270,1024.4,1271.5z"/>
		<path d="M902,1220.9c-0.4-0.8-0.8-1.2-1.2-1.9c-0.4-0.4,0-1.2-0.4-1.5c0.8,0.4,1.5,0.4,1.9,0.8c0.4,0.8,0.4,1.5,0.4,2.7
			C902.8,1220.9,902.4,1220.9,902,1220.9z"/>
		<path d="M892.1,1211.7c0.4-1.5,1.2-3.5,1.5-5c0.4,0,0.8,0,0.8,0.4c-0.4,1.5-1.2,3.5-1.5,5C892.5,1212.1,892.5,1212.1,892.1,1211.7
			z"/>
		<path d="M1054.3,1255c-3.1-0.4-3.5-1.2-2.7-4.2C1052.7,1252.3,1053.1,1253.1,1054.3,1255z"/>
		<path d="M956.1,1372.3c0,1.2,0.4,2.3,0.4,3.5c-0.4,0-0.8,0-1.2,0c0-1.2-0.4-2.3-0.4-3.5C955.3,1372.3,955.7,1372.3,956.1,1372.3z"
			/>
		<path d="M863.3,1206.3c0-2.3,0-4.2,0-6.5h0.4c0,2.3,0,4.6,0,6.5C863.7,1206.3,863.7,1206.3,863.3,1206.3z"/>
		<path d="M992.5,1169.1c-1.2,0.8-2.3,1.2-3.5,1.9C989.1,1168,989.5,1167.6,992.5,1169.1z"/>
		<path d="M982.2,1174.1c2.3,1.5,0,2.7,0,4.2C980.7,1176.8,982.6,1175.3,982.2,1174.1L982.2,1174.1z"/>
		<g>
			<path d="M901.7,1166.4c-1.5,0-3.1,0-4.6,0s-3.1-0.4-4.2-0.4c-0.4,0-1.2,1.2-1.5,1.5c0.8,0.4,1.5,0.8,2.3,1.5
				c-1.2,1.2-3.1,1.9-2.3,4.2c0.4,1.9,0,3.8,0,5.8c0.4,0,0.4,0,0.8,0c0-0.4,0-0.8,0-1.2s0.4-1.2,0.4-1.9c0.8,0.8,1.2,1.2,1.5,1.9
				c1.2,1.2,1.2,3.8,3.8,2.3c0.4-0.4,1.5,0.4,2.7,1.2c0.4-0.4,1.2-1.5,1.2-2.3c0-3.8,0-7.7,0-11.5
				C902,1166.8,902,1166.4,901.7,1166.4z M894.4,1172.2c0-1.5,0.4-2.7,0.4-4.2C896.7,1170.7,896.7,1171,894.4,1172.2z"/>
		</g>
		<g>
			<path d="M992.2,1225.9c-0.4-1.5-1.9-3.5-4.2-2.3c-0.4,0.4-1.5-0.4-1.9-0.8c0-0.4,0-0.4,0-0.8c1.5-0.4,3.1-0.8,4.6-1.5
				c-1.9-1.2-3.5-1.9-4.6-2.7c-1.2,0.8-2.3,1.9-4.2,3.1c1.5,0.4,2.3,0.8,3.1,1.2c0,0.4,0,0.4,0,0.8c-0.4,0-1.2,0.4-1.5,0.4
				c-0.4,0.4-0.8,0.8-1.2,0.8c0.4,0.4,0.8,0.8,1.2,0.8c1.9,0.4,1.9,1.5,1.9,3.5c0,1.2,0,2.7,1.9,3.1c1.5,0.4,3.8,0.8,4.6-1.2
				C992.5,1229.3,992.9,1227,992.2,1225.9z M988.7,1230.1c-1.2-0.4-3.1-0.4-2.7-2.7c0.4-1.9,1.9-2.3,3.5-1.9
				c0.8,0.4,1.9,1.2,2.3,1.9C991.8,1228.9,989.9,1230.5,988.7,1230.1z"/>
		</g>
	</g>
	<g id="logo">
		<path d="M110.6,1514.8c0,1.1,0,1.8,0.4,3c0.4,1.5,1.1,3,1.5,4.4c0.7,1.5,1.8,3,1.8,4.1c-0.7,3.3,0.4,6.3,0,9.2
			c-0.4,1.8,0,4.1,0,5.9c0,1.1-0.7,2.6-1.1,3.7c-0.4,1.5-0.7,3.3-1.1,4.8c0,0.4-0.7,0.7-0.7,1.1c-1.8,3.3-3.3,6.7-5.2,9.6
			c-2.2,3-4.8,5.5-7.8,7.8c-2.2,1.8-5.2,3.7-7.8,5.2c-3.3,1.8-7,3-10.7,3.7c-4.4,1.1-8.5,0.7-12.9,0.7c-3.3,0-6.3-1.5-9.6-2.2
			c-2.2-0.4-4.4-1.1-6.3-2.2c-1.5-0.7-3-2.2-4.4-3.3c-2.6-2.2-5.2-4.1-7.4-6.7c-1.1-1.1-2.2-3-3-4.4c-1.8-2.6-3.7-5.5-5.2-8.5
			c-0.7-1.1-1.1-2.2-1.1-3.7c-1.1-5.2-2.2-10.7-1.5-16.3c0.4-3.7,1.1-7,1.8-10.7c0-0.7,0-1.8,0.7-2.6c1.8-3,3-5.9,4.8-8.9
			c1.5-2.2,3-4.1,4.8-5.9c0.7-0.4,2.6-1.8,4.4-3.3c1.1-0.7,2.2-1.1,3.3-1.8c3-1.8,5.9-3.7,9.6-4.4c3.3-0.4,6.3-1.8,9.6-2.6
			c1.1-0.4,2.2,0.7,3.3,0.4c1.8-0.7,3.3,0,5.2,0c2.2,0,4.8,0.7,7,1.5c3.3,1.1,6.7,2.2,9.6,3.7c1.8,0.7,3.3,2.2,4.8,3.7
			c2.2,1.8,4.4,3,6.3,5.2c2.2,2.6,3.7,5.5,5.5,8.5C109.1,1514,109.5,1516.2,110.6,1514.8z M94.7,1558.4c0.4,0,0.4,0.4,0.7,0.4
			c1.1-1.1,1.8-2.2,3-3.3c3.3-3.3,5.2-7.8,6.3-11.8c1.5-5.9,1.8-12.6-0.4-18.5c-0.7-2.2-1.5-4.4-2.2-6.3c-0.7-1.5-2.2-2.6-3.3-3.7
			c-0.4,2.2-0.7,4.1-0.7,5.9c2.6,2.6,7,4.8,3.7,10c-1.8,0-3.7,0-5.9,0c0.7,0.4,1.5,1.1,2.2,1.1c1.8,0,3,1.1,3,2.6s0,3.3-0.7,4.4
			c-1.1,1.8-3,3-4.8,4.1c-2.6,1.5-3,3-0.7,5.5c0.7-0.4,1.5-1.1,2.2-1.5c1.5,2.6,3-0.4,4.4,0c-2.6,1.8-4.4,3.7-4.1,7
			C96.5,1555.8,95,1556.9,94.7,1558.4z M75.4,1514c-1.1-0.4-2.6-1.1-4.4-1.5c0.7-0.4,1.1-0.4,1.5-0.7c-0.7-3.7,1.1-8.9,3.3-9.6
			c-1.1-1.1-5.5-2.2-6.7-1.5c-1.8,1.1-4.1,0-5.9,0.4c-2.2,0.4-4.4,1.5-6.7,2.2c0,0.4,0,0.4,0,0.7c0.4,0,0.4-0.4,0.7-0.4
			c1.8-0.4,4.1-0.4,5.2,1.1c0.7,1.1,1.1,3,1.5,4.4c0.4,1.8,1.1,2.2,2.2,1.8c1.1,0.7,1.8,1.1,2.6,1.8c0.4,3,1.5,5.9-2.2,8.1
			c3.7-1.8,6.7-0.7,8.9,2.2l0.4-0.4C76.5,1519.6,76.2,1517,75.4,1514z M80.2,1566.9c-0.4,0-1.1-0.4-1.5-0.4c-1.8,0-4.1,0.4-5.5-0.4
			c-2.6-1.1-4.8-3-7-4.4c-1.5-0.7-3-1.1-4.8-1.8c-1.8-0.7-3.3,0.4-4.8,0.7c-2.2,0-3.3,1.5-4.4,2.6
			C60.6,1568.4,69.9,1570.6,80.2,1566.9z M55.1,1504.4c-10.4,5.5-19.6,18.9-18.1,31.4c0.7-0.7,1.1-1.1,1.5-1.8
			c1.1-1.5,2.2-3.3,3.3-4.8c0.4-0.4,1.5-0.4,2.2-0.4c1.1,0,2.2,0.7,3,0.4c2.2-0.7,4.1-1.5,6.7-2.6c-0.7-0.4-1.5-0.7-1.8-0.7
			c-1.1,0.4-2.6,0.7-3.7,1.5c-1.1,0.4-2.6,0.7-3.7,0.7c-0.4,0-0.7-1.1-1.1-1.8c-1.5-2.2-1.5-4.4-0.7-7c0.4-1.8,0-3,2.2-4.1
			c1.5-0.7,2.6-1.1,4.4-0.7c0.7,0.4,2.6-0.4,3-0.7c0.7-1.1,0-1.8-1.5-2.2c0,0-0.4-1.8,0-2.6C51.8,1507.7,53.3,1506.2,55.1,1504.4z
			 M38.8,1544.7c0,0.7,0.4,1.5,0.4,1.8c0.4,0.4,0.7,0.7,1.1,1.5c0.7,1.8,1.8,3.7,2.6,5.5c0.4,0,0.4,0,0.7,0c0.7-1.8,1.5-3.3,2.6-5.2
			c-3-2.2-0.4-4.8-0.7-7.8c-3,2.2-5.2,1.1-7.8-0.7C38.1,1541.7,37.4,1543.6,38.8,1544.7z M89.1,1520.7c-0.7-1.1-1.1-1.5-1.5-2.2
			c-0.4-1.8-0.7-3.7-0.7-5.5c0-1.5,2.6-3.3,4.1-3.3c0.4,0,1.5-0.4,1.5-0.4c0-0.4,0-1.1-0.4-1.5c-1.5-1.1-3-1.8-4.1-2.6
			c-0.4-0.4-1.5-0.4-1.8-0.7c-1.1-1.1-3.3-1.5-4.8-0.7c3.7,1.1,5.2,3.7,5.2,7.4c0,3.3,0,6.7,0,10
			C87.6,1520.7,88.4,1520.7,89.1,1520.7z M80.2,1539.5c-0.4-1.1-1.1-3-1.5-4.8c0-0.4-0.4-0.7-0.4-1.1c-0.4-1.8-1.5-2.6-2.6-1.1
			c-0.7,0.7-0.7,2.2-0.7,3.7l0.7,0.4c-0.4,1.5-0.4,3-0.7,3.7C76.9,1539.9,78.8,1539.5,80.2,1539.5z M53.3,1540.3
			c1.5-0.4,3-0.4,4.1-1.1c0.7-0.4,1.1-1.5,1.8-2.2c-0.4-0.4-1.1-1.1-1.5-0.7c-1.5,0.7-2.6,1.5-4.1,2.2
			C52.9,1538.8,53.3,1539.9,53.3,1540.3z M75.4,1549.5c0,0.4,0,0.4,0,0.7c2.2,0.4,4.4,0.7,6.7,0.7c0.7,0,1.1-0.7,2.2-1.5
			C81,1549.5,78.4,1549.5,75.4,1549.5z M88.7,1530.6c0.4,1.5,0.4,3,0.7,4.4c2.6-0.7,2.2-2.6,2.6-4.4
			C90.6,1530.6,89.9,1530.6,88.7,1530.6z"/>
		<path d="M46.6,1226c1.1,0,1.8,0,3,0.4c-0.4,3-2.6,1.1-4.1,2.2c1.8,0.4,3.3,0.7,5.2,1.1c-0.7,1.8-1.8,3-3.7,1.8
			c-1.5-0.7-3-1.1-3.7-1.5c-0.7,0.7-1.1,1.5-1.5,2.2c-0.4-0.7-0.7-0.7-0.7-0.7c0-0.7-0.4-1.1-0.4-1.8c-2.6,0.4-4.4,3-7.4,2.2
			c0.7-2.2,1.5-2.6,4.1-4.1c-1.1,0-2.2,0.4-3.3,0.4c-0.4-0.4-0.7-1.1-1.5-1.8c1.1,0,2.2-0.4,3.3-0.4c0-2.2,0-4.4-2.6-5.2
			c0.7-0.7,1.1-1.5,1.8-2.2c-0.7-0.4-1.5-0.7-2.6-1.8c6.3-1.8,12.2-2.2,18.5-0.7c-1.1,1.1-1.8,1.5-2.6,2.2c0.4,0.4,0.7,0.7,1.5,1.1
			c-0.4,0.7-0.4,1.5-0.4,1.8c-1.1,0.4-1.8,1.1-2.6,1.5c0,0,0,0.4,0.4,0.4c0.7,0.4,1.5,0.4,2.2,0.7c0,0.4,0,0.4,0,0.7
			c-1.1,0.4-1.8,0.7-3,1.1C46.6,1225.6,46.6,1226,46.6,1226z M40.3,1223.8l0.4-0.4c-0.4-0.7-0.7-1.1-0.7-1.8c-1.1,0.4-1.8,0.4-3,0.7
			c0,0.4,0,0.4,0,0.7C37.7,1223,38.8,1223.4,40.3,1223.8z"/>
		<path d="M86.2,1241.1c0,1.1,0,2.2,0,3.3c-0.4,0-0.7,0-1.1,0c-0.4-2.2-0.4-4.4-0.7-6.7c-0.7,0-1.5-0.4-1.8-0.4
			c0.4-1.1,1.1-2.2,1.1-3.3c0-1.1-0.7-2.2-1.1-3c0.7-1.1,1.5-2.2,2.2-3.7c0.4-0.4,0.4-0.7,0.7-1.1c0.4,0.4,0.7,0.7,0.7,1.1
			c0.4,0.7,0.4,1.5,0.4,2.2c2.6,0.7,2.2-3.7,5.5-3c1.8,0.4,4.4-0.7,6.7,1.1c-1.1,0.4-2.2,0.4-3.3,0.7v0.4c1.5,0,2.6,0,4.1,0
			c0,0.7,0,1.5,0,2.2c-0.7,0-1.1,0-2.6,0c1.5,0.7,2.2,1.5,3.3,2.2c-1.1,0.7-2.2,1.5-3.3,2.6c3,0.4,2.2,3,2.2,4.4
			c0.4,1.8,0.4,3.7-3.3,4.1c-0.4-0.4-0.7-1.5-1.8-1.8c-0.7-0.4-1.5,0.4-3,0.4c0,0.4,0,0-0.4-0.7c-0.7,0.7-1.5,1.5-2.6,2.2
			C88,1242.6,88.7,1240.4,86.2,1241.1c2.2-0.7,3.3-1.8,1.8-3.7c0.7-1.1,1.5-1.5,1.8-2.2c-0.4-0.4-1.1-0.7-1.8-1.1
			c0,1.1,0.4,1.5,0.4,2.2c-0.7,0-1.5,0-2.2,0C86.2,1237.8,86.2,1239.3,86.2,1241.1z M97.3,1241.1c0.4,0,0.4,0,0.7-0.4
			c0.4-3-0.4-3.7-3.3-2.6c1.1,0,1.5,0,1.8,0C96.5,1239.3,96.9,1240,97.3,1241.1z"/>
		<path d="M56.6,1193.8c3.7,1.1,2.6-2.6,4.1-3.3c0.4,1.1,1.1,1.8,1.5,3c0.7-0.4,1.5-0.7,2.2-1.5c0.7-0.4,1.1-1.1,1.8-1.8
			c0.7,0.4,1.1,1.1,1.8,1.8c0.7-0.4,1.5-0.7,2.2-1.5c1.1,0.4,2.2,0.7,3.7,1.5c1.1,1.8-1.1,1.5-1.8,2.6c0.7,0,1.5,0.4,2.6,0.4
			c-0.4,0.7-0.7,1.5-1.1,1.8c0,1.8,0,3.3,0.4,5.2c0.4,1.1-1.5,3,0.7,3.7c-0.4,0.7-1.5,1.8-1.5,1.8c-1.1-0.4-3.3,0-3-2.6
			c-0.7-0.4-1.5-0.4-2.6-0.7c-0.4,2.6-2.6,2.6-4.4,3.7c-0.4-0.7-0.4-1.1-0.7-1.8c0.7-0.4,1.1-0.7,1.1-0.7c-0.4-1.8-0.4-3.7-0.7-5.5
			c-0.7,0-1.5,0-1.8,0c0,3,0,5.5,0,8.1c-1.8-1.8-2.2-4.1-1.5-6.7c-0.7,0-1.5,0.4-3,0.4c0.7-1.5,1.1-3,1.8-4.4
			c0.4-0.7,1.1-1.5-0.7-1.8C57.7,1196,57.3,1194.9,56.6,1193.8z"/>
		<path d="M86.9,1270.7c-0.4-1.1-4.1,0.7-3.3-2.6c0.7,0,1.8,0,2.6,0v-0.4c-0.4-0.4-1.5-0.4-1.5-0.7c-0.4-0.4-0.4-1.5,0-1.8
			c0.7-0.7,1.8-1.1,3-2.2c1.1,0.4,1.5,3.3,3.7,1.8c1.5-0.7,4.1,0.4,3.7-3.3c1.1,1.5,1.5,2.2,2.2,3c0.4-0.4,1.1-0.7,1.5-1.1
			c0.4,0.7,0.7,1.1,1.5,1.8c-0.4,0.4-1.1,1.1-1.5,1.8c2.6,2.2-0.4,4.1-1.1,5.9c1.1,0,1.8-0.4,3.3-0.4c-0.4,1.5-0.7,2.6-1.1,3.7
			c0,0.4,0,0.7,0,0.7c0.7,1.8,0.4,3-1.5,3c-4.1-0.4-8.5,0.7-12.6-1.8c-0.7,0.7-1.1,1.1-1.8,1.8c-0.7-1.1-2.2-1.5-0.4-3
			c0.4-0.4,0.4-1.8,0.7-2.6C85.1,1272.9,85.8,1271.8,86.9,1270.7z M92.4,1276.6c0-0.4,0-0.4,0-0.7c-1.1-0.7-2.2-1.1-3.3-1.8
			c-0.4,0-0.4,0-0.7,0.4c0.4,0.7,0.4,2.2,0.7,2.2C90.2,1277,91.3,1276.6,92.4,1276.6z M94.7,1276.6c1.5,0.4,2.2,0.7,3,0.7
			c0.4,0,0.7-0.4,0.7-0.7c-0.7-0.7-1.1-1.1-1.8-1.8C96.1,1275.5,95.8,1275.9,94.7,1276.6z M95.4,1266.3c-1.1,0.7-1.8,1.1-1.8,1.1
			c0,1.5,0.4,2.6,0.4,3.7c0.4,0,0.7,0,0.7,0C94.7,1269.6,95,1268.1,95.4,1266.3z M88.4,1266.7c0,0.4,0,0.4-0.4,0.7
			c1.1,0.4,2.6,0.4,4.1,0.7c-0.4-1.1-0.7-1.5-1.1-2.2C90.2,1266.3,89.5,1266.7,88.4,1266.7z"/>
		<path d="M70.3,1262.2c1.1,0.7,1.5,1.5,2.2,1.8c0.4-0.4,0.7-0.7,1.1-1.1c0.7,0.7,1.1,1.8,2.2,3.3c-1.1,0.4-1.8,0.7-2.6,0.7
			c-2.6,0.4-0.4,1.5-0.7,2.2c0.7-0.4,1.5-0.7,3-1.5c-0.7,2.2-1.5,4.1-2.2,5.9c1.1-0.7,1.5-1.1,2.2-1.5c1.5,1.1,1.1,2.2-1.5,4.8
			c-1.5-1.1-2.6-2.2-4.1,0.4c2.2,0,4.4,0,7,0c-0.7,1.1-1.5,1.8-1.8,2.6c-2.6,0.4-4.8,0.7-7.4,0c-2.2-0.7-4.4-1.1-6.7-1.5
			c0-0.4,0-0.4,0-0.7c-0.4,0.7-1.1,1.1-1.5,1.8c-0.4,0-0.4-0.4-0.7-0.4c0.4-2.6,0.7-5.2,1.5-8.1c0.7,0.7,1.1,1.1,1.5,1.5
			c0-0.4,0.4-1.1,0.4-1.5c-3.3-0.4-3.3-0.4-3-2.2c1.1-0.4,1.8-0.7,3-1.1c0-0.4,0-0.4,0-0.7c-0.7-0.4-1.8-0.7-3-1.1
			c1.5-1.1,2.6-2.6,3.7-3.3c1.5,0.7,3.3,2.2,4.1,1.8C67.3,1264.1,70.3,1265.9,70.3,1262.2z M65.8,1275.9c-0.7-0.7-1.5-1.1-2.2-1.5
			c-0.4,2.6,0.7,3.3,4.4,3.3c0.4-1.5,0.7-2.6,1.5-4.1C68,1274.1,66.9,1275.2,65.8,1275.9z M70.3,1267.4c0-0.4-0.4-0.4-0.4-0.7
			c-0.4,0.4-1.1,0.7-1.1,1.5c-0.7,1.8,0,3,1.5,4.1C70.3,1270.7,70.3,1268.9,70.3,1267.4z M63.6,1270.7c1.1,0.7,2.2,1.1,3.3,1.5
			c0-1.1-0.4-1.8-0.4-3c-0.7,0.7-1.1,1.1-1.5,1.1C64.7,1270.7,64.3,1270.7,63.6,1270.7z"/>
		<path d="M36.2,1277.8c-0.4,0.7-1.1,1.5-1.5,2.2c-0.4,0-0.4,0-0.7-0.4c0-2.6,0.4-5.2,0.4-7.8c0-0.4,0-0.7,0-1.5
			c-0.7-1.8-0.7-1.8,1.5-1.8c0.4,0,0.4,0,1.1-0.4c-1.1-1.1-2.2-1.8-3.7-3c1.1,0,2.2-0.4,3.3-0.4c0-1.8,0.4-1.8,1.5-1.1
			c0.7,0.7,1.5,1.1,2.6,1.8c-0.7,0.7-1.5,1.1-2.6,2.2c1.5,0.4,2.2,0.7,3,0.7c0.4,0,1.1-1.1,0.7-1.5c0-1.5,0.4-1.8,1.8-1.8
			c0.7,0,1.5-0.7,2.6-1.1c0.4,0,0.7,0.4,1.1,0.7c0.4-0.7,0.7-1.5,1.5-2.6c0.7,1.8,1.1,3,1.5,3.7c-1.8,1.1-3,1.8-4.1,3
			c-0.7-0.4-1.5-1.1-2.2-1.8l-0.4,0.4c0.4,2.2,1.1,4.4,1.5,6.7c0.4,0,0.4,0,0.7,0c0-1.5,0-2.6,0-3.7c1.1-0.7,2.6-1.5,4.1-2.2
			c1.1,0.7,1.1,0.7,0.4,1.8c-0.7,1.1-1.1,2.6-1.5,3.7l0.4,0.4c0.7-0.4,1.1-1.1,1.8-1.5c1.1,1.1,0.7,2.6-0.4,3.3
			c-1.1,0.4-2.6,0-3.7,0v-0.4c-0.4,0.4-1.1,1.1-1.5,1.8c2.6,0,4.8,0.4,7,0.4c0,0.4,0,0.7,0,1.1c-1.5,0.7-3.7,2.6-4.4,2.2
			c-2.6-1.8-5.2,0-7.4-0.7C38.5,1279.2,37.4,1278.5,36.2,1277.8z M39.2,1273.7c0,3.7,0,3.7,4.4,4.1
			C41.8,1276.3,40.7,1275.2,39.2,1273.7z"/>
		<path d="M88.4,1370.6c-1.8-1.5-1.8-3.3-1.1-5.5c0.4-1.5-0.4-3.7-0.7-5.5c0-1.8-0.4-3.3,0-4.8c0.7-2.2,3-1.1,4.4-1.1
			c2.6,0,5.2-0.4,8.1-0.4c0.4,0,1.5,1.1,1.5,1.5c0.4,4.4,0.4,8.9,0.4,13.3c0,0.7-0.4,1.8-0.7,2.2c1.1,0.7,2.2,1.1,3,1.8
			c0.4,0-0.4,1.1-0.7,1.5c-0.4-0.7-0.7-1.8-1.5-3c-0.7,1.5-1.5,2.6-2.6,0.7c0.4-0.7,0.7-1.1,1.1-2.2c-1.1,0-2.2,0-3.3-0.4
			c-1.8,0-3.3,0-5.2-0.4C89.5,1368.7,88.7,1369.1,88.4,1370.6L88.4,1370.6z M88.7,1359.1c1.8-0.4,3.3,1.5,5.5,0.4c1.1-0.7,3,0,5.2,0
			c-0.4-1.8-0.7-3-1.1-4.1c-3.7,0-6.7,0-10,0C88.4,1356.9,88.7,1358,88.7,1359.1z M89.1,1366.1c3.3,0,6.3,0,9.6,0
			c0.4-3,0-4.1-1.8-4.1s-3.7,0.4-5.2,0.4C88.7,1362.4,88.4,1363.2,89.1,1366.1z"/>
		<path d="M85.4,1333.2c0-1.1,0.4-2.2,0.4-3c0.4-1.5,0.7-3.3,1.1-4.8c0-0.4,0.4-1.1,0.4-1.5c0-1.8-0.4-3.3-0.4-5.2
			c0-0.4,0.7-1.5,1.5-1.5c1.1-0.7,2.6-0.7,3.7-0.7c2.6,0,4.8,0,8.1,0c0,5.2,0,10,0,15.2c0,0.4-0.7,1.5-1.5,1.5
			c-1.1,0.4-2.6,0.4-4.1,0.4c0-1.1,0-1.8-0.4-2.6c1.1,0,2.2,0,3.3-0.4c0-0.7,0.4-1.5,0.4-1.8c0-0.7-1.1-1.5-1.1-1.5
			c-2.2,1.5-4.1,0-6.3,0.4c-2.2,0-2.2,0.4-2.6,2.6c0,1.1-1.5,1.8-2.2,2.6C85.8,1333.2,85.4,1333.2,85.4,1333.2z M98.4,1325.1
			c0-0.4,0-0.7,0-1.1c-3-1.5-6.3-0.4-9.2,0c0,0-0.4,0.7-0.4,1.1C92.1,1325.1,95,1325.1,98.4,1325.1z M88.7,1320.3
			c2.2,1.1,8.1,1.1,9.2,0C95.4,1318.8,89.5,1318.8,88.7,1320.3z"/>
		<path d="M102.1,1429.3c0,5.9,0,11.5,0,17c-4.8-2.2-9.2-1.5-14-0.4c0-5.2,0-10.7,0-16.6c1.8-0.4,4.4-0.7,6.7-0.7
			C97.3,1428.6,99.8,1429,102.1,1429.3z M99.8,1442.7c0-0.4,0-0.7,0-1.1c0-1.1,0-2.2-0.4-3.3c-0.7-1.8-1.8,0-3,0c-0.4,0-0.4,0-0.7,0
			c-2.2,0-4.1,0-6.3,0c0,1.5,0.4,3,0.4,4.1C93.6,1442.7,96.5,1442.7,99.8,1442.7z M99.8,1431.9c-3.7,0-6.7,0-10,0
			c0,1.1,0,1.8-0.4,3.7c2.2,0,4.8,0,7,0c0.7,0,2.2,0,2.2-0.4C99.5,1434.1,99.5,1433,99.8,1431.9z"/>
		<path d="M99.5,1222.3c-1.1-0.4-2.6-0.7-3.7-0.7s-2.6,0.7-3.7,0.7c0,1.1,0,2.2,0,3c-0.4,0-0.4,0.4-0.7,0.4
			c-0.7-1.1-1.1-2.2-2.2-3.7c-1.5,0-4.1-3-5.9,1.1c-0.7-1.8-1.1-3,0.4-3.7c2.2-1.5,3.7-3.3,4.4-6.3c-1.8,0-4.1,0-5.9,0
			c1.1-2.6,1.8-3,4.4-2.6c2.2,0.4,3.7-0.4,3.3-3c0.7,0,1.1-0.4,1.8-0.4c0,0.4,0.4,0.4,0.4,0.4c-0.7,2.2,1.1,2.6,2.6,3
			c1.1,0,2.2-0.4,3.3-0.4c0.7,0,1.1,0,1.8,0c-0.7,2.6-1.1,3-6.7,2.6c1.8,1.8,3.3,3.3,4.8,4.8c0.7,0.7,1.1,2.2,1.8,3.3
			C99.5,1221.9,99.5,1221.9,99.5,1222.3z M94.3,1218.6c-0.7-1.1-1.5-2.2-2.6-3.7c0,1.5,0,1.8,0,2.6
			C91.7,1219.3,92.4,1219.7,94.3,1218.6z"/>
		<path d="M37.7,1370.2c-0.4-2.2-0.7-4.1-0.7-6.3c0-3.3,0-7,0-10.4c4.8,0,9.2,0,13.7,0c0,3,0.4,5.5,0.4,8.1c0,2.2,0,4.8,0,7
			c0,1.5-0.7,1.8-1.5,1.1c-3.3-2.2-6.7,0-10-0.7C39.2,1369.4,38.1,1369.8,37.7,1370.2L37.7,1370.2z M39.2,1365.7
			c0,0.4-0.4,0.4-0.4,0.7c2.2,0,4.1,0.4,6.3,0.4c3.7,0.4,5.2-0.4,3.3-4.4c-3,0-5.5,0-8.5,0c-0.4,0-1.1,0.7-1.1,1.1
			C38.5,1364.6,38.8,1365,39.2,1365.7z M48.4,1359.8c1.1-3,0.7-4.1-2.6-4.1c-2.2,0-4.1,0-6.3,0.4c-0.4,0-0.7,0.7-0.7,1.1
			c0,0.7,0.4,1.5,0.4,2.6C41.8,1359.8,45.1,1359.8,48.4,1359.8z"/>
		<path d="M48.4,1328.8c-3.3,0-5.9,0-8.9,0c-0.7,0-1.5,0-1.5,1.5s-1.5,2.6-2.6,4.1c-0.4-1.5-1.1-2.6,0.7-3.7
			c1.1-0.7,0.7-3.3,0.7-5.2c0-2.6,0-4.8,0-7.8c2.2,0,4.8,0,7.4,0c1.1,0,2.6,0,3.7,0c1.5,0,2.2,0.4,2.2,2.2c0,3.3,0,6.3,0,9.6
			c0,1.1,0.4,2.2,0,3s-1.1,2.2-1.8,2.2c-1.1,0-3,1.1-3.7-0.7c0.4-0.4,0.7-1.1,1.1-1.5c0.7,0,1.8,0.4,1.8,0
			C48.1,1330.6,48.1,1329.5,48.4,1328.8z M48.8,1324.7c0-0.4-0.4-0.4-0.4-0.7c-0.7,0-1.8,0-2.6,0c-2.2,0-4.4,0-6.7,0.4
			c0,0-0.4,0.7,0,0.7c0.4,0.4,1.1,0.7,1.8,0.7c1.8,0,3.7,0,5.2,0C47,1325.8,47.7,1325.1,48.8,1324.7z M38.8,1319.5
			c1.1,2.2,7.8,2.6,9.2,1.1C45.1,1318.4,41.8,1321,38.8,1319.5z"/>
		<path d="M38.5,1446.7c0-0.4-0.7-1.1-0.7-2.2c0-3,0-5.9,0-8.9c0-1.5-0.4-3,0-4.4c0.4-0.7,1.5-1.8,2.2-1.8c3,0,6.3,0.4,9.2,0.4
			c0.7,0,1.1-0.4,2.6-0.4c0,5.5,0,11.5,0,17.4c-3-1.1-5.5-2.6-8.1,0c0-0.4,0-0.7,0-1.1C42.2,1446,40.7,1446.4,38.5,1446.7z
			 M40.3,1440.1c0,1.1-0.4,1.5,0,2.2c0,0.4,0.4,1.1,0.4,1.1c1.5,0,3.3,0.4,4.4,0c0.7-0.4,0.7,0,1.5,0c0.7,0.4,2.6,0,3-0.4
			c0.7-1.1,0.4-2.2,0.4-3.7c0-0.4-1.1-0.7-1.8-0.7c-1.1,0-2.6,0.4-3.7,0C42.2,1438.2,41.1,1439,40.3,1440.1z M39.9,1436.4
			c3,0,5.9,0,8.9,0c0.4,0,1.5-0.7,1.5-1.5c0.4-1.5-1.8-3.7-3.3-3c-2.2,1.1-4.4-0.4-6.7,0.4C40.3,1433.4,39.9,1434.9,39.9,1436.4z"/>
		<path d="M66.2,1219c2.6,0,5.2,0,8.1,0c0,0.7,0.4,1.5,0.4,2.2c-1.5,0-3.3-0.7-3.3,1.5c0,0.4,0.4,1.5,0.7,1.5c1.1,0.4,2.2,0,3.3,0
			c-0.4,0.7-0.7,1.8-1.1,2.6c-1.1,0-2.2-1.5-3.3,0.4c1.5,0.7,3,1.1,4.4,1.8c-0.4,0.7-1.1,1.5-1.8,2.6c-2.2-1.8-4.1-3.7-6.3-5.5
			c-0.4,3.3-2.6,4.4-5.2,5.2c-1.1-1.5-1.1-2.2,0.7-3c1.1-0.4,2.2-1.1,3.3-1.8c-3.7-0.7-5.2,0.4-6.3,3.7c0,0.4-0.7,0.7-1.1,1.1
			c-0.4-0.4-0.7-1.1-0.7-1.5c0.4-0.7,0.7-1.5,1.1-2.2s0.4-1.5,0.7-2.2l0.4,0.4c1.1-1.1,3-2.2,3.7-3.7c0.4-1.5,0-3.3,0-4.8
			c0-0.7,0.4-1.5,1.1-1.8c2.2-0.4,4.8-0.7,7-1.1c0.7,0,1.1,0.4,1.8,0.7c-0.4,0.7-0.7,1.5-1.5,1.8c-1.5,0.4-3,0.4-4.1,0.7
			c-0.7,0-1.1,0.4-1.8,0.7C66.2,1218.6,66.2,1219,66.2,1219z M68.8,1221.6c-1.1,0.4-2.2,0.4-3.3,0.7c0,0.7,0,1.1,0.4,1.8
			C69.9,1224.1,69.9,1224.1,68.8,1221.6z"/>
		<path d="M75.4,1317.7c0,4.4,0,8.5,0,12.9c0,1.1-0.4,3-2.2,3c-1.1,0-2.2,0.4-3.3,0.7c0.4-1.5-0.4-3.7,2.6-3c0,0,1.1-1.1,1.1-1.8
			c0-0.4-1.1-1.5-1.5-1.5c-2.6,0-5.5,0-8.1,0.4c-0.4,1.5-0.7,3-1.1,4.4c0,0.4-1.8,0-3,0c0.4-1.1,0.4-1.5,0.7-1.5
			c2.2-2.2,1.5-5.2,1.8-8.1c0-1.5,0-3,0-4.4c0-0.4,0.7-1.1,1.1-1.1c1.8,0,3.7-0.4,5.5,0C70.6,1317.3,72.8,1317.3,75.4,1317.7z
			 M63.6,1325.8c3.3,0,6.3,0,9.6,0c0-0.4,0-0.7,0.4-1.1c-0.7-0.4-1.5-0.7-2.6-1.1c-1.8-0.4-4.1-0.4-5.9-0.4
			C63.2,1323.6,62.9,1324.3,63.6,1325.8z M63.6,1319.5c0,0.4,0,0.7,0,1.5c3,0.4,6.3,0.4,10,0c-0.7-0.7-1.1-1.5-1.8-1.5
			C69.2,1319.5,66.2,1319.5,63.6,1319.5z"/>
		<path d="M72.1,1352.4c1.8,0.4,3.7,1.1,4.1,3.3c0,1.5,0,3.3,0,4.8c0,2.6,0,5.2,0,7.8c0,0.4-0.4,1.1-0.7,1.8c-1.8-3-4.4-1.1-6.7-1.5
			c-2.2-0.4-4.4-0.7-6.7,1.5c0-3-0.4-5.9-0.4-8.5c0-3,0-5.9,0-8.5c1.5,0,2.2,0,3.3,0c2.6,0,5.2,0,7.4,0
			C72.5,1353.2,72.5,1352.4,72.1,1352.4C72.5,1352.4,72.1,1352.4,72.1,1352.4z M69.2,1367.2c0.4,0,1.5,0,2.2,0s1.8-0.4,2.2-1.1
			c0.4-1.1,0-2.6,0-3.7l-0.7-0.4c-2.2,0-4.4,0-6.7,0c-0.7,0-2.6-1.1-2.2,1.5c0,3,0,3.7,3.3,3.3C67.3,1366.9,68,1367.2,69.2,1367.2z
			 M63.2,1359.5c1.5,0.4,3,0.4,4.1,0.4c1.5,0,3,0,4.4-0.4c0.7-0.4,1.5-1.1,1.8-1.8c0.4-0.4,0-1.5-0.7-1.5c-0.7-0.4-1.8-0.7-3-0.7
			c-2.2,0-4.4,0.4-6.7,0.4C63.6,1356.5,63.2,1358,63.2,1359.5z"/>
		<path d="M83.9,1190.5c4.1,0,8.1,0,12.6,0c0.7,0,1.5,1.8,1.8,2.6c0,3,0,5.9-0.4,9.2c0,1.1,0,1.8,0,3c0,0.7-0.4,1.5-0.4,1.8
			c-4.8-1.1-8.9-1.1-13.7,0.7C83.9,1202,83.9,1196.4,83.9,1190.5z M85.8,1203.8c1.5,0.4,3.7-1.1,5.2,0.7c0,0,0.7,0,1.1,0
			c1.1-0.4,1.8-0.4,3-0.7c0.7-0.4,1.1-0.7,1.5-1.5c0.4-0.7,0-1.5,0-2.6c-3.3,0-7,0-10.4,0C85.8,1200.8,85.8,1202.3,85.8,1203.8z
			 M85.4,1193.5c0,0.7,0,1.1,0,1.5c-0.4,1.8,0,3,2.6,2.2c1.5-0.4,3-0.4,4.8-0.4c1.1,0,2.2,0,3.3-0.4c-0.4-1.5-0.4-2.6-0.7-4.1
			C92.1,1193.1,88.7,1193.1,85.4,1193.5z"/>
		<path d="M76.2,1446.4c-4.4-1.5-8.1-0.4-12.9-0.4c-0.4-0.7-0.7-2.2-0.7-3.3c0-3.7,0-7.4,0-11.1c0-0.7,0.7-1.8,1.1-1.8
			c4.1,0,8.1,0,12.6,0C75.8,1435.3,77.3,1440.8,76.2,1446.4z M74.3,1438.6c-3.3,0-6.7,0-10,0c0.4,1.8,0.4,3.3,0.7,4.8
			c2.2,0,4.1-0.4,5.5-0.4C74.3,1443,75.1,1442.7,74.3,1438.6z M71.4,1435.6c0.4,0,1.8,0.7,2.2,0.4c0.7-0.7,1.1-1.8,1.1-3
			c0-0.7-1.5-1.5-2.2-1.5c-2.6,0-5.2,0-8.5,0c0.7,1.5,0.7,3.3,1.5,3.7C66.9,1436,69.2,1435.6,71.4,1435.6z"/>
		<path d="M93.9,1410.1c2.6,0.4,4.8,1.1,5.9,3.7c0.7,1.8-0.7,3-0.7,4.1c0,0.4,0,1.1,0,1.5c2.2,1.1,1.8,3,1.1,4.4
			c-1.1,3-2.6,3.7-5.2,3.3c-0.4,0-0.4,0-0.7,0c-3,0.4-4.1-0.7-4.8-3c-0.7-1.8-0.7-3.7,1.5-4.8c0,0,0-1.1,0-1.5
			c-3-1.8-0.7-4.1-0.4-5.9C90.6,1411.2,92.4,1410.9,93.9,1410.1z M98.7,1423.4c-1.1-2.6-2.6-3.7-4.4-3c-1.1,0.4-2.6,1.1-2.6,1.8
			c0,1.5,1.1,2.6,2.6,2.6C95.4,1424.5,96.9,1423.8,98.7,1423.4z M93.6,1418.3c2.2-0.4,4.4-1.8,3.7-3c-0.4-1.1-1.8-2.2-3-2.2
			c-1.5,0-3.3,0.7-3,2.2C91.7,1416.4,92.8,1417.1,93.6,1418.3z"/>
		<path d="M41.8,1200.8c0.4,1.1,0.7,2.6,0.7,4.1c0,1.1-0.7,2.6-0.7,3.7c-0.4,0-0.7,0-1.1,0c-0.4-2.6-0.7-5.5-1.1-8.1
			c-1.8,0-3.7,0-5.2,0c-0.7,0-1.5-1.1-2.2-1.5c2.6-2.2,6.3,1.1,8.1-3c-1.1-1.8-3.3-0.7-4.4-1.1c-0.7-0.4-1.5-1.1-1.8-1.5
			c0.7-0.4,1.1-1.1,1.8-1.5c3,0,6.3-0.4,9.2-0.7c0.7,0,1.5,0,2.6,0c-0.4,1.1-0.4,1.8-0.7,2.6c-0.7,0-2.2-0.4-3,0
			c-1.1,0.4-2.2,1.1-2.2,2.2c-0.4,1.1,0.7,1.8,2.2,1.5c1.1,0,2.6,0,3.7,0c0.7,0,1.1,0.4,1.8,0.4C47.7,1201.6,44.4,1199,41.8,1200.8z
			"/>
		<path d="M64.7,1301.4c0,0.7,0,1.5-0.4,2.6c3.3-0.4,6.7-0.7,8.5,3c0,0.7-0.4,1.8-0.4,3c0,2.2-1.1,3.7-3,4.4c-2.6,0.7-5.5,0-6.7-1.8
			c-0.4-0.7-0.4-1.8,0-2.2c0.7-1.1,1.1,0.4,1.8,0.7c1.1,0.4,2.6,1.5,3.7,0.7c1.1-0.4,1.8-2.2,2.2-3.3c0.4-1.1-2.2-2.6-3.3-2.2
			c-0.7,0-1.5,0.4-2.2,0.7c-0.7,0.4-1.1,0.7-2.2,1.5c-0.4-0.7-0.7-1.5-0.7-2.2c0-1.8,0-3.7,0-5.5c0-0.7,0.4-1.5,0.7-1.5
			c2.2-1.1,6.7-1.1,9.2,0c-0.4,1.8-1.1,3-3,1.8c-0.4-0.4-1.5,0-2.2,0C66.2,1301,65.5,1301.4,64.7,1301.4z"/>
		<path d="M89.1,1308.1c-1.5-0.7-1.8-1.5-1.5-3.7c0.4-1.5,0-3.3,0-5.9c1.5,0,3.3-0.4,5.2-0.4c1.1,0,2.2,0,3,0.4
			c0.4,0.4,0.7,1.1,0.7,1.8c-0.7,0.4-1.1,0.4-1.8,0.4c-0.7,0-1.5,0-2.2-0.4c-3-0.7-4.1,0.4-3,3.3c0.7-0.4,1.8-0.4,2.6-0.4
			c3.3-0.4,4.8,0.7,5.2,3.7c0.4,2.2-1.1,5.9-3.3,6.7c-1.8,0.7-4.1,1.1-5.9-0.4c-0.7-0.7-0.7-1.8-1.1-2.6c1.1,0,1.8,0,3,0.4
			s2.6,1.1,3.3,0.7c1.1-0.4,2.2-2.2,1.8-3c-0.4-1.1-1.8-2.6-3-3C91.7,1305.5,90.6,1307,89.1,1308.1z"/>
		<path d="M50.3,1411.2c2.6,0,5.9,2.2,6.3,5.2c0.4,3,0.7,6.3-1.5,9.2c-1.5,1.8-3.7,2.6-6.7,1.8c-1.8-0.4-3.3-2.2-3.3-4.4
			c0-0.7-0.4-1.8-0.7-2.6c-0.7-1.5,0-3,0.4-4.4C45.5,1413.8,48.1,1411.6,50.3,1411.2z M46.6,1421.2c0,1.5,1.8,3.7,3.7,4.1
			c1.8,0.4,2.6-0.7,3.3-2.2c0.7-1.8,1.1-3.7,0.4-5.9c-0.7-2.6-1.8-3.7-4.1-3.3c-2.2,0-2.6,1.8-3,3.7
			C47,1418.6,47,1420.1,46.6,1421.2z"/>
		<path d="M41.1,1417.5c-1.1-1.5-1.8-3-2.6-4.1c-1.1,1.5-4.1-0.4-3.3,3c-0.7,0-1.5,0-2.2,0c-0.4-1.8,1.1-4.1,3-4.8
			c1.8-0.7,6.3,0.4,7,1.5c0.7,1.5,0.4,4.4-1.5,6.3c0,0,0,0.4,0.4,0.4c2.6,2.2,2.6,5.9-0.4,7.8c-1.5,0.7-3.7,1.1-5.2,0.7
			s-2.6-2.2-3.7-3.3c0,0,0.4-1.1,0.4-1.5c0.4,0,1.1,0.4,1.5,0.7c1.5,1.8,3.3,2.2,4.8,1.1c0.7-0.7,1.5-1.8,1.5-2.2
			c-0.4-0.7-1.5-1.5-2.2-1.8s-2.2,0-1.8-1.1c0.4-0.7,1.5-1.1,2.2-1.8C39.2,1417.9,39.9,1417.9,41.1,1417.5z"/>
		<path d="M87.6,1346.5c1.1,0.4,2.2,0.7,3,1.5c1.5,1.1,4.1,1.1,5.2,0s0.7-2.6-0.7-3.3c-0.7-0.4-1.5-0.4-2.2-0.7
			c-0.4-0.4-1.1-0.7-1.5-1.1c0.4-0.4,1.1-1.1,1.5-1.1c1.8,0,2.6-1.1,3-2.6c0-0.4-1.1-1.8-1.8-1.8c-1.1,0-3-0.7-3.7,1.1
			c-0.4,0.7-1.1,0.7-1.8,1.1c-1.5-2.6,0.4-3.7,1.8-4.4c1.5-1.1,5.5,0,7,1.5c1.1,1.5,1.1,3.7-0.7,6.3c0.7,1.1,1.5,2.2,2.2,3
			c-0.7,4.4-3.3,6.3-7.8,5.5C89.1,1351,87.6,1349.8,87.6,1346.5z"/>
		<path d="M37.7,1309.5c1.5,1.1,2.6,2.2,4.1,2.6c0.7,0.7,2.6,0.7,2.6,0.4c0.4-1.5,1.1-3,0.7-4.8c0-0.7-1.1-1.8-2.6-1.1
			c-0.7,0.4-1.8,0.7-3,1.1c-0.4,0.4-1.1,0.7-1.5,0.7c0-0.4-0.4-1.1-0.4-1.5c0-1.8,0-4.1,0-5.9c0-0.7,0.7-1.8,1.1-1.8
			c2.6,0,4.8,0,7.4,0c0.4,0,0.7,0.4,1.1,0.7c-2.2,2.6-4.8,1.1-7,1.1c0,1.1-0.4,1.8-0.4,3c2.6,0,5.9-0.7,7.4,2.2
			c0.7,1.1,0.7,2.6,0.7,4.1c-0.4,3-3.3,5.2-5.5,4.8C38.8,1314.4,37.4,1312.9,37.7,1309.5z"/>
		<path d="M44.4,1346.5c0-1.1,0-1.8,0-2.6c0-1.1,0-1.8-0.4-3c0.4-1.5,0.4-2.2,1.1-4.1c2.2-0.4,4.8-0.7,7.4-0.7
			c0.4,0,0.7,0.7,1.1,1.1c-0.4,0.4-0.7,1.1-1.5,1.1c-1.8,0-3.3,0-5.5,0c0,1.1,0,2.6-0.4,4.1c3-1.8,5.2-1.5,7,0.7
			c1.1,1.1,1.5,4.8,0.7,6.3c-1.5,2.6-7,3.7-8.9,1.8c-0.7-0.7-1.1-2.6-0.7-3c0.7-0.7,1.8-0.4,2.6,0.7c0.4,0.4,1.8,0.4,2.6,0.4
			c0.7,0,1.1-0.4,1.5-0.4c1.1-1.5,1.8-3.3,0-4.8C49.6,1343.6,48.8,1343.6,44.4,1346.5z"/>
		<path d="M72.5,1352.4c-0.4-0.4-0.7-0.7-1.1-0.7c-3,0.4-3.3-2.6-4.4-4.1c-1.8-2.6-0.7-5.5,0.4-8.1c0.7-1.8,2.2-3.7,3.7-4.1
			c2.2-0.7,5.9,1.5,6.7,4.1c0.4,1.8,0.4,4.1,0.4,5.9c0,2.6-1.5,4.1-3.3,5.5C74,1351.7,73.2,1352.1,72.5,1352.4
			C72.1,1352.4,72.5,1352.4,72.5,1352.4z M72.1,1349.5c0.7-0.4,1.8-0.4,2.2-1.1c0.7-1.1,1.1-2.2,1.5-3.3c1.1-3-0.4-6.3-3.3-7.4
			c-1.5-0.4-4.4,1.5-4.4,3s0,2.6,0,4.1C68.4,1347.3,69.9,1349.1,72.1,1349.5z"/>
		<path d="M58.4,1416.4c0-0.7-0.4-2.2,0-2.6c1.1-1.5,2.2-3,4.4-2.6c2.2,0.4,4.4,1.1,4.8,3.3c0.7,2.2,0.7,4.4-1.5,6.3
			c-1.5,1.1-3.3,2.6-4.8,3.7c0.4,0.4,0.4,0.7,0.7,0.7c1.8,0,3.7,0,5.9,0c0,0.7,0,1.5,0.4,2.6c-3,0-5.9,0-8.9,0
			c-1.8,0-1.8-0.7-1.5-1.8c0.4-1.1,0.7-2.6,2.6-3c0.4,0,1.1-0.7,1.5-1.1c1.1-1.5,2.6-3.3,3.7-4.8c0.7-1.1,0.7-2.2-0.7-2.6
			c-1.1-0.4-2.6-1.8-3.7,0c-0.4,0.7-1.5,1.5-1.8,2.2C58.8,1416.4,58.4,1416.4,58.4,1416.4z"/>
		<path d="M42.5,1352.1c-3,0-5.5,0-8.1,0c-0.7,0-1.8-0.4-2.2-0.7c0-0.7,0-1.8,0.7-2.6c1.8-1.8,3.7-3.7,5.5-5.5
			c0.4-0.7,0.7-1.5,1.1-2.6c0.7-3-1.8-1.8-3.3-2.2c-0.4,0-1.1,1.1-2.2,2.2c-0.4,0-1.1-0.7-1.8-1.1c0.4-0.4,1.1-1.1,1.5-1.5
			c0.7-0.4,1.1-0.7,1.8-1.1c2.6-1.5,3.7-1.1,5.5,0.7c1.5,1.8,1.5,3.7,0,5.9c-1.1,1.5-2.2,2.6-3.7,4.1c-0.4,0.4-0.7,1.1-0.4,1.1
			c0.4,0.4,0.7,0.7,1.5,0.7s1.1,0,1.8,0C43.3,1349.5,43.3,1349.5,42.5,1352.1z"/>
		<path d="M73.2,1425.3c2.2,0,4.8,0,7,0c0,0.7,0,1.5,0,2.2c-10,0.7-10,0.7-11.5-1.8c2.6-2.2,4.8-4.4,7.4-6.7
			c1.1-1.1,1.8-2.2,1.1-3.7c-0.7-0.7-1.8-1.5-3-1.8c-0.4,0-1.1,1.5-1.8,1.8c-0.4,0.4-1.5,0.4-1.8,0s-0.7-1.1-0.4-1.5
			c1.1-2.2,4.8-3.7,7.4-2.2c0.4,0.4,1.1,0.7,1.1,1.5c1.1,2.2,0.7,5.5-1.1,7C76.5,1421.6,75.1,1423.4,73.2,1425.3z"/>
		<path d="M99.8,1257.8c0,0.7,0.4,1.1,0.4,1.5s0.4,1.1,0,1.1c-0.4,0.4-0.7,0.4-1.1,0.4c-1.8,0-3.7,0-5.5,0.4c-0.4,0-1.1-0.4-1.5-0.4
			c-1.1,0-2.2,0.4-3.3,0.4c-1.8-0.4-3.3-0.7-5.2-1.1c0,0-0.4-0.7-0.4-1.1c0.4-0.4,1.1-1.1,1.5-1.1
			C90.2,1257.8,95,1257.8,99.8,1257.8z"/>
		<path d="M50.7,1253.3c-0.7,1.8-2.2,1.8-3.3,1.8c-3,0-5.9,0.4-8.9,0.4c-1.1,0-2.2,0.4-3.3,0c-0.4,0-1.1-1.1-1.1-1.1
			c0-0.7,0.7-1.5,1.1-1.5c1.5-0.4,3-0.4,4.8-0.4c3,0,5.9,0,8.9,0C49.6,1253,49.9,1253.3,50.7,1253.3z"/>
		<path d="M62.9,1351.3c-0.4,0-1.1,0-1.8,0c-1.1-4.1,1.5-8.5-2.2-12.6c0,1.1,0,1.5,0,1.8h-0.4c-0.4-0.7-0.7-1.5-0.7-2.2
			c0-1.5,3-2.6,5.2-2.6C62.9,1341,62.9,1346.2,62.9,1351.3z"/>
		<path d="M75.4,1253c0,0,0,1.1,0,2.2c-3,0-5.9,0-8.5,0c-2.2,0-4.4,0-6.7,0c-0.7,0-1.5-0.7-1.8-1.1c0.7-0.4,1.5-1.5,1.8-1.5
			C65.1,1252.6,70.3,1252.6,75.4,1253z"/>
		<path d="M96.1,1395c-1.1-0.7-2.2-1.5-3.3-1.8c-0.4,0.4-0.7,1.1-1.5,1.8c-0.4,0-0.4,0-0.7,0c-0.4-0.7-0.4-1.8-0.7-2.6
			c0-0.7,0-1.1,0-1.8c0-0.4,0.4-1.1,0.7-1.5c1.5-0.4,3-0.4,4.4-0.4c0.7,0,1.8,0.4,2.2,0.7c0.4,0.7,0,1.8-0.4,2.6
			C96.9,1392.7,96.5,1393.8,96.1,1395L96.1,1395z"/>
		<path d="M69.2,1241.9c-2.6,0.4-5.2,0.7-7.8,0.7c-0.7,0-2.2-1.1-2.2-1.5c0-1.1,0.7-1.1,2.2-1.1c3.7,0,7.4,0,11.1,0
			c0.7,0,1.1,0.7,1.8,1.1c-0.7,0.4-1.1,1.1-1.8,1.1c-1.1,0.4-1.8,0.4-3,0.4C69.2,1241.9,69.2,1241.9,69.2,1241.9z"/>
		<path d="M98.4,1251.9c0.4,3,0,2.6-2.6,2.2s-5.2,0-7.8,0c-1.8,0.4-3,0-3-2.6C89.1,1251.9,93.6,1251.9,98.4,1251.9z"/>
		<path d="M48.8,1246.3c-0.4,1.1-0.4,1.8-0.7,2.6c-2.2,0-4.1,0-5.9,0c-1.5,0-3.3,0.4-4.8,0.4c-0.7,0-2.2-0.7-2.2-1.5
			c0-1.5,0.7-1.8,1.8-1.5C41.1,1246.3,45.1,1246.3,48.8,1246.3z"/>
		<path d="M99.5,1245.6c-0.7,2.2-1.8,2.2-3.3,2.2c-2.2,0-4.8,0.4-7,0c-0.7,0-1.5,0.4-2.2,0.4c-2.2,0.4-3-0.7-2.2-2.6
			C89.5,1245.6,94.3,1245.6,99.5,1245.6z"/>
		<path d="M34.8,1242.3c0-0.7,0-1.5,0-2.2c2.2,0,4.1,0,6.3,0c1.8,0,4.1-0.4,5.9-0.4c0.7,0,1.5,0.4,1.8,0.7c0.4,0.4,0.4,0.7,0.4,1.5
			c-0.7,0-1.1,0.4-1.8,0.4c-3,0-5.9,0.4-8.9,0.4C37,1242.6,36.2,1242.6,34.8,1242.3z"/>
		<path d="M60.3,1248.5c0-0.4-0.4-0.4-0.4-0.4c0-0.7,0-1.5,0-2.2c4.8,0.4,9.6-0.4,14.4,0.7c0,0.4,0,0.7,0,1.1c-1.5,0-3,0.4-4.4,0.4
			c-1.1,0-2.2,0.4-3.3,0.4C64.3,1248.5,62.1,1248.5,60.3,1248.5z"/>
		<path d="M39.9,1384.6c0.7-1.1,1.1-2.6,1.8-4.1c-0.4,0-1.1-0.4-1.8-0.4c0,0,0,0,0-0.4c1.5,0,2.6-0.4,4.4-0.4
			c0.4,1.5,1.5,1.5,3.3,0.7c-0.4,0.7-0.7,1.5-1.1,1.8c0.4,0.7,1.1,1.5,1.5,2.2c0,0.4,0,0.4-0.4,0.7c-0.7,0-1.5,0-1.8-0.4
			c-1.8-2.2-3-2.2-4.4,0c-0.4,0.4-0.7,0.4-1.1,0.7C40.3,1385,39.9,1385,39.9,1384.6z"/>
		<path d="M37.4,1370.2c0.4,2.2,0.4,2.2,2.6,1.5c1.1-0.4,2.2-0.7,3.7-0.7c0.4,0,1.1,0.7,1.1,1.1s-0.7,1.1-1.1,1.1
			c-2.6,0-5.2-0.4-7.8-0.4c-0.4,1.5-0.4,3-0.7,4.4C34.8,1374.6,34.4,1372,37.4,1370.2C37.7,1370.2,37.4,1370.2,37.4,1370.2z"/>
		<path d="M71,1460.4c-0.7,3-3.3,2.6-5.2,1.8c0-1.5,0-3,0-4.8c0.7,0,1.8-0.4,3.7-0.4c-0.7,0.7-1.1,1.1-1.5,1.8
			c-0.4,0.4-0.4,1.1-0.4,1.5s0.7,0.4,1.1,0.4C69.5,1460.4,70.3,1460.4,71,1460.4L71,1460.4z"/>
		<path d="M86.5,1451.2c0,0,0-0.4,0-0.7c-1.1-3-0.7-3.7,2.6-3.7c1.1,0,2.2,0,3.3,0c0.7,0,1.8,0.7,2.6,0.7c0,0.4,0,0.7,0,1.1
			c-0.7,0-1.5-0.4-2.2-0.4c-1.1,0-1.8,0-3,0c-0.7,0-1.5,0-1.8,0.4C87.6,1449.3,86.9,1450.4,86.5,1451.2z"/>
		<path d="M71,1460.4c0.4-0.4,1.1-0.4,1.8-0.7c-0.7-0.4-1.1-0.7-1.5-0.7c0-1.1,0-3-0.4-3c-1.1-0.4-2.2,0-3.7,0c0,0.4,0,0.4,0,0.7
			c-0.4-0.4-0.7-0.7-1.8-1.8c3,0,5.2,0,8.1,0C71.7,1456,75.8,1459.7,71,1460.4L71,1460.4z"/>
		<path d="M91.3,1459.3c0-1.8,0.4-3.7,0.4-5.5c2.2-0.4,4.1-0.4,6.3-0.7c0,0.4,0,0.4,0,0.7c-1.8,0.7-4.1,0.4-5.9,2.2
			c1.5,0.4,2.6,0.4,3.7,0.7c0.4,0,0.4,0.4,0.4,0.7c0,0-0.4,0.4-0.4,0.7C94.3,1458.6,92.8,1458.9,91.3,1459.3z"/>
		<path d="M95.8,1466.7c0.7,0.4,1.8,0.7,2.6,1.1c-0.4,1.1-1.5,1.8-3,0.7c-1.1-0.7-2.2-1.1-3.7,0c-0.7,0.7-2.6-0.4-4.1-0.7
			c1.8-0.7,3.3-1.8,5.2-0.4C93.6,1467.8,95,1467.1,95.8,1466.7z"/>
		<path d="M47.3,1461.9c0-3,0-5.9,0-8.9C49.2,1454.5,49.6,1460.4,47.3,1461.9z"/>
		<path d="M99.5,1461.5c-3,0.4-5.2,0.7-7.8,1.1c0-0.4,0-1.1,0.4-1.8c1.8-0.4,3.7-0.4,5.5-0.7C97.6,1460,98,1460.4,99.5,1461.5z"/>
		<path d="M45.1,1456.3c-0.4,0.4-1.1,1.1-1.8,1.8c0.7,0,1.5,0.4,2.2,0.4c-1.1,0.4-1.5,1.1-3,1.5c-0.4-1.8-0.4-3.3-0.7-5.2
			c0.4-0.4,0.7-0.7,1.5-1.1C44,1454.9,44.8,1455.6,45.1,1456.3z"/>
		<path d="M65.1,1448.6c1.5-0.7,3-1.5,4.4-1.5c1.1,0,2.2,0.4,3.3,0.7c0,0.4,0,0.7,0,1.1C70.3,1448.9,67.7,1448.9,65.1,1448.6
			C65.1,1448.9,65.1,1448.6,65.1,1448.6z"/>
		<path d="M36.6,1464.1c0.4,3,0.7,3.7,4.1,3.7c1.1,0,2.2,0,3.3,0c0,0.4,0,0.4,0,0.7c-2.6,0-4.8,0-7.4,0
			C36.6,1467.1,36.6,1465.6,36.6,1464.1z"/>
		<path d="M65.1,1385.7c1.1-1.8,2.6-3.3,4.1-5.5c0.7,1.1,1.5,2.2,2.2,3.7C68,1382,67.7,1385.3,65.1,1385.7z"/>
		<path d="M58.8,1219.7c1.1,0.7,2.2,1.1,3.7,1.8c0,0.4,0,0.7,0,1.1c-1.1,0.4-2.2,0.7-3,0.4s-1.1-1.5-1.5-2.2
			C58.4,1220.1,58.4,1220.1,58.8,1219.7z"/>
		<path d="M98.4,1400.1c1.5-1.8,4.4,0.7,4.1-3c0.4,0,0.4,0.4,0.7,0.4c0,1.1,0,1.8,0.4,3C101.7,1400.5,99.8,1401.6,98.4,1400.1z"/>
		<path d="M92.4,1370.2c1.1,0.4,2.6,0.7,3.7,1.1c0,0,0,1.1,0,2.2c-1.5-0.7-2.6-1.5-4.1-2.2C92.1,1370.6,92.4,1370.2,92.4,1370.2z"/>
		<path d="M93.6,1375c1.5,1.5-0.7,4.8,3.3,4.8c-1.1,0.4-2.2,1.1-3.7,1.5C93.6,1378.7,93.6,1376.8,93.6,1375z"/>
		<path d="M52.9,1387.2c0.4,1.5,0.7,3,0.7,4.1c-0.4,1.8-2.2,1.1-4.1,1.1C52.5,1391.6,52.9,1389.4,52.9,1387.2z"/>
		<path d="M79.1,1469.3c-1.1-0.7-1.8-1.1-2.2-1.1c0.4-1.5,1.1-3,1.5-4.1h0.4C78.8,1465.6,78.8,1467.4,79.1,1469.3z"/>
		<path d="M101.7,1448.2c-0.4,0.4-0.7,0.7-1.1,1.1c-1.1-0.4-2.6-0.7-3.7-1.1C97.3,1446.4,97.6,1446.4,101.7,1448.2z"/>
		<path d="M88,1370.6c0.7,0,1.8,0,2.2,0c0,0.4,0,1.1-0.4,2.2c-1.1-0.4-2.2-0.7-3.3-1.1c0-0.4,0-0.4,0-0.7
			C87.3,1370.9,87.6,1370.6,88,1370.6S88,1370.6,88,1370.6z"/>
		<path d="M68.8,1467.8c1.8,0,3.7-0.4,6.3-0.4c-0.4,0.7-0.7,1.5-1.1,1.5c-1.8,0-3.7-0.4-5.5-0.4
			C68.8,1468.2,68.8,1468.2,68.8,1467.8z"/>
		<path d="M50.7,1373.1c-1.1-0.4-2.2-0.4-3.3-0.7c0-0.4,0.4-1.1,0.4-1.1c1.1,0.4,2.2,0.4,3,0.7C50.7,1372.4,50.7,1372.8,50.7,1373.1
			z"/>
		<path d="M78.4,1447.1c-1.1,1.8-3.3,1.8-4.8-0.4C75.1,1447.1,76.5,1447.1,78.4,1447.1z"/>
		<path d="M58.1,1215.3c1.8,0.7,3,1.5,4.8,2.2C59.9,1218.6,59.2,1218.2,58.1,1215.3z"/>
		<path d="M68,1373.5c-1.5-0.4-2.2-0.7-3.3-0.7c0-0.4,0-0.4,0-0.7c1.1-0.4,1.8-0.4,3-0.7C67.7,1371.7,68,1372.4,68,1373.5z"/>
		<path d="M63.2,1393.1c-1.1-1.1-2.2-2.6-3.3-3.7c0,0,0.4,0,0.4-0.4c1.1,1.1,2.6,2.2,3.7,3.3C63.6,1392.4,63.2,1392.7,63.2,1393.1z"
			/>
		<path d="M52.1,1376.1c-0.4-0.7-0.7-1.8-0.7-2.6c0-0.4,0.4-0.7,0.7-1.1c0.4,0.4,0.7,0.7,0.7,1.1c0,0.7,0,1.5,0,2.6
			C52.5,1376.1,52.5,1376.1,52.1,1376.1z"/>
		<path d="M51,1448.2c-1.5,1.8-2.2,1.1-3.3,0.7v-0.7C48.8,1448.2,49.9,1448.2,51,1448.2z"/>
		<path d="M96.1,1395c0.7,0,1.1,0,2.2,0c0,0.7-0.4,1.5-0.4,2.6C95.8,1397.5,95.8,1397.2,96.1,1395L96.1,1395z"/>
		<path d="M50.3,1468.2c-1.5,0.4-2.6,0.7-4.1,1.5c0.7-0.7,1.1-1.8,1.8-1.8C48.8,1467.4,49.6,1468.2,50.3,1468.2z"/>
		<path d="M47.3,1393.1c-0.7-0.4-1.5-0.4-2.6-0.7c0-0.7,0.4-1.1,0.4-1.8c0.7,0.7,1.5,1.5,2.2,2.2
			C47.7,1392.7,47.3,1393.1,47.3,1393.1z"/>
		<path d="M102.8,1448.2c3,0.4,0.7,2.2,1.1,3.3C103.5,1450.4,103.2,1449.3,102.8,1448.2z"/>
		<path d="M44.4,1449.7c-1.1-0.4-2.2-0.4-3.3-0.7c0-0.4,0-0.4,0-0.7c0.7,0,1.8-0.4,2.6-0.4c0.4,0,0.7,0.7,1.5,1.1
			C44.8,1449.3,44.8,1449.7,44.4,1449.7z"/>
	</g>
	<g id="italia_1_">
		<line class="st16" x1="60.1" y1="237.1" x2="60.1" y2="312"/>
		<polyline class="st16" points="72.3,239.1 83.3,239.1 94.2,239.1 		"/>
		<line class="st16" x1="83.3" y1="312" x2="83.3" y2="239.1"/>
		<polyline class="st17" points="103.8,289.1 121.7,289.1 125.1,312 114.4,239.1 109.8,239.1 99.6,312 		"/>
		<polyline class="st17" points="141.7,237.1 141.7,310.1 155.6,310.1 		"/>
		<line class="st17" x1="168.4" y1="237.1" x2="168.4" y2="312"/>
		<g>
			<polyline class="st17" points="184.7,312 195.1,239.1 200.3,239.1 210.3,312 			"/>
			<line class="st17" x1="205.8" y1="288.6" x2="189.1" y2="288.6"/>
		</g>
		<g>
			<path class="st18" d="M58.4,383.4c0,0,8.6-20.8,8.6-23c0-2.1,0-21.3,0-21.3"/>
			<line class="st18" x1="129.1" y1="357.2" x2="68" y2="357.2"/>
			<line class="st18" x1="93.6" y1="331.2" x2="94.9" y2="433.1"/>
			<line class="st18" x1="59.2" y1="433.1" x2="129.1" y2="433.1"/>
			<line class="st18" x1="65.7" y1="391.3" x2="124.1" y2="391.3"/>
		</g>
		<g>
			<polyline class="st18" points="210.1,331.2 210.1,340.7 166,340.7 			"/>
			<line class="st18" x1="164.3" y1="366.3" x2="212.6" y2="365.4"/>
			<line class="st18" x1="188.1" y1="340.7" x2="188.1" y2="391.3"/>
			<polygon class="st18" points="166.5,393 166.5,433.1 210.7,432.3 210.7,392.5 			"/>
			<path class="st18" d="M145.2,431.7c0,0-1.2-4.9-0.5-8.8c0.9-5.1,26.7-19,26.7-19"/>
			<circle class="st19" cx="151.5" cy="341.9" r="8.1"/>
			<circle class="st19" cx="150.7" cy="377.8" r="4.4"/>
		</g>
		<path class="st17" d="M60.8,455l0.8,73.3c0,0,8.7,0,10.4,0c2.8,0,5.5-2.9,7-7.2s0.7-54.4,0-58.7s-2.6-6.9-6.9-7.4
			C69.2,455,60.8,455,60.8,455z"/>
		<polyline class="st17" points="106.5,455 93.6,455 93.6,528.3 106.3,528.3 		"/>
		<line class="st17" x1="106.1" y1="489.6" x2="93.6" y2="489.6"/>
		<line class="st17" x1="145.8" y1="453.1" x2="145.8" y2="530.3"/>
		<path class="st17" d="M178,471v-9.9c0,0-0.8-6.1-4-6.1s-9.3,0-9.3,0s-3.6,2.3-4,6.7c-0.4,4.4,0,58.3,0,58.3s0.6,7.2,5.7,8.3
			c5.2,1.2,11-1.3,11.6-2.3c0-5.3,0-31.1,0-31.1l-8.6,0"/>
		<polyline class="st17" points="191.9,530.3 191.9,455 195.5,455 207.7,528.3 211.4,528.3 211.4,453.1 		"/>
		<path class="st17" d="M116.2,510.1v13.5c0,0,0.6,4.8,8.1,4.8c7.5,0,7.8-4,7.8-4v-18.1c0,0,0.3-3.8-2.4-7.9
			c-2.7-4.1-10.3-18.2-10.3-18.2s-2.6-5.8-2.7-11.3c0-5,0.4-13.8,7.4-13.8c5.4,0,8.7,2.6,8.7,6.6c0,3.8,0,10.7,0,10.7"/>
		<g>
			<path class="st18" d="M111.8,623c0,0,3.2-19,3.7-26.6s0-45.8,0-45.8h43.8v14.1l-42.2,0.4"/>
			<line class="st18" x1="121.8" y1="577.2" x2="159.3" y2="577.2"/>
			<line class="st18" x1="116.2" y1="593.1" x2="161.6" y2="593.1"/>
			<polyline class="st18" points="131.7,565 131.7,577.2 131.7,593.1 			"/>
			<polyline class="st18" points="148.6,564.8 148.6,577.2 148.6,592.4 			"/>
			<line class="st18" x1="120.3" y1="620.5" x2="142.4" y2="614.5"/>
			<path class="st18" d="M155.5,600.7c0,0-5.2,7.8-6.9,8.6"/>
			<path class="st18" d="M128.5,593.1c0,0-0.6,22.4,1.2,23.9"/>
			<path class="st18" d="M157.7,623l-15.8-24.5c0,0-3.3-4.9-5.3-5.5"/>
		</g>
	</g>
	<g id="verticale">
		<g id="_x31_">
			<path class="st20" d="M1031.1,497.2c5.2-4.8,6-12.4,6-12.4l0.8-29.2"/>
			<path class="st20" d="M1023.5,478c0,0,4.4-13.6,4.8-18.8c0-5.2,0-5.2,0-5.2"/>
			<path class="st20" d="M1028.3,457.2h13.6c0,0,3.6,0.4,4,3.2c0.4,2.8-0.4,24.8-0.4,24.8"/>
			<line class="st20" x1="1031.1" y1="469.2" x2="1049.5" y2="468"/>
			<line class="st20" x1="1031.1" y1="480.4" x2="1045.5" y2="480"/>
			<line class="st20" x1="1026.7" y1="498.8" x2="1027.1" y2="465.2"/>
		</g>
		<path class="st20" d="M1037.1,524.4c0,0-1.6,34.4,9.2,44c-1.2-8.8,1.2-15.2,1.2-15.2"/>
		<path class="st20" d="M1041.9,524c0,0,5.2,2.8,1.2,5.6"/>
		<path class="st20" d="M1022.3,536c0,0,22,0,22.8,0c1.2,0,4.4,0.4,0-3.6"/>
		<path class="st20" d="M1037.9,545.6h-2l-10.8,0.4c0,0-1.6,0.4-2-1.2"/>
		<path class="st20" d="M1035.5,545.6c0,0-4,0.4-2.4-2.8"/>
		<path class="st20" d="M1028.3,546c0,0-0.8,12.8,0,14.4c0.8,1.6,6.4-0.8,6.4-0.8l-12,4.4"/>
		<path class="st20" d="M1047.9,633.7c0,0-0.8,3.2-2.4,4c-1.2,0.8-8.4,2-12.4,0c-4-2-4.8-4.4-5.6-6.4c-1.6-5.2-1.6-18.4-1.6-18.4
			s0,2-0.8,2.4c-0.8,0.8-3.2,0.4-3.2,0.4"/>
		<path class="st20" d="M1023.5,639.7c0,0-1.2-5.2-0.8-6.4c0.4-1.2,3.2-3.6,3.2-5.6c0-2,0-6,0-6.8"/>
		<path class="st20" d="M1022.7,596c0,0,3.6,4.4,3.2,8.4"/>
		<path class="st20" d="M1023.9,598c1.6,2,4.8,4,7.2,4.8c2.8,0.8,14,0.8,16,0.4c1.2-0.4-2-2.8-2-2.8"/>
		<path class="st20" d="M1033.1,595.6c0,0,2,1.2,2.4,2.8s-0.4,4.4-0.4,4.4"/>
		<path class="st20" d="M1043.5,597.2c0,0-2-2-2-0.4s-0.4,6-0.4,6"/>
		<line class="st20" x1="1033.1" y1="630.9" x2="1033.1" y2="608"/>
		<line class="st20" x1="1043.5" y1="607.2" x2="1043.5" y2="630.9"/>
		<line class="st20" x1="1033.1" y1="609.6" x2="1043.5" y2="609.6"/>
		<line class="st20" x1="1033.1" y1="616" x2="1043.5" y2="616"/>
		<line class="st20" x1="1033.1" y1="622.1" x2="1043.5" y2="622.1"/>
		<line class="st20" x1="1033.1" y1="628.9" x2="1043.5" y2="628.9"/>
		<line class="st20" x1="1037.5" y1="609.6" x2="1037.5" y2="603.6"/>
		<path class="st20" d="M1034.7,712.1v-24.4c0,0-0.4,5.6-1.6,9.2c-1.2,3.2-11.2,12.4-11.2,12.4"/>
		<path class="st20" d="M1047.9,705.7c-4.8,3.6-15.6-16-13.2-12.8c2.4,2.8,13.6,0.8,13.6,0.8"/>
		<path class="st20" d="M1034.7,692.9c-3.2,2.8-12.8,2-12.8,2"/>
		<path class="st20" d="M1021.9,687.3c0,0,5.2-6,7.6-6.8c2-0.8,3.6-1.2,5.6-1.2c2,0,4.8,0,7.6,2c2.8,2,3.2,7.6,3.6,9.2
			c1.2,3.6,2,3.6,2,3.6"/>
		<path class="st20" d="M1022.7,670.9c0,0,3.6,5.2,1.6,8.4"/>
		<path class="st20" d="M1043.9,670.9c0,0,1.2,1.6,0.8,3.2c-0.8,1.6-4,4.8-4,4.8l-1.2,1.2"/>
		<path class="st20" d="M1030.3,674.5c0,0,0,10,0,11.2c0,1.2,1.2,2,4.4,2s4-0.8,4-1.6c0-0.8,0-11.6,0-11.6s-0.4-2.8-2.8-2.8
			c-2.4,0-4,0-4,0S1030.3,671.7,1030.3,674.5z"/>
		<path class="st20" d="M1035.9,666.5c0,0-2.4-0.4-2,5.2"/>
		<path class="st20" d="M1033.1,665.7c0,0,0.8,1.2,0.8,3.2"/>
		<path class="st20" d="M1028.3,745.7c0,0,13.2-2,15.2-0.8c2,1.2-12,26.8-19.6,30.4"/>
		<path class="st20" d="M1046.3,773.3c0,0,1.6-3.2,0-4.8c-1.6-1.6-9.2-9.6-9.2-9.6"/>
		<path class="st20" d="M1042.3,742.1c0,0,1.2,4,3.6,4.8"/>
		<path class="st20" d="M1042.3,842.6c0,0,1.2,3.2-3.6,2.8c-5.2-0.4-9.6,0.4-10-6.8c-0.4-8.4,0.4-25.6,0.4-25.6"/>
		<path class="st20" d="M1040.3,818.6c0,0,1.2,3.6,0,4c-1.2,0.4-12,7.6-12,7.6"/>
		<path class="st20" d="M1046.7,808.6c0,0-1.2,0-1.6,0c-0.4,0-1.2,0.4-1.2,1.6c0,1.2,0,3.6,0,3.6s0.4,1.2,1.2,1.6
			c0.8,0.4,2,0.4,2.4,0c0.4-0.4,0.8-1.6,0.8-2c0-0.4,0-2.8,0-3.6C1048.3,809.4,1046.7,808.6,1046.7,808.6z"/>
		<line class="st20" x1="1031.1" y1="881" x2="1031.1" y2="902.6"/>
		<path class="st20" d="M1039.9,878.6c0,0,2.4,36.8-7.6,44"/>
		<path class="st20" d="M1047.1,957.8c0,0-3.2,21.6-14.8,29.6"/>
		<path class="st20" d="M1036.3,956.2c0,0,3.2,4.4,4,8.4"/>
		<path class="st20" d="M1029.9,959.8c0,0,3.6,3.2,4,8.4"/>
		<line class="st20" x1="1033.9" y1="1021.5" x2="1035.1" y2="1065.1"/>
		<path class="st20" d="M1043.1,1045.9c0,0,0.8-2.8-0.8-4.4c-1.6-1.6-8-4.8-8-4.8"/>
		<path class="st20" d="M1046.7,1091.9c0,0-1.6-1.2-2.8-0.4c-0.8,0.4-2.8,1.2-3.6,5.2c-1.2,5.6-0.4,7.6,0.8,9.6c1.2,2,4,4,7.2,0
			s0.8-10.4,0.8-10.4S1048.7,1094.3,1046.7,1091.9z"/>
	</g>
</g>
</svg>
