<svg xmlns="http://www.w3.org/2000/svg" width="370.66" height="370.66" viewBox="0 0 370.66 370.66">
  <title>Fichier 1</title>
  <g id="Calque_2" data-name="Calque 2">
    <g id="Calque_1-2" data-name="Calque 1">
      <g>
        <path d="M216.72,336.17a154.71,154.71,0,0,1-31.39,3.2v22.39a177.19,177.19,0,0,0,35.95-3.67Z" style="fill: none"/>
        <path d="M314.19,269.8a154.71,154.71,0,0,1-19.93,24.46l15.83,15.83a177.19,177.19,0,0,0,22.83-28Z" style="fill: none"/>
        <path d="M336.17,153.94a154.71,154.71,0,0,1,3.2,31.39h22.39a177.19,177.19,0,0,0-3.67-35.95Z" style="fill: none"/>
        <path d="M269.8,56.47A154.71,154.71,0,0,1,294.26,76.4l15.83-15.83a177.19,177.19,0,0,0-28-22.83Z" style="fill: none"/>
        <path d="M153.94,34.49a152.93,152.93,0,0,1,31.39-3.2V8.89a179.56,179.56,0,0,0-35.95,3.67Z" style="fill: none"/>
        <path d="M56.47,100.86A152.93,152.93,0,0,1,76.4,76.4L60.57,60.57a179.56,179.56,0,0,0-22.83,28Z" style="fill: none"/>
        <path d="M34.48,216.72a152.93,152.93,0,0,1-3.2-31.39H8.89a179.56,179.56,0,0,0,3.67,35.95Z" style="fill: none"/>
        <path d="M100.86,314.19A152.93,152.93,0,0,1,76.4,294.26L60.57,310.09a179.56,179.56,0,0,0,28,22.83Z" style="fill: none"/>
        <path d="M167.29,311.13A127.61,127.61,0,0,1,142,304.79l-6.29,17.36a146.15,146.15,0,0,0,28.91,7.25Z" style="fill: none"/>
        <path d="M261.53,287a127.61,127.61,0,0,1-22.33,13.37L247,317.13a146.15,146.15,0,0,0,25.57-15.31Z" style="fill: none"/>
        <path d="M311.13,203.37a127.61,127.61,0,0,1-6.33,25.24l17.36,6.29A146.15,146.15,0,0,0,329.41,206Z" style="fill: none"/>
        <path d="M287,109.13a127.61,127.61,0,0,1,13.37,22.33l16.72-7.83a146.15,146.15,0,0,0-15.31-25.57Z" style="fill: none"/>
        <path d="M203.37,59.53a126.14,126.14,0,0,1,25.24,6.33L234.9,48.5A148.1,148.1,0,0,0,206,41.25Z" style="fill: none"/>
        <path d="M109.13,83.62a126.14,126.14,0,0,1,22.33-13.37l-7.83-16.72A148.1,148.1,0,0,0,98.06,68.84Z" style="fill: none"/>
        <path d="M59.53,167.29A126.14,126.14,0,0,1,65.87,142L48.5,135.76a148.1,148.1,0,0,0-7.25,28.91Z" style="fill: none"/>
        <path d="M83.62,261.53A126.14,126.14,0,0,1,70.25,239.2L53.53,247A148.1,148.1,0,0,0,68.84,272.6Z" style="fill: none"/>
        <path d="M198,96.87l2.78-19.38a109.82,109.82,0,0,0-15.46-1.1V96A90.09,90.09,0,0,1,198,96.87Z" style="fill: none"/>
        <path d="M240.54,115.07l12.09-15.39A109.82,109.82,0,0,0,239.79,91l-9.79,17A90.09,90.09,0,0,1,240.54,115.07Z" style="fill: none"/>
        <path d="M268.28,152.09l18.17-7.28a109.82,109.82,0,0,0-6.78-13.94l-17,9.79A90.09,90.09,0,0,1,268.28,152.09Z" style="fill: none"/>
        <path d="M273.78,198l19.38,2.78a105.37,105.37,0,0,0,1.1-15.46H274.68A85.69,85.69,0,0,1,273.78,198Z" style="fill: none"/>
        <path d="M255.59,240.54,271,252.64a105.37,105.37,0,0,0,8.68-12.84l-17-9.79A85.69,85.69,0,0,1,255.59,240.54Z" style="fill: none"/>
        <path d="M218.57,268.28l7.28,18.17a105.37,105.37,0,0,0,13.94-6.78l-9.79-17A85.69,85.69,0,0,1,218.57,268.28Z" style="fill: none"/>
        <path d="M172.65,273.78l-2.78,19.38a105.37,105.37,0,0,0,15.46,1.1V274.68A85.69,85.69,0,0,1,172.65,273.78Z" style="fill: none"/>
        <path d="M130.12,255.59,118,271a105.37,105.37,0,0,0,12.84,8.68l9.79-17A85.69,85.69,0,0,1,130.12,255.59Z" style="fill: none"/>
        <path d="M102.38,218.57l-18.17,7.28A105.37,105.37,0,0,0,91,239.79l17-9.79A85.69,85.69,0,0,1,102.38,218.57Z" style="fill: none"/>
        <path d="M96.87,172.65,77.5,169.87a105.37,105.37,0,0,0-1.1,15.46H96A85.69,85.69,0,0,1,96.87,172.65Z" style="fill: none"/>
        <path d="M115.07,130.12,99.68,118A105.37,105.37,0,0,0,91,130.86l17,9.79A85.69,85.69,0,0,1,115.07,130.12Z" style="fill: none"/>
        <path d="M152.09,102.38,144.8,84.21A105.37,105.37,0,0,0,130.86,91l9.79,17A85.69,85.69,0,0,1,152.09,102.38Z" style="fill: none"/>
        <path d="M190.83,137.5,193.57,115a71.1,71.1,0,0,0-10.17-.44l.66,22.63A48.3,48.3,0,0,1,190.83,137.5Z" style="fill: none"/>
        <path d="M223.41,155.85l18.06-13.65a71.1,71.1,0,0,0-6.75-7.62l-15.8,16.21A48.3,48.3,0,0,1,223.41,155.85Z" style="fill: none"/>
        <path d="M231.66,197.82,253.43,204a71.1,71.1,0,0,0,2-10L233,191.18A48.3,48.3,0,0,1,231.66,197.82Z" style="fill: none"/>
        <path d="M203.11,229.67l8.14,21.12a71.1,71.1,0,0,0,9.18-4.39l-11.22-19.66A48.3,48.3,0,0,1,203.11,229.67Z" style="fill: none"/>
        <path d="M160.49,226l-12,19.22a71.1,71.1,0,0,0,9,4.69l8.94-20.79A48.3,48.3,0,0,1,160.49,226Z" style="fill: none"/>
        <path d="M137.75,189.81l-22.55,2a71.1,71.1,0,0,0,1.69,10l22-5.37A48.3,48.3,0,0,1,137.75,189.81Z" style="fill: none"/>
        <path d="M153,149.84,137.81,133a71.1,71.1,0,0,0-7,7.39l17.52,14.33A48.3,48.3,0,0,1,153,149.84Z" style="fill: none"/>
      </g>
      <path d="M185.33,0C83,0,0,83,0,185.33S83,370.66,185.33,370.66s185.33-83,185.33-185.33S287.68,0,185.33,0Zm131.8,123.63-16.72,7.83A127.6,127.6,0,0,0,287,109.13l14.78-11.07A146.15,146.15,0,0,1,317.13,123.63ZM329.41,206a146.15,146.15,0,0,1-7.25,28.91l-17.36-6.29a127.61,127.61,0,0,0,6.33-25.24ZM282.07,37.74a177.19,177.19,0,0,1,28,22.83L294.26,76.4A154.71,154.71,0,0,0,269.8,56.47Zm-2.41,93.12a109.82,109.82,0,0,1,6.78,13.94l-18.17,7.28a90.09,90.09,0,0,0-5.56-11.43ZM233,191.18,255.45,194a71.1,71.1,0,0,1-2,10l-21.77-6.21A48.29,48.29,0,0,0,233,191.18Zm-9.59-35.33a48.3,48.3,0,0,0-4.5-5.06l15.8-16.21a71.11,71.11,0,0,1,6.75,7.62Zm29.23-56.17-12.09,15.39A90.09,90.09,0,0,0,230,107.95l9.79-17A109.82,109.82,0,0,1,252.64,99.68ZM206,41.25A148.11,148.11,0,0,1,234.9,48.5l-6.29,17.36a126.14,126.14,0,0,0-25.24-6.33Zm3.22,185.49,11.22,19.66a71.1,71.1,0,0,1-9.18,4.39l-8.14-21.12A48.29,48.29,0,0,0,209.21,226.74ZM200.79,77.5,198,96.87a90.09,90.09,0,0,0-12.68-.9V76.4A109.82,109.82,0,0,1,200.79,77.5Zm-15.46,98a9.85,9.85,0,1,1-9.85,9.85A9.85,9.85,0,0,1,185.33,175.48Zm-1.93-60.89a71.1,71.1,0,0,1,10.17.44l-2.74,22.47a48.3,48.3,0,0,0-6.76-.28ZM185.33,8.89V31.28a152.93,152.93,0,0,0-31.39,3.2l-4.56-21.92A179.56,179.56,0,0,1,185.33,8.89ZM160.49,226a48.29,48.29,0,0,0,6,3.11l-8.94,20.79a71.11,71.11,0,0,1-9-4.69Zm-12.15-71.27-17.52-14.33a71.11,71.11,0,0,1,7-7.39L153,149.84A48.29,48.29,0,0,0,148.34,154.77Zm3.75-52.38a85.7,85.7,0,0,0-11.43,5.56l-9.79-17a105.37,105.37,0,0,1,13.94-6.78ZM123.63,53.53l7.83,16.72a126.14,126.14,0,0,0-22.33,13.37L98.06,68.84A148.1,148.1,0,0,1,123.63,53.53ZM12.56,221.28a179.56,179.56,0,0,1-3.67-35.95H31.28a152.93,152.93,0,0,0,3.2,31.39Zm48-160.71L76.4,76.4a152.93,152.93,0,0,0-19.93,24.46L37.74,88.59A179.56,179.56,0,0,1,60.57,60.57ZM77.5,169.87l19.38,2.78a85.7,85.7,0,0,0-.9,12.68H76.4A105.37,105.37,0,0,1,77.5,169.87Zm-29-34.11L65.87,142a126.14,126.14,0,0,0-6.33,25.24l-18.28-2.62A148.1,148.1,0,0,1,48.5,135.76Zm5,111.27,16.72-7.83a126.14,126.14,0,0,0,13.37,22.33L68.84,272.6A148.1,148.1,0,0,1,53.53,247Zm35.06,85.89a179.56,179.56,0,0,1-28-22.83L76.4,294.26a152.93,152.93,0,0,0,24.46,19.93ZM91,239.79a105.37,105.37,0,0,1-6.78-13.94l18.17-7.28A85.7,85.7,0,0,0,107.95,230Zm17-99.14-17-9.79A105.37,105.37,0,0,1,99.68,118l15.39,12.09A85.69,85.69,0,0,0,107.95,140.65Zm7.25,51.17,22.55-2a48.3,48.3,0,0,0,1.13,6.67l-22,5.37A71.11,71.11,0,0,1,115.2,191.82ZM118,271l12.09-15.39a85.69,85.69,0,0,0,10.53,7.12l-9.79,17A105.37,105.37,0,0,1,118,271Zm46.65,58.43a146.15,146.15,0,0,1-28.91-7.25L142,304.79a127.61,127.61,0,0,0,25.24,6.33Zm5.2-36.25,2.78-19.38a85.69,85.69,0,0,0,12.68.9v19.57A105.37,105.37,0,0,1,169.87,293.16Zm15.46,68.61V339.38a154.71,154.71,0,0,0,31.39-3.2l4.56,21.92A177.19,177.19,0,0,1,185.33,361.77Zm33.24-93.49A85.69,85.69,0,0,0,230,262.71l9.79,17a105.37,105.37,0,0,1-13.94,6.78ZM247,317.13l-7.83-16.72A127.6,127.6,0,0,0,261.53,287l11.07,14.78A146.15,146.15,0,0,1,247,317.13Zm24-64.5-15.39-12.09A85.7,85.7,0,0,0,262.71,230l17,9.79A105.37,105.37,0,0,1,271,252.64Zm2.8-54.62a85.7,85.7,0,0,0,.9-12.68h19.57a105.37,105.37,0,0,1-1.1,15.46Zm36.3,112.08-15.83-15.83a154.71,154.71,0,0,0,19.93-24.46l18.73,12.28A177.19,177.19,0,0,1,310.09,310.09Zm26.08-156.15,21.92-4.56a177.19,177.19,0,0,1,3.67,35.95H339.38A154.71,154.71,0,0,0,336.17,153.94Z"/>
    </g>
  </g>
</svg>
