<svg xmlns="http://www.w3.org/2000/svg" xmlns:xlink="http://www.w3.org/1999/xlink" width="388.51" height="370.66" viewBox="0 0 388.51 370.66">
  <title>Fichier 1</title>
  <g id="Calque_2" data-name="Calque 2">
    <g id="Calque_1-2" data-name="Calque 1">
      <g>
        <path d="M225.64,336.17a154.71,154.71,0,0,1-31.39,3.2v22.39a177.19,177.19,0,0,0,35.95-3.67Z" transform="translate(0)" style="fill: none"/>
        <path d="M323.11,269.8a154.71,154.71,0,0,1-19.93,24.46L319,310.09a177.19,177.19,0,0,0,22.83-28Z" transform="translate(0)" style="fill: none"/>
        <path d="M345.1,153.94a154.71,154.71,0,0,1,3.2,31.39h22.39A177.19,177.19,0,0,0,367,149.38Z" transform="translate(0)" style="fill: none"/>
        <path d="M278.72,56.47A154.71,154.71,0,0,1,303.18,76.4L319,60.57a177.19,177.19,0,0,0-28-22.83Z" transform="translate(0)" style="fill: none"/>
        <path d="M162.87,34.49a152.93,152.93,0,0,1,31.39-3.2V8.89a179.56,179.56,0,0,0-35.95,3.67Z" transform="translate(0)" style="fill: none"/>
        <path d="M65.4,100.86A152.93,152.93,0,0,1,85.33,76.4L69.5,60.57a179.56,179.56,0,0,0-22.83,28Z" transform="translate(0)" style="fill: none"/>
        <path d="M43.41,216.72a152.93,152.93,0,0,1-3.2-31.39H17.82a179.56,179.56,0,0,0,3.67,35.95Z" transform="translate(0)" style="fill: none"/>
        <path d="M109.79,314.19a152.93,152.93,0,0,1-24.46-19.93L69.5,310.09a179.56,179.56,0,0,0,28,22.83Z" transform="translate(0)" style="fill: none"/>
        <path d="M176.22,311.13A127.61,127.61,0,0,1,151,304.79l-6.29,17.36a146.15,146.15,0,0,0,28.91,7.25Z" transform="translate(0)" style="fill: none"/>
        <path d="M270.45,287a127.61,127.61,0,0,1-22.33,13.37L256,317.13a146.15,146.15,0,0,0,25.57-15.31Z" transform="translate(0)" style="fill: none"/>
        <path d="M320.05,203.37a127.61,127.61,0,0,1-6.33,25.24l17.36,6.29A146.15,146.15,0,0,0,338.34,206Z" transform="translate(0)" style="fill: none"/>
        <path d="M296,109.13a127.61,127.61,0,0,1,13.37,22.33l16.72-7.83a146.15,146.15,0,0,0-15.31-25.57Z" transform="translate(0)" style="fill: none"/>
        <path d="M212.29,59.53a126.14,126.14,0,0,1,25.24,6.33l6.29-17.36a148.1,148.1,0,0,0-28.91-7.25Z" transform="translate(0)" style="fill: none"/>
        <path d="M118.06,83.62a126.14,126.14,0,0,1,22.33-13.37l-7.83-16.72A148.1,148.1,0,0,0,107,68.84Z" transform="translate(0)" style="fill: none"/>
        <path d="M68.46,167.29A126.14,126.14,0,0,1,74.79,142l-17.36-6.29a148.1,148.1,0,0,0-7.25,28.91Z" transform="translate(0)" style="fill: none"/>
        <path d="M92.55,261.53A126.14,126.14,0,0,1,79.18,239.2L62.45,247A148.1,148.1,0,0,0,77.77,272.6Z" transform="translate(0)" style="fill: none"/>
        <path d="M206.94,96.87l2.78-19.38a109.82,109.82,0,0,0-15.46-1.1V96A90.09,90.09,0,0,1,206.94,96.87Z" transform="translate(0)" style="fill: none"/>
        <path d="M249.47,115.07l12.09-15.39A109.82,109.82,0,0,0,248.72,91l-9.79,17A90.09,90.09,0,0,1,249.47,115.07Z" transform="translate(0)" style="fill: none"/>
        <path d="M277.2,152.09l18.17-7.28a109.82,109.82,0,0,0-6.78-13.94l-17,9.79A90.09,90.09,0,0,1,277.2,152.09Z" transform="translate(0)" style="fill: none"/>
        <path d="M282.71,198l19.38,2.78a105.37,105.37,0,0,0,1.1-15.46H283.61A85.69,85.69,0,0,1,282.71,198Z" transform="translate(0)" style="fill: none"/>
        <path d="M264.52,240.54l15.39,12.09a105.37,105.37,0,0,0,8.68-12.84l-17-9.79A85.69,85.69,0,0,1,264.52,240.54Z" transform="translate(0)" style="fill: none"/>
        <path d="M227.5,268.28l7.28,18.17a105.37,105.37,0,0,0,13.94-6.78l-9.79-17A85.69,85.69,0,0,1,227.5,268.28Z" transform="translate(0)" style="fill: none"/>
        <path d="M181.57,273.78l-2.78,19.38a105.37,105.37,0,0,0,15.46,1.1V274.68A85.69,85.69,0,0,1,181.57,273.78Z" transform="translate(0)" style="fill: none"/>
        <path d="M139,255.59,126.95,271a105.37,105.37,0,0,0,12.84,8.68l9.79-17A85.69,85.69,0,0,1,139,255.59Z" transform="translate(0)" style="fill: none"/>
        <path d="M111.31,218.57l-18.17,7.28a105.37,105.37,0,0,0,6.78,13.94l17-9.79A85.69,85.69,0,0,1,111.31,218.57Z" transform="translate(0)" style="fill: none"/>
        <path d="M105.8,172.65l-19.38-2.78a105.37,105.37,0,0,0-1.1,15.46H104.9A85.69,85.69,0,0,1,105.8,172.65Z" transform="translate(0)" style="fill: none"/>
        <path d="M124,130.12,108.6,118a105.37,105.37,0,0,0-8.68,12.84l17,9.79A85.69,85.69,0,0,1,124,130.12Z" transform="translate(0)" style="fill: none"/>
        <path d="M161,102.38l-7.28-18.17A105.37,105.37,0,0,0,139.79,91l9.79,17A85.69,85.69,0,0,1,161,102.38Z" transform="translate(0)" style="fill: none"/>
        <path d="M199.75,137.5,202.5,115a71.1,71.1,0,0,0-10.17-.44l.66,22.63A48.3,48.3,0,0,1,199.75,137.5Z" transform="translate(0)" style="fill: none"/>
        <path d="M232.33,155.85l18.06-13.65a71.1,71.1,0,0,0-6.75-7.62l-15.8,16.21A48.3,48.3,0,0,1,232.33,155.85Z" transform="translate(0)" style="fill: none"/>
        <path d="M240.59,197.82,262.36,204a71.1,71.1,0,0,0,2-10l-22.45-2.87A48.3,48.3,0,0,1,240.59,197.82Z" transform="translate(0)" style="fill: none"/>
        <path d="M212,229.67l8.14,21.12a71.1,71.1,0,0,0,9.18-4.39l-11.22-19.66A48.3,48.3,0,0,1,212,229.67Z" transform="translate(0)" style="fill: none"/>
        <path d="M169.42,226l-12,19.22a71.1,71.1,0,0,0,9,4.69l8.94-20.79A48.3,48.3,0,0,1,169.42,226Z" transform="translate(0)" style="fill: none"/>
        <path d="M146.67,189.81l-22.55,2a71.1,71.1,0,0,0,1.69,10l22-5.37A48.3,48.3,0,0,1,146.67,189.81Z" transform="translate(0)" style="fill: none"/>
        <path d="M161.91,149.84,146.74,133a71.1,71.1,0,0,0-7,7.39l17.52,14.33A48.3,48.3,0,0,1,161.91,149.84Z" transform="translate(0)" style="fill: none"/>
      </g>
      <path d="M194.26,0C91.9,0,8.93,83,8.93,185.33s83,185.33,185.33,185.33,185.33-83,185.33-185.33S296.61,0,194.26,0Zm131.8,123.63-16.72,7.83A127.6,127.6,0,0,0,296,109.13l14.78-11.07A146.15,146.15,0,0,1,326.06,123.63ZM338.34,206a146.15,146.15,0,0,1-7.25,28.91l-17.36-6.29a127.61,127.61,0,0,0,6.33-25.24ZM291,37.74a177.19,177.19,0,0,1,28,22.83L303.18,76.4a154.71,154.71,0,0,0-24.46-19.93Zm-2.41,93.12a109.82,109.82,0,0,1,6.78,13.94l-18.17,7.28a90.09,90.09,0,0,0-5.56-11.43Zm-46.67,60.32L264.37,194a71.1,71.1,0,0,1-2,10l-21.77-6.21A48.29,48.29,0,0,0,241.92,191.18Zm-9.59-35.33a48.3,48.3,0,0,0-4.5-5.06l15.8-16.21a71.11,71.11,0,0,1,6.75,7.62Zm29.23-56.17-12.09,15.39a90.09,90.09,0,0,0-10.53-7.12l9.79-17A109.82,109.82,0,0,1,261.56,99.68ZM214.92,41.25a148.11,148.11,0,0,1,28.91,7.25l-6.29,17.36a126.14,126.14,0,0,0-25.24-6.33Zm3.22,185.49,11.22,19.66a71.1,71.1,0,0,1-9.18,4.39L212,229.67A48.29,48.29,0,0,0,218.14,226.74ZM209.72,77.5l-2.78,19.38a90.09,90.09,0,0,0-12.68-.9V76.4A109.82,109.82,0,0,1,209.72,77.5Zm-15.46,98a9.85,9.85,0,1,1-9.85,9.85A9.85,9.85,0,0,1,194.26,175.48Zm-1.93-60.89a71.1,71.1,0,0,1,10.17.44l-2.74,22.47a48.3,48.3,0,0,0-6.76-.28ZM194.26,8.89V31.28a152.93,152.93,0,0,0-31.39,3.2l-4.56-21.92A179.56,179.56,0,0,1,194.26,8.89ZM169.42,226a48.29,48.29,0,0,0,6,3.11l-8.94,20.79a71.11,71.11,0,0,1-9-4.69Zm-12.15-71.27-17.52-14.33a71.11,71.11,0,0,1,7-7.39l15.17,16.8A48.29,48.29,0,0,0,157.26,154.77ZM161,102.38a85.7,85.7,0,0,0-11.43,5.56l-9.79-17a105.37,105.37,0,0,1,13.94-6.78ZM132.56,53.53l7.83,16.72a126.14,126.14,0,0,0-22.33,13.37L107,68.84A148.1,148.1,0,0,1,132.56,53.53ZM21.49,221.28a179.56,179.56,0,0,1-3.67-35.95H40.21a152.93,152.93,0,0,0,3.2,31.39Zm48-160.71L85.33,76.4A152.93,152.93,0,0,0,65.4,100.86L46.67,88.59A179.56,179.56,0,0,1,69.5,60.57Zm16.93,109.3,19.38,2.78a85.7,85.7,0,0,0-.9,12.68H85.33A105.37,105.37,0,0,1,86.42,169.87Zm-29-34.11L74.79,142a126.14,126.14,0,0,0-6.33,25.24l-18.28-2.62A148.1,148.1,0,0,1,57.43,135.76Zm5,111.27,16.72-7.83a126.14,126.14,0,0,0,13.37,22.33L77.77,272.6A148.1,148.1,0,0,1,62.45,247Zm35.06,85.89a179.56,179.56,0,0,1-28-22.83l15.83-15.83a152.93,152.93,0,0,0,24.46,19.93Zm2.41-93.12a105.37,105.37,0,0,1-6.78-13.94l18.17-7.28A85.7,85.7,0,0,0,116.87,230Zm17-99.14-17-9.79A105.37,105.37,0,0,1,108.6,118L124,130.12A85.69,85.69,0,0,0,116.87,140.65Zm7.25,51.17,22.55-2a48.3,48.3,0,0,0,1.13,6.67l-22,5.37A71.11,71.11,0,0,1,124.12,191.82ZM126.95,271,139,255.59a85.69,85.69,0,0,0,10.53,7.12l-9.79,17A105.37,105.37,0,0,1,126.95,271Zm46.65,58.43a146.15,146.15,0,0,1-28.91-7.25L151,304.79a127.61,127.61,0,0,0,25.24,6.33Zm5.2-36.25,2.78-19.38a85.69,85.69,0,0,0,12.68.9v19.57A105.37,105.37,0,0,1,178.79,293.16Zm15.46,68.61V339.38a154.71,154.71,0,0,0,31.39-3.2l4.56,21.92A177.19,177.19,0,0,1,194.26,361.77Zm33.24-93.49a85.69,85.69,0,0,0,11.43-5.56l9.79,17a105.37,105.37,0,0,1-13.94,6.78ZM256,317.13l-7.83-16.72A127.6,127.6,0,0,0,270.45,287l11.07,14.78A146.15,146.15,0,0,1,256,317.13Zm24-64.5-15.39-12.09A85.7,85.7,0,0,0,271.64,230l17,9.79A105.37,105.37,0,0,1,279.91,252.64Zm2.8-54.62a85.7,85.7,0,0,0,.9-12.68h19.57a105.37,105.37,0,0,1-1.1,15.46ZM319,310.09l-15.83-15.83a154.71,154.71,0,0,0,19.93-24.46l18.73,12.28A177.19,177.19,0,0,1,319,310.09ZM345.1,153.94,367,149.38a177.19,177.19,0,0,1,3.67,35.95H348.3A154.71,154.71,0,0,0,345.1,153.94Z" transform="translate(0)"/>
      <image width="1062" height="1062" transform="translate(17.705 17.705) scale(0.29)" xlink:href="svg/module.png"/>
    </g>
  </g>
</svg>
