<svg xmlns="http://www.w3.org/2000/svg" xmlns:xlink="http://www.w3.org/1999/xlink" width="373.62" height="373.62" viewBox="0 0 373.62 373.62">
  <title>Fichier 1</title>
  <g id="Calque_2" data-name="Calque 2">
    <g id="Calque_1-2" data-name="Calque 1">
      <g>
        <path d="M218.2,337.66a154.71,154.71,0,0,1-31.39,3.2v22.39a177.19,177.19,0,0,0,35.95-3.67Z" transform="translate(0 0)" style="fill: none"/>
        <path d="M315.67,271.28a154.71,154.71,0,0,1-19.93,24.46l15.83,15.83a177.19,177.19,0,0,0,22.83-28Z" transform="translate(0 0)" style="fill: none"/>
        <path d="M337.66,155.42a154.71,154.71,0,0,1,3.2,31.39h22.39a177.19,177.19,0,0,0-3.67-35.95Z" transform="translate(0 0)" style="fill: none"/>
        <path d="M271.28,58a154.71,154.71,0,0,1,24.46,19.93l15.83-15.83a177.19,177.19,0,0,0-28-22.83Z" transform="translate(0 0)" style="fill: none"/>
        <path d="M155.42,36a152.93,152.93,0,0,1,31.39-3.2V10.38A179.56,179.56,0,0,0,150.86,14Z" transform="translate(0 0)" style="fill: none"/>
        <path d="M58,102.34A152.93,152.93,0,0,1,77.88,77.88L62.05,62.05a179.56,179.56,0,0,0-22.83,28Z" transform="translate(0 0)" style="fill: none"/>
        <path d="M36,218.2a152.93,152.93,0,0,1-3.2-31.39H10.38A179.56,179.56,0,0,0,14,222.76Z" transform="translate(0 0)" style="fill: none"/>
        <path d="M102.34,315.67a152.93,152.93,0,0,1-24.46-19.93L62.05,311.57a179.56,179.56,0,0,0,28,22.83Z" transform="translate(0 0)" style="fill: none"/>
        <path d="M168.77,312.61a127.61,127.61,0,0,1-25.24-6.33l-6.29,17.36a146.15,146.15,0,0,0,28.91,7.25Z" transform="translate(0 0)" style="fill: none"/>
        <path d="M263,288.52a127.61,127.61,0,0,1-22.33,13.37l7.83,16.72a146.15,146.15,0,0,0,25.57-15.31Z" transform="translate(0 0)" style="fill: none"/>
        <path d="M312.61,204.85a127.61,127.61,0,0,1-6.33,25.24l17.36,6.29a146.15,146.15,0,0,0,7.25-28.91Z" transform="translate(0 0)" style="fill: none"/>
        <path d="M288.52,110.61a127.61,127.61,0,0,1,13.37,22.33l16.72-7.83A146.15,146.15,0,0,0,303.3,99.54Z" transform="translate(0 0)" style="fill: none"/>
        <path d="M204.85,61a126.14,126.14,0,0,1,25.24,6.33L236.38,50a148.1,148.1,0,0,0-28.91-7.25Z" transform="translate(0 0)" style="fill: none"/>
        <path d="M110.61,85.1a126.14,126.14,0,0,1,22.33-13.37L125.11,55A148.1,148.1,0,0,0,99.54,70.32Z" transform="translate(0 0)" style="fill: none"/>
        <path d="M61,168.77a126.14,126.14,0,0,1,6.33-25.24L50,137.24a148.1,148.1,0,0,0-7.25,28.91Z" transform="translate(0 0)" style="fill: none"/>
        <path d="M85.1,263a126.14,126.14,0,0,1-13.37-22.33L55,248.51a148.1,148.1,0,0,0,15.31,25.57Z" transform="translate(0 0)" style="fill: none"/>
        <path d="M199.5,98.36,202.27,79a109.82,109.82,0,0,0-15.46-1.1V97.46A90.09,90.09,0,0,1,199.5,98.36Z" transform="translate(0 0)" style="fill: none"/>
        <path d="M242,116.55l12.09-15.39a109.82,109.82,0,0,0-12.84-8.68l-9.79,17A90.09,90.09,0,0,1,242,116.55Z" transform="translate(0 0)" style="fill: none"/>
        <path d="M269.76,153.57l18.17-7.28a109.82,109.82,0,0,0-6.78-13.94l-17,9.79A90.09,90.09,0,0,1,269.76,153.57Z" transform="translate(0 0)" style="fill: none"/>
        <path d="M275.27,199.5l19.38,2.78a105.37,105.37,0,0,0,1.1-15.46H276.17A85.69,85.69,0,0,1,275.27,199.5Z" transform="translate(0 0)" style="fill: none"/>
        <path d="M257.07,242l15.39,12.09a105.37,105.37,0,0,0,8.68-12.84l-17-9.79A85.69,85.69,0,0,1,257.07,242Z" transform="translate(0 0)" style="fill: none"/>
        <path d="M220.05,269.76l7.28,18.17a105.37,105.37,0,0,0,13.94-6.78l-9.79-17A85.69,85.69,0,0,1,220.05,269.76Z" transform="translate(0 0)" style="fill: none"/>
        <path d="M174.13,275.27l-2.78,19.38a105.37,105.37,0,0,0,15.46,1.1V276.17A85.69,85.69,0,0,1,174.13,275.27Z" transform="translate(0 0)" style="fill: none"/>
        <path d="M131.6,257.07l-12.09,15.39a105.37,105.37,0,0,0,12.84,8.68l9.79-17A85.69,85.69,0,0,1,131.6,257.07Z" transform="translate(0 0)" style="fill: none"/>
        <path d="M103.87,220.05,85.7,227.34a105.37,105.37,0,0,0,6.78,13.94l17-9.79A85.69,85.69,0,0,1,103.87,220.05Z" transform="translate(0 0)" style="fill: none"/>
        <path d="M98.36,174.13,79,171.35a105.37,105.37,0,0,0-1.1,15.46H97.46A85.69,85.69,0,0,1,98.36,174.13Z" transform="translate(0 0)" style="fill: none"/>
        <path d="M116.55,131.6l-15.39-12.09a105.37,105.37,0,0,0-8.68,12.84l17,9.79A85.69,85.69,0,0,1,116.55,131.6Z" transform="translate(0 0)" style="fill: none"/>
        <path d="M153.57,103.87,146.29,85.7a105.37,105.37,0,0,0-13.94,6.78l9.79,17A85.69,85.69,0,0,1,153.57,103.87Z" transform="translate(0 0)" style="fill: none"/>
        <path d="M192.31,139l2.74-22.47a71.1,71.1,0,0,0-10.17-.44l.66,22.63A48.3,48.3,0,0,1,192.31,139Z" transform="translate(0 0)" style="fill: none"/>
        <path d="M224.89,157.33l18.06-13.65a71.1,71.1,0,0,0-6.75-7.62l-15.8,16.21A48.3,48.3,0,0,1,224.89,157.33Z" transform="translate(0 0)" style="fill: none"/>
        <path d="M233.14,199.3l21.77,6.21a71.1,71.1,0,0,0,2-10l-22.45-2.87A48.3,48.3,0,0,1,233.14,199.3Z" transform="translate(0 0)" style="fill: none"/>
        <path d="M204.59,231.15l8.14,21.12a71.1,71.1,0,0,0,9.18-4.39l-11.22-19.66A48.3,48.3,0,0,1,204.59,231.15Z" transform="translate(0 0)" style="fill: none"/>
        <path d="M162,227.52l-12,19.22a71.1,71.1,0,0,0,9,4.69L168,230.63A48.3,48.3,0,0,1,162,227.52Z" transform="translate(0 0)" style="fill: none"/>
        <path d="M139.23,191.29l-22.55,2a71.1,71.1,0,0,0,1.69,10l22-5.37A48.3,48.3,0,0,1,139.23,191.29Z" transform="translate(0 0)" style="fill: none"/>
        <path d="M154.47,151.33l-15.17-16.8a71.1,71.1,0,0,0-7,7.39l17.52,14.33A48.3,48.3,0,0,1,154.47,151.33Z" transform="translate(0 0)" style="fill: none"/>
      </g>
      <path d="M186.81,1.48C84.46,1.48,1.48,84.46,1.48,186.81s83,185.33,185.33,185.33,185.33-83,185.33-185.33S289.17,1.48,186.81,1.48Zm131.8,123.63-16.72,7.83a127.6,127.6,0,0,0-13.37-22.33L303.3,99.54A146.15,146.15,0,0,1,318.61,125.11Zm12.28,82.36a146.15,146.15,0,0,1-7.25,28.91l-17.36-6.29a127.61,127.61,0,0,0,6.33-25.24ZM283.56,39.23a177.19,177.19,0,0,1,28,22.83L295.74,77.88A154.71,154.71,0,0,0,271.28,58Zm-2.41,93.12a109.82,109.82,0,0,1,6.78,13.94l-18.17,7.28a90.09,90.09,0,0,0-5.56-11.43Zm-46.67,60.32,22.45,2.87a71.1,71.1,0,0,1-2,10l-21.77-6.21A48.29,48.29,0,0,0,234.48,192.67Zm-9.59-35.33a48.3,48.3,0,0,0-4.5-5.06l15.8-16.21a71.11,71.11,0,0,1,6.75,7.62Zm29.23-56.17L242,116.55a90.09,90.09,0,0,0-10.53-7.12l9.79-17A109.82,109.82,0,0,1,254.12,101.16ZM207.47,42.73A148.11,148.11,0,0,1,236.38,50l-6.29,17.36A126.14,126.14,0,0,0,204.85,61Zm3.22,185.49,11.22,19.66a71.1,71.1,0,0,1-9.18,4.39l-8.14-21.12A48.29,48.29,0,0,0,210.69,228.22ZM202.27,79,199.5,98.36a90.09,90.09,0,0,0-12.68-.9V77.88A109.82,109.82,0,0,1,202.27,79Zm-15.46,98a9.85,9.85,0,1,1-9.85,9.85A9.85,9.85,0,0,1,186.81,177Zm-1.93-60.89a71.1,71.1,0,0,1,10.17.44L192.31,139a48.3,48.3,0,0,0-6.76-.28Zm1.93-105.69V32.76A152.93,152.93,0,0,0,155.42,36L150.86,14A179.56,179.56,0,0,1,186.81,10.38ZM162,227.52a48.29,48.29,0,0,0,6,3.11L159,251.42a71.11,71.11,0,0,1-9-4.69Zm-12.15-71.27L132.3,141.92a71.11,71.11,0,0,1,7-7.39l15.17,16.8A48.29,48.29,0,0,0,149.82,156.25Zm3.75-52.38a85.7,85.7,0,0,0-11.43,5.56l-9.79-17a105.37,105.37,0,0,1,13.94-6.78ZM125.11,55l7.83,16.72A126.14,126.14,0,0,0,110.61,85.1L99.54,70.32A148.1,148.1,0,0,1,125.11,55ZM14,222.76a179.56,179.56,0,0,1-3.67-35.95H32.76A152.93,152.93,0,0,0,36,218.2Zm48-160.71L77.88,77.88A152.93,152.93,0,0,0,58,102.34L39.23,90.07A179.56,179.56,0,0,1,62.05,62.05ZM79,171.35l19.38,2.78a85.7,85.7,0,0,0-.9,12.68H77.88A105.37,105.37,0,0,1,79,171.35ZM50,137.24l17.36,6.29A126.14,126.14,0,0,0,61,168.77l-18.28-2.62A148.1,148.1,0,0,1,50,137.24Zm5,111.27,16.72-7.83A126.14,126.14,0,0,0,85.1,263L70.32,274.08A148.1,148.1,0,0,1,55,248.51ZM90.07,334.4a179.56,179.56,0,0,1-28-22.83l15.83-15.83a152.93,152.93,0,0,0,24.46,19.93Zm2.41-93.12a105.37,105.37,0,0,1-6.78-13.94l18.17-7.28a85.7,85.7,0,0,0,5.56,11.43Zm17-99.14-17-9.79a105.37,105.37,0,0,1,8.68-12.84l15.39,12.09A85.69,85.69,0,0,0,109.43,142.13Zm7.25,51.17,22.55-2a48.3,48.3,0,0,0,1.13,6.67l-22,5.37A71.11,71.11,0,0,1,116.68,193.3Zm2.83,79.16,12.09-15.39a85.69,85.69,0,0,0,10.53,7.12l-9.79,17A105.37,105.37,0,0,1,119.51,272.46Zm46.65,58.43a146.15,146.15,0,0,1-28.91-7.25l6.29-17.36a127.61,127.61,0,0,0,25.24,6.33Zm5.2-36.25,2.78-19.38a85.69,85.69,0,0,0,12.68.9v19.57A105.37,105.37,0,0,1,171.35,294.64Zm15.46,68.61V340.86a154.71,154.71,0,0,0,31.39-3.2l4.56,21.92A177.19,177.19,0,0,1,186.81,363.25Zm33.24-93.49a85.69,85.69,0,0,0,11.43-5.56l9.79,17a105.37,105.37,0,0,1-13.94,6.78Zm28.46,48.86-7.83-16.72A127.6,127.6,0,0,0,263,288.52l11.07,14.78A146.15,146.15,0,0,1,248.51,318.61Zm24-64.5L257.07,242a85.7,85.7,0,0,0,7.12-10.53l17,9.79A105.37,105.37,0,0,1,272.46,254.12Zm2.8-54.62a85.7,85.7,0,0,0,.9-12.68h19.57a105.37,105.37,0,0,1-1.1,15.46Zm36.3,112.08-15.83-15.83a154.71,154.71,0,0,0,19.93-24.46l18.73,12.28A177.19,177.19,0,0,1,311.57,311.57Zm26.08-156.15,21.92-4.56a177.19,177.19,0,0,1,3.67,35.95H340.86A154.71,154.71,0,0,0,337.66,155.42Z" transform="translate(0 0)"/>
      <image width="800" height="800" transform="translate(0 0) scale(0.47)" xlink:href="svg/module4.png"/>
    </g>
  </g>
</svg>
