<svg xmlns="http://www.w3.org/2000/svg" xmlns:xlink="http://www.w3.org/1999/xlink" width="1022.94" height="548.26" viewBox="0 0 1022.94 548.26">
  <title>Fichier 1</title>
  <g id="Calque_2" data-name="Calque 2">
    <g id="strokes">
      <g>
        <path d="M218.2,425a154.71,154.71,0,0,1-31.39,3.2v22.39a177.19,177.19,0,0,0,35.95-3.67Z" style="fill: none"/>
        <path d="M315.67,358.6a154.71,154.71,0,0,1-19.93,24.46l15.83,15.83a177.19,177.19,0,0,0,22.83-28Z" style="fill: none"/>
        <path d="M337.66,242.74a154.71,154.71,0,0,1,3.2,31.39h22.39a177.19,177.19,0,0,0-3.67-35.95Z" style="fill: none"/>
        <path d="M271.28,145.27a154.71,154.71,0,0,1,24.46,19.93l15.83-15.83a177.19,177.19,0,0,0-28-22.83Z" style="fill: none"/>
        <path d="M155.42,123.29a152.93,152.93,0,0,1,31.39-3.2V97.69a179.56,179.56,0,0,0-35.95,3.67Z" style="fill: none"/>
        <path d="M58,189.66A152.93,152.93,0,0,1,77.88,165.2L62.05,149.37a179.56,179.56,0,0,0-22.83,28Z" style="fill: none"/>
        <path d="M36,305.52a152.93,152.93,0,0,1-3.2-31.39H10.38A179.56,179.56,0,0,0,14,310.08Z" style="fill: none"/>
        <path d="M102.34,403a152.93,152.93,0,0,1-24.46-19.93L62.05,398.89a179.56,179.56,0,0,0,28,22.83Z" style="fill: none"/>
        <path d="M168.77,399.93a127.61,127.61,0,0,1-25.24-6.33L137.24,411a146.15,146.15,0,0,0,28.91,7.25Z" style="fill: none"/>
        <path d="M263,375.84a127.61,127.61,0,0,1-22.33,13.37l7.83,16.72a146.15,146.15,0,0,0,25.57-15.31Z" style="fill: none"/>
        <path d="M312.61,292.17a127.61,127.61,0,0,1-6.33,25.24l17.36,6.29a146.15,146.15,0,0,0,7.25-28.91Z" style="fill: none"/>
        <path d="M288.52,197.93a127.61,127.61,0,0,1,13.37,22.33l16.72-7.83a146.15,146.15,0,0,0-15.31-25.57Z" style="fill: none"/>
        <path d="M204.85,148.33a126.14,126.14,0,0,1,25.24,6.33l6.29-17.36A148.1,148.1,0,0,0,207.47,130Z" style="fill: none"/>
        <path d="M110.61,172.42a126.14,126.14,0,0,1,22.33-13.37l-7.83-16.72a148.1,148.1,0,0,0-25.57,15.31Z" style="fill: none"/>
        <path d="M61,256.09a126.14,126.14,0,0,1,6.33-25.24L50,224.56a148.1,148.1,0,0,0-7.25,28.91Z" style="fill: none"/>
        <path d="M85.1,350.33A126.14,126.14,0,0,1,71.73,328L55,335.83A148.1,148.1,0,0,0,70.32,361.4Z" style="fill: none"/>
        <path d="M199.5,185.67l2.78-19.38a109.82,109.82,0,0,0-15.46-1.1v19.57A90.09,90.09,0,0,1,199.5,185.67Z" style="fill: none"/>
        <path d="M242,203.87l12.09-15.39a109.82,109.82,0,0,0-12.84-8.68l-9.79,17A90.09,90.09,0,0,1,242,203.87Z" style="fill: none"/>
        <path d="M269.76,240.89l18.17-7.28a109.82,109.82,0,0,0-6.78-13.94l-17,9.79A90.09,90.09,0,0,1,269.76,240.89Z" style="fill: none"/>
        <path d="M275.27,286.81l19.38,2.78a105.37,105.37,0,0,0,1.1-15.46H276.17A85.69,85.69,0,0,1,275.27,286.81Z" style="fill: none"/>
        <path d="M257.07,329.34l15.39,12.09a105.37,105.37,0,0,0,8.68-12.84l-17-9.79A85.69,85.69,0,0,1,257.07,329.34Z" style="fill: none"/>
        <path d="M220.05,357.08l7.28,18.17a105.37,105.37,0,0,0,13.94-6.78l-9.79-17A85.69,85.69,0,0,1,220.05,357.08Z" style="fill: none"/>
        <path d="M174.13,362.58,171.35,382a105.37,105.37,0,0,0,15.46,1.1V363.48A85.69,85.69,0,0,1,174.13,362.58Z" style="fill: none"/>
        <path d="M131.6,344.39l-12.09,15.39a105.37,105.37,0,0,0,12.84,8.68l9.79-17A85.69,85.69,0,0,1,131.6,344.39Z" style="fill: none"/>
        <path d="M103.87,307.37,85.7,314.65a105.37,105.37,0,0,0,6.78,13.94l17-9.79A85.69,85.69,0,0,1,103.87,307.37Z" style="fill: none"/>
        <path d="M98.36,261.45,79,258.67a105.37,105.37,0,0,0-1.1,15.46H97.46A85.69,85.69,0,0,1,98.36,261.45Z" style="fill: none"/>
        <path d="M116.55,218.92l-15.39-12.09a105.37,105.37,0,0,0-8.68,12.84l17,9.79A85.69,85.69,0,0,1,116.55,218.92Z" style="fill: none"/>
        <path d="M153.57,191.18,146.29,173a105.37,105.37,0,0,0-13.94,6.78l9.79,17A85.69,85.69,0,0,1,153.57,191.18Z" style="fill: none"/>
        <path d="M192.31,226.3l2.74-22.47a71.1,71.1,0,0,0-10.17-.44l.66,22.63A48.3,48.3,0,0,1,192.31,226.3Z" style="fill: none"/>
        <path d="M224.89,244.65,242.95,231a71.1,71.1,0,0,0-6.75-7.62l-15.8,16.21A48.3,48.3,0,0,1,224.89,244.65Z" style="fill: none"/>
        <path d="M233.14,286.62l21.77,6.21a71.1,71.1,0,0,0,2-10L234.48,280A48.3,48.3,0,0,1,233.14,286.62Z" style="fill: none"/>
        <path d="M204.59,318.47l8.14,21.12a71.1,71.1,0,0,0,9.18-4.39l-11.22-19.66A48.3,48.3,0,0,1,204.59,318.47Z" style="fill: none"/>
        <path d="M162,314.83,150,334a71.1,71.1,0,0,0,9,4.69L168,317.95A48.3,48.3,0,0,1,162,314.83Z" style="fill: none"/>
        <path d="M139.23,278.61l-22.55,2a71.1,71.1,0,0,0,1.69,10l22-5.37A48.3,48.3,0,0,1,139.23,278.61Z" style="fill: none"/>
        <path d="M154.47,238.64l-15.17-16.8a71.1,71.1,0,0,0-7,7.39l17.52,14.33A48.3,48.3,0,0,1,154.47,238.64Z" style="fill: none"/>
      </g>
      <path d="M186.81,88.8c-102.35,0-185.33,83-185.33,185.33s83,185.33,185.33,185.33,185.33-83,185.33-185.33S289.17,88.8,186.81,88.8Zm131.8,123.63-16.72,7.83a127.6,127.6,0,0,0-13.37-22.33l14.78-11.07A146.15,146.15,0,0,1,318.61,212.43Zm12.28,82.36a146.15,146.15,0,0,1-7.25,28.91l-17.36-6.29a127.61,127.61,0,0,0,6.33-25.24ZM283.56,126.54a177.19,177.19,0,0,1,28,22.83L295.74,165.2a154.71,154.71,0,0,0-24.46-19.93Zm-2.41,93.12a109.82,109.82,0,0,1,6.78,13.94l-18.17,7.28a90.09,90.09,0,0,0-5.56-11.43ZM234.48,280l22.45,2.87a71.1,71.1,0,0,1-2,10l-21.77-6.21A48.29,48.29,0,0,0,234.48,280Zm-9.59-35.33a48.3,48.3,0,0,0-4.5-5.06l15.8-16.21a71.11,71.11,0,0,1,6.75,7.62Zm29.23-56.17L242,203.87a90.09,90.09,0,0,0-10.53-7.12l9.79-17A109.82,109.82,0,0,1,254.12,188.48ZM207.47,130a148.11,148.11,0,0,1,28.91,7.25l-6.29,17.36a126.14,126.14,0,0,0-25.24-6.33Zm3.22,185.49,11.22,19.66a71.1,71.1,0,0,1-9.18,4.39l-8.14-21.12A48.29,48.29,0,0,0,210.69,315.54ZM202.27,166.3l-2.78,19.38a90.09,90.09,0,0,0-12.68-.9V165.2A109.82,109.82,0,0,1,202.27,166.3Zm-15.46,98a9.85,9.85,0,1,1-9.85,9.85A9.85,9.85,0,0,1,186.81,264.28Zm-1.93-60.89a71.1,71.1,0,0,1,10.17.44l-2.74,22.47a48.3,48.3,0,0,0-6.76-.28Zm1.93-105.69v22.39a152.93,152.93,0,0,0-31.39,3.2l-4.56-21.92A179.56,179.56,0,0,1,186.81,97.69ZM162,314.83a48.29,48.29,0,0,0,6,3.11L159,338.74a71.11,71.11,0,0,1-9-4.69Zm-12.15-71.27L132.3,229.24a71.11,71.11,0,0,1,7-7.39l15.17,16.8A48.29,48.29,0,0,0,149.82,243.57Zm3.75-52.38a85.7,85.7,0,0,0-11.43,5.56l-9.79-17A105.37,105.37,0,0,1,146.29,173Zm-28.46-48.86,7.83,16.72a126.14,126.14,0,0,0-22.33,13.37L99.54,157.64A148.1,148.1,0,0,1,125.11,142.33ZM14,310.08a179.56,179.56,0,0,1-3.67-35.95H32.76A152.93,152.93,0,0,0,36,305.52Zm48-160.71L77.88,165.2A152.93,152.93,0,0,0,58,189.66L39.23,177.39A179.56,179.56,0,0,1,62.05,149.37ZM79,258.67l19.38,2.78a85.7,85.7,0,0,0-.9,12.68H77.88A105.37,105.37,0,0,1,79,258.67ZM50,224.56l17.36,6.29A126.14,126.14,0,0,0,61,256.09l-18.28-2.62A148.1,148.1,0,0,1,50,224.56Zm5,111.27L71.73,328A126.14,126.14,0,0,0,85.1,350.33L70.32,361.4A148.1,148.1,0,0,1,55,335.83Zm35.06,85.89a179.56,179.56,0,0,1-28-22.83l15.83-15.83A152.93,152.93,0,0,0,102.34,403Zm2.41-93.12a105.37,105.37,0,0,1-6.78-13.94l18.17-7.28a85.7,85.7,0,0,0,5.56,11.43Zm17-99.14-17-9.79a105.37,105.37,0,0,1,8.68-12.84l15.39,12.09A85.69,85.69,0,0,0,109.43,229.45Zm7.25,51.17,22.55-2a48.3,48.3,0,0,0,1.13,6.67l-22,5.37A71.11,71.11,0,0,1,116.68,280.62Zm2.83,79.16,12.09-15.39a85.69,85.69,0,0,0,10.53,7.12l-9.79,17A105.37,105.37,0,0,1,119.51,359.78Zm46.65,58.43A146.15,146.15,0,0,1,137.24,411l6.29-17.36a127.61,127.61,0,0,0,25.24,6.33Zm5.2-36.25,2.78-19.38a85.69,85.69,0,0,0,12.68.9v19.57A105.37,105.37,0,0,1,171.35,382Zm15.46,68.61V428.18A154.71,154.71,0,0,0,218.2,425l4.56,21.92A177.19,177.19,0,0,1,186.81,450.57Zm33.24-93.49a85.69,85.69,0,0,0,11.43-5.56l9.79,17a105.37,105.37,0,0,1-13.94,6.78Zm28.46,48.86-7.83-16.72A127.6,127.6,0,0,0,263,375.84l11.07,14.78A146.15,146.15,0,0,1,248.51,405.93Zm24-64.5-15.39-12.09a85.7,85.7,0,0,0,7.12-10.53l17,9.79A105.37,105.37,0,0,1,272.46,341.44Zm2.8-54.62a85.7,85.7,0,0,0,.9-12.68h19.57a105.37,105.37,0,0,1-1.1,15.46Zm36.3,112.08-15.83-15.83a154.71,154.71,0,0,0,19.93-24.46l18.73,12.28A177.19,177.19,0,0,1,311.57,398.89Zm26.08-156.15,21.92-4.56a177.19,177.19,0,0,1,3.67,35.95H340.86A154.71,154.71,0,0,0,337.66,242.74Z"/>
      <image width="800" height="800" transform="translate(0 43.66) scale(0.47)" xlink:href="svg/module4.png"/>
    </g>
    <g id="blobs">
      <g>
        <path d="M625.12,145.77c23.5-12.28,14.54-39.2,18.07-53.79,4.8-19.88,27.89-32.32,46.27-23.49,19.76,9.5,20.8,9.81,43.3,8s29.38-25.71,48.66-35.35,50-5,62.89,20.66,1.46,53.37-21,64.38S752.49,114.57,724,144.41s-14.23,72.07-34.89,95.94-52.33,18.82-71.61,12.39-65.61-30.66-82.28-52.45c-17.36-22.68-.54-67,37.66-54.87C593.08,151.83,611.35,153,625.12,145.77Z" style="fill: none"/>
        <path d="M834.6,178.08c18.55,11.88,38.18,15,49.77-3.18,11.74-18.43,2.52-30.17,9.59-45.77,6-13.2,23-23.88,39.67-15.87s24.21,29.19,16.21,45.88c-8.53,17.79-16.55,24.31-15.44,38.49.75,9.56,1.69,42.12,2.38,57,.87,18.8-7.12,40.86-28.64,45.48-24.24,5.2-38.25-5.4-46.19-26.34-6.57-17.34-4.57-31.6-22.66-38.63-15.83-6.15-26.26,6.53-40.89,5.29-13.19-1.11-31-8.58-32.34-32.67-1.21-21.52,13.47-34.83,28-37.86C806.93,167.2,822.24,170.16,834.6,178.08Z" style="fill: none"/>
        <path d="M826.49,399.61c-8.91,27.29,8.94,43.83,4.14,67.72s-19.1,33.57-31.14,37.88c-10.93,3.91-40.06,10.61-56-7.93-14.14-16.49-10.49-34.66.17-47,8.68-10.06,20.19-14.29,31.59-17.86,11.89-3.72,15-17.33,8.9-28.08-6.61-11.62-15.88-21.07-16.1-41.62-.24-22.16,18.71-39.83,37.46-40s34,12.8,35.06,37.31C841.52,380.38,831,385.9,826.49,399.61Z" style="fill: none"/>
        <path d="M574.52,351.54c-18.28-.78-32.61-4.07-42.08-9.66-15.75-9.29-31.25-33.07-18.75-57.22,13.07-25.24,38.2-28.1,62.38-15.11,25.78,13.85,32.38,35.18,42.56,44.82,10.81,10.24,24.25,12,38,.26,13.52-11.57,26.43-16.75,42.15-15.29s33.37,14.47,36.74,32.21c3.6,19-2.11,34-19.23,42.33s-23.35,5.06-33.14,15.06c-14.67,15-1.07,49.67-6.94,63.44s-22.36,21-41.06,17.4-35.78-22.07-38.94-38.36c-3-15.49-1.34-33.28.12-50.19S586.1,352,574.52,351.54Z" style="fill: none"/>
        <path d="M901.58,348.21c-13.49,4-26,12.76-27.22,30.57s5.06,27.85,12.88,36.73,22,13.25,33.65,7.52c14.69-7.24,21.16-24,22.34-37.64s13.91-16.24,20.79-25.12c7.13-9.2,9.85-26.45-3.33-36.71-14-10.92-28.71-1.69-34.43,7S914.47,344.37,901.58,348.21Z" style="fill: none"/>
      </g>
      <path d="M748.81,0C597.41,0,474.68,122.73,474.68,274.13S597.41,548.26,748.81,548.26s274.13-122.73,274.13-274.13S900.21,0,748.81,0ZM572.91,145.43c20.18,6.39,38.45,7.53,52.21.33,23.5-12.28,14.54-39.2,18.07-53.79,4.8-19.88,27.89-32.32,46.27-23.49,19.76,9.5,20.8,9.81,43.3,8s29.38-25.71,48.66-35.35,50-5,62.89,20.66,1.46,53.37-21,64.38S752.49,114.57,724,144.41s-14.23,72.07-34.89,95.94-52.33,18.82-71.61,12.39-65.61-30.66-82.28-52.45C517.88,177.62,534.71,133.33,572.91,145.43ZM758.66,274.13a9.85,9.85,0,1,1-9.85-9.85A9.85,9.85,0,0,1,758.66,274.13Zm-42.38,99.75c-17.12,8.33-23.35,5.06-33.14,15.06-14.67,15-1.07,49.67-6.94,63.44s-22.36,21-41.06,17.4-35.78-22.07-38.94-38.36c-3-15.49-1.34-33.28.12-50.19S586.1,352,574.52,351.54c-18.28-.78-32.61-4.07-42.08-9.66-15.75-9.29-31.25-33.07-18.75-57.22,13.07-25.24,38.2-28.1,62.38-15.11,25.78,13.85,32.38,35.18,42.56,44.82,10.81,10.24,24.25,12,38,.26,13.52-11.57,26.43-16.75,42.15-15.29s33.37,14.47,36.74,32.21C739.11,350.52,733.4,365.55,716.28,373.88Zm114.35,93.44c-4.8,23.89-19.1,33.57-31.14,37.88-10.93,3.91-40.06,10.61-56-7.93-14.14-16.49-10.49-34.66.17-47,8.68-10.06,20.19-14.29,31.59-17.86,11.89-3.72,15-17.33,8.9-28.08-6.61-11.62-15.88-21.07-16.1-41.62-.24-22.16,18.71-39.83,37.46-40s34,12.8,35.07,37.31c.9,20.37-9.65,25.89-14.13,39.6C817.58,426.9,835.43,443.44,830.63,467.33Zm31.32-193.57c-6.57-17.34-4.57-31.6-22.66-38.63-15.83-6.15-26.26,6.53-40.89,5.29-13.19-1.11-31-8.58-32.34-32.67-1.2-21.52,13.47-34.83,28-37.86,12.88-2.68,28.19.28,40.55,8.19,18.55,11.88,38.18,15,49.77-3.18,11.74-18.43,2.52-30.17,9.59-45.77,6-13.2,23-23.88,39.67-15.87s24.21,29.19,16.21,45.88c-8.53,17.79-16.55,24.31-15.44,38.49.75,9.56,1.69,42.12,2.38,57,.87,18.8-7.12,40.86-28.64,45.48C883.89,305.3,869.89,294.7,861.95,273.75Zm81.28,111.64c-1.19,13.66-7.66,30.4-22.34,37.64-11.63,5.73-25.83,1.37-33.65-7.52s-14.09-18.93-12.88-36.73,13.73-26.56,27.22-30.57c12.89-3.84,19-9,24.68-17.67s20.42-17.89,34.43-7c13.17,10.27,10.46,27.51,3.33,36.71C957.14,369.15,944.41,371.73,943.23,385.39Z"/>
    </g>
  </g>
</svg>
