<svg xmlns="http://www.w3.org/2000/svg" xmlns:xlink="http://www.w3.org/1999/xlink" width="3518.22" height="1362" viewBox="0 0 3518.22 1362">
  <title>Fichier 1</title>
  <g id="Calque_2" data-name="Calque 2">
    <g id="strokes">
      <g>
        <path d="M218.4,831.25a158.38,158.38,0,0,1-31.18,3.2v22.39a178.55,178.55,0,0,0,35.85-3.67Z" style="fill: none"/>
        <path d="M315.67,764.88a154.71,154.71,0,0,1-19.93,24.46l15.83,15.83a177.19,177.19,0,0,0,22.83-28Z" style="fill: none"/>
        <path d="M337.66,648.82a158.38,158.38,0,0,1,3.2,31.18h22.39a178.55,178.55,0,0,0-3.67-35.85Z" style="fill: none"/>
        <path d="M271.28,551.55a154.71,154.71,0,0,1,24.46,19.93l15.83-15.83a177.19,177.19,0,0,0-28-22.83Z" style="fill: none"/>
        <path d="M155.63,529.56a154.93,154.93,0,0,1,31.59-3.2V504a180.57,180.57,0,0,0-36.05,3.67Z" style="fill: none"/>
        <path d="M58,595.94a152.93,152.93,0,0,1,19.93-24.46L62.05,555.65a179.56,179.56,0,0,0-22.83,28Z" style="fill: none"/>
        <path d="M36,711.59A154.93,154.93,0,0,1,32.76,680H10.38A180.57,180.57,0,0,0,14,716.05Z" style="fill: none"/>
        <path d="M102.34,809.27a152.93,152.93,0,0,1-24.46-19.93L62.05,805.17a179.56,179.56,0,0,0,28,22.83Z" style="fill: none"/>
        <path d="M168.77,806.21a127.61,127.61,0,0,1-25.24-6.33l-6.29,17.36a146.15,146.15,0,0,0,28.91,7.25Z" style="fill: none"/>
        <path d="M263,782.12a127.61,127.61,0,0,1-22.33,13.37l7.83,16.72a146.15,146.15,0,0,0,25.57-15.31Z" style="fill: none"/>
        <path d="M312.61,698.45a127.61,127.61,0,0,1-6.33,25.24L323.64,730a146.15,146.15,0,0,0,7.25-28.91Z" style="fill: none"/>
        <path d="M288.52,604.21a127.61,127.61,0,0,1,13.37,22.33l16.72-7.83a146.15,146.15,0,0,0-15.31-25.57Z" style="fill: none"/>
        <path d="M204.85,554.61a126.14,126.14,0,0,1,25.24,6.33l6.29-17.36a148.1,148.1,0,0,0-28.91-7.25Z" style="fill: none"/>
        <path d="M110.61,578.7a126.14,126.14,0,0,1,22.33-13.37l-7.83-16.72a148.1,148.1,0,0,0-25.57,15.31Z" style="fill: none"/>
        <path d="M61,662.37a126.14,126.14,0,0,1,6.33-25.24L50,630.84a148.1,148.1,0,0,0-7.25,28.91Z" style="fill: none"/>
        <path d="M85.1,756.61a126.14,126.14,0,0,1-13.37-22.33L55,742.11a148.1,148.1,0,0,0,15.31,25.57Z" style="fill: none"/>
        <path d="M199.7,592l2.88-19.38a111.08,111.08,0,0,0-15.36-1.1v19.57A90.53,90.53,0,0,1,199.7,592Z" style="fill: none"/>
        <path d="M242,610.15l12.09-15.39a109.82,109.82,0,0,0-12.84-8.68l-9.79,17A90.09,90.09,0,0,1,242,610.15Z" style="fill: none"/>
        <path d="M269.76,647.17l18.17-7.28a109.82,109.82,0,0,0-6.78-13.94l-17,9.79A90.09,90.09,0,0,1,269.76,647.17Z" style="fill: none"/>
        <path d="M275.27,692.89l19.38,2.68a103.61,103.61,0,0,0,1.1-15.56H276.17A85.9,85.9,0,0,1,275.27,692.89Z" style="fill: none"/>
        <path d="M257.07,735.62l15.39,12.09a105.37,105.37,0,0,0,8.68-12.84l-17-9.79A85.69,85.69,0,0,1,257.07,735.62Z" style="fill: none"/>
        <path d="M220.05,763.35l7.28,18.17a105.37,105.37,0,0,0,13.94-6.78l-9.79-17A85.69,85.69,0,0,1,220.05,763.35Z" style="fill: none"/>
        <path d="M174.33,768.86l-2.68,19.38a103.61,103.61,0,0,0,15.56,1.1V769.76A85.9,85.9,0,0,1,174.33,768.86Z" style="fill: none"/>
        <path d="M131.6,750.67l-12.09,15.39a105.37,105.37,0,0,0,12.84,8.68l9.79-17A85.69,85.69,0,0,1,131.6,750.67Z" style="fill: none"/>
        <path d="M103.87,713.65,85.7,720.93a105.37,105.37,0,0,0,6.78,13.94l17-9.79A85.69,85.69,0,0,1,103.87,713.65Z" style="fill: none"/>
        <path d="M98.36,667.52,79,664.64A111.08,111.08,0,0,0,77.88,680H97.46A90.53,90.53,0,0,1,98.36,667.52Z" style="fill: none"/>
        <path d="M116.55,625.2,101.16,613.1a105.37,105.37,0,0,0-8.68,12.84l17,9.79A85.69,85.69,0,0,1,116.55,625.2Z" style="fill: none"/>
        <path d="M153.57,597.46l-7.28-18.17a105.37,105.37,0,0,0-13.94,6.78l9.79,17A85.69,85.69,0,0,1,153.57,597.46Z" style="fill: none"/>
        <path d="M192.31,632.58l2.74-22.47a71.1,71.1,0,0,0-10.17-.44l.66,22.63A48.3,48.3,0,0,1,192.31,632.58Z" style="fill: none"/>
        <path d="M224.89,650.93l18.06-13.65a71.1,71.1,0,0,0-6.75-7.62l-15.8,16.21A48.3,48.3,0,0,1,224.89,650.93Z" style="fill: none"/>
        <path d="M233.14,692.9l21.77,6.21a71.1,71.1,0,0,0,2-10l-22.45-2.87A48.3,48.3,0,0,1,233.14,692.9Z" style="fill: none"/>
        <path d="M204.59,724.75l8.14,21.12a71.1,71.1,0,0,0,9.18-4.39l-11.22-19.66A48.3,48.3,0,0,1,204.59,724.75Z" style="fill: none"/>
        <path d="M162,721.11l-12,19.22a71.1,71.1,0,0,0,9,4.69L168,724.23A48.3,48.3,0,0,1,162,721.11Z" style="fill: none"/>
        <path d="M139.23,684.89l-22.55,2a71.1,71.1,0,0,0,1.69,10l22-5.37A48.3,48.3,0,0,1,139.23,684.89Z" style="fill: none"/>
        <path d="M154.47,644.92l-15.17-16.8a71.1,71.1,0,0,0-7,7.39l17.52,14.33A48.3,48.3,0,0,1,154.47,644.92Z" style="fill: none"/>
      </g>
      <path d="M186.81,495.08c-102.35,0-185.33,83-185.33,185.33s83,185.33,185.33,185.33,185.33-83,185.33-185.33S289.17,495.08,186.81,495.08Zm131.8,123.63-16.72,7.83a127.6,127.6,0,0,0-13.37-22.33l14.78-11.07A146.15,146.15,0,0,1,318.61,618.71Zm12.28,82.36A146.15,146.15,0,0,1,323.64,730l-17.36-6.29a127.61,127.61,0,0,0,6.33-25.24ZM283.56,532.82a177.19,177.19,0,0,1,28,22.83l-15.83,15.83a154.71,154.71,0,0,0-24.46-19.93Zm-2.41,93.12a109.82,109.82,0,0,1,6.78,13.94l-18.17,7.28a90.09,90.09,0,0,0-5.56-11.43Zm-46.67,60.32,22.45,2.87a71.1,71.1,0,0,1-2,10l-21.77-6.21A48.29,48.29,0,0,0,234.48,686.26Zm-9.59-35.33a48.3,48.3,0,0,0-4.5-5.06l15.8-16.21a71.11,71.11,0,0,1,6.75,7.62Zm29.23-56.17L242,610.15A90.09,90.09,0,0,0,231.49,603l9.79-17A109.82,109.82,0,0,1,254.12,594.75Zm-46.65-58.43a148.11,148.11,0,0,1,28.91,7.25l-6.29,17.36a126.14,126.14,0,0,0-25.24-6.33Zm3.22,185.49,11.22,19.66a71.1,71.1,0,0,1-9.18,4.39l-8.14-21.12A48.29,48.29,0,0,0,210.69,721.82Zm-8.42-149.24L199.5,592a90.09,90.09,0,0,0-12.68-.9V571.48A109.82,109.82,0,0,1,202.27,572.58Zm-15.46,98a9.85,9.85,0,1,1-9.85,9.85A9.85,9.85,0,0,1,186.81,670.56Zm-1.93-60.89a71.1,71.1,0,0,1,10.17.44l-2.74,22.47a48.3,48.3,0,0,0-6.76-.28ZM186.81,504v22.39a152.93,152.93,0,0,0-31.39,3.2l-4.56-21.92A179.56,179.56,0,0,1,186.81,504ZM162,721.11a48.29,48.29,0,0,0,6,3.11L159,745a71.11,71.11,0,0,1-9-4.69Zm-12.15-71.27L132.3,635.52a71.11,71.11,0,0,1,7-7.39l15.17,16.8A48.29,48.29,0,0,0,149.82,649.85Zm3.75-52.38A85.7,85.7,0,0,0,142.13,603l-9.79-17a105.37,105.37,0,0,1,13.94-6.78Zm-28.46-48.86,7.83,16.72a126.14,126.14,0,0,0-22.33,13.37L99.54,563.92A148.1,148.1,0,0,1,125.11,548.61ZM14,716.36a179.56,179.56,0,0,1-3.67-35.95H32.76A152.93,152.93,0,0,0,36,711.8Zm48-160.71,15.83,15.83A152.93,152.93,0,0,0,58,595.94L39.23,583.66A179.56,179.56,0,0,1,62.05,555.65ZM79,664.95l19.38,2.78a85.7,85.7,0,0,0-.9,12.68H77.88A105.37,105.37,0,0,1,79,664.95ZM50,630.84l17.36,6.29A126.14,126.14,0,0,0,61,662.37l-18.28-2.62A148.1,148.1,0,0,1,50,630.84Zm5,111.27,16.72-7.83A126.14,126.14,0,0,0,85.1,756.61L70.32,767.68A148.1,148.1,0,0,1,55,742.11ZM90.07,828a179.56,179.56,0,0,1-28-22.83l15.83-15.83a152.93,152.93,0,0,0,24.46,19.93Zm2.41-93.12a105.37,105.37,0,0,1-6.78-13.94l18.17-7.28a85.7,85.7,0,0,0,5.56,11.43Zm17-99.14-17-9.79a105.37,105.37,0,0,1,8.68-12.84l15.39,12.09A85.69,85.69,0,0,0,109.43,635.73Zm7.25,51.17,22.55-2a48.3,48.3,0,0,0,1.13,6.67l-22,5.37A71.11,71.11,0,0,1,116.68,686.9Zm2.83,79.16,12.09-15.39a85.69,85.69,0,0,0,10.53,7.12l-9.79,17A105.37,105.37,0,0,1,119.51,766.06Zm46.65,58.43a146.15,146.15,0,0,1-28.91-7.25l6.29-17.36a127.61,127.61,0,0,0,25.24,6.33Zm5.2-36.25,2.78-19.38a85.69,85.69,0,0,0,12.68.9v19.57A105.37,105.37,0,0,1,171.35,788.24Zm15.46,68.61V834.46a154.71,154.71,0,0,0,31.39-3.2l4.56,21.92A177.19,177.19,0,0,1,186.81,856.84Zm33.24-93.49a85.69,85.69,0,0,0,11.43-5.56l9.79,17a105.37,105.37,0,0,1-13.94,6.78Zm28.46,48.86-7.83-16.72A127.6,127.6,0,0,0,263,782.12l11.07,14.78A146.15,146.15,0,0,1,248.51,812.21Zm24-64.5-15.39-12.09a85.7,85.7,0,0,0,7.12-10.53l17,9.79A105.37,105.37,0,0,1,272.46,747.71Zm2.8-54.62a85.7,85.7,0,0,0,.9-12.68h19.57a105.37,105.37,0,0,1-1.1,15.46Zm36.3,112.08-15.83-15.83a154.71,154.71,0,0,0,19.93-24.46l18.73,12.28A177.19,177.19,0,0,1,311.57,805.17ZM337.66,649l21.92-4.56a177.19,177.19,0,0,1,3.67,35.95H340.86A154.71,154.71,0,0,0,337.66,649Z"/>
      <image width="800" height="800" transform="translate(0 246.8) scale(0.47)" xlink:href="svg/module4.png"/>
    </g>
    <g id="blobs">
      <g>
        <path d="M625.12,552c23.5-12.28,14.54-39.2,18.07-53.79,4.8-19.88,27.89-32.32,46.27-23.49,19.76,9.5,20.8,9.81,43.3,8S762.13,457,781.42,447.4s50-5,62.89,20.66,1.46,53.37-21,64.38S752.49,520.85,724,550.69s-14.23,72.07-34.89,95.94S636.81,665.45,617.53,659s-65.61-30.66-82.28-52.45c-17.36-22.68-.54-67,37.66-54.87C593.08,558.11,611.35,559.24,625.12,552Z" style="fill: none"/>
        <path d="M834.6,584.36c18.55,11.88,38.18,15,49.77-3.18,11.74-18.43,2.52-30.17,9.59-45.77,6-13.2,23-23.88,39.67-15.87s24.21,29.19,16.21,45.88c-8.53,17.79-16.55,24.31-15.44,38.49.75,9.56,1.69,42.12,2.38,57,.87,18.8-7.12,40.86-28.64,45.48-24.24,5.2-38.25-5.4-46.19-26.34-6.57-17.34-4.57-31.6-22.66-38.63-15.83-6.15-26.26,6.53-40.89,5.29-13.19-1.11-31-8.58-32.34-32.67-1.21-21.52,13.47-34.83,28-37.86C806.93,573.48,822.24,576.44,834.6,584.36Z" style="fill: none"/>
        <path d="M826.49,805.89c-8.91,27.29,8.94,43.83,4.14,67.72s-19.1,33.57-31.14,37.88c-10.93,3.91-40.06,10.61-56-7.93-14.14-16.49-10.49-34.66.17-47,8.68-10.06,20.19-14.29,31.59-17.86,11.89-3.72,15-17.33,8.9-28.08C777.58,799,768.32,789.53,768.1,769c-.24-22.16,18.71-39.83,37.46-40s34,12.8,35.06,37.31C841.52,786.66,831,792.18,826.49,805.89Z" style="fill: none"/>
        <path d="M574.52,757.82c-18.28-.78-32.61-4.07-42.08-9.66-15.75-9.29-31.25-33.07-18.75-57.22,13.07-25.24,38.2-28.1,62.38-15.11,25.78,13.85,32.38,35.18,42.56,44.82,10.81,10.24,24.25,12,38,.26,13.52-11.57,26.43-16.75,42.15-15.29s33.37,14.47,36.74,32.21c3.6,19-2.11,34-19.23,42.33s-23.35,5.06-33.14,15.06c-14.67,15-1.07,49.67-6.94,63.44s-22.36,21-41.06,17.4S599.36,854,596.21,837.7c-3-15.49-1.34-33.28.12-50.19S586.1,758.32,574.52,757.82Z" style="fill: none"/>
        <path d="M901.58,754.49c-13.49,4-26,12.76-27.22,30.57s5.06,27.85,12.88,36.73,22,13.25,33.65,7.52c14.69-7.24,21.16-24,22.34-37.64s13.91-16.24,20.79-25.12c7.13-9.2,9.85-26.45-3.33-36.71-14-10.92-28.71-1.69-34.43,7S914.47,750.65,901.58,754.49Z" style="fill: none"/>
      </g>
      <path d="M748.81,406.28c-151.4,0-274.13,122.73-274.13,274.13S597.41,954.54,748.81,954.54s274.13-122.73,274.13-274.13S900.21,406.28,748.81,406.28ZM572.91,551.71c20.18,6.39,38.45,7.53,52.21.33,23.5-12.28,14.54-39.2,18.07-53.79,4.8-19.88,27.89-32.32,46.27-23.49,19.76,9.5,20.8,9.81,43.3,8S762.13,457,781.42,447.4s50-5,62.89,20.66,1.46,53.37-21,64.38S752.49,520.85,724,550.69s-14.23,72.07-34.89,95.94S636.81,665.45,617.53,659s-65.61-30.66-82.28-52.45C517.88,583.9,534.71,539.61,572.91,551.71ZM758.66,680.41a9.85,9.85,0,1,1-9.85-9.85A9.85,9.85,0,0,1,758.66,680.41Zm-42.38,99.75c-17.12,8.33-23.35,5.06-33.14,15.06-14.67,15-1.07,49.67-6.94,63.44s-22.36,21-41.06,17.4S599.36,854,596.21,837.7c-3-15.49-1.34-33.28.12-50.19s-10.24-29.19-21.81-29.69c-18.28-.78-32.61-4.07-42.08-9.66-15.75-9.29-31.25-33.07-18.75-57.22,13.07-25.24,38.2-28.1,62.38-15.11,25.78,13.85,32.38,35.18,42.56,44.82,10.81,10.24,24.25,12,38,.26,13.52-11.57,26.43-16.75,42.15-15.29s33.37,14.47,36.74,32.21C739.11,756.8,733.4,771.83,716.28,780.16Zm114.35,93.44c-4.8,23.89-19.1,33.57-31.14,37.88-10.93,3.91-40.06,10.61-56-7.93-14.14-16.49-10.49-34.66.17-47,8.68-10.06,20.19-14.29,31.59-17.86,11.89-3.72,15-17.33,8.9-28.08C777.58,799,768.32,789.53,768.1,769c-.24-22.16,18.71-39.83,37.46-40s34,12.8,35.07,37.31c.9,20.37-9.65,25.89-14.13,39.6C817.58,833.18,835.43,849.72,830.63,873.61ZM861.95,680c-6.57-17.34-4.57-31.6-22.66-38.63-15.83-6.15-26.26,6.53-40.89,5.29-13.19-1.11-31-8.58-32.34-32.67-1.2-21.52,13.47-34.83,28-37.86,12.88-2.68,28.19.28,40.55,8.19,18.55,11.88,38.18,15,49.77-3.18,11.74-18.43,2.52-30.17,9.59-45.77,6-13.2,23-23.88,39.67-15.87s24.21,29.19,16.21,45.88c-8.53,17.79-16.55,24.31-15.44,38.49.75,9.56,1.69,42.12,2.38,57,.87,18.8-7.12,40.86-28.64,45.48C883.89,711.58,869.89,701,861.95,680Zm81.28,111.64c-1.19,13.66-7.66,30.4-22.34,37.64-11.63,5.73-25.83,1.37-33.65-7.52s-14.09-18.93-12.88-36.73,13.73-26.56,27.22-30.57c12.89-3.84,19-9,24.68-17.67s20.42-17.89,34.43-7c13.17,10.27,10.46,27.51,3.33,36.71C957.14,775.43,944.41,778,943.23,791.67Z"/>
    </g>
    <g id="geometric">
      <g>
        <path d="M1603,717.54,1435.72,866.7a1,1,0,0,1-1.67-.75V805.84a1,1,0,0,1,.33-.75l167.28-149.16a1,1,0,0,1,1.67.75v60.11A1,1,0,0,1,1603,717.54Z" style="fill: none"/>
        <circle cx="1559.16" cy="843.73" r="38.45" style="fill: none"/>
        <rect x="1277.25" y="868.19" width="120.95" height="12.26" rx="1" ry="1" style="fill: none"/>
        <circle cx="1344.55" cy="811.77" r="13.67" style="fill: none"/>
        <rect x="1208.91" y="771.12" width="48.52" height="48.52" rx="1" ry="1" style="fill: none"/>
        <rect x="1215.79" y="485.23" width="387.55" height="50.62" rx="1" ry="1" style="fill: none"/>
        <path d="M1485,572.41h-53.22a1,1,0,0,0-1,1v12.1a1,1,0,0,0,.41.8A69.4,69.4,0,0,1,1460,642.8a70.6,70.6,0,1,1-141.2.22,69.32,69.32,0,0,1,28.61-56.7,1,1,0,0,0,.41-.8V573.41a1,1,0,0,0-1-1H1294a1,1,0,0,0-.82.42,119.24,119.24,0,1,0,192.65,0A1,1,0,0,0,1485,572.41Z" style="fill: none"/>
      </g>
      <path d="M1186.22,456V904h448V456Zm72,363a1,1,0,0,1-1,1h-47a1,1,0,0,1-1-1V772a1,1,0,0,1,1-1h47a1,1,0,0,1,1,1Zm133.59-105.41A70.3,70.3,0,0,0,1460,642.8a69.22,69.22,0,0,0-28.56-56.49c-.26-.19-.21-.48-.21-.8v-12.1c0-.55,0-1.41.59-1.41H1485c.32,0,.63.36.82.62a119.23,119.23,0,1,1-192.65,0c.19-.26.49-.61.82-.61h52.8a1.84,1.84,0,0,1,1.41,1.41v12.11c0,.32-.36.61-.62.8a69.41,69.41,0,0,0-28.72,56.7A70.48,70.48,0,0,0,1391.81,713.59Zm-33.59,98.19a13.67,13.67,0,1,1-13.67-13.67A13.67,13.67,0,0,1,1358.22,811.77Zm40,67.23a1,1,0,0,1-1,1h-119a1,1,0,0,1-1-1V869a1,1,0,0,1,1-1h119a1,1,0,0,1,1,1Zm160.94,3.17a38.45,38.45,0,1,1,38.45-38.45A38.45,38.45,0,0,1,1559.16,882.17Zm45.06-165.38c0,.29-.56.56-.78.75L1436,866.7a1.1,1.1,0,0,1-1.8-.75V805.84a.93.93,0,0,1,.25-.75l167.68-149.16c.64-.57,2.07-.12,2.07.75Zm0-181.79a1,1,0,0,1-1,1h-386a1,1,0,0,1-1-1V486a1,1,0,0,1,1-1h386a1,1,0,0,1,1,1Z"/>
    </g>
    <g id="branches">
      <g>
        <path d="M2241.65,565.79a8.7,8.7,0,0,0-2.85,11.4,218.4,218.4,0,0,1,25.81,103.32q0,2.05,0,4.09a8.67,8.67,0,0,0,8.06,8.83l.23,0a8.66,8.66,0,0,0,9.26-8.45q0-2.24,0-4.49a235.86,235.86,0,0,0-27.94-111.68,8.67,8.67,0,0,0-12.4-3.15Z" style="fill: none"/>
        <path d="M2245.2,770.84a220.09,220.09,0,0,1-58,77,8.64,8.64,0,0,0-.89,12.25l.15.17a8.68,8.68,0,0,0,12.18.89A237.7,237.7,0,0,0,2261.25,778a8.67,8.67,0,0,0-5.84-12l-.24-.06A8.68,8.68,0,0,0,2245.2,770.84Z" style="fill: none"/>
        <path d="M2144.89,886h0a8.76,8.76,0,0,0-11.54-4.57,220.19,220.19,0,0,1-149.42,9.74l77.68-78.68a8,8,0,0,0-.07-11.31h0a8,8,0,0,0-11.31.07L1967,885.54a219.87,219.87,0,0,1-88.6-62.5,8.77,8.77,0,0,0-14,.91h0a8.76,8.76,0,0,0,.62,10.53,237.17,237.17,0,0,0,275.24,63.1A8.79,8.79,0,0,0,2144.89,886Z" style="fill: none"/>
        <path d="M2197.53,499A237.14,237.14,0,0,0,1940.17,468a8.68,8.68,0,0,0-3.75,12l.11.2a8.79,8.79,0,0,0,11.47,3.51c2.63-1.3,5.3-2.53,8-3.73l-57,91.09a7.89,7.89,0,0,0,2.44,10.83h0a7.89,7.89,0,0,0,10.93-2.48l56.9-91.24V575a8,8,0,0,0,8,8h0a8,8,0,0,0,8-8V469.29A221.76,221.76,0,0,1,2045,461.1a218.85,218.85,0,0,1,141.13,51.3,8.72,8.72,0,0,0,12.42-1.31l.17-.18A8.64,8.64,0,0,0,2197.53,499Z" style="fill: none"/>
        <path d="M1903,502.95l-.13-.18a8.67,8.67,0,0,0-12.69-1.47,237,237,0,0,0-53.63,291.6,8.67,8.67,0,0,0,12.5,3.05l.19-.13a8.69,8.69,0,0,0,2.73-11.35,218.5,218.5,0,0,1-11.73-25.62l46.55,1.08a8,8,0,0,0,8.18-7.81h0a8,8,0,0,0-7.81-8.18l-52.39-1.21a219.57,219.57,0,0,1,66.83-228.08A8.7,8.7,0,0,0,1903,502.95Z" style="fill: none"/>
        <path d="M2001.56,564a8,8,0,0,0,9.89,5,117.19,117.19,0,0,1,102.79,17.57,8,8,0,0,0,11.23-1.77h0a7.94,7.94,0,0,0-1.74-11,133.1,133.1,0,0,0-117-20,7.94,7.94,0,0,0-5.15,10.22Z" style="fill: none"/>
        <path d="M2219.38,516.49h0a8,8,0,0,0-10.34,4.64L2167.8,629.5l-32.65-109.27a7.57,7.57,0,0,0-9.45-5.08h0a7.57,7.57,0,0,0-5.06,9.42L2157,646.21a117.75,117.75,0,0,1,2.92,58.16,8,8,0,0,0,5.17,9.15h0a8,8,0,0,0,10.44-6,133.45,133.45,0,0,0,.16-52.13L2224,526.81A8,8,0,0,0,2219.38,516.49Z" style="fill: none"/>
        <path d="M1946.93,744.5c13.35,19.41,30.61,33.92,49.11,42.66a8,8,0,0,1,3.57,11.17h0a8,8,0,0,1-10.39,3.37,136,136,0,0,1-39-27.23V822a8,8,0,0,1-8,8h0a8,8,0,0,1-8-8V754.9a133.31,133.31,0,0,1-.48-146.52,8,8,0,0,1,11.23-2.13h0a8,8,0,0,1,2.07,11,117.07,117.07,0,0,0-.11,127.27Z" style="fill: none"/>
        <path d="M1892.89,585.92h0a9.05,9.05,0,0,0-12.32,3.49,188.85,188.85,0,0,0-17,141.74,9.05,9.05,0,0,0,11.45,6.21h0a9,9,0,0,0,6-11.05,170.73,170.73,0,0,1,15.32-128.06A9.06,9.06,0,0,0,1892.89,585.92Z" style="fill: none"/>
        <path d="M2094.87,508.93a9.05,9.05,0,0,0-6.6-11.37,189.71,189.71,0,0,0-83.06-.68,9,9,0,0,0-7,10.16v.07a9,9,0,0,0,10.9,7.44,171.51,171.51,0,0,1,75,.63,9,9,0,0,0,10.75-6.24Z" style="fill: none"/>
        <path d="M2213.63,765.51l63-32.2a8,8,0,0,0,3.48-10.76h0a8,8,0,0,0-10.76-3.48l-46,23.53a189.55,189.55,0,0,0,6.65-98.7,9.08,9.08,0,0,0-11.82-6.86h0a9,9,0,0,0-6,10.31A170.5,170.5,0,0,1,2104,840.86l60.76-101.09a8,8,0,0,0-2.74-11h0a8,8,0,0,0-11,2.74l-69.66,115.89a169.91,169.91,0,0,1-20.81,3.17,9.06,9.06,0,0,0-8.24,9.85h0a9.05,9.05,0,0,0,9.81,8.18,187.68,187.68,0,0,0,38-7.38l68.47,17.83a8,8,0,0,0,9.76-5.73h0a8,8,0,0,0-5.73-9.76l-46.94-12.23A189.18,189.18,0,0,0,2213.63,765.51Z" style="fill: none"/>
      </g>
      <path d="M2045.22,406.87c-151.4,0-274.13,122.73-274.13,274.13s122.73,274.13,274.13,274.13S2319.35,832.4,2319.35,681,2196.62,406.87,2045.22,406.87Zm174.16,109.62h0a8,8,0,0,1,4.65,10.31l-48.37,128.58a133.45,133.45,0,0,1-.16,52.13,8,8,0,1,1-15.6-3.15,117.75,117.75,0,0,0-2.92-58.16l-36.34-121.65a7.57,7.57,0,0,1,14.52-4.34L2167.8,629.5,2209,521.13A8,8,0,0,1,2219.38,516.49ZM2045.22,564a116.94,116.94,0,0,0-33.77,5,8,8,0,0,1-9.89-5h0a7.94,7.94,0,0,1,5.15-10.22,133.1,133.1,0,0,1,117,20,8,8,0,1,1-9.49,12.76A116.47,116.47,0,0,0,2045.22,564Zm9.85,117a9.85,9.85,0,1,1-9.85-9.85A9.85,9.85,0,0,1,2055.07,681Zm-143,0a132.23,132.23,0,0,1,21.69-72.61,8,8,0,1,1,13.3,8.84,117.07,117.07,0,0,0-.11,127.27c13.35,19.41,30.61,33.92,49.11,42.66a8,8,0,0,1-6.82,14.54,136,136,0,0,1-39-27.23V822a8,8,0,1,1-16,0V754.9A133.4,133.4,0,0,1,1912,681Zm86.17-173.89V507a9,9,0,0,1,7-10.16,189.71,189.71,0,0,1,83.06.68,9.05,9.05,0,0,1,6.6,11.37h0a9,9,0,0,1-10.75,6.24,171.51,171.51,0,0,0-75-.63A9,9,0,0,1,1998.21,507.11Zm-58-39.07A237.14,237.14,0,0,1,2197.53,499a8.64,8.64,0,0,1,1.16,11.94l-.17.18a8.72,8.72,0,0,1-12.42,1.31A218.85,218.85,0,0,0,2045,461.1a221.76,221.76,0,0,0-59.75,8.19V575a8,8,0,1,1-16,0V488.25l-56.9,91.24a7.89,7.89,0,1,1-13.38-8.36L1956,480c-2.69,1.2-5.36,2.43-8,3.73a8.79,8.79,0,0,1-11.47-3.51l-.11-.2A8.68,8.68,0,0,1,1940.17,468Zm-90.91,327.77-.19.13a8.67,8.67,0,0,1-12.5-3.05,237,237,0,0,1,53.63-291.6,8.67,8.67,0,0,1,12.69,1.47l.13.18a8.7,8.7,0,0,1-1.4,11.69,219.57,219.57,0,0,0-66.83,228.08l52.39,1.21a8,8,0,0,1-.37,16l-46.55-1.08A218.51,218.51,0,0,0,1852,784.47,8.69,8.69,0,0,1,1849.26,795.82Zm31.77-69.5a9,9,0,1,1-17.44,4.84,188.85,188.85,0,0,1,17-141.74,9.05,9.05,0,0,1,12.32-3.49h0a9.06,9.06,0,0,1,3.46,12.33A170.73,170.73,0,0,0,1881,726.32Zm259.32,171.26a237.17,237.17,0,0,1-275.24-63.1A8.78,8.78,0,0,1,1878.44,823a219.87,219.87,0,0,0,88.6,62.5l83.19-84.25a8,8,0,0,1,11.39,11.24l-77.68,78.68a220.19,220.19,0,0,0,149.42-9.74,8.76,8.76,0,0,1,11.54,4.57h0A8.79,8.79,0,0,1,2140.35,897.59ZM2261.25,778a237.7,237.7,0,0,1-62.65,83.14,8.68,8.68,0,0,1-12.18-.89l-.15-.17a8.64,8.64,0,0,1,.89-12.25,220.09,220.09,0,0,0,58-77,8.68,8.68,0,0,1,10-4.89l.24.06A8.67,8.67,0,0,1,2261.25,778Zm15.36-44.68-63,32.2a189.18,189.18,0,0,1-87.93,85.86l46.94,12.23a8,8,0,0,1,5.73,9.76h0a8,8,0,0,1-9.76,5.73l-68.47-17.83a187.68,187.68,0,0,1-38,7.38,9.05,9.05,0,1,1-1.56-18,169.91,169.91,0,0,0,20.81-3.17l69.66-115.89a8,8,0,0,1,13.71,8.24L2104,840.86a170.5,170.5,0,0,0,108.13-193.51,9.05,9.05,0,1,1,17.77-3.45,189.55,189.55,0,0,1-6.65,98.7l46-23.53a8,8,0,1,1,7.28,14.25Zm-3.75-39.86-.23,0a8.67,8.67,0,0,1-8.06-8.83q0-2,0-4.09a218.4,218.4,0,0,0-25.81-103.32,8.7,8.7,0,0,1,2.85-11.4l.19-.12a8.67,8.67,0,0,1,12.4,3.15,235.86,235.86,0,0,1,27.94,111.68q0,2.25,0,4.49A8.66,8.66,0,0,1,2272.87,693.44Z"/>
    </g>
    <g id="filets">
      <g>
        <path d="M3450.22,1230a10,10,0,0,1-10-10V142a10,10,0,0,1,20,0V1220A10,10,0,0,1,3450.22,1230Z" style="fill: none"/>
        <path d="M2652.22,1230a10,10,0,0,1-10-10V142a10,10,0,0,1,20,0V1220A10,10,0,0,1,2652.22,1230Z" style="fill: none"/>
        <path d="M3413.89,1300h-698a10,10,0,0,1,0-20h698a10,10,0,0,1,0,20Z" style="fill: none"/>
        <path d="M3413.89,82h-698a10,10,0,0,1,0-20h698a10,10,0,0,1,0,20Z" style="fill: none"/>
        <path d="M3413.89,691h-698a10,10,0,0,1,0-20h698a10,10,0,0,1,0,20Z" style="fill: none"/>
        <path d="M3069.22,640a10,10,0,0,1-10-10V145a10,10,0,0,1,20,0V630A10,10,0,0,1,3069.22,640Z" style="fill: none"/>
        <path d="M3069.22,1234a10,10,0,0,1-10-10V739a10,10,0,0,1,20,0v485A10,10,0,0,1,3069.22,1234Z" style="fill: none"/>
        <path d="M3387.6,1234a10,10,0,0,1-8.75-5.15l-269.2-485a10,10,0,1,1,17.49-9.71l269.2,485a10,10,0,0,1-8.73,14.86Z" style="fill: none"/>
        <path d="M2751.22,1234a10,10,0,0,1-8.73-14.86l269.2-485a10,10,0,1,1,17.49,9.71l-269.2,485A10,10,0,0,1,2751.22,1234Z" style="fill: none"/>
        <path d="M3118.38,639.55a10,10,0,0,1-8.73-14.85l269.2-485a10,10,0,1,1,17.49,9.71l-269.2,485A10,10,0,0,1,3118.38,639.55Z" style="fill: none"/>
        <path d="M3020.43,639.55a10,10,0,0,1-8.75-5.15l-269.2-485a10,10,0,1,1,17.49-9.71l269.2,485a10,10,0,0,1-8.73,14.85Z" style="fill: none"/>
      </g>
      <path d="M2584.22,0V1362h934V0Zm78,1220a10,10,0,0,1-20,0V142a10,10,0,0,1,20,0Zm752.17,80h-698a10,10,0,0,1,0-20h698a10,10,0,1,1,0,20ZM2743,1219.15l269.2-485a10,10,0,1,1,17.49,9.71l-269.2,485a10,10,0,1,1-17.49-9.71Zm316.24,4.85V739a10,10,0,0,1,20,0v485a10,10,0,0,1-20,0ZM3114,730.26a10,10,0,0,1,13.6,3.89l269.2,485a10,10,0,1,1-17.49,9.71l-269.2-485A10,10,0,0,1,3114,730.26ZM3414.39,691h-698a10,10,0,0,1,0-20h698a10,10,0,0,1,0,20ZM2746.87,135.8a10,10,0,0,1,13.6,3.89l269.2,485a10,10,0,1,1-17.49,9.71L2743,149.4A10,10,0,0,1,2746.87,135.8ZM3059.22,630V145a10,10,0,0,1,20,0V630a10,10,0,0,1-20,0Zm50.92-5.31,269.2-485a10,10,0,1,1,17.49,9.71l-269.2,485a10,10,0,1,1-17.49-9.71ZM3414.39,82h-698a10,10,0,0,1,0-20h698a10,10,0,0,1,0,20Zm45.83,1138a10,10,0,0,1-20,0V142a10,10,0,0,1,20,0Z"/>
    </g>
  </g>
</svg>
