<?xml version="1.0" encoding="utf-8"?>
<!-- Generator: Adobe Illustrator 20.1.0, SVG Export Plug-In . SVG Version: 6.00 Build 0)  -->
<svg version="1.1" id="Calque_1" xmlns="http://www.w3.org/2000/svg" xmlns:xlink="http://www.w3.org/1999/xlink" x="0px" y="0px"
 style="enable-background:new 0 0 1080 1620;" xml:space="preserve">
<style type="text/css">
	.st0{fill:none;}
</style>
<path class="st0" d="M-2.4,0v1617.4H1080V0H-2.4z M993.4,716.1c23.1,134.3,38.8,319.4,36.9,338.5s-4.6,105.3-52.6,108
	c-48,2.7-54.5-92.6-54.5-92.6S910.3,835,890,790.5c-20.3-44.5-40.6-108-179.1-76.2c-27.7,5.4-57.2,13.6-103.4,36.3
	c-0.9,21.8-21.2,39.9-21.2,39.9s-17.5,31.8-18.5,48.1c-0.9,16.3-16.6,130.7-16.6,130.7s18.5,44.9-3.7,194.9l29.1-80.3l29.8-36.8
	c0,0,2.8-23.8,7.6-27.2c4.8-3.4-1.4-36.8,22.2-59.2c22.2-29.9,65.8-66.7,125.3-43.6c59.5,23.1,74.1,79.6,74.1,79.6s17.3,49-8.3,98
	c6.9,25.2-15.2,70.8-31.8,88.5c-16.6,17.7-36,32-47.8,49c-5.5,7.9-99.3,170.7-170.3,234.1c-19.4,42.9-65.8,127.3-142.6,121.1
	c-48.8-9.5-83.2-25.5-106.4-67.1c-23.9-42.9-34.9-100.8-32.7-156.8c-30.5-38.8-31.2-90.5-31.2-90.5s-16.6-0.7-29.1-14.3
	c-6.9,13.6-13.8,21.1-34.6,23.1c3.5,27.2,3.5,81.7-17.3,119.8c15.9,43.6,4.8,159.3-45,170.1c-30.8,4.4-48.5-51.4-48.5-51.4
	s-18.3-93.7-20.8-109.9c-2.8-18-5.5-60.6-5.5-60.6s-7.6-12.6-9.7-20.8s-13.5-64-13.5-97.7c0-33.7-9.3-145.6,6.6-232.1
	C33.3,959.3,32.6,896,32.6,896s3.5-78.9,10.4-110.9s22.2-100,22.2-100s1.4-55.1,11.1-86.4c3.5-29.3,12.5-74.2,29.8-98
	c17.3-23.8,27-46.3,29.8-53.8c2.8-7.5,7.6-32,23.5-46.3c9.7-19.7,55.4-119.8,96.2-165.4s74.8-66,74.8-66s75.5-31.3,88.6-47
	c46.4-51.7,75.5-93.2,92.1-92.6c14.9,3.5,54.7,33.3,29.7,130c-4.6,13.8-14.5,25.9-24.8,32c-24.2,27.2-47.8,54.4-47.8,54.4
	s58.1-17.7,76.1-19.7s126-16.3,164.1-61.9c26.3-35.7,39.5-33.3,52.3-28.6c12.8,4.8,30.5,23.5,39.1,65.3
	c7.6,36.6,5.1,93.9-16.8,140.4c0,0,66.7-22.7,93-50.2s86.5-111.6,111.8-105.1c28.4,5.1,71,67.4,37.7,191.2
	C1019.7,406.3,927,491.8,900,521C900,521,970.3,581.8,993.4,716.1z"/>
</svg>
