<?xml version="1.0" encoding="utf-8"?>
<!-- Generator: Adobe Illustrator 20.1.0, SVG Export Plug-In . SVG Version: 6.00 Build 0)  -->
<svg version="1.1" id="Calque_1" xmlns="http://www.w3.org/2000/svg" xmlns:xlink="http://www.w3.org/1999/xlink" x="0px" y="0px"
style="enable-background:new 0 0 1080 1620;" xml:space="preserve">
<style type="text/css">
	.st0{fill:none;}
</style>
<path class="st0" d="M472.2,249.1c0,0,57.7-17.6,75.6-19.7c17.9-2,125.1-16.3,162.9-61.7c26.1-35.6,39.2-33.2,51.9-28.5
	s30.2,23.4,38.8,65.1c7.5,36.5,5.1,93.5-16.7,139.9c0,0,66.2-22.6,92.3-50c26.1-27.5,85.9-111.2,111-104.7
	c28.2,5.1,70.4,67.1,37.5,190.5c-5.5,28.8-97.6,113.9-124.4,143c0,0,69.9,60.6,92.8,194.3s38.5,318.1,36.6,337.1
	c-1.8,19-4.6,104.8-52.2,107.5c-47.6,2.7-54.1-92.2-54.1-92.2s-12.8-234.1-33-278.3c-20.2-44.3-40.3-107.5-177.7-75.9
	c-27.5,5.4-56.8,13.6-102.6,36.1c-0.9,21.7-21.1,39.8-21.1,39.8s-17.4,31.6-18.3,47.9c-0.9,16.3-16.5,130.1-16.5,130.1
	s18.3,44.7-3.7,194.1l28.9-80l29.5-36.6c0,0,2.7-23.7,7.6-27.1c4.8-3.4-1.4-36.6,22-59c22-29.8,65.3-66.4,124.4-43.4
	c59.1,23,73.5,79.3,73.5,79.3s17.2,48.8-8.2,97.6c6.9,25.1-15.1,70.5-31.6,88.1c-16.5,17.6-35.7,31.9-47.4,48.8
	c-11.7,16.9-123.7,192.5-169,233.2c-19.2,42.7-65.3,126.7-141.6,120.6c-48.4-9.5-82.6-25.4-105.6-66.8
	c-23.8-42.7-34.6-100.4-32.5-156.2c-30.2-38.6-30.9-90.1-30.9-90.1s-16.5-0.7-28.9-14.2c-6.9,13.6-13.7,21-34.4,23
	c3.4,27.1,3.4,81.3-17.2,119.3c15.8,43.4,4.8,158.6-44.7,169.5c-30.6,4.4-48.1-51.2-48.1-51.2s-18.1-93.3-20.6-109.5
	c-2.7-18-5.5-60.3-5.5-60.3s-7.6-12.5-9.6-20.7c-2.1-8.1-13.4-63.7-13.4-97.3s-9.3-145,6.5-231.1c-13.7-40-14.4-103-14.4-103
	s3.4-78.6,10.3-110.5c6.9-31.9,22-99.6,22-99.6s1.4-54.9,11-86.1c3.4-29.1,12.4-73.9,29.5-97.6c17.2-23.7,26.8-46.1,29.5-53.5
	c2.7-7.5,7.6-31.9,23.4-46.1c9.6-19.7,55-119.3,95.5-164.7s74.2-65.7,74.2-65.7s74.9-31.2,88-46.8c46-51.5,74.9-92.9,91.4-92.2
	c14.8,3.5,54.3,33.2,29.5,129.5c-4.5,13.7-14.4,25.8-24.7,31.9C495.6,222,472.2,249.1,472.2,249.1"/>
</svg>
