<?xml version="1.0" encoding="utf-8"?>
<!-- Generator: Adobe Illustrator 19.0.0, SVG Export Plug-In . SVG Version: 6.00 Build 0)  -->
<svg version="1.1" id="Calque_1" xmlns="http://www.w3.org/2000/svg" xmlns:xlink="http://www.w3.org/1999/xlink" x="0px" y="0px"
	 viewBox="0 0 1080 1620" style="enable-background:new 0 0 1080 1620;" xml:space="preserve">
<style type="text/css">
	.st0{fill:none;stroke:#1E1E1C;stroke-width:0.5;stroke-miterlimit:10;}
</style>
<path class="st0" d="M648,891.2c0,0-1.3-4.7-11.8,2.3s-12.3,7.3-12.2,10.3c0.1,1.6,5.2,4,25.8-14.2c-7.2,7.5-9.7,9.9-9.2,11.6
	c0.5,1.5,2.3,1.2,10.5-3.2c9.4-5,17.2-12,16.5-13.3c-0.7-1.3-8.4,5.2-8.4,5.2s-12.2,10.3-10.6,12.3c2,2.4,22-10.3,25.5-15
	c3.5-4.7-5.2,1.3-5.2,1.3s-11.2,9.2-10.3,12.7c0.8,3.5,14.3-5.8,14.3-5.8"/>
<path class="st0" d="M707.1,886.4c0,0-6.1-0.1-12.1,2.7c-4.7,2.1-10,7.1-9,8.1c0.3,1.6,9.8-2.2,16.8-9.5c-3.9,4.1-14,13.1-14,13.1
	s-22.4,15.2-24.6,13.2s12.8-17.7,31.9-17.5c11.5,0.1,18.1-4.8,19.2-7.6s-4.7-1.8-4.7-1.8s-2.2,0.4-1.7,1.6s4-0.1,4.8,0.4
	s-3.4,4.8-5.8,6.4s1.6,3.4,7.2,0.5s8.9-5.1,7.3-6.8s-6.3,3.3-6.4,5.6c-0.1,2.3,1.9,3.4,6.9,1.4c2.6-1,14.1-11.3,18-7"/>
<path class="st0" d="M725.6,895.1c0,0-2.1,1.2-0.9,2.3c2.4,1.3,13.9-3.3,17.1-9.1"/>
<path class="st0" d="M736.5,894.6"/>
<path class="st0" d="M749.1,895.8c-2,2.2-5.1,2-5.4,0s10.4-13.4,10.4-13.4s-8.3,8.9-14.2,13.1c-6.8,4.8-3.1-2.2-3.1-2.2"/>
<line class="st0" x1="728.2" y1="885" x2="766.5" y2="885"/>
</svg>
