<svg xmlns="http://www.w3.org/2000/svg" viewBox="0 0 162.46 194.09"><defs><style>.cls-1{fill:none;stroke:#1d1d1b;stroke-miterlimit:10;stroke-width:16px;}</style></defs><title>bleu3</title><path class="cls-1" d="M8.46,0s0,16.94,3.87,24.45S8.22,41.63,9.43,50.59s4.64,12.36,2.42,20.33c-2.37,8.52-1.45,17.91-.48,24s2.36,10-1.45,17.67a21.28,21.28,0,0,0,.48,18.64c3.08,5.45,0,16.75-.48,19.61C8.46,159,19.17,176.28,36.78,159,55.49,140.7,85.26,92.79,94.94,92.52c6.12-.17,13.48,2.12,13,14.95s1,61.33,1.45,64.87c1.18,9,30.23,28.24,43.81-5.08,0,0,1.54-7.64,1.2-31.41"/></svg>
