<svg xmlns="http://www.w3.org/2000/svg" viewBox="0 0 312.45 178.59"><defs><style>.cls-1{fill:none;stroke:#1d1d1b;stroke-miterlimit:10;stroke-width:16px;}</style></defs><title>bleu5</title><path class="cls-1" d="M0,8H63.6c10,0,16,1.61,20.92,10.88C92,33.1,82.71,40.33,65.43,68.41,52,90.17,68.59,131.24,100.58,130.68c29.12-.51,46-22.27,58.57-66.62S177.35,9.47,195,10.51c14.23.84,21.76,12.55,18.41,20.92s-6,19.76-.16,31.47-6.35,17.15-.84,35.82c5.78,19.58-6.34,19.39,1,39.82,5.34,14.88-9,23.83,11.23,31,13.84,4.89,25.59-7.53,33.12-20.08s36.82-77,44.35-92-4.18-27.61-16.74-27.61H246"/></svg>
