<svg xmlns="http://www.w3.org/2000/svg" viewBox="0 0 303.49 215.8"><defs><style>.cls-1{fill:none;stroke:#1d1d1b;stroke-miterlimit:10;stroke-width:16px;}</style></defs><title>rouge5</title><path class="cls-1" d="M70.85,209.36s5.55-4.1,16-17.82c8.17-10.77,16.34-3,23.39-11.14,7.89-9.14,9.65-20.42,17.45-22.28,9.92-2.36,12.62-13,12.62-17.08s-6.31-20.79-21.16-20.79S50.06,122.47,46,121.73s-35.65,0-37.13-35.65S7,30.39,15.15,20.36,53,.31,67.88,16.65C87.19,37.9,98.33,84.6,144.37,86.46S204.51,34.13,207.86,27,219,10,231.25,10.34s50.5-2.23,57.92,3.34c3.06,2.29,10.4,10,3.34,19.31C283.31,45.11,219,93.51,219,93.51"/></svg>
