<?xml version="1.0" encoding="utf-8"?>
<!-- Generator: Adobe Illustrator 19.1.0, SVG Export Plug-In . SVG Version: 6.00 Build 0)  -->
<svg version="1.1" id="musica_1_" xmlns="http://www.w3.org/2000/svg" xmlns:xlink="http://www.w3.org/1999/xlink" x="0px" y="0px"
	 viewBox="0 0 595.28 841.89" style="enable-background:new 0 0 595.28 841.89;" xml:space="preserve">
<g id="musica">
	<path d="M165.735,155.508h6.93v3.261c2.33-2.911,6.466-4.135,9.203-4.135c2.737,0,6.173,1.047,8.095,4.485
		c1.165-1.631,4.193-4.485,9.319-4.485c2.911,0,5.707,0.814,7.688,2.97c2.33,2.563,2.271,5.65,2.271,8.678v18.345h-6.93v-16.075
		c0-2.737,0.407-7.337-4.892-7.337c-2.214,0-4.019,1.222-4.951,2.737c-1.339,2.155-1.513,4.485-1.513,6.989v13.686h-6.932V168.38
		c0-2.097,0-2.854-0.231-3.727c-0.525-1.922-2.04-3.436-4.485-3.436c-2.097,0-4.136,1.222-5.358,3.377
		c-1.224,2.271-1.282,5.01-1.282,7.862v12.173h-6.93V155.508z"/>
	<path d="M243.07,155.508v29.121h-6.989v-2.97c-1.224,1.165-4.078,3.669-9.436,3.669c-4.775,0-7.048-2.038-8.095-3.377
		c-1.979-2.506-1.979-5.243-1.979-9.61v-16.832h7.046v16.715c0,1.165,0,2.155,0.233,2.913c0.758,2.563,2.854,3.669,5.417,3.669
		c2.911,0,4.718-1.572,5.65-3.087c1.047-1.921,1.106-3.784,1.165-7.862v-12.347H243.07z"/>
	<path d="M253.372,176.009c1.748,2.155,4.369,3.727,8.387,3.727c4.019,0,5.767-1.979,5.767-3.436c0-1.864-2.099-2.33-3.03-2.504
		c-0.989-0.233-5.765-1.108-6.813-1.398c-6.93-1.631-8.212-5.65-8.212-8.271c0-4.951,4.485-9.493,12.465-9.493
		c4.424,0,7.629,1.398,9.608,2.796c1.456,0.932,2.388,1.922,2.972,2.621l-4.951,4.601c-0.816-1.572-2.796-4.426-7.921-4.426
		c-3.32,0-4.834,1.456-4.834,2.97c0,2.097,2.154,2.68,5.881,3.32c6.057,1.106,7.747,1.398,9.61,2.854
		c1.805,1.398,2.97,3.727,2.97,6.173c0,4.544-4.076,9.959-13.105,9.959c-5.182,0-10.307-1.631-13.978-5.182L253.372,176.009z"/>
	<path d="M287.961,143.919v7.048h-6.93v-7.048H287.961z M287.961,155.508v29.121h-6.93v-29.121H287.961z"/>
	<path d="M314.225,165.817c-0.525-1.922-2.563-4.951-6.582-4.951c-4.019,0-7.222,3.203-7.222,9.027c0,5.243,2.737,9.086,7.339,9.086
		c4.424,0,6.114-3.377,6.989-5.707l5.998,3.144c-2.271,6.29-8.038,9.086-13.105,9.086c-8.095,0-14.444-6.231-14.444-15.432
		c0-8.911,6.406-15.434,14.677-15.434c7.339,0,11.067,4.892,12.58,8.269L314.225,165.817z"/>
	<path d="M324.993,164.069c0.116-1.455,0.233-2.678,1.165-4.368c2.796-5.067,9.726-5.067,11.59-5.067
		c2.796,0,6.173,0.349,8.737,1.864c3.436,2.097,3.493,4.834,3.493,7.979v15.433c0,2.214,0,2.972,1.282,4.718h-8.271
		c-0.057-0.699-0.174-1.864-0.174-2.271c-1.513,1.28-4.601,2.97-8.62,2.97c-6.582,0-10.54-4.076-10.54-9.086
		c0-1.456,0.349-2.796,0.932-3.96c2.095-4.193,6.58-5.125,9.375-5.65c6-1.222,6.466-1.339,9.027-2.154
		c0-1.456-0.116-4.426-4.949-4.426c-2.913,0-4.485,0.932-5.184,1.864c-0.758,0.932-0.699,1.746-0.699,2.563L324.993,164.069z
		 M342.988,170.126c-1.398,0.699-2.97,1.224-6.114,1.748c-2.504,0.349-5.824,0.932-5.824,4.019c0,2.271,1.922,3.436,4.718,3.436
		c3.551,0,6.057-1.631,6.813-3.379c0.407-0.873,0.407-1.746,0.407-2.619V170.126z"/>
	<path d="M436.091,155.508l-9.552,29.121h-7.514l-9.434-29.121h7.222l6.057,20.035l5.94-20.035H436.091z"/>
	<path d="M447.444,143.919v7.048h-6.93v-7.048H447.444z M447.444,155.508v29.121h-6.93v-29.121H447.444z"/>
	<path d="M478.542,155.508l-9.552,29.121h-7.514l-9.434-29.121h7.222l6.057,20.035l5.94-20.035H478.542z"/>
	<path d="M482.029,164.069c0.116-1.455,0.233-2.678,1.165-4.368c2.796-5.067,9.726-5.067,11.59-5.067
		c2.796,0,6.173,0.349,8.737,1.864c3.436,2.097,3.493,4.834,3.493,7.979v15.433c0,2.214,0,2.972,1.282,4.718h-8.271
		c-0.057-0.699-0.174-1.864-0.174-2.271c-1.513,1.28-4.601,2.97-8.62,2.97c-6.582,0-10.54-4.076-10.54-9.086
		c0-1.456,0.349-2.796,0.932-3.96c2.095-4.193,6.58-5.125,9.375-5.65c6-1.222,6.466-1.339,9.027-2.154
		c0-1.456-0.116-4.426-4.949-4.426c-2.913,0-4.485,0.932-5.184,1.864c-0.758,0.932-0.699,1.746-0.699,2.563L482.029,164.069z
		 M500.024,170.126c-1.398,0.699-2.97,1.224-6.114,1.748c-2.504,0.349-5.824,0.932-5.824,4.019c0,2.271,1.922,3.436,4.718,3.436
		c3.551,0,6.057-1.631,6.813-3.379c0.407-0.873,0.407-1.746,0.407-2.619V170.126z"/>
	<path style="fill:#E52420;" d="M44.469,707.07v9.178h-1.547v-0.624c-0.48,0.585-1.131,0.819-1.807,0.819
		c-1.548,0-2.887-1.157-2.887-3.302c0-1.938,1.092-3.589,2.951-3.589c0.637,0,1.248,0.183,1.742,0.729v-3.211H44.469z
		 M42.558,711.593c-0.233-0.351-0.624-0.598-1.144-0.598c-1.053,0-1.561,0.949-1.561,1.976c0,0.117,0.014,2.067,1.534,2.067
		c0.807,0,1.534-0.598,1.521-2.002C42.896,712.621,42.844,712.023,42.558,711.593z"/>
	<path style="fill:#E52420;" d="M49.175,716.443c-2.028,0-3.38-1.482-3.38-3.472c0-1.988,1.378-3.419,3.315-3.419
		c1.807,0,3.354,1.262,3.367,3.419C52.478,714.999,51.138,716.443,49.175,716.443z M49.097,710.956c-0.975,0-1.677,0.78-1.677,1.977
		c0,1.339,0.819,2.08,1.755,2.08c1.131,0,1.703-0.988,1.664-2.067C50.813,711.867,50.189,710.956,49.097,710.956z"/>
	<path style="fill:#E52420;" d="M53.738,709.747h1.572v0.767c0.078-0.116,0.234-0.324,0.508-0.507
		c0.39-0.286,0.987-0.455,1.495-0.455c0.74,0,1.378,0.338,1.703,0.78c0.402,0.546,0.402,1.248,0.402,2.093v3.822h-1.547v-3.314
		c0-0.481,0-0.807-0.052-0.988c-0.144-0.572-0.56-0.871-1.066-0.871s-0.975,0.299-1.196,0.728c-0.247,0.481-0.247,1.145-0.247,1.625
		v2.821h-1.572V709.747z"/>
	<path style="fill:#E52420;" d="M61.044,709.747h1.573v0.767c0.077-0.116,0.233-0.324,0.507-0.507
		c0.39-0.286,0.987-0.455,1.495-0.455c0.74,0,1.378,0.338,1.703,0.78c0.402,0.546,0.402,1.248,0.402,2.093v3.822h-1.547v-3.314
		c0-0.481,0-0.807-0.052-0.988c-0.144-0.572-0.56-0.871-1.066-0.871s-0.975,0.299-1.196,0.728c-0.246,0.481-0.246,1.145-0.246,1.625
		v2.821h-1.573V709.747z"/>
	<path style="fill:#E52420;" d="M74.485,714.791c-0.806,1.079-1.846,1.651-3.172,1.651c-1.703,0-3.341-1.079-3.341-3.472
		c0-2.184,1.403-3.419,3.236-3.419c1.717,0,2.432,1.027,2.562,1.223c0.533,0.754,0.65,1.885,0.663,2.535h-4.811
		c0.183,1.026,0.819,1.611,1.847,1.611c1.065,0,1.495-0.624,1.689-0.896L74.485,714.791z M72.718,712.165
		c-0.144-1.014-0.768-1.365-1.456-1.365c-0.832,0-1.404,0.481-1.586,1.365H72.718z"/>
	<path style="fill:#E52420;" d="M77.176,709.747v0.923c0.195-0.338,0.624-1.104,2.08-1.065v1.599
		c-0.338,0.013-0.923,0.026-1.404,0.39c-0.662,0.508-0.676,1.17-0.676,2.249v2.405h-1.508v-6.5H77.176z"/>
	<path style="fill:#E52420;" d="M80.881,714.324c0.39,0.481,0.975,0.832,1.872,0.832c0.896,0,1.287-0.442,1.287-0.767
		c0-0.416-0.469-0.521-0.677-0.56c-0.221-0.052-1.287-0.247-1.521-0.312c-1.547-0.364-1.833-1.262-1.833-1.847
		c0-1.104,1.001-2.119,2.782-2.119c0.987,0,1.703,0.312,2.145,0.624c0.325,0.208,0.533,0.43,0.663,0.585l-1.104,1.027
		c-0.183-0.351-0.624-0.988-1.769-0.988c-0.741,0-1.079,0.325-1.079,0.663c0,0.468,0.481,0.599,1.313,0.741
		c1.352,0.247,1.729,0.312,2.145,0.637c0.403,0.312,0.663,0.832,0.663,1.378c0,1.015-0.91,2.224-2.925,2.224
		c-1.157,0-2.301-0.364-3.12-1.157L80.881,714.324z"/>
	<path style="fill:#E52420;" d="M88.772,710.866v2.938c0,0.807,0,1.157,0.74,1.157c0.234,0,0.43-0.013,0.65-0.078v1.313
		c-0.468,0.078-0.78,0.104-1.131,0.104c-0.325,0-1.417,0-1.716-0.793c-0.104-0.26-0.104-0.676-0.104-1.325v-3.315h-0.949v-1.118
		h0.949v-2.301h1.561v2.301h1.391v1.118H88.772z"/>
	<path style="fill:#E52420;" d="M91.189,711.659c0.026-0.325,0.053-0.598,0.261-0.976c0.624-1.131,2.171-1.131,2.587-1.131
		c0.624,0,1.378,0.078,1.95,0.416c0.767,0.469,0.779,1.079,0.779,1.781v3.445c0,0.494,0,0.663,0.286,1.053h-1.846
		c-0.013-0.156-0.039-0.416-0.039-0.507c-0.338,0.286-1.027,0.663-1.924,0.663c-1.47,0-2.354-0.91-2.354-2.028
		c0-0.325,0.078-0.624,0.208-0.884c0.468-0.937,1.469-1.145,2.093-1.261c1.34-0.273,1.443-0.3,2.016-0.481
		c0-0.325-0.026-0.988-1.105-0.988c-0.649,0-1.001,0.208-1.156,0.416c-0.17,0.208-0.156,0.391-0.156,0.572L91.189,711.659z
		 M95.207,713.01c-0.312,0.156-0.663,0.273-1.365,0.391c-0.559,0.078-1.3,0.208-1.3,0.896c0,0.508,0.429,0.768,1.053,0.768
		c0.793,0,1.353-0.364,1.521-0.754c0.091-0.195,0.091-0.391,0.091-0.585V713.01z"/>
	<path style="fill:#E52420;" d="M104.357,709.747v5.33c-0.013,1.287-0.013,1.808-0.416,2.354c-0.363,0.48-1.17,0.987-2.703,0.987
		c-2.314,0-2.77-1.001-2.99-2.041h1.716c0.117,0.377,0.39,0.807,1.326,0.807c0.793,0,1.144-0.312,1.287-0.521
		c0.233-0.325,0.233-0.702,0.233-1.495c-0.338,0.312-1.014,0.702-1.95,0.702c-1.533,0-2.82-1.04-2.82-3.107
		c0-2.418,1.729-3.211,2.925-3.211c1.17,0,1.664,0.638,1.846,0.871v-0.676H104.357z M101.238,710.944c-0.794,0-1.6,0.533-1.6,1.781
		c0,1.131,0.689,1.716,1.612,1.716c0.832,0,1.586-0.455,1.599-1.651C102.863,711.737,102.291,710.944,101.238,710.944z"/>
	<path style="fill:#E52420;" d="M115.409,707.07v9.178h-1.547v-0.624c-0.481,0.585-1.131,0.819-1.807,0.819
		c-1.548,0-2.887-1.157-2.887-3.302c0-1.938,1.093-3.589,2.951-3.589c0.638,0,1.248,0.183,1.742,0.729v-3.211H115.409z
		 M113.498,711.593c-0.233-0.351-0.624-0.598-1.144-0.598c-1.054,0-1.561,0.949-1.561,1.976c0,0.117,0.014,2.067,1.534,2.067
		c0.807,0,1.534-0.598,1.521-2.002C113.836,712.621,113.784,712.023,113.498,711.593z"/>
	<path style="fill:#E52420;" d="M123.234,714.791c-0.806,1.079-1.846,1.651-3.172,1.651c-1.703,0-3.341-1.079-3.341-3.472
		c0-2.184,1.403-3.419,3.236-3.419c1.717,0,2.432,1.027,2.562,1.223c0.533,0.754,0.65,1.885,0.663,2.535h-4.811
		c0.183,1.026,0.819,1.611,1.847,1.611c1.065,0,1.495-0.624,1.689-0.896L123.234,714.791z M121.467,712.165
		c-0.144-1.014-0.768-1.365-1.456-1.365c-0.832,0-1.404,0.481-1.586,1.365H121.467z"/>
	<path style="fill:#E52420;" d="M124.405,709.747h1.573v0.767c0.077-0.116,0.233-0.324,0.507-0.507
		c0.39-0.286,0.987-0.455,1.495-0.455c0.74,0,1.378,0.338,1.703,0.78c0.402,0.546,0.402,1.248,0.402,2.093v3.822h-1.547v-3.314
		c0-0.481,0-0.807-0.052-0.988c-0.144-0.572-0.56-0.871-1.066-0.871s-0.975,0.299-1.196,0.728c-0.246,0.481-0.246,1.145-0.246,1.625
		v2.821h-1.573V709.747z"/>
	<path style="fill:#E52420;" d="M133.088,714.466v1.781h-1.716v-1.781H133.088z"/>
	<path style="fill:#E52420;" d="M143.775,708.864c-1.69,2.105-2.691,4.602-2.951,7.384h-2.145c0.143-0.832,0.299-1.858,0.845-3.211
		c0.663-1.625,1.339-2.587,2.392-4.056h-3.965v-1.534h5.824V708.864z"/>
	<path style="fill:#E52420;" d="M150.365,709.735v6.564c0,0.624-0.025,0.949-0.078,1.093c-0.247,0.754-1.144,0.962-1.976,0.962
		c-0.117,0-0.156,0-0.352-0.013v-1.431c0.144,0,0.546-0.039,0.716-0.247c0.143-0.169,0.143-0.221,0.143-0.988v-5.94H150.365z
		 M150.353,707.147v1.573h-1.534v-1.573H150.353z"/>
	<path style="fill:#E52420;" d="M151.834,711.659c0.026-0.325,0.053-0.598,0.261-0.976c0.624-1.131,2.171-1.131,2.587-1.131
		c0.624,0,1.378,0.078,1.95,0.416c0.767,0.469,0.779,1.079,0.779,1.781v3.445c0,0.494,0,0.663,0.286,1.053h-1.846
		c-0.013-0.156-0.039-0.416-0.039-0.507c-0.338,0.286-1.027,0.663-1.924,0.663c-1.47,0-2.354-0.91-2.354-2.028
		c0-0.325,0.078-0.624,0.208-0.884c0.468-0.937,1.469-1.145,2.093-1.261c1.34-0.273,1.443-0.3,2.016-0.481
		c0-0.325-0.026-0.988-1.105-0.988c-0.649,0-1.001,0.208-1.156,0.416c-0.17,0.208-0.156,0.391-0.156,0.572L151.834,711.659z
		 M155.852,713.01c-0.312,0.156-0.663,0.273-1.365,0.391c-0.559,0.078-1.3,0.208-1.3,0.896c0,0.508,0.429,0.768,1.053,0.768
		c0.793,0,1.353-0.364,1.521-0.754c0.091-0.195,0.091-0.391,0.091-0.585V713.01z"/>
	<path style="fill:#E52420;" d="M159.062,709.747h1.573v0.767c0.077-0.116,0.233-0.324,0.507-0.507
		c0.39-0.286,0.987-0.455,1.495-0.455c0.74,0,1.378,0.338,1.703,0.78c0.402,0.546,0.402,1.248,0.402,2.093v3.822h-1.547v-3.314
		c0-0.481,0-0.807-0.052-0.988c-0.144-0.572-0.56-0.871-1.066-0.871s-0.975,0.299-1.196,0.728c-0.246,0.481-0.246,1.145-0.246,1.625
		v2.821h-1.573V709.747z"/>
	<path style="fill:#E52420;" d="M172.271,709.747v6.5h-1.561v-0.663c-0.272,0.261-0.91,0.819-2.106,0.819
		c-1.065,0-1.572-0.455-1.807-0.754c-0.442-0.56-0.442-1.17-0.442-2.146v-3.757h1.573v3.731c0,0.26,0,0.48,0.052,0.649
		c0.169,0.572,0.638,0.819,1.21,0.819c0.649,0,1.053-0.351,1.261-0.689c0.233-0.429,0.247-0.845,0.26-1.755v-2.756H172.271z"/>
	<path style="fill:#E52420;" d="M173.764,711.659c0.026-0.325,0.053-0.598,0.261-0.976c0.624-1.131,2.171-1.131,2.587-1.131
		c0.624,0,1.378,0.078,1.95,0.416c0.767,0.469,0.779,1.079,0.779,1.781v3.445c0,0.494,0,0.663,0.286,1.053h-1.846
		c-0.013-0.156-0.039-0.416-0.039-0.507c-0.338,0.286-1.027,0.663-1.924,0.663c-1.47,0-2.354-0.91-2.354-2.028
		c0-0.325,0.078-0.624,0.208-0.884c0.468-0.937,1.469-1.145,2.093-1.261c1.34-0.273,1.443-0.3,2.016-0.481
		c0-0.325-0.026-0.988-1.105-0.988c-0.649,0-1.001,0.208-1.156,0.416c-0.17,0.208-0.156,0.391-0.156,0.572L173.764,711.659z
		 M177.781,713.01c-0.312,0.156-0.663,0.273-1.365,0.391c-0.559,0.078-1.3,0.208-1.3,0.896c0,0.508,0.429,0.768,1.053,0.768
		c0.793,0,1.353-0.364,1.521-0.754c0.091-0.195,0.091-0.391,0.091-0.585V713.01z"/>
	<path style="fill:#E52420;" d="M182.514,709.747v0.923c0.195-0.338,0.624-1.104,2.08-1.065v1.599
		c-0.338,0.013-0.923,0.026-1.404,0.39c-0.662,0.508-0.676,1.17-0.676,2.249v2.405h-1.508v-6.5H182.514z"/>
	<path style="fill:#E52420;" d="M193.018,707.472v8.775h-1.599v-5.018c0-0.832,0-1.079-0.715-1.079h-1.431v-1.001h0.17
		c0.818-0.014,1.924-0.026,2.274-1.678H193.018z"/>
	<path style="fill:#E52420;" d="M198.308,713.895c0.026,0.169,0.053,0.338,0.144,0.494c0.143,0.299,0.455,0.546,0.91,0.546
		c1.144,0,1.442-1.586,1.442-2.588c-0.233,0.339-0.845,0.768-1.755,0.768c-1.391,0-2.521-0.923-2.521-2.756
		c0-2.094,1.481-3.029,2.977-3.029c0.533,0,1.092,0.117,1.547,0.39c1.534,0.949,1.534,3.211,1.534,3.796
		c0,3.134-1.3,4.85-3.419,4.85c-1.404,0-2.041-0.806-2.236-1.118c-0.272-0.429-0.363-0.896-0.402-1.092L198.308,713.895z
		 M199.452,708.747c-0.572,0-1.235,0.403-1.235,1.443c0,0.884,0.442,1.521,1.235,1.521c0.143,0,1.222-0.013,1.222-1.43
		C200.674,709.435,200.297,708.747,199.452,708.747z"/>
	<path style="fill:#E52420;" d="M209.309,708.864c-1.69,2.105-2.691,4.602-2.951,7.384h-2.145c0.143-0.832,0.299-1.858,0.845-3.211
		c0.663-1.625,1.339-2.587,2.392-4.056h-3.965v-1.534h5.824V708.864z"/>
	<path style="fill:#E52420;" d="M214.42,707.472v8.775h-1.599v-5.018c0-0.832,0-1.079-0.715-1.079h-1.431v-1.001h0.17
		c0.818-0.014,1.924-0.026,2.274-1.678H214.42z"/>
	<path style="fill:#E52420;" d="M69.132,730.896v1.352h-5.967v-1.261c1.118-0.768,2.223-1.82,2.743-2.354
		c0.48-0.494,1.287-1.339,1.287-2.496c0-0.676-0.338-1.312-1.157-1.312c-1.287,0-1.248,1.404-1.235,2.028l-1.638-0.144
		c0-1.235,0.403-2.028,0.741-2.431c0.48-0.56,1.312-0.949,2.262-0.949c1.664,0,2.821,1.079,2.821,2.743
		c0,1.417-0.871,2.431-1.833,3.302c-0.195,0.169-1.365,1.157-1.859,1.521H69.132z"/>
	<path style="fill:#E52420;" d="M74.709,732.091c-0.416,0.195-0.871,0.273-1.326,0.273c-1.508,0-2.249-0.897-2.548-1.365
		c-0.547-0.871-0.638-2.08-0.638-3.094c0-0.897,0.065-2.354,0.78-3.341c0.481-0.663,1.353-1.235,2.483-1.235
		c0.779,0,1.742,0.26,2.418,1.273c0.676,1.015,0.728,2.354,0.728,3.212C76.606,729.387,76.386,731.325,74.709,732.091z
		 M73.447,724.759c-1.403,0-1.56,1.664-1.56,3.172c0,1.431,0.13,2.99,1.534,2.99c1.234,0,1.508-1.209,1.508-3.055
		C74.93,725.865,74.54,724.759,73.447,724.759z"/>
	<path style="fill:#E52420;" d="M79.232,730.466v1.781h-1.716v-1.781H79.232z"/>
	<path style="fill:#E52420;" d="M84.458,723.472v8.775h-1.599v-5.018c0-0.832,0-1.079-0.715-1.079h-1.431v-1.001h0.169
		c0.819-0.014,1.925-0.026,2.275-1.678H84.458z"/>
	<path style="fill:#E52420;" d="M93.429,724.915H90.01l-0.299,1.938c0.39-0.391,1.014-0.65,1.689-0.65
		c1.561,0,2.665,1.157,2.665,2.925c0,1.808-1.183,3.237-3.263,3.237c-0.585,0-1.157-0.104-1.664-0.364
		c-1.223-0.649-1.313-1.781-1.353-2.21l1.82-0.13c0.039,0.897,0.598,1.3,1.261,1.3c0.299,0,0.56-0.064,0.768-0.208
		c0.39-0.26,0.663-0.871,0.663-1.56c0-1.092-0.677-1.651-1.456-1.651c-0.599,0-1.105,0.273-1.313,0.819l-1.469-0.091l0.624-4.823
		h4.875L93.429,724.915z"/>
	<path style="fill:#E52420;" d="M104.868,725.747v6.5h-1.561v-0.663c-0.272,0.261-0.91,0.819-2.106,0.819
		c-1.065,0-1.572-0.455-1.807-0.754c-0.442-0.56-0.442-1.17-0.442-2.146v-3.757h1.573v3.731c0,0.26,0,0.48,0.052,0.649
		c0.169,0.572,0.638,0.819,1.21,0.819c0.649,0,1.053-0.351,1.261-0.689c0.233-0.429,0.247-0.845,0.26-1.755v-2.756H104.868z"/>
	<path style="fill:#E52420;" d="M108.091,723.07v3.341c0.494-0.494,1.17-0.858,2.067-0.858c0.806,0,1.43,0.312,1.78,0.702
		c0.533,0.572,0.546,1.235,0.546,1.977v4.017h-1.533v-3.575c-0.026-0.585-0.026-0.728-0.104-0.923
		c-0.052-0.13-0.272-0.715-1.131-0.715c-1.001,0-1.469,0.806-1.573,1.183c-0.052,0.208-0.052,0.312-0.052,1.04v2.99h-1.561v-9.178
		H108.091z"/>
	<path style="fill:#E52420;" d="M115.645,725.747v0.923c0.195-0.338,0.624-1.104,2.08-1.065v1.599
		c-0.338,0.013-0.923,0.026-1.404,0.39c-0.662,0.508-0.676,1.17-0.676,2.249v2.405h-1.508v-6.5H115.645z"/>
	<path style="fill:#E52420;" d="M128.189,725.747v5.33c-0.013,1.287-0.013,1.808-0.416,2.354c-0.363,0.48-1.17,0.987-2.703,0.987
		c-2.314,0-2.77-1.001-2.99-2.041h1.716c0.117,0.377,0.39,0.807,1.326,0.807c0.793,0,1.144-0.312,1.287-0.521
		c0.233-0.325,0.233-0.702,0.233-1.495c-0.338,0.312-1.014,0.702-1.95,0.702c-1.533,0-2.82-1.04-2.82-3.107
		c0-2.418,1.729-3.211,2.925-3.211c1.17,0,1.664,0.638,1.846,0.871v-0.676H128.189z M125.07,726.944c-0.794,0-1.6,0.533-1.6,1.781
		c0,1.131,0.689,1.716,1.612,1.716c0.832,0,1.586-0.455,1.599-1.651C126.695,727.737,126.123,726.944,125.07,726.944z"/>
	<path style="fill:#E52420;" d="M131.348,725.747v0.923c0.195-0.338,0.624-1.104,2.08-1.065v1.599
		c-0.338,0.013-0.923,0.026-1.404,0.39c-0.662,0.508-0.676,1.17-0.676,2.249v2.405h-1.508v-6.5H131.348z"/>
	<path style="fill:#E52420;" d="M137.188,732.443c-2.028,0-3.38-1.482-3.38-3.472c0-1.988,1.378-3.419,3.315-3.419
		c1.807,0,3.354,1.262,3.367,3.419C140.49,730.999,139.15,732.443,137.188,732.443z M137.109,726.956
		c-0.975,0-1.677,0.78-1.677,1.977c0,1.339,0.819,2.08,1.755,2.08c1.131,0,1.703-0.988,1.664-2.067
		C138.826,727.867,138.202,726.956,137.109,726.956z"/>
	<path style="fill:#E52420;" d="M142.375,730.324c0.39,0.481,0.975,0.832,1.872,0.832c0.896,0,1.287-0.442,1.287-0.767
		c0-0.416-0.469-0.521-0.677-0.56c-0.221-0.052-1.287-0.247-1.521-0.312c-1.547-0.364-1.833-1.262-1.833-1.847
		c0-1.104,1.001-2.119,2.782-2.119c0.987,0,1.703,0.312,2.145,0.624c0.325,0.208,0.533,0.43,0.663,0.585l-1.104,1.027
		c-0.183-0.351-0.624-0.988-1.769-0.988c-0.741,0-1.079,0.325-1.079,0.663c0,0.468,0.481,0.599,1.313,0.741
		c1.352,0.247,1.729,0.312,2.145,0.637c0.403,0.312,0.663,0.832,0.663,1.378c0,1.015-0.91,2.224-2.925,2.224
		c-1.157,0-2.301-0.364-3.12-1.157L142.375,730.324z"/>
	<path style="fill:#E52420;" d="M149.148,730.324c0.39,0.481,0.975,0.832,1.872,0.832c0.896,0,1.287-0.442,1.287-0.767
		c0-0.416-0.469-0.521-0.677-0.56c-0.221-0.052-1.287-0.247-1.521-0.312c-1.547-0.364-1.833-1.262-1.833-1.847
		c0-1.104,1.001-2.119,2.782-2.119c0.987,0,1.703,0.312,2.145,0.624c0.325,0.208,0.533,0.43,0.663,0.585l-1.104,1.027
		c-0.183-0.351-0.624-0.988-1.769-0.988c-0.741,0-1.079,0.325-1.079,0.663c0,0.468,0.481,0.599,1.313,0.741
		c1.352,0.247,1.729,0.312,2.145,0.637c0.403,0.312,0.663,0.832,0.663,1.378c0,1.015-0.91,2.224-2.925,2.224
		c-1.157,0-2.301-0.364-3.12-1.157L149.148,730.324z"/>
	<path style="fill:#E52420;" d="M161.434,730.791c-0.806,1.079-1.846,1.651-3.172,1.651c-1.703,0-3.341-1.079-3.341-3.472
		c0-2.184,1.403-3.419,3.236-3.419c1.717,0,2.432,1.027,2.562,1.223c0.533,0.754,0.65,1.885,0.663,2.535h-4.811
		c0.183,1.026,0.819,1.611,1.847,1.611c1.065,0,1.495-0.624,1.689-0.896L161.434,730.791z M159.666,728.165
		c-0.144-1.014-0.768-1.365-1.456-1.365c-0.832,0-1.404,0.481-1.586,1.365H159.666z"/>
	<path style="fill:#E52420;" d="M164.124,725.747v0.923c0.195-0.338,0.624-1.104,2.08-1.065v1.599
		c-0.338,0.013-0.923,0.026-1.403,0.39c-0.663,0.508-0.677,1.17-0.677,2.249v2.405h-1.508v-6.5H164.124z"/>
	<path style="fill:#E52420;" d="M172.47,726.866v2.938c0,0.807,0,1.157,0.74,1.157c0.234,0,0.43-0.013,0.65-0.078v1.313
		c-0.468,0.078-0.78,0.104-1.131,0.104c-0.325,0-1.417,0-1.716-0.793c-0.104-0.26-0.104-0.676-0.104-1.325v-3.315h-0.949v-1.118
		h0.949v-2.301h1.561v2.301h1.391v1.118H172.47z"/>
	<path style="fill:#E52420;" d="M177.812,732.443c-2.028,0-3.38-1.482-3.38-3.472c0-1.988,1.378-3.419,3.315-3.419
		c1.807,0,3.354,1.262,3.367,3.419C181.114,730.999,179.774,732.443,177.812,732.443z M177.733,726.956
		c-0.975,0-1.677,0.78-1.677,1.977c0,1.339,0.819,2.08,1.755,2.08c1.131,0,1.703-0.988,1.664-2.067
		C179.45,727.867,178.826,726.956,177.733,726.956z"/>
	<path style="fill:#E52420;" d="M182.375,725.747h1.572v0.767c0.078-0.116,0.234-0.324,0.508-0.507
		c0.39-0.286,0.987-0.455,1.495-0.455c0.74,0,1.378,0.338,1.703,0.78c0.402,0.546,0.402,1.248,0.402,2.093v3.822h-1.547v-3.314
		c0-0.481,0-0.807-0.052-0.988c-0.144-0.572-0.56-0.871-1.066-0.871s-0.975,0.299-1.196,0.728c-0.247,0.481-0.247,1.145-0.247,1.625
		v2.821h-1.572V725.747z"/>
	<path style="fill:#E52420;" d="M191.228,723.07v3.341c0.494-0.494,1.17-0.858,2.067-0.858c0.806,0,1.43,0.312,1.78,0.702
		c0.533,0.572,0.546,1.235,0.546,1.977v4.017h-1.533v-3.575c-0.026-0.585-0.026-0.728-0.104-0.923
		c-0.052-0.13-0.272-0.715-1.131-0.715c-1.001,0-1.469,0.806-1.573,1.183c-0.052,0.208-0.052,0.312-0.052,1.04v2.99h-1.561v-9.178
		H191.228z"/>
	<path style="fill:#E52420;" d="M197.077,727.659c0.026-0.325,0.053-0.598,0.261-0.976c0.624-1.131,2.171-1.131,2.587-1.131
		c0.624,0,1.378,0.078,1.95,0.416c0.767,0.469,0.779,1.079,0.779,1.781v3.445c0,0.494,0,0.663,0.286,1.053h-1.846
		c-0.013-0.156-0.039-0.416-0.039-0.507c-0.338,0.286-1.027,0.663-1.924,0.663c-1.47,0-2.354-0.91-2.354-2.028
		c0-0.325,0.078-0.624,0.208-0.884c0.468-0.937,1.469-1.145,2.093-1.261c1.34-0.273,1.443-0.3,2.016-0.481
		c0-0.325-0.026-0.988-1.105-0.988c-0.649,0-1.001,0.208-1.157,0.416c-0.169,0.208-0.155,0.391-0.155,0.572L197.077,727.659z
		 M201.095,729.01c-0.312,0.156-0.663,0.273-1.365,0.391c-0.559,0.078-1.3,0.208-1.3,0.896c0,0.508,0.429,0.768,1.053,0.768
		c0.793,0,1.353-0.364,1.521-0.754c0.091-0.195,0.091-0.391,0.091-0.585V729.01z"/>
	<path style="fill:#E52420;" d="M205.904,723.07v9.178h-1.573v-9.178H205.904z"/>
	<path style="fill:#E52420;" d="M209.154,723.07v9.178h-1.573v-9.178H209.154z"/>
	<path style="fill:#E52420;" d="M216.941,730.791c-0.806,1.079-1.846,1.651-3.172,1.651c-1.703,0-3.341-1.079-3.341-3.472
		c0-2.184,1.403-3.419,3.236-3.419c1.717,0,2.432,1.027,2.562,1.223c0.533,0.754,0.65,1.885,0.663,2.535h-4.811
		c0.183,1.026,0.819,1.611,1.847,1.611c1.065,0,1.495-0.624,1.689-0.896L216.941,730.791z M215.174,728.165
		c-0.144-1.014-0.768-1.365-1.456-1.365c-0.832,0-1.404,0.481-1.586,1.365H215.174z"/>
	<path style="fill:#E52420;" d="M218.735,730.324c0.39,0.481,0.975,0.832,1.872,0.832c0.896,0,1.287-0.442,1.287-0.767
		c0-0.416-0.469-0.521-0.677-0.56c-0.221-0.052-1.287-0.247-1.521-0.312c-1.547-0.364-1.833-1.262-1.833-1.847
		c0-1.104,1.001-2.119,2.782-2.119c0.987,0,1.703,0.312,2.145,0.624c0.325,0.208,0.533,0.43,0.663,0.585l-1.104,1.027
		c-0.183-0.351-0.624-0.988-1.769-0.988c-0.741,0-1.079,0.325-1.079,0.663c0,0.468,0.481,0.599,1.313,0.741
		c1.352,0.247,1.729,0.312,2.145,0.637c0.403,0.312,0.663,0.832,0.663,1.378c0,1.015-0.91,2.224-2.925,2.224
		c-1.157,0-2.301-0.364-3.12-1.157L218.735,730.324z"/>
	<path style="fill:#E52420;" d="M224.701,727.659c0.026-0.325,0.053-0.598,0.261-0.976c0.624-1.131,2.171-1.131,2.587-1.131
		c0.624,0,1.378,0.078,1.95,0.416c0.767,0.469,0.779,1.079,0.779,1.781v3.445c0,0.494,0,0.663,0.286,1.053h-1.846
		c-0.013-0.156-0.039-0.416-0.039-0.507c-0.338,0.286-1.027,0.663-1.924,0.663c-1.47,0-2.354-0.91-2.354-2.028
		c0-0.325,0.078-0.624,0.208-0.884c0.468-0.937,1.469-1.145,2.093-1.261c1.34-0.273,1.443-0.3,2.016-0.481
		c0-0.325-0.026-0.988-1.105-0.988c-0.649,0-1.001,0.208-1.156,0.416c-0.17,0.208-0.156,0.391-0.156,0.572L224.701,727.659z
		 M228.719,729.01c-0.312,0.156-0.663,0.273-1.365,0.391c-0.559,0.078-1.3,0.208-1.3,0.896c0,0.508,0.429,0.768,1.053,0.768
		c0.793,0,1.353-0.364,1.521-0.754c0.091-0.195,0.091-0.391,0.091-0.585V729.01z"/>
	<path style="fill:#E52420;" d="M231.747,727.659c0.026-0.325,0.053-0.598,0.261-0.976c0.624-1.131,2.171-1.131,2.587-1.131
		c0.624,0,1.378,0.078,1.95,0.416c0.767,0.469,0.779,1.079,0.779,1.781v3.445c0,0.494,0,0.663,0.286,1.053h-1.846
		c-0.013-0.156-0.039-0.416-0.039-0.507c-0.338,0.286-1.027,0.663-1.924,0.663c-1.47,0-2.354-0.91-2.354-2.028
		c0-0.325,0.078-0.624,0.208-0.884c0.468-0.937,1.469-1.145,2.093-1.261c1.34-0.273,1.443-0.3,2.016-0.481
		c0-0.325-0.026-0.988-1.105-0.988c-0.649,0-1.001,0.208-1.157,0.416c-0.169,0.208-0.155,0.391-0.155,0.572L231.747,727.659z
		 M235.765,729.01c-0.312,0.156-0.663,0.273-1.365,0.391c-0.559,0.078-1.3,0.208-1.3,0.896c0,0.508,0.429,0.768,1.053,0.768
		c0.793,0,1.353-0.364,1.521-0.754c0.091-0.195,0.091-0.391,0.091-0.585V729.01z"/>
	<path style="fill:#E52420;" d="M240.574,723.07v9.178h-1.573v-9.178H240.574z"/>
	<path style="fill:#E52420;" d="M100.868,738.747v1.209l-3.444,3.913h3.444v1.378h-5.563v-1.196l3.51-3.913h-3.159v-1.391H100.868z"
		/>
	<path style="fill:#E52420;" d="M109.332,738.747h1.625l-1.95,6.5h-1.547l-1.171-4.146l-1.248,4.146h-1.533l-1.886-6.5h1.625
		l1.132,4.446l1.209-4.446h1.391l1.196,4.446L109.332,738.747z"/>
	<path style="fill:#E52420;" d="M118.106,743.791c-0.806,1.079-1.846,1.651-3.172,1.651c-1.703,0-3.341-1.079-3.341-3.472
		c0-2.184,1.403-3.419,3.236-3.419c1.717,0,2.432,1.027,2.562,1.223c0.533,0.754,0.65,1.885,0.663,2.535h-4.811
		c0.183,1.026,0.819,1.611,1.847,1.611c1.065,0,1.495-0.624,1.689-0.896L118.106,743.791z M116.339,741.165
		c-0.144-1.014-0.768-1.365-1.456-1.365c-0.832,0-1.404,0.481-1.586,1.365H116.339z"/>
	<path style="fill:#E52420;" d="M120.85,736.161v1.573h-1.548v-1.573H120.85z M120.85,738.747v6.5h-1.548v-6.5H120.85z"/>
	<path style="fill:#E52420;" d="M124.269,739.866v2.938c0,0.807,0,1.157,0.74,1.157c0.234,0,0.43-0.013,0.65-0.078v1.313
		c-0.468,0.078-0.78,0.104-1.131,0.104c-0.325,0-1.417,0-1.716-0.793c-0.104-0.26-0.104-0.676-0.104-1.325v-3.315h-0.949v-1.118
		h0.949v-2.301h1.561v2.301h1.391v1.118H124.269z"/>
	<path style="fill:#E52420;" d="M132.731,743.791c-0.806,1.079-1.846,1.651-3.172,1.651c-1.703,0-3.341-1.079-3.341-3.472
		c0-2.184,1.403-3.419,3.236-3.419c1.717,0,2.432,1.027,2.562,1.223c0.533,0.754,0.65,1.885,0.663,2.535h-4.811
		c0.183,1.026,0.819,1.611,1.847,1.611c1.065,0,1.495-0.624,1.689-0.896L132.731,743.791z M130.964,741.165
		c-0.144-1.014-0.768-1.365-1.456-1.365c-0.832,0-1.404,0.481-1.586,1.365H130.964z"/>
	<path style="fill:#E52420;" d="M134.525,743.324c0.39,0.481,0.975,0.832,1.872,0.832c0.896,0,1.287-0.442,1.287-0.767
		c0-0.416-0.469-0.521-0.677-0.56c-0.221-0.052-1.287-0.247-1.521-0.312c-1.547-0.364-1.833-1.262-1.833-1.847
		c0-1.104,1.001-2.119,2.782-2.119c0.987,0,1.703,0.312,2.145,0.624c0.325,0.208,0.533,0.43,0.663,0.585l-1.104,1.027
		c-0.183-0.351-0.624-0.988-1.769-0.988c-0.741,0-1.079,0.325-1.079,0.663c0,0.468,0.481,0.599,1.313,0.741
		c1.352,0.247,1.729,0.312,2.145,0.637c0.403,0.312,0.663,0.832,0.663,1.378c0,1.015-0.91,2.224-2.925,2.224
		c-1.157,0-2.301-0.364-3.12-1.157L134.525,743.324z"/>
	<path style="fill:#E52420;" d="M144.21,738.747h1.547v0.728c0.521-0.649,1.443-0.923,2.055-0.923c0.61,0,1.378,0.234,1.807,1.001
		c0.26-0.363,0.937-1.001,2.08-1.001c0.65,0,1.274,0.183,1.716,0.663c0.521,0.572,0.507,1.262,0.507,1.938v4.095h-1.547v-3.588
		c0-0.611,0.091-1.638-1.092-1.638c-0.494,0-0.897,0.272-1.105,0.61c-0.299,0.481-0.338,1.001-0.338,1.561v3.055h-1.547v-3.627
		c0-0.468,0-0.637-0.052-0.832c-0.117-0.429-0.455-0.767-1.001-0.767c-0.468,0-0.923,0.272-1.196,0.754
		c-0.273,0.507-0.286,1.118-0.286,1.755v2.717h-1.547V738.747z"/>
	<path style="fill:#E52420;" d="M161.475,738.747v6.5h-1.561v-0.663c-0.273,0.261-0.91,0.819-2.106,0.819
		c-1.065,0-1.572-0.455-1.807-0.754c-0.442-0.56-0.442-1.17-0.442-2.146v-3.757h1.573v3.731c0,0.26,0,0.48,0.052,0.649
		c0.17,0.572,0.638,0.819,1.209,0.819c0.65,0,1.054-0.351,1.262-0.689c0.233-0.429,0.247-0.845,0.26-1.755v-2.756H161.475z"/>
	<path style="fill:#E52420;" d="M163.775,743.324c0.39,0.481,0.975,0.832,1.872,0.832c0.896,0,1.287-0.442,1.287-0.767
		c0-0.416-0.469-0.521-0.677-0.56c-0.221-0.052-1.287-0.247-1.521-0.312c-1.547-0.364-1.833-1.262-1.833-1.847
		c0-1.104,1.001-2.119,2.782-2.119c0.987,0,1.703,0.312,2.145,0.624c0.325,0.208,0.533,0.43,0.663,0.585l-1.104,1.027
		c-0.183-0.351-0.624-0.988-1.769-0.988c-0.741,0-1.079,0.325-1.079,0.663c0,0.468,0.481,0.599,1.313,0.741
		c1.352,0.247,1.729,0.312,2.145,0.637c0.403,0.312,0.663,0.832,0.663,1.378c0,1.015-0.91,2.224-2.925,2.224
		c-1.157,0-2.301-0.364-3.12-1.157L163.775,743.324z"/>
	<path style="fill:#E52420;" d="M171.496,736.161v1.573h-1.547v-1.573H171.496z M171.496,738.747v6.5h-1.547v-6.5H171.496z"/>
	<path style="fill:#E52420;" d="M177.359,741.048c-0.117-0.429-0.571-1.104-1.469-1.104s-1.612,0.715-1.612,2.015
		c0,1.17,0.611,2.028,1.639,2.028c0.987,0,1.364-0.754,1.56-1.274l1.339,0.702c-0.507,1.404-1.794,2.028-2.925,2.028
		c-1.807,0-3.225-1.392-3.225-3.445c0-1.989,1.431-3.445,3.276-3.445c1.639,0,2.471,1.093,2.809,1.847L177.359,741.048z"/>
	<path style="fill:#E52420;" d="M179.765,740.659c0.026-0.325,0.053-0.598,0.261-0.976c0.624-1.131,2.171-1.131,2.587-1.131
		c0.624,0,1.378,0.078,1.95,0.416c0.767,0.469,0.779,1.079,0.779,1.781v3.445c0,0.494,0,0.663,0.286,1.053h-1.846
		c-0.013-0.156-0.039-0.416-0.039-0.507c-0.338,0.286-1.027,0.663-1.924,0.663c-1.47,0-2.354-0.91-2.354-2.028
		c0-0.325,0.078-0.624,0.208-0.884c0.468-0.937,1.469-1.145,2.093-1.261c1.34-0.273,1.443-0.3,2.016-0.481
		c0-0.325-0.026-0.988-1.105-0.988c-0.649,0-1.001,0.208-1.157,0.416c-0.169,0.208-0.155,0.391-0.155,0.572L179.765,740.659z
		 M183.782,742.01c-0.312,0.156-0.663,0.273-1.365,0.391c-0.559,0.078-1.3,0.208-1.3,0.896c0,0.508,0.429,0.768,1.053,0.768
		c0.793,0,1.353-0.364,1.521-0.754c0.091-0.195,0.091-0.391,0.091-0.585V742.01z"/>
	<path style="fill:#E52420;" d="M195.78,738.747l-2.132,6.5h-1.677l-2.106-6.5h1.612l1.352,4.472l1.326-4.472H195.78z"/>
	<path style="fill:#E52420;" d="M198.314,736.161v1.573h-1.547v-1.573H198.314z M198.314,738.747v6.5h-1.547v-6.5H198.314z"/>
	<path style="fill:#E52420;" d="M205.257,738.747l-2.132,6.5h-1.677l-2.106-6.5h1.612l1.352,4.472l1.326-4.472H205.257z"/>
	<path style="fill:#E52420;" d="M206.036,740.659c0.026-0.325,0.053-0.598,0.261-0.976c0.624-1.131,2.171-1.131,2.587-1.131
		c0.624,0,1.378,0.078,1.95,0.416c0.767,0.469,0.779,1.079,0.779,1.781v3.445c0,0.494,0,0.663,0.286,1.053h-1.846
		c-0.013-0.156-0.039-0.416-0.039-0.507c-0.338,0.286-1.027,0.663-1.924,0.663c-1.47,0-2.354-0.91-2.354-2.028
		c0-0.325,0.078-0.624,0.208-0.884c0.468-0.937,1.469-1.145,2.093-1.261c1.34-0.273,1.443-0.3,2.016-0.481
		c0-0.325-0.026-0.988-1.105-0.988c-0.649,0-1.001,0.208-1.157,0.416c-0.169,0.208-0.155,0.391-0.155,0.572L206.036,740.659z
		 M210.054,742.01c-0.312,0.156-0.663,0.273-1.365,0.391c-0.559,0.078-1.3,0.208-1.3,0.896c0,0.508,0.429,0.768,1.053,0.768
		c0.793,0,1.353-0.364,1.521-0.754c0.091-0.195,0.091-0.391,0.091-0.585V742.01z"/>
	<path style="fill:#E52420;" d="M216.357,740.438v1.456h-3.224v-1.456H216.357z"/>
	<path style="fill:#E52420;" d="M219.425,736.07v5.161l2.535-2.483h1.989l-2.483,2.483l2.73,4.017h-1.898l-1.963-2.912l-0.91,0.897
		v2.015h-1.547v-9.178H219.425z"/>
	<path style="fill:#E52420;" d="M227.928,745.443c-2.028,0-3.38-1.482-3.38-3.472c0-1.988,1.378-3.419,3.315-3.419
		c1.807,0,3.354,1.262,3.367,3.419C231.23,743.999,229.891,745.443,227.928,745.443z M227.85,739.956
		c-0.975,0-1.677,0.78-1.677,1.977c0,1.339,0.819,2.08,1.755,2.08c1.131,0,1.703-0.988,1.664-2.067
		C229.566,740.867,228.942,739.956,227.85,739.956z"/>
	<path style="fill:#E52420;" d="M232.49,738.747h1.572v0.767c0.078-0.116,0.234-0.324,0.508-0.507
		c0.39-0.286,0.987-0.455,1.495-0.455c0.74,0,1.378,0.338,1.703,0.78c0.402,0.546,0.402,1.248,0.402,2.093v3.822h-1.547v-3.314
		c0-0.481,0-0.807-0.052-0.988c-0.144-0.572-0.56-0.871-1.066-0.871s-0.975,0.299-1.196,0.728c-0.247,0.481-0.247,1.145-0.247,1.625
		v2.821h-1.572V738.747z"/>
	<path style="fill:#E52420;" d="M244.944,738.747v1.209l-3.444,3.913h3.444v1.378h-5.563v-1.196l3.51-3.913h-3.159v-1.391H244.944z"
		/>
	<path style="fill:#E52420;" d="M252.433,743.791c-0.806,1.079-1.846,1.651-3.172,1.651c-1.703,0-3.341-1.079-3.341-3.472
		c0-2.184,1.403-3.419,3.236-3.419c1.717,0,2.432,1.027,2.562,1.223c0.533,0.754,0.65,1.885,0.663,2.535h-4.811
		c0.183,1.026,0.819,1.611,1.847,1.611c1.065,0,1.495-0.624,1.689-0.896L252.433,743.791z M250.665,741.165
		c-0.144-1.014-0.768-1.365-1.456-1.365c-0.832,0-1.404,0.481-1.586,1.365H250.665z"/>
	<path style="fill:#E52420;" d="M255.122,738.747v0.923c0.195-0.338,0.624-1.104,2.08-1.065v1.599
		c-0.338,0.013-0.923,0.026-1.403,0.39c-0.663,0.508-0.677,1.17-0.677,2.249v2.405h-1.508v-6.5H255.122z"/>
	<path style="fill:#E52420;" d="M259.945,739.866v2.938c0,0.807,0,1.157,0.74,1.157c0.234,0,0.43-0.013,0.65-0.078v1.313
		c-0.468,0.078-0.78,0.104-1.131,0.104c-0.325,0-1.417,0-1.716-0.793c-0.104-0.26-0.104-0.676-0.104-1.325v-3.315h-0.949v-1.118
		h0.949v-2.301h1.561v2.301h1.391v1.118H259.945z"/>
	<path style="fill:#E52420;" d="M271.686,736.07v9.178h-1.547v-0.624c-0.48,0.585-1.131,0.819-1.807,0.819
		c-1.548,0-2.887-1.157-2.887-3.302c0-1.938,1.092-3.589,2.951-3.589c0.637,0,1.248,0.183,1.742,0.729v-3.211H271.686z
		 M269.774,740.593c-0.233-0.351-0.624-0.598-1.144-0.598c-1.053,0-1.561,0.949-1.561,1.976c0,0.117,0.014,2.067,1.534,2.067
		c0.807,0,1.534-0.598,1.521-2.002C270.112,741.621,270.061,741.023,269.774,740.593z"/>
	<path style="fill:#E52420;" d="M279.511,743.791c-0.806,1.079-1.846,1.651-3.172,1.651c-1.703,0-3.341-1.079-3.341-3.472
		c0-2.184,1.403-3.419,3.236-3.419c1.717,0,2.432,1.027,2.562,1.223c0.533,0.754,0.65,1.885,0.663,2.535h-4.811
		c0.183,1.026,0.819,1.611,1.847,1.611c1.065,0,1.495-0.624,1.689-0.896L279.511,743.791z M277.743,741.165
		c-0.144-1.014-0.768-1.365-1.456-1.365c-0.832,0-1.404,0.481-1.586,1.365H277.743z"/>
	<path style="fill:#E52420;" d="M282.202,738.747v0.923c0.195-0.338,0.624-1.104,2.08-1.065v1.599
		c-0.338,0.013-0.923,0.026-1.403,0.39c-0.663,0.508-0.677,1.17-0.677,2.249v2.405h-1.508v-6.5H282.202z"/>
	<path style="fill:#E52420;" d="M290.549,739.866v2.938c0,0.807,0,1.157,0.74,1.157c0.234,0,0.43-0.013,0.65-0.078v1.313
		c-0.468,0.078-0.78,0.104-1.131,0.104c-0.325,0-1.417,0-1.716-0.793c-0.104-0.26-0.104-0.676-0.104-1.325v-3.315h-0.949v-1.118
		h0.949v-2.301h1.561v2.301h1.391v1.118H290.549z"/>
	<path style="fill:#E52420;" d="M295.891,745.443c-2.028,0-3.38-1.482-3.38-3.472c0-1.988,1.378-3.419,3.315-3.419
		c1.807,0,3.354,1.262,3.367,3.419C299.193,743.999,297.854,745.443,295.891,745.443z M295.812,739.956
		c-0.975,0-1.677,0.78-1.677,1.977c0,1.339,0.819,2.08,1.755,2.08c1.131,0,1.703-0.988,1.664-2.067
		C297.529,740.867,296.905,739.956,295.812,739.956z"/>
	<path style="fill:#E52420;" d="M300.453,738.747h1.572v0.767c0.078-0.116,0.234-0.324,0.508-0.507
		c0.39-0.286,0.987-0.455,1.495-0.455c0.74,0,1.378,0.338,1.703,0.78c0.402,0.546,0.402,1.248,0.402,2.093v3.822h-1.547v-3.314
		c0-0.481,0-0.807-0.052-0.988c-0.144-0.572-0.56-0.871-1.066-0.871s-0.975,0.299-1.196,0.728c-0.247,0.481-0.247,1.145-0.247,1.625
		v2.821h-1.572V738.747z"/>
	<path style="fill:#E52420;" d="M309.307,736.07v3.341c0.494-0.494,1.17-0.858,2.067-0.858c0.806,0,1.43,0.312,1.78,0.702
		c0.533,0.572,0.547,1.235,0.547,1.977v4.017h-1.534v-3.575c-0.026-0.585-0.026-0.728-0.104-0.923
		c-0.052-0.13-0.272-0.715-1.131-0.715c-1.001,0-1.469,0.806-1.573,1.183c-0.052,0.208-0.052,0.312-0.052,1.04v2.99h-1.561v-9.178
		H309.307z"/>
	<path style="fill:#E52420;" d="M315.155,740.659c0.026-0.325,0.053-0.598,0.261-0.976c0.624-1.131,2.171-1.131,2.587-1.131
		c0.624,0,1.378,0.078,1.95,0.416c0.767,0.469,0.779,1.079,0.779,1.781v3.445c0,0.494,0,0.663,0.286,1.053h-1.846
		c-0.013-0.156-0.039-0.416-0.039-0.507c-0.338,0.286-1.027,0.663-1.924,0.663c-1.47,0-2.354-0.91-2.354-2.028
		c0-0.325,0.078-0.624,0.208-0.884c0.468-0.937,1.469-1.145,2.093-1.261c1.34-0.273,1.443-0.3,2.016-0.481
		c0-0.325-0.026-0.988-1.105-0.988c-0.649,0-1.001,0.208-1.157,0.416c-0.169,0.208-0.155,0.391-0.155,0.572L315.155,740.659z
		 M319.173,742.01c-0.312,0.156-0.663,0.273-1.365,0.391c-0.559,0.078-1.3,0.208-1.3,0.896c0,0.508,0.429,0.768,1.053,0.768
		c0.793,0,1.353-0.364,1.521-0.754c0.091-0.195,0.091-0.391,0.091-0.585V742.01z"/>
	<path style="fill:#E52420;" d="M323.983,736.07v9.178h-1.573v-9.178H323.983z"/>
	<path style="fill:#E52420;" d="M327.233,736.07v9.178h-1.573v-9.178H327.233z"/>
	<path style="fill:#E52420;" d="M335.021,743.791c-0.806,1.079-1.846,1.651-3.172,1.651c-1.703,0-3.341-1.079-3.341-3.472
		c0-2.184,1.403-3.419,3.236-3.419c1.717,0,2.432,1.027,2.562,1.223c0.533,0.754,0.65,1.885,0.663,2.535h-4.811
		c0.183,1.026,0.819,1.611,1.847,1.611c1.065,0,1.495-0.624,1.689-0.896L335.021,743.791z M333.253,741.165
		c-0.144-1.014-0.768-1.365-1.456-1.365c-0.832,0-1.404,0.481-1.586,1.365H333.253z"/>
	<path style="fill:#E52420;" d="M339.283,740.438v1.456h-3.224v-1.456H339.283z"/>
	<path style="fill:#E52420;" d="M346.732,738.747v5.33c-0.014,1.287-0.014,1.808-0.416,2.354c-0.364,0.48-1.171,0.987-2.705,0.987
		c-2.313,0-2.769-1.001-2.989-2.041h1.716c0.117,0.377,0.39,0.807,1.326,0.807c0.793,0,1.144-0.312,1.287-0.521
		c0.233-0.325,0.233-0.702,0.233-1.495c-0.338,0.312-1.014,0.702-1.95,0.702c-1.533,0-2.82-1.04-2.82-3.107
		c0-2.418,1.729-3.211,2.925-3.211c1.17,0,1.664,0.638,1.846,0.871v-0.676H346.732z M343.611,739.944
		c-0.793,0-1.599,0.533-1.599,1.781c0,1.131,0.689,1.716,1.612,1.716c0.832,0,1.586-0.455,1.599-1.651
		C345.237,740.737,344.665,739.944,343.611,739.944z"/>
	<path style="fill:#E52420;" d="M354.507,743.791c-0.806,1.079-1.846,1.651-3.172,1.651c-1.703,0-3.341-1.079-3.341-3.472
		c0-2.184,1.403-3.419,3.236-3.419c1.717,0,2.432,1.027,2.562,1.223c0.533,0.754,0.65,1.885,0.663,2.535h-4.811
		c0.183,1.026,0.819,1.611,1.847,1.611c1.065,0,1.495-0.624,1.689-0.896L354.507,743.791z M352.739,741.165
		c-0.144-1.014-0.768-1.365-1.456-1.365c-0.832,0-1.404,0.481-1.586,1.365H352.739z"/>
	<path style="fill:#E52420;" d="M356.3,743.324c0.39,0.481,0.975,0.832,1.872,0.832c0.896,0,1.287-0.442,1.287-0.767
		c0-0.416-0.469-0.521-0.677-0.56c-0.221-0.052-1.287-0.247-1.521-0.312c-1.547-0.364-1.833-1.262-1.833-1.847
		c0-1.104,1.001-2.119,2.782-2.119c0.987,0,1.703,0.312,2.145,0.624c0.325,0.208,0.533,0.43,0.663,0.585l-1.104,1.027
		c-0.183-0.351-0.624-0.988-1.769-0.988c-0.741,0-1.079,0.325-1.079,0.663c0,0.468,0.481,0.599,1.313,0.741
		c1.352,0.247,1.729,0.312,2.145,0.637c0.403,0.312,0.663,0.832,0.663,1.378c0,1.015-0.91,2.224-2.925,2.224
		c-1.157,0-2.301-0.364-3.12-1.157L356.3,743.324z"/>
	<path style="fill:#E52420;" d="M368.585,743.791c-0.806,1.079-1.846,1.651-3.172,1.651c-1.703,0-3.341-1.079-3.341-3.472
		c0-2.184,1.403-3.419,3.236-3.419c1.717,0,2.432,1.027,2.562,1.223c0.533,0.754,0.65,1.885,0.663,2.535h-4.811
		c0.183,1.026,0.819,1.611,1.847,1.611c1.065,0,1.495-0.624,1.689-0.896L368.585,743.791z M366.817,741.165
		c-0.144-1.014-0.768-1.365-1.456-1.365c-0.832,0-1.404,0.481-1.586,1.365H366.817z"/>
	<path style="fill:#E52420;" d="M371.353,736.07v9.178h-1.573v-9.178H371.353z"/>
	<path style="fill:#E52420;" d="M374.603,736.07v9.178h-1.573v-9.178H374.603z"/>
	<path style="fill:#E52420;" d="M376.878,743.324c0.39,0.481,0.975,0.832,1.872,0.832c0.896,0,1.287-0.442,1.287-0.767
		c0-0.416-0.469-0.521-0.677-0.56c-0.221-0.052-1.287-0.247-1.521-0.312c-1.547-0.364-1.833-1.262-1.833-1.847
		c0-1.104,1.001-2.119,2.782-2.119c0.987,0,1.703,0.312,2.145,0.624c0.325,0.208,0.533,0.43,0.663,0.585l-1.104,1.027
		c-0.183-0.351-0.624-0.988-1.769-0.988c-0.741,0-1.079,0.325-1.079,0.663c0,0.468,0.481,0.599,1.313,0.741
		c1.352,0.247,1.729,0.312,2.145,0.637c0.403,0.312,0.663,0.832,0.663,1.378c0,1.015-0.91,2.224-2.925,2.224
		c-1.157,0-2.301-0.364-3.12-1.157L376.878,743.324z"/>
	<path style="fill:#E52420;" d="M387.213,741.048c-0.117-0.429-0.571-1.104-1.469-1.104s-1.612,0.715-1.612,2.015
		c0,1.17,0.611,2.028,1.639,2.028c0.987,0,1.364-0.754,1.56-1.274l1.339,0.702c-0.507,1.404-1.794,2.028-2.925,2.028
		c-1.807,0-3.225-1.392-3.225-3.445c0-1.989,1.431-3.445,3.276-3.445c1.639,0,2.471,1.093,2.809,1.847L387.213,741.048z"/>
	<path style="fill:#E52420;" d="M390.816,736.07v3.341c0.494-0.494,1.17-0.858,2.067-0.858c0.806,0,1.43,0.312,1.78,0.702
		c0.533,0.572,0.547,1.235,0.547,1.977v4.017h-1.534v-3.575c-0.026-0.585-0.026-0.728-0.104-0.923
		c-0.052-0.13-0.272-0.715-1.131-0.715c-1.001,0-1.469,0.806-1.573,1.183c-0.052,0.208-0.052,0.312-0.052,1.04v2.99h-1.561v-9.178
		H390.816z"/>
	<path style="fill:#E52420;" d="M396.666,740.659c0.026-0.325,0.053-0.598,0.261-0.976c0.624-1.131,2.171-1.131,2.587-1.131
		c0.624,0,1.378,0.078,1.95,0.416c0.767,0.469,0.779,1.079,0.779,1.781v3.445c0,0.494,0,0.663,0.286,1.053h-1.846
		c-0.013-0.156-0.039-0.416-0.039-0.507c-0.338,0.286-1.027,0.663-1.924,0.663c-1.47,0-2.354-0.91-2.354-2.028
		c0-0.325,0.078-0.624,0.208-0.884c0.468-0.937,1.469-1.145,2.093-1.261c1.34-0.273,1.443-0.3,2.016-0.481
		c0-0.325-0.026-0.988-1.105-0.988c-0.649,0-1.001,0.208-1.156,0.416c-0.17,0.208-0.156,0.391-0.156,0.572L396.666,740.659z
		 M400.684,742.01c-0.312,0.156-0.663,0.273-1.365,0.391c-0.559,0.078-1.3,0.208-1.3,0.896c0,0.508,0.429,0.768,1.053,0.768
		c0.793,0,1.353-0.364,1.521-0.754c0.091-0.195,0.091-0.391,0.091-0.585V742.01z"/>
	<path style="fill:#E52420;" d="M405.662,739.853v5.395h-1.56v-5.395h-0.976v-1.118h0.976v-0.741
		c-0.014-0.923-0.014-1.938,2.093-1.938c0.312,0,0.598,0.026,0.884,0.053v1.325c-0.13-0.025-0.272-0.039-0.494-0.039
		c-0.416,0-0.663,0.092-0.818,0.325c-0.053,0.091-0.104,0.286-0.104,0.481v0.533h1.417v1.118H405.662z"/>
	<path style="fill:#E52420;" d="M409.705,739.866v2.938c0,0.807,0,1.157,0.74,1.157c0.234,0,0.43-0.013,0.65-0.078v1.313
		c-0.468,0.078-0.78,0.104-1.131,0.104c-0.325,0-1.417,0-1.716-0.793c-0.104-0.26-0.104-0.676-0.104-1.325v-3.315h-0.949v-1.118
		h0.949v-2.301h1.561v2.301h1.391v1.118H409.705z"/>
	<path style="fill:#E52420;" d="M420.702,738.747v1.209l-3.444,3.913h3.444v1.378h-5.563v-1.196l3.51-3.913h-3.159v-1.391H420.702z"
		/>
	<path style="fill:#E52420;" d="M427.957,738.747v6.5h-1.561v-0.663c-0.273,0.261-0.91,0.819-2.106,0.819
		c-1.065,0-1.572-0.455-1.807-0.754c-0.442-0.56-0.442-1.17-0.442-2.146v-3.757h1.573v3.731c0,0.26,0,0.48,0.052,0.649
		c0.17,0.572,0.638,0.819,1.209,0.819c0.65,0,1.054-0.351,1.262-0.689c0.233-0.429,0.247-0.845,0.26-1.755v-2.756H427.957z
		 M424.434,736.07v1.547h-1.469v-1.547H424.434z M427.047,736.07v1.547h-1.47v-1.547H427.047z"/>
	<path style="fill:#E52420;" d="M431.154,738.747v0.923c0.195-0.338,0.624-1.104,2.08-1.065v1.599
		c-0.338,0.013-0.923,0.026-1.404,0.39c-0.662,0.508-0.676,1.17-0.676,2.249v2.405h-1.508v-6.5H431.154z"/>
	<path style="fill:#E52420;" d="M435.809,736.161v1.573h-1.548v-1.573H435.809z M435.809,738.747v6.5h-1.548v-6.5H435.809z"/>
	<path style="fill:#E52420;" d="M441.671,741.048c-0.116-0.429-0.571-1.104-1.469-1.104s-1.612,0.715-1.612,2.015
		c0,1.17,0.611,2.028,1.639,2.028c0.987,0,1.364-0.754,1.56-1.274l1.339,0.702c-0.507,1.404-1.794,2.028-2.925,2.028
		c-1.807,0-3.224-1.392-3.224-3.445c0-1.989,1.43-3.445,3.275-3.445c1.639,0,2.471,1.093,2.809,1.847L441.671,741.048z"/>
	<path style="fill:#E52420;" d="M445.275,736.07v3.341c0.494-0.494,1.17-0.858,2.067-0.858c0.806,0,1.43,0.312,1.78,0.702
		c0.533,0.572,0.547,1.235,0.547,1.977v4.017h-1.534v-3.575c-0.026-0.585-0.026-0.728-0.104-0.923
		c-0.052-0.13-0.272-0.715-1.131-0.715c-1.001,0-1.469,0.806-1.573,1.183c-0.052,0.208-0.052,0.312-0.052,1.04v2.99h-1.561v-9.178
		H445.275z"/>
	<path style="fill:#E52420;" d="M148.179,760.07v9.178h-1.573v-9.178H148.179z"/>
	<path style="fill:#E52420;" d="M155.966,767.791c-0.806,1.079-1.846,1.651-3.172,1.651c-1.703,0-3.341-1.079-3.341-3.472
		c0-2.184,1.403-3.419,3.236-3.419c1.717,0,2.432,1.027,2.562,1.223c0.533,0.754,0.65,1.885,0.663,2.535h-4.811
		c0.183,1.026,0.819,1.611,1.847,1.611c1.065,0,1.495-0.624,1.689-0.896L155.966,767.791z M154.198,765.165
		c-0.144-1.014-0.768-1.365-1.456-1.365c-0.832,0-1.404,0.481-1.586,1.365H154.198z"/>
	<path style="fill:#E52420;" d="M158.709,760.161v1.573h-1.548v-1.573H158.709z M158.709,762.747v6.5h-1.548v-6.5H158.709z"/>
	<path style="fill:#E52420;" d="M162.128,763.866v2.938c0,0.807,0,1.157,0.74,1.157c0.234,0,0.43-0.013,0.65-0.078v1.313
		c-0.468,0.078-0.78,0.104-1.131,0.104c-0.325,0-1.417,0-1.716-0.793c-0.104-0.26-0.104-0.676-0.104-1.325v-3.315h-0.949v-1.118
		h0.949v-2.301h1.561v2.301h1.391v1.118H162.128z"/>
	<path style="fill:#E52420;" d="M170.357,762.747v6.5h-1.561v-0.663c-0.273,0.261-0.91,0.819-2.106,0.819
		c-1.065,0-1.572-0.455-1.807-0.754c-0.442-0.56-0.442-1.17-0.442-2.146v-3.757h1.573v3.731c0,0.26,0,0.48,0.052,0.649
		c0.17,0.572,0.638,0.819,1.209,0.819c0.65,0,1.054-0.351,1.262-0.689c0.233-0.429,0.247-0.845,0.26-1.755v-2.756H170.357z"/>
	<path style="fill:#E52420;" d="M172.034,762.747h1.573v0.767c0.077-0.116,0.233-0.324,0.507-0.507
		c0.39-0.286,0.987-0.455,1.495-0.455c0.74,0,1.378,0.338,1.703,0.78c0.402,0.546,0.402,1.248,0.402,2.093v3.822h-1.547v-3.314
		c0-0.481,0-0.807-0.052-0.988c-0.144-0.572-0.56-0.871-1.066-0.871s-0.975,0.299-1.196,0.728c-0.246,0.481-0.246,1.145-0.246,1.625
		v2.821h-1.573V762.747z"/>
	<path style="fill:#E52420;" d="M185.281,762.747v5.33c-0.014,1.287-0.014,1.808-0.416,2.354c-0.364,0.48-1.171,0.987-2.705,0.987
		c-2.313,0-2.769-1.001-2.989-2.041h1.716c0.117,0.377,0.39,0.807,1.326,0.807c0.793,0,1.144-0.312,1.287-0.521
		c0.233-0.325,0.233-0.702,0.233-1.495c-0.338,0.312-1.014,0.702-1.95,0.702c-1.533,0-2.82-1.04-2.82-3.107
		c0-2.418,1.729-3.211,2.925-3.211c1.17,0,1.664,0.638,1.846,0.871v-0.676H185.281z M182.16,763.944
		c-0.793,0-1.599,0.533-1.599,1.781c0,1.131,0.689,1.716,1.612,1.716c0.832,0,1.586-0.455,1.599-1.651
		C183.786,764.737,183.214,763.944,182.16,763.944z"/>
	<path style="fill:#E52420;" d="M196.577,767.791c-0.806,1.079-1.846,1.651-3.172,1.651c-1.703,0-3.341-1.079-3.341-3.472
		c0-2.184,1.403-3.419,3.236-3.419c1.717,0,2.432,1.027,2.562,1.223c0.533,0.754,0.65,1.885,0.663,2.535h-4.811
		c0.183,1.026,0.819,1.611,1.847,1.611c1.065,0,1.495-0.624,1.689-0.896L196.577,767.791z M194.81,765.165
		c-0.144-1.014-0.768-1.365-1.456-1.365c-0.832,0-1.404,0.481-1.586,1.365H194.81z"/>
	<path style="fill:#E52420;" d="M199.268,762.747v0.923c0.195-0.338,0.624-1.104,2.08-1.065v1.599
		c-0.338,0.013-0.923,0.026-1.404,0.39c-0.662,0.508-0.676,1.17-0.676,2.249v2.405h-1.508v-6.5H199.268z"/>
	<path style="fill:#E52420;" d="M202.349,762.747h1.573v0.767c0.077-0.116,0.233-0.324,0.507-0.507
		c0.39-0.286,0.987-0.455,1.495-0.455c0.74,0,1.378,0.338,1.703,0.78c0.402,0.546,0.402,1.248,0.402,2.093v3.822h-1.547v-3.314
		c0-0.481,0-0.807-0.052-0.988c-0.144-0.572-0.56-0.871-1.066-0.871s-0.975,0.299-1.196,0.728c-0.246,0.481-0.246,1.145-0.246,1.625
		v2.821h-1.573V762.747z"/>
	<path style="fill:#E52420;" d="M215.79,767.791c-0.806,1.079-1.846,1.651-3.172,1.651c-1.703,0-3.341-1.079-3.341-3.472
		c0-2.184,1.403-3.419,3.236-3.419c1.717,0,2.432,1.027,2.562,1.223c0.533,0.754,0.65,1.885,0.663,2.535h-4.811
		c0.183,1.026,0.819,1.611,1.847,1.611c1.065,0,1.495-0.624,1.689-0.896L215.79,767.791z M214.022,765.165
		c-0.144-1.014-0.768-1.365-1.456-1.365c-0.832,0-1.404,0.481-1.586,1.365H214.022z"/>
	<path style="fill:#E52420;" d="M217.584,767.324c0.39,0.481,0.975,0.832,1.872,0.832c0.896,0,1.287-0.442,1.287-0.767
		c0-0.416-0.469-0.521-0.677-0.56c-0.221-0.052-1.287-0.247-1.521-0.312c-1.547-0.364-1.833-1.262-1.833-1.847
		c0-1.104,1.001-2.119,2.782-2.119c0.987,0,1.703,0.312,2.145,0.624c0.325,0.208,0.533,0.43,0.663,0.585l-1.104,1.027
		c-0.183-0.351-0.624-0.988-1.769-0.988c-0.741,0-1.079,0.325-1.079,0.663c0,0.468,0.481,0.599,1.313,0.741
		c1.352,0.247,1.729,0.312,2.145,0.637c0.403,0.312,0.663,0.832,0.663,1.378c0,1.015-0.91,2.224-2.925,2.224
		c-1.157,0-2.301-0.364-3.12-1.157L217.584,767.324z"/>
	<path style="fill:#E52420;" d="M225.475,763.866v2.938c0,0.807,0,1.157,0.74,1.157c0.234,0,0.43-0.013,0.65-0.078v1.313
		c-0.468,0.078-0.78,0.104-1.131,0.104c-0.325,0-1.417,0-1.716-0.793c-0.104-0.26-0.104-0.676-0.104-1.325v-3.315h-0.949v-1.118
		h0.949v-2.301h1.561v2.301h1.391v1.118H225.475z"/>
	<path style="fill:#E52420;" d="M232.884,760.07v3.224c0.521-0.48,1.17-0.741,1.886-0.741c1.469,0,2.847,1.353,2.847,3.419
		c0,2.119-1.404,3.472-2.951,3.472c-0.858,0-1.443-0.481-1.781-0.871v0.676h-1.547v-9.178H232.884z M234.392,763.969
		c-0.701,0-1.533,0.533-1.533,1.925c0,0.402,0.052,0.676,0.104,0.832c0.312,1.234,1.365,1.234,1.495,1.234
		c1.145,0,1.521-1.157,1.547-2.015C236.043,764.659,235.237,763.969,234.392,763.969z"/>
	<path style="fill:#E52420;" d="M242.191,769.443c-2.028,0-3.38-1.482-3.38-3.472c0-1.988,1.378-3.419,3.315-3.419
		c1.807,0,3.354,1.262,3.367,3.419C245.494,767.999,244.154,769.443,242.191,769.443z M242.113,763.956
		c-0.975,0-1.677,0.78-1.677,1.977c0,1.339,0.819,2.08,1.755,2.08c1.131,0,1.703-0.988,1.664-2.067
		C243.83,764.867,243.206,763.956,242.113,763.956z"/>
	<path style="fill:#E52420;" d="M252.658,762.747v6.5h-1.561v-0.663c-0.273,0.261-0.91,0.819-2.106,0.819
		c-1.065,0-1.572-0.455-1.807-0.754c-0.442-0.56-0.442-1.17-0.442-2.146v-3.757h1.573v3.731c0,0.26,0,0.48,0.052,0.649
		c0.17,0.572,0.638,0.819,1.209,0.819c0.65,0,1.054-0.351,1.262-0.689c0.233-0.429,0.247-0.845,0.26-1.755v-2.756H252.658z"/>
	<path style="fill:#E52420;" d="M255.854,762.747v0.923c0.195-0.338,0.624-1.104,2.08-1.065v1.599
		c-0.338,0.013-0.923,0.026-1.403,0.39c-0.663,0.508-0.677,1.17-0.677,2.249v2.405h-1.508v-6.5H255.854z"/>
	<path style="fill:#E52420;" d="M175.392,781.324c0.39,0.481,0.975,0.832,1.872,0.832c0.896,0,1.287-0.442,1.287-0.767
		c0-0.416-0.469-0.521-0.677-0.56c-0.221-0.052-1.287-0.247-1.521-0.312c-1.547-0.364-1.833-1.262-1.833-1.847
		c0-1.104,1.001-2.119,2.782-2.119c0.987,0,1.703,0.312,2.145,0.624c0.325,0.208,0.533,0.43,0.663,0.585l-1.104,1.027
		c-0.183-0.351-0.624-0.988-1.769-0.988c-0.741,0-1.079,0.325-1.079,0.663c0,0.468,0.481,0.599,1.313,0.741
		c1.352,0.247,1.729,0.312,2.145,0.637c0.403,0.312,0.663,0.832,0.663,1.378c0,1.015-0.91,2.224-2.925,2.224
		c-1.157,0-2.301-0.364-3.12-1.157L175.392,781.324z"/>
	<path style="fill:#E52420;" d="M184.557,783.443c-2.028,0-3.38-1.482-3.38-3.472c0-1.988,1.378-3.419,3.315-3.419
		c1.807,0,3.354,1.262,3.367,3.419C187.859,781.999,186.52,783.443,184.557,783.443z M184.479,777.956
		c-0.975,0-1.677,0.78-1.677,1.977c0,1.339,0.819,2.08,1.755,2.08c1.131,0,1.703-0.988,1.664-2.067
		C186.195,778.867,185.571,777.956,184.479,777.956z"/>
	<path style="fill:#E52420;" d="M190.719,774.07v9.178h-1.573v-9.178H190.719z"/>
	<path style="fill:#E52420;" d="M193.943,774.161v1.573h-1.548v-1.573H193.943z M193.943,776.747v6.5h-1.548v-6.5H193.943z"/>
	<path style="fill:#E52420;" d="M196.244,781.324c0.39,0.481,0.975,0.832,1.872,0.832c0.896,0,1.287-0.442,1.287-0.767
		c0-0.416-0.469-0.521-0.677-0.56c-0.221-0.052-1.287-0.247-1.521-0.312c-1.547-0.364-1.833-1.262-1.833-1.847
		c0-1.104,1.001-2.119,2.782-2.119c0.987,0,1.703,0.312,2.145,0.624c0.325,0.208,0.533,0.43,0.663,0.585l-1.104,1.027
		c-0.183-0.351-0.624-0.988-1.769-0.988c-0.741,0-1.079,0.325-1.079,0.663c0,0.468,0.481,0.599,1.313,0.741
		c1.352,0.247,1.729,0.312,2.145,0.637c0.403,0.312,0.663,0.832,0.663,1.378c0,1.015-0.91,2.224-2.925,2.224
		c-1.157,0-2.301-0.364-3.12-1.157L196.244,781.324z"/>
	<path style="fill:#E52420;" d="M204.135,777.866v2.938c0,0.807,0,1.157,0.74,1.157c0.234,0,0.43-0.013,0.65-0.078v1.313
		c-0.468,0.078-0.78,0.104-1.131,0.104c-0.325,0-1.417,0-1.716-0.793c-0.104-0.26-0.104-0.676-0.104-1.325v-3.315h-0.949v-1.118
		h0.949v-2.301h1.561v2.301h1.391v1.118H204.135z"/>
	<path style="fill:#E52420;" d="M211.531,774.07v3.341c0.494-0.494,1.17-0.858,2.067-0.858c0.806,0,1.43,0.312,1.78,0.702
		c0.533,0.572,0.547,1.235,0.547,1.977v4.017h-1.534v-3.575c-0.026-0.585-0.026-0.728-0.104-0.923
		c-0.052-0.13-0.272-0.715-1.131-0.715c-1.001,0-1.469,0.806-1.573,1.183c-0.052,0.208-0.052,0.312-0.052,1.04v2.99h-1.561v-9.178
		H211.531z"/>
	<path style="fill:#E52420;" d="M217.381,778.659c0.026-0.325,0.053-0.598,0.261-0.976c0.624-1.131,2.171-1.131,2.587-1.131
		c0.624,0,1.378,0.078,1.95,0.416c0.767,0.469,0.779,1.079,0.779,1.781v3.445c0,0.494,0,0.663,0.286,1.053h-1.846
		c-0.013-0.156-0.039-0.416-0.039-0.507c-0.338,0.286-1.027,0.663-1.924,0.663c-1.47,0-2.354-0.91-2.354-2.028
		c0-0.325,0.078-0.624,0.208-0.884c0.468-0.937,1.469-1.145,2.093-1.261c1.34-0.273,1.443-0.3,2.016-0.481
		c0-0.325-0.026-0.988-1.105-0.988c-0.649,0-1.001,0.208-1.156,0.416c-0.17,0.208-0.156,0.391-0.156,0.572L217.381,778.659z
		 M221.398,780.01c-0.312,0.156-0.663,0.273-1.365,0.391c-0.559,0.078-1.3,0.208-1.3,0.896c0,0.508,0.429,0.768,1.053,0.768
		c0.793,0,1.353-0.364,1.521-0.754c0.091-0.195,0.091-0.391,0.091-0.585V780.01z"/>
	<path style="fill:#E52420;" d="M224.609,776.747h1.572v0.767c0.078-0.116,0.234-0.324,0.508-0.507
		c0.39-0.286,0.987-0.455,1.495-0.455c0.74,0,1.378,0.338,1.703,0.78c0.402,0.546,0.402,1.248,0.402,2.093v3.822h-1.547v-3.314
		c0-0.481,0-0.807-0.052-0.988c-0.144-0.572-0.56-0.871-1.066-0.871s-0.975,0.299-1.196,0.728c-0.247,0.481-0.247,1.145-0.247,1.625
		v2.821h-1.572V776.747z"/>
	<path style="fill:#E52420;" d="M232.539,781.324c0.39,0.481,0.975,0.832,1.872,0.832c0.896,0,1.287-0.442,1.287-0.767
		c0-0.416-0.469-0.521-0.677-0.56c-0.221-0.052-1.287-0.247-1.521-0.312c-1.547-0.364-1.833-1.262-1.833-1.847
		c0-1.104,1.001-2.119,2.782-2.119c0.987,0,1.703,0.312,2.145,0.624c0.325,0.208,0.533,0.43,0.663,0.585l-1.104,1.027
		c-0.183-0.351-0.624-0.988-1.769-0.988c-0.741,0-1.079,0.325-1.079,0.663c0,0.468,0.481,0.599,1.313,0.741
		c1.352,0.247,1.729,0.312,2.145,0.637c0.403,0.312,0.663,0.832,0.663,1.378c0,1.015-0.91,2.224-2.925,2.224
		c-1.157,0-2.301-0.364-3.12-1.157L232.539,781.324z"/>
	<path style="fill:#E52420;" d="M240.234,774.07v3.341c0.494-0.494,1.17-0.858,2.067-0.858c0.806,0,1.43,0.312,1.78,0.702
		c0.533,0.572,0.547,1.235,0.547,1.977v4.017h-1.534v-3.575c-0.026-0.585-0.026-0.728-0.104-0.923
		c-0.052-0.13-0.272-0.715-1.131-0.715c-1.001,0-1.469,0.806-1.573,1.183c-0.052,0.208-0.052,0.312-0.052,1.04v2.99h-1.561v-9.178
		H240.234z"/>
	<path style="fill:#E52420;" d="M252.402,781.791c-0.806,1.079-1.846,1.651-3.172,1.651c-1.703,0-3.341-1.079-3.341-3.472
		c0-2.184,1.403-3.419,3.236-3.419c1.717,0,2.432,1.027,2.562,1.223c0.533,0.754,0.65,1.885,0.663,2.535h-4.811
		c0.183,1.026,0.819,1.611,1.847,1.611c1.065,0,1.495-0.624,1.689-0.896L252.402,781.791z M250.635,779.165
		c-0.144-1.014-0.768-1.365-1.456-1.365c-0.832,0-1.404,0.481-1.586,1.365H250.635z"/>
	<path style="fill:#E52420;" d="M255.145,774.161v1.573h-1.547v-1.573H255.145z M255.145,776.747v6.5h-1.547v-6.5H255.145z"/>
	<path style="fill:#E52420;" d="M256.822,776.747h1.572v0.767c0.078-0.116,0.234-0.324,0.508-0.507
		c0.39-0.286,0.987-0.455,1.495-0.455c0.74,0,1.378,0.338,1.703,0.78c0.402,0.546,0.402,1.248,0.402,2.093v3.822h-1.547v-3.314
		c0-0.481,0-0.807-0.052-0.988c-0.144-0.572-0.56-0.871-1.066-0.871s-0.975,0.299-1.196,0.728c-0.247,0.481-0.247,1.145-0.247,1.625
		v2.821h-1.572V776.747z"/>
	<path style="fill:#E52420;" d="M269.275,776.747v1.209l-3.444,3.913h3.444v1.378h-5.563v-1.196l3.51-3.913h-3.159v-1.391H269.275z"
		/>
	<path style="fill:#E52420;" d="M274.774,781.324c0.39,0.481,0.975,0.832,1.872,0.832c0.896,0,1.287-0.442,1.287-0.767
		c0-0.416-0.469-0.521-0.677-0.56c-0.221-0.052-1.287-0.247-1.521-0.312c-1.547-0.364-1.833-1.262-1.833-1.847
		c0-1.104,1.001-2.119,2.782-2.119c0.987,0,1.703,0.312,2.145,0.624c0.325,0.208,0.533,0.43,0.663,0.585l-1.104,1.027
		c-0.183-0.351-0.624-0.988-1.769-0.988c-0.741,0-1.079,0.325-1.079,0.663c0,0.468,0.481,0.599,1.313,0.741
		c1.352,0.247,1.729,0.312,2.145,0.637c0.403,0.312,0.663,0.832,0.663,1.378c0,1.015-0.91,2.224-2.925,2.224
		c-1.157,0-2.301-0.364-3.12-1.157L274.774,781.324z"/>
	<path style="fill:#E52420;" d="M285.109,779.048c-0.117-0.429-0.571-1.104-1.469-1.104s-1.612,0.715-1.612,2.015
		c0,1.17,0.611,2.028,1.639,2.028c0.987,0,1.364-0.754,1.56-1.274l1.339,0.702c-0.507,1.404-1.794,2.028-2.925,2.028
		c-1.807,0-3.225-1.392-3.225-3.445c0-1.989,1.431-3.445,3.276-3.445c1.639,0,2.471,1.093,2.809,1.847L285.109,779.048z"/>
	<path style="fill:#E52420;" d="M288.714,774.07v3.341c0.494-0.494,1.17-0.858,2.067-0.858c0.806,0,1.43,0.312,1.78,0.702
		c0.533,0.572,0.546,1.235,0.546,1.977v4.017h-1.533v-3.575c-0.026-0.585-0.026-0.728-0.104-0.923
		c-0.052-0.13-0.272-0.715-1.131-0.715c-1.001,0-1.469,0.806-1.573,1.183c-0.052,0.208-0.052,0.312-0.052,1.04v2.99h-1.561v-9.178
		H288.714z"/>
	<path style="fill:#E52420;" d="M294.746,776.747h1.572v0.767c0.078-0.116,0.234-0.324,0.508-0.507
		c0.39-0.286,0.987-0.455,1.495-0.455c0.74,0,1.378,0.338,1.703,0.78c0.402,0.546,0.402,1.248,0.402,2.093v3.822h-1.547v-3.314
		c0-0.481,0-0.807-0.052-0.988c-0.144-0.572-0.56-0.871-1.066-0.871s-0.975,0.299-1.196,0.728c-0.247,0.481-0.247,1.145-0.247,1.625
		v2.821h-1.572V776.747z"/>
	<path style="fill:#E52420;" d="M308.188,781.791c-0.806,1.079-1.846,1.651-3.172,1.651c-1.703,0-3.341-1.079-3.341-3.472
		c0-2.184,1.403-3.419,3.236-3.419c1.717,0,2.432,1.027,2.562,1.223c0.533,0.754,0.65,1.885,0.663,2.535h-4.811
		c0.183,1.026,0.819,1.611,1.847,1.611c1.065,0,1.495-0.624,1.689-0.896L308.188,781.791z M306.42,779.165
		c-0.144-1.014-0.768-1.365-1.456-1.365c-0.832,0-1.404,0.481-1.586,1.365H306.42z"/>
	<path style="fill:#E52420;" d="M315.493,781.791c-0.806,1.079-1.846,1.651-3.172,1.651c-1.703,0-3.341-1.079-3.341-3.472
		c0-2.184,1.403-3.419,3.236-3.419c1.717,0,2.432,1.027,2.562,1.223c0.533,0.754,0.65,1.885,0.663,2.535h-4.811
		c0.183,1.026,0.819,1.611,1.847,1.611c1.065,0,1.495-0.624,1.689-0.896L315.493,781.791z M313.726,779.165
		c-0.144-1.014-0.768-1.365-1.456-1.365c-0.832,0-1.404,0.481-1.586,1.365H313.726z"/>
	<path style="fill:#E52420;" d="M318.223,774.07v3.224c0.521-0.48,1.17-0.741,1.885-0.741c1.47,0,2.848,1.353,2.848,3.419
		c0,2.119-1.404,3.472-2.951,3.472c-0.858,0-1.443-0.481-1.781-0.871v0.676h-1.547v-9.178H318.223z M319.73,777.969
		c-0.701,0-1.533,0.533-1.533,1.925c0,0.402,0.052,0.676,0.104,0.832c0.312,1.234,1.365,1.234,1.495,1.234
		c1.144,0,1.521-1.157,1.547-2.015C321.382,778.659,320.576,777.969,319.73,777.969z"/>
	<path style="fill:#E52420;" d="M330.378,781.791c-0.806,1.079-1.846,1.651-3.172,1.651c-1.703,0-3.341-1.079-3.341-3.472
		c0-2.184,1.403-3.419,3.236-3.419c1.717,0,2.432,1.027,2.562,1.223c0.533,0.754,0.65,1.885,0.663,2.535h-4.811
		c0.183,1.026,0.819,1.611,1.847,1.611c1.065,0,1.495-0.624,1.689-0.896L330.378,781.791z M328.61,779.165
		c-0.144-1.014-0.768-1.365-1.456-1.365c-0.832,0-1.404,0.481-1.586,1.365H328.61z"/>
	<path style="fill:#E52420;" d="M333.068,776.747v0.923c0.195-0.338,0.624-1.104,2.08-1.065v1.599
		c-0.338,0.013-0.923,0.026-1.404,0.39c-0.662,0.508-0.676,1.17-0.676,2.249v2.405h-1.508v-6.5H333.068z"/>
	<path style="fill:#E52420;" d="M341.834,776.747v5.33c-0.014,1.287-0.014,1.808-0.416,2.354c-0.364,0.48-1.171,0.987-2.705,0.987
		c-2.313,0-2.769-1.001-2.989-2.041h1.716c0.117,0.377,0.39,0.807,1.326,0.807c0.793,0,1.144-0.312,1.287-0.521
		c0.233-0.325,0.233-0.702,0.233-1.495c-0.338,0.312-1.014,0.702-1.95,0.702c-1.533,0-2.82-1.04-2.82-3.107
		c0-2.418,1.729-3.211,2.925-3.211c1.17,0,1.664,0.638,1.846,0.871v-0.676H341.834z M338.713,777.944
		c-0.793,0-1.599,0.533-1.599,1.781c0,1.131,0.689,1.716,1.612,1.716c0.832,0,1.586-0.455,1.599-1.651
		C340.339,778.737,339.767,777.944,338.713,777.944z"/>
	<path style="fill:#E52420;" d="M349.606,781.791c-0.806,1.079-1.846,1.651-3.172,1.651c-1.703,0-3.341-1.079-3.341-3.472
		c0-2.184,1.403-3.419,3.236-3.419c1.717,0,2.432,1.027,2.562,1.223c0.533,0.754,0.65,1.885,0.663,2.535h-4.811
		c0.183,1.026,0.819,1.611,1.847,1.611c1.065,0,1.495-0.624,1.689-0.896L349.606,781.791z M347.839,779.165
		c-0.144-1.014-0.768-1.365-1.456-1.365c-0.832,0-1.404,0.481-1.586,1.365H347.839z"/>
	<path style="fill:#E52420;" d="M352.298,776.747v0.923c0.195-0.338,0.624-1.104,2.08-1.065v1.599
		c-0.338,0.013-0.923,0.026-1.403,0.39c-0.663,0.508-0.677,1.17-0.677,2.249v2.405h-1.508v-6.5H352.298z"/>
	<path style="fill:#E52420;" d="M206.736,797.443c-2.028,0-3.38-1.482-3.38-3.472c0-1.988,1.378-3.419,3.315-3.419
		c1.807,0,3.354,1.262,3.367,3.419C210.039,795.999,208.699,797.443,206.736,797.443z M206.658,791.956
		c-0.975,0-1.677,0.78-1.677,1.977c0,1.339,0.819,2.08,1.755,2.08c1.131,0,1.703-0.988,1.664-2.067
		C208.375,792.867,207.751,791.956,206.658,791.956z"/>
	<path style="fill:#E52420;" d="M212.82,790.747v0.923c0.195-0.338,0.624-1.104,2.08-1.065v1.599
		c-0.338,0.013-0.923,0.026-1.404,0.39c-0.662,0.508-0.676,1.17-0.676,2.249v2.405h-1.508v-6.5H212.82z"/>
	<path style="fill:#E52420;" d="M219.83,793.048c-0.117-0.429-0.571-1.104-1.469-1.104s-1.612,0.715-1.612,2.015
		c0,1.17,0.611,2.028,1.639,2.028c0.987,0,1.364-0.754,1.56-1.274l1.339,0.702c-0.507,1.404-1.794,2.028-2.925,2.028
		c-1.807,0-3.225-1.392-3.225-3.445c0-1.989,1.431-3.445,3.276-3.445c1.639,0,2.471,1.093,2.809,1.847L219.83,793.048z"/>
	<path style="fill:#E52420;" d="M223.434,788.07v3.341c0.494-0.494,1.17-0.858,2.067-0.858c0.806,0,1.43,0.312,1.78,0.702
		c0.533,0.572,0.547,1.235,0.547,1.977v4.017h-1.534v-3.575c-0.026-0.585-0.026-0.728-0.104-0.923
		c-0.052-0.13-0.272-0.715-1.131-0.715c-1.001,0-1.469,0.806-1.573,1.183c-0.052,0.208-0.052,0.312-0.052,1.04v2.99h-1.561v-9.178
		H223.434z"/>
	<path style="fill:#E52420;" d="M235.603,795.791c-0.806,1.079-1.846,1.651-3.172,1.651c-1.703,0-3.341-1.079-3.341-3.472
		c0-2.184,1.403-3.419,3.236-3.419c1.717,0,2.432,1.027,2.562,1.223c0.533,0.754,0.65,1.885,0.663,2.535h-4.811
		c0.183,1.026,0.819,1.611,1.847,1.611c1.065,0,1.495-0.624,1.689-0.896L235.603,795.791z M233.835,793.165
		c-0.144-1.014-0.768-1.365-1.456-1.365c-0.832,0-1.404,0.481-1.586,1.365H233.835z"/>
	<path style="fill:#E52420;" d="M237.396,795.324c0.39,0.481,0.975,0.832,1.872,0.832c0.896,0,1.287-0.442,1.287-0.767
		c0-0.416-0.469-0.521-0.677-0.56c-0.221-0.052-1.287-0.247-1.521-0.312c-1.547-0.364-1.833-1.262-1.833-1.847
		c0-1.104,1.001-2.119,2.782-2.119c0.987,0,1.703,0.312,2.145,0.624c0.325,0.208,0.533,0.43,0.663,0.585l-1.104,1.027
		c-0.183-0.351-0.624-0.988-1.769-0.988c-0.741,0-1.079,0.325-1.079,0.663c0,0.468,0.481,0.599,1.313,0.741
		c1.352,0.247,1.729,0.312,2.145,0.637c0.403,0.312,0.663,0.832,0.663,1.378c0,1.015-0.91,2.224-2.925,2.224
		c-1.157,0-2.301-0.364-3.12-1.157L237.396,795.324z"/>
	<path style="fill:#E52420;" d="M245.287,791.866v2.938c0,0.807,0,1.157,0.74,1.157c0.234,0,0.43-0.013,0.65-0.078v1.313
		c-0.468,0.078-0.78,0.104-1.131,0.104c-0.325,0-1.417,0-1.716-0.793c-0.104-0.26-0.104-0.676-0.104-1.325v-3.315h-0.949v-1.118
		h0.949v-2.301h1.561v2.301h1.391v1.118H245.287z"/>
	<path style="fill:#E52420;" d="M253.749,795.791c-0.806,1.079-1.846,1.651-3.172,1.651c-1.703,0-3.341-1.079-3.341-3.472
		c0-2.184,1.403-3.419,3.236-3.419c1.717,0,2.432,1.027,2.562,1.223c0.533,0.754,0.65,1.885,0.663,2.535h-4.811
		c0.183,1.026,0.819,1.611,1.847,1.611c1.065,0,1.495-0.624,1.689-0.896L253.749,795.791z M251.981,793.165
		c-0.144-1.014-0.768-1.365-1.456-1.365c-0.832,0-1.404,0.481-1.586,1.365H251.981z"/>
	<path style="fill:#E52420;" d="M256.438,790.747v0.923c0.195-0.338,0.624-1.104,2.08-1.065v1.599
		c-0.338,0.013-0.923,0.026-1.403,0.39c-0.663,0.508-0.677,1.17-0.677,2.249v2.405h-1.508v-6.5H256.438z"/>
	<path style="fill:#E52420;" d="M264.785,791.866v2.938c0,0.807,0,1.157,0.74,1.157c0.234,0,0.43-0.013,0.65-0.078v1.313
		c-0.468,0.078-0.78,0.104-1.131,0.104c-0.325,0-1.417,0-1.716-0.793c-0.104-0.26-0.104-0.676-0.104-1.325v-3.315h-0.949v-1.118
		h0.949v-2.301h1.561v2.301h1.391v1.118H264.785z"/>
	<path style="fill:#E52420;" d="M270.127,797.443c-2.028,0-3.38-1.482-3.38-3.472c0-1.988,1.378-3.419,3.315-3.419
		c1.807,0,3.354,1.262,3.367,3.419C273.43,795.999,272.09,797.443,270.127,797.443z M270.049,791.956
		c-0.975,0-1.677,0.78-1.677,1.977c0,1.339,0.819,2.08,1.755,2.08c1.131,0,1.703-0.988,1.664-2.067
		C271.766,792.867,271.142,791.956,270.049,791.956z"/>
	<path style="fill:#E52420;" d="M274.689,790.747h1.572v0.767c0.078-0.116,0.234-0.324,0.508-0.507
		c0.39-0.286,0.987-0.455,1.495-0.455c0.74,0,1.378,0.338,1.703,0.78c0.402,0.546,0.402,1.248,0.402,2.093v3.822h-1.547v-3.314
		c0-0.481,0-0.807-0.052-0.988c-0.144-0.572-0.56-0.871-1.066-0.871s-0.975,0.299-1.196,0.728c-0.247,0.481-0.247,1.145-0.247,1.625
		v2.821h-1.572V790.747z"/>
	<path style="fill:#E52420;" d="M283.543,788.07v3.341c0.494-0.494,1.17-0.858,2.067-0.858c0.806,0,1.43,0.312,1.78,0.702
		c0.533,0.572,0.547,1.235,0.547,1.977v4.017h-1.534v-3.575c-0.026-0.585-0.026-0.728-0.104-0.923
		c-0.052-0.13-0.272-0.715-1.131-0.715c-1.001,0-1.469,0.806-1.573,1.183c-0.052,0.208-0.052,0.312-0.052,1.04v2.99h-1.561v-9.178
		H283.543z"/>
	<path style="fill:#E52420;" d="M289.392,792.659c0.026-0.325,0.053-0.598,0.261-0.976c0.624-1.131,2.171-1.131,2.587-1.131
		c0.624,0,1.378,0.078,1.95,0.416c0.767,0.469,0.779,1.079,0.779,1.781v3.445c0,0.494,0,0.663,0.286,1.053h-1.846
		c-0.013-0.156-0.039-0.416-0.039-0.507c-0.338,0.286-1.027,0.663-1.924,0.663c-1.47,0-2.354-0.91-2.354-2.028
		c0-0.325,0.078-0.624,0.208-0.884c0.468-0.937,1.469-1.145,2.093-1.261c1.34-0.273,1.443-0.3,2.016-0.481
		c0-0.325-0.026-0.988-1.105-0.988c-0.649,0-1.001,0.208-1.157,0.416c-0.169,0.208-0.155,0.391-0.155,0.572L289.392,792.659z
		 M293.409,794.01c-0.312,0.156-0.663,0.273-1.365,0.391c-0.559,0.078-1.3,0.208-1.3,0.896c0,0.508,0.429,0.768,1.053,0.768
		c0.793,0,1.353-0.364,1.521-0.754c0.091-0.195,0.091-0.391,0.091-0.585V794.01z"/>
	<path style="fill:#E52420;" d="M298.22,788.07v9.178h-1.573v-9.178H298.22z"/>
	<path style="fill:#E52420;" d="M301.47,788.07v9.178h-1.573v-9.178H301.47z"/>
	<path style="fill:#E52420;" d="M309.257,795.791c-0.806,1.079-1.846,1.651-3.172,1.651c-1.703,0-3.341-1.079-3.341-3.472
		c0-2.184,1.403-3.419,3.236-3.419c1.717,0,2.432,1.027,2.562,1.223c0.533,0.754,0.65,1.885,0.663,2.535h-4.811
		c0.183,1.026,0.819,1.611,1.847,1.611c1.065,0,1.495-0.624,1.689-0.896L309.257,795.791z M307.489,793.165
		c-0.144-1.014-0.768-1.365-1.456-1.365c-0.832,0-1.404,0.481-1.586,1.365H307.489z"/>
	<path style="fill:#E52420;" d="M313.52,792.438v1.456h-3.224v-1.456H313.52z"/>
	<path style="fill:#E52420;" d="M318.043,797.443c-2.028,0-3.38-1.482-3.38-3.472c0-1.988,1.378-3.419,3.315-3.419
		c1.807,0,3.354,1.262,3.367,3.419C321.346,795.999,320.006,797.443,318.043,797.443z M317.965,791.956
		c-0.975,0-1.677,0.78-1.677,1.977c0,1.339,0.819,2.08,1.755,2.08c1.131,0,1.703-0.988,1.664-2.067
		C319.682,792.867,319.058,791.956,317.965,791.956z"/>
	<path style="fill:#E52420;" d="M324.128,790.747v0.923c0.195-0.338,0.624-1.104,2.08-1.065v1.599
		c-0.338,0.013-0.923,0.026-1.403,0.39c-0.663,0.508-0.677,1.17-0.677,2.249v2.405h-1.508v-6.5H324.128z"/>
	<path style="fill:#E52420;" d="M331.137,793.048c-0.117-0.429-0.571-1.104-1.469-1.104s-1.612,0.715-1.612,2.015
		c0,1.17,0.611,2.028,1.639,2.028c0.987,0,1.364-0.754,1.56-1.274l1.339,0.702c-0.507,1.404-1.794,2.028-2.925,2.028
		c-1.807,0-3.225-1.392-3.225-3.445c0-1.989,1.431-3.445,3.276-3.445c1.639,0,2.471,1.093,2.809,1.847L331.137,793.048z"/>
	<path style="fill:#E52420;" d="M334.741,788.07v3.341c0.494-0.494,1.17-0.858,2.067-0.858c0.806,0,1.43,0.312,1.78,0.702
		c0.533,0.572,0.546,1.235,0.546,1.977v4.017h-1.533v-3.575c-0.026-0.585-0.026-0.728-0.104-0.923
		c-0.052-0.13-0.272-0.715-1.131-0.715c-1.001,0-1.469,0.806-1.573,1.183c-0.052,0.208-0.052,0.312-0.052,1.04v2.99h-1.561v-9.178
		H334.741z"/>
	<path style="fill:#E52420;" d="M346.909,795.791c-0.806,1.079-1.846,1.651-3.172,1.651c-1.703,0-3.341-1.079-3.341-3.472
		c0-2.184,1.403-3.419,3.236-3.419c1.717,0,2.432,1.027,2.562,1.223c0.533,0.754,0.65,1.885,0.663,2.535h-4.811
		c0.183,1.026,0.819,1.611,1.847,1.611c1.065,0,1.495-0.624,1.689-0.896L346.909,795.791z M345.142,793.165
		c-0.144-1.014-0.768-1.365-1.456-1.365c-0.832,0-1.404,0.481-1.586,1.365H345.142z"/>
	<path style="fill:#E52420;" d="M348.703,795.324c0.39,0.481,0.975,0.832,1.872,0.832c0.896,0,1.287-0.442,1.287-0.767
		c0-0.416-0.469-0.521-0.677-0.56c-0.221-0.052-1.287-0.247-1.521-0.312c-1.547-0.364-1.833-1.262-1.833-1.847
		c0-1.104,1.001-2.119,2.782-2.119c0.987,0,1.703,0.312,2.145,0.624c0.325,0.208,0.533,0.43,0.663,0.585l-1.104,1.027
		c-0.183-0.351-0.624-0.988-1.769-0.988c-0.741,0-1.079,0.325-1.079,0.663c0,0.468,0.481,0.599,1.313,0.741
		c1.352,0.247,1.729,0.312,2.145,0.637c0.403,0.312,0.663,0.832,0.663,1.378c0,1.015-0.91,2.224-2.925,2.224
		c-1.157,0-2.301-0.364-3.12-1.157L348.703,795.324z"/>
	<path style="fill:#E52420;" d="M356.595,791.866v2.938c0,0.807,0,1.157,0.74,1.157c0.234,0,0.43-0.013,0.65-0.078v1.313
		c-0.468,0.078-0.78,0.104-1.131,0.104c-0.325,0-1.417,0-1.716-0.793c-0.104-0.26-0.104-0.676-0.104-1.325v-3.315h-0.949v-1.118
		h0.949v-2.301h1.561v2.301h1.391v1.118H356.595z"/>
	<path style="fill:#E52420;" d="M365.057,795.791c-0.806,1.079-1.846,1.651-3.172,1.651c-1.703,0-3.341-1.079-3.341-3.472
		c0-2.184,1.403-3.419,3.236-3.419c1.717,0,2.432,1.027,2.562,1.223c0.533,0.754,0.65,1.885,0.663,2.535h-4.811
		c0.183,1.026,0.819,1.611,1.847,1.611c1.065,0,1.495-0.624,1.689-0.896L365.057,795.791z M363.289,793.165
		c-0.144-1.014-0.768-1.365-1.456-1.365c-0.832,0-1.404,0.481-1.586,1.365H363.289z"/>
	<path style="fill:#E52420;" d="M367.747,790.747v0.923c0.195-0.338,0.624-1.104,2.08-1.065v1.599
		c-0.338,0.013-0.923,0.026-1.403,0.39c-0.663,0.508-0.677,1.17-0.677,2.249v2.405h-1.508v-6.5H367.747z"/>
	<path style="fill:#E52420;" d="M263.187,812.07v5.161l2.535-2.483h1.989l-2.483,2.483l2.73,4.017h-1.898l-1.963-2.912l-0.91,0.897
		v2.015h-1.547v-9.178H263.187z"/>
	<path style="fill:#E52420;" d="M270.271,812.07v9.178h-1.573v-9.178H270.271z"/>
	<path style="fill:#E52420;" d="M271.74,816.659c0.026-0.325,0.053-0.598,0.261-0.976c0.624-1.131,2.171-1.131,2.587-1.131
		c0.624,0,1.378,0.078,1.95,0.416c0.767,0.469,0.779,1.079,0.779,1.781v3.445c0,0.494,0,0.663,0.286,1.053h-1.846
		c-0.013-0.156-0.039-0.416-0.039-0.507c-0.338,0.286-1.027,0.663-1.924,0.663c-1.47,0-2.354-0.91-2.354-2.028
		c0-0.325,0.078-0.624,0.208-0.884c0.468-0.937,1.469-1.145,2.093-1.261c1.34-0.273,1.443-0.3,2.016-0.481
		c0-0.325-0.026-0.988-1.105-0.988c-0.649,0-1.001,0.208-1.156,0.416c-0.17,0.208-0.156,0.391-0.156,0.572L271.74,816.659z
		 M275.758,818.01c-0.312,0.156-0.663,0.273-1.365,0.391c-0.559,0.078-1.3,0.208-1.3,0.896c0,0.508,0.429,0.768,1.053,0.768
		c0.793,0,1.353-0.364,1.521-0.754c0.091-0.195,0.091-0.391,0.091-0.585V818.01z"/>
	<path style="fill:#E52420;" d="M284.871,814.747v6.5h-1.561v-0.663c-0.273,0.261-0.91,0.819-2.106,0.819
		c-1.065,0-1.572-0.455-1.807-0.754c-0.442-0.56-0.442-1.17-0.442-2.146v-3.757h1.573v3.731c0,0.26,0,0.48,0.052,0.649
		c0.17,0.572,0.638,0.819,1.209,0.819c0.65,0,1.054-0.351,1.262-0.689c0.233-0.429,0.247-0.845,0.26-1.755v-2.756H284.871z"/>
	<path style="fill:#E52420;" d="M287.172,819.324c0.39,0.481,0.975,0.832,1.872,0.832c0.896,0,1.287-0.442,1.287-0.767
		c0-0.416-0.469-0.521-0.677-0.56c-0.221-0.052-1.287-0.247-1.521-0.312c-1.547-0.364-1.833-1.262-1.833-1.847
		c0-1.104,1.001-2.119,2.782-2.119c0.987,0,1.703,0.312,2.145,0.624c0.325,0.208,0.533,0.43,0.663,0.585l-1.104,1.027
		c-0.183-0.351-0.624-0.988-1.769-0.988c-0.741,0-1.079,0.325-1.079,0.663c0,0.468,0.481,0.599,1.313,0.741
		c1.352,0.247,1.729,0.312,2.145,0.637c0.403,0.312,0.663,0.832,0.663,1.378c0,1.015-0.91,2.224-2.925,2.224
		c-1.157,0-2.301-0.364-3.12-1.157L287.172,819.324z"/>
	<path style="fill:#E52420;" d="M298.391,812.07v3.341c0.494-0.494,1.17-0.858,2.067-0.858c0.806,0,1.43,0.312,1.78,0.702
		c0.533,0.572,0.547,1.235,0.547,1.977v4.017h-1.534v-3.575c-0.026-0.585-0.026-0.728-0.104-0.923
		c-0.052-0.13-0.272-0.715-1.131-0.715c-1.001,0-1.469,0.806-1.573,1.183c-0.052,0.208-0.052,0.312-0.052,1.04v2.99h-1.561v-9.178
		H298.391z"/>
	<path style="fill:#E52420;" d="M310.325,814.747v6.5h-1.561v-0.663c-0.272,0.261-0.91,0.819-2.106,0.819
		c-1.065,0-1.572-0.455-1.807-0.754c-0.442-0.56-0.442-1.17-0.442-2.146v-3.757h1.573v3.731c0,0.26,0,0.48,0.052,0.649
		c0.169,0.572,0.638,0.819,1.21,0.819c0.649,0,1.053-0.351,1.261-0.689c0.233-0.429,0.247-0.845,0.26-1.755v-2.756H310.325z"/>
	<path style="fill:#E52420;" d="M313.562,812.07v3.224c0.521-0.48,1.17-0.741,1.886-0.741c1.469,0,2.847,1.353,2.847,3.419
		c0,2.119-1.404,3.472-2.951,3.472c-0.858,0-1.443-0.481-1.781-0.871v0.676h-1.547v-9.178H313.562z M315.069,815.969
		c-0.701,0-1.533,0.533-1.533,1.925c0,0.402,0.052,0.676,0.104,0.832c0.312,1.234,1.365,1.234,1.495,1.234
		c1.145,0,1.521-1.157,1.547-2.015C316.721,816.659,315.915,815.969,315.069,815.969z"/>
	<path style="fill:#E52420;" d="M325.717,819.791c-0.806,1.079-1.846,1.651-3.172,1.651c-1.703,0-3.341-1.079-3.341-3.472
		c0-2.184,1.403-3.419,3.236-3.419c1.717,0,2.432,1.027,2.562,1.223c0.533,0.754,0.65,1.885,0.663,2.535h-4.811
		c0.183,1.026,0.819,1.611,1.847,1.611c1.065,0,1.495-0.624,1.689-0.896L325.717,819.791z M323.949,817.165
		c-0.144-1.014-0.768-1.365-1.456-1.365c-0.832,0-1.404,0.481-1.586,1.365H323.949z"/>
	<path style="fill:#E52420;" d="M328.407,814.747v0.923c0.195-0.338,0.624-1.104,2.08-1.065v1.599
		c-0.338,0.013-0.923,0.026-1.403,0.39c-0.663,0.508-0.677,1.17-0.677,2.249v2.405h-1.508v-6.5H328.407z"/>
	<path style="fill:#E52420;" d="M340.276,814.747l-2.132,6.5h-1.677l-2.106-6.5h1.612l1.352,4.472l1.326-4.472H340.276z"/>
	<path style="fill:#E52420;" d="M342.811,812.161v1.573h-1.547v-1.573H342.811z M342.811,814.747v6.5h-1.547v-6.5H342.811z"/>
	<path style="fill:#E52420;" d="M347.504,821.443c-2.028,0-3.38-1.482-3.38-3.472c0-1.988,1.378-3.419,3.315-3.419
		c1.807,0,3.354,1.262,3.367,3.419C350.807,819.999,349.467,821.443,347.504,821.443z M347.426,815.956
		c-0.975,0-1.677,0.78-1.677,1.977c0,1.339,0.819,2.08,1.755,2.08c1.131,0,1.703-0.988,1.664-2.067
		C349.143,816.867,348.519,815.956,347.426,815.956z"/>
	<path style="fill:#E52420;" d="M353.666,812.07v9.178h-1.573v-9.178H353.666z"/>
	<path style="fill:#E52420;" d="M356.891,812.161v1.573h-1.548v-1.573H356.891z M356.891,814.747v6.5h-1.548v-6.5H356.891z"/>
	<path style="fill:#E52420;" d="M358.567,814.747h1.573v0.767c0.077-0.116,0.233-0.324,0.507-0.507
		c0.39-0.286,0.987-0.455,1.495-0.455c0.74,0,1.378,0.338,1.703,0.78c0.402,0.546,0.402,1.248,0.402,2.093v3.822h-1.547v-3.314
		c0-0.481,0-0.807-0.052-0.988c-0.144-0.572-0.56-0.871-1.066-0.871s-0.975,0.299-1.196,0.728c-0.246,0.481-0.246,1.145-0.246,1.625
		v2.821h-1.573V814.747z"/>
	<path style="fill:#E52420;" d="M367.433,812.07v5.161l2.535-2.483h1.989l-2.483,2.483l2.73,4.017h-1.898l-1.963-2.912l-0.91,0.897
		v2.015h-1.547v-9.178H367.433z"/>
	<path style="fill:#E52420;" d="M375.935,821.443c-2.028,0-3.38-1.482-3.38-3.472c0-1.988,1.378-3.419,3.315-3.419
		c1.807,0,3.354,1.262,3.367,3.419C379.237,819.999,377.897,821.443,375.935,821.443z M375.856,815.956
		c-0.975,0-1.677,0.78-1.677,1.977c0,1.339,0.819,2.08,1.755,2.08c1.131,0,1.703-0.988,1.664-2.067
		C377.573,816.867,376.949,815.956,375.856,815.956z"/>
	<path style="fill:#E52420;" d="M380.498,814.747h1.572v0.767c0.078-0.116,0.234-0.324,0.508-0.507
		c0.39-0.286,0.987-0.455,1.495-0.455c0.74,0,1.378,0.338,1.703,0.78c0.402,0.546,0.402,1.248,0.402,2.093v3.822h-1.547v-3.314
		c0-0.481,0-0.807-0.052-0.988c-0.144-0.572-0.56-0.871-1.066-0.871s-0.975,0.299-1.196,0.728c-0.247,0.481-0.247,1.145-0.247,1.625
		v2.821h-1.572V814.747z"/>
	<path style="fill:#E52420;" d="M392.951,814.747v1.209l-3.444,3.913h3.444v1.378h-5.563v-1.196l3.51-3.913h-3.159v-1.391H392.951z"
		/>
	<path style="fill:#E52420;" d="M400.439,819.791c-0.806,1.079-1.846,1.651-3.172,1.651c-1.703,0-3.341-1.079-3.341-3.472
		c0-2.184,1.403-3.419,3.236-3.419c1.717,0,2.432,1.027,2.562,1.223c0.533,0.754,0.65,1.885,0.663,2.535h-4.811
		c0.183,1.026,0.819,1.611,1.847,1.611c1.065,0,1.495-0.624,1.689-0.896L400.439,819.791z M398.672,817.165
		c-0.144-1.014-0.768-1.365-1.456-1.365c-0.832,0-1.404,0.481-1.586,1.365H398.672z"/>
	<path style="fill:#E52420;" d="M403.13,814.747v0.923c0.195-0.338,0.624-1.104,2.08-1.065v1.599
		c-0.338,0.013-0.923,0.026-1.403,0.39c-0.663,0.508-0.677,1.17-0.677,2.249v2.405h-1.508v-6.5H403.13z"/>
	<path style="fill:#E52420;" d="M407.953,815.866v2.938c0,0.807,0,1.157,0.74,1.157c0.234,0,0.43-0.013,0.65-0.078v1.313
		c-0.468,0.078-0.78,0.104-1.131,0.104c-0.325,0-1.417,0-1.716-0.793c-0.104-0.26-0.104-0.676-0.104-1.325v-3.315h-0.949v-1.118
		h0.949v-2.301h1.561v2.301h1.391v1.118H407.953z"/>
	<path style="fill:#E52420;" d="M413.75,818.076v-1.833l1.847-1.482v1.482l-1.118,0.923l1.118,0.91v1.456L413.75,818.076z
		 M416.116,818.076v-1.833l1.847-1.482v1.482l-1.118,0.923l1.118,0.91v1.456L416.116,818.076z"/>
	<path style="fill:#E52420;" d="M421.226,815.866v2.938c0,0.807,0,1.157,0.74,1.157c0.234,0,0.43-0.013,0.65-0.078v1.313
		c-0.468,0.078-0.78,0.104-1.131,0.104c-0.325,0-1.417,0-1.716-0.793c-0.104-0.26-0.104-0.676-0.104-1.325v-3.315h-0.949v-1.118
		h0.949v-2.301h1.561v2.301h1.391v1.118H421.226z"/>
	<path style="fill:#E52420;" d="M429.688,819.791c-0.806,1.079-1.846,1.651-3.172,1.651c-1.703,0-3.341-1.079-3.341-3.472
		c0-2.184,1.403-3.419,3.236-3.419c1.717,0,2.432,1.027,2.562,1.223c0.533,0.754,0.65,1.885,0.663,2.535h-4.811
		c0.183,1.026,0.819,1.611,1.847,1.611c1.065,0,1.495-0.624,1.689-0.896L429.688,819.791z M427.921,817.165
		c-0.144-1.014-0.768-1.365-1.456-1.365c-0.832,0-1.404,0.481-1.586,1.365H427.921z"/>
	<path style="fill:#E52420;" d="M430.871,814.747h1.547v0.728c0.521-0.649,1.443-0.923,2.055-0.923c0.61,0,1.378,0.234,1.807,1.001
		c0.26-0.363,0.936-1.001,2.08-1.001c0.65,0,1.274,0.183,1.716,0.663c0.521,0.572,0.507,1.262,0.507,1.938v4.095h-1.547v-3.588
		c0-0.611,0.091-1.638-1.092-1.638c-0.494,0-0.897,0.272-1.105,0.61c-0.299,0.481-0.338,1.001-0.338,1.561v3.055h-1.547v-3.627
		c0-0.468,0-0.637-0.052-0.832c-0.117-0.429-0.455-0.767-1.001-0.767c-0.468,0-0.923,0.272-1.196,0.754
		c-0.272,0.507-0.286,1.118-0.286,1.755v2.717h-1.547V814.747z"/>
	<path style="fill:#E52420;" d="M442.259,814.747h1.548v0.598c0.246-0.26,0.767-0.793,1.78-0.793c1.911,0,2.951,1.717,2.951,3.511
		c0,1.937-1.209,3.38-2.951,3.38c-0.896,0-1.456-0.429-1.78-0.729v2.652h-1.548V814.747z M445.379,819.974
		c0.754,0,1.573-0.521,1.573-1.989c0-1.625-1.131-1.938-1.599-1.938c-0.715,0-1.534,0.521-1.561,1.911
		C443.768,819.297,444.508,819.974,445.379,819.974z"/>
	<path style="fill:#E52420;" d="M452.828,821.443c-2.028,0-3.38-1.482-3.38-3.472c0-1.988,1.378-3.419,3.315-3.419
		c1.807,0,3.354,1.262,3.367,3.419C456.131,819.999,454.791,821.443,452.828,821.443z M452.75,815.956
		c-0.975,0-1.677,0.78-1.677,1.977c0,1.339,0.819,2.08,1.755,2.08c1.131,0,1.703-0.988,1.664-2.067
		C454.467,816.867,453.843,815.956,452.75,815.956z"/>
	<path style="fill:#E52420;" d="M458.912,814.747v0.923c0.195-0.338,0.624-1.104,2.08-1.065v1.599
		c-0.338,0.013-0.923,0.026-1.404,0.39c-0.662,0.508-0.676,1.17-0.676,2.249v2.405h-1.508v-6.5H458.912z"/>
	<path style="fill:#E52420;" d="M461.811,816.659c0.026-0.325,0.053-0.598,0.261-0.976c0.624-1.131,2.171-1.131,2.587-1.131
		c0.624,0,1.378,0.078,1.95,0.416c0.767,0.469,0.779,1.079,0.779,1.781v3.445c0,0.494,0,0.663,0.286,1.053h-1.846
		c-0.013-0.156-0.039-0.416-0.039-0.507c-0.338,0.286-1.027,0.663-1.924,0.663c-1.47,0-2.354-0.91-2.354-2.028
		c0-0.325,0.078-0.624,0.208-0.884c0.468-0.937,1.469-1.145,2.093-1.261c1.34-0.273,1.443-0.3,2.016-0.481
		c0-0.325-0.026-0.988-1.105-0.988c-0.649,0-1.001,0.208-1.156,0.416c-0.17,0.208-0.156,0.391-0.156,0.572L461.811,816.659z
		 M465.828,818.01c-0.312,0.156-0.663,0.273-1.365,0.391c-0.559,0.078-1.3,0.208-1.3,0.896c0,0.508,0.429,0.768,1.053,0.768
		c0.793,0,1.353-0.364,1.521-0.754c0.091-0.195,0.091-0.391,0.091-0.585V818.01z"/>
	<path style="fill:#E52420;" d="M470.755,816.216v1.833l-1.846,1.482v-1.482l1.117-0.923l-1.117-0.91v-1.456L470.755,816.216z
		 M473.121,816.216v1.833l-1.847,1.482v-1.482l1.118-0.923l-1.118-0.91v-1.456L473.121,816.216z"/>
	<path style="fill:#E52420;" d="M287.851,825.07v5.161l2.535-2.483h1.989l-2.483,2.483l2.73,4.017h-1.898l-1.963-2.912l-0.91,0.897
		v2.015h-1.547v-9.178H287.851z"/>
	<path style="fill:#E52420;" d="M293.427,829.659c0.026-0.325,0.053-0.598,0.261-0.976c0.624-1.131,2.171-1.131,2.587-1.131
		c0.624,0,1.378,0.078,1.95,0.416c0.767,0.469,0.779,1.079,0.779,1.781v3.445c0,0.494,0,0.663,0.286,1.053h-1.846
		c-0.013-0.156-0.039-0.416-0.039-0.507c-0.338,0.286-1.027,0.663-1.924,0.663c-1.47,0-2.354-0.91-2.354-2.028
		c0-0.325,0.078-0.624,0.208-0.884c0.468-0.937,1.469-1.145,2.093-1.261c1.34-0.273,1.443-0.3,2.016-0.481
		c0-0.325-0.026-0.988-1.105-0.988c-0.649,0-1.001,0.208-1.157,0.416c-0.169,0.208-0.155,0.391-0.155,0.572L293.427,829.659z
		 M297.444,831.01c-0.312,0.156-0.663,0.273-1.365,0.391c-0.559,0.078-1.3,0.208-1.3,0.896c0,0.508,0.429,0.768,1.053,0.768
		c0.793,0,1.353-0.364,1.521-0.754c0.091-0.195,0.091-0.391,0.091-0.585V831.01z"/>
	<path style="fill:#E52420;" d="M302.177,827.747v0.923c0.195-0.338,0.624-1.104,2.08-1.065v1.599
		c-0.338,0.013-0.923,0.026-1.403,0.39c-0.663,0.508-0.677,1.17-0.677,2.249v2.405h-1.508v-6.5H302.177z"/>
	<path style="fill:#E52420;" d="M306.856,825.07v9.178h-1.573v-9.178H306.856z"/>
	<path style="fill:#E52420;" d="M311.849,829.659c0.026-0.325,0.053-0.598,0.261-0.976c0.624-1.131,2.171-1.131,2.587-1.131
		c0.624,0,1.378,0.078,1.95,0.416c0.767,0.469,0.779,1.079,0.779,1.781v3.445c0,0.494,0,0.663,0.286,1.053h-1.846
		c-0.013-0.156-0.039-0.416-0.039-0.507c-0.338,0.286-1.027,0.663-1.924,0.663c-1.47,0-2.354-0.91-2.354-2.028
		c0-0.325,0.078-0.624,0.208-0.884c0.468-0.937,1.469-1.145,2.093-1.261c1.34-0.273,1.443-0.3,2.016-0.481
		c0-0.325-0.026-0.988-1.105-0.988c-0.649,0-1.001,0.208-1.157,0.416c-0.169,0.208-0.155,0.391-0.155,0.572L311.849,829.659z
		 M315.866,831.01c-0.312,0.156-0.663,0.273-1.365,0.391c-0.559,0.078-1.3,0.208-1.3,0.896c0,0.508,0.429,0.768,1.053,0.768
		c0.793,0,1.353-0.364,1.521-0.754c0.091-0.195,0.091-0.391,0.091-0.585V831.01z"/>
	<path style="fill:#E52420;" d="M319.089,827.747h1.547v0.728c0.521-0.649,1.443-0.923,2.055-0.923c0.61,0,1.378,0.234,1.807,1.001
		c0.26-0.363,0.937-1.001,2.08-1.001c0.65,0,1.274,0.183,1.716,0.663c0.521,0.572,0.507,1.262,0.507,1.938v4.095h-1.547v-3.588
		c0-0.611,0.091-1.638-1.092-1.638c-0.494,0-0.897,0.272-1.105,0.61c-0.299,0.481-0.338,1.001-0.338,1.561v3.055h-1.547v-3.627
		c0-0.468,0-0.637-0.052-0.832c-0.117-0.429-0.455-0.767-1.001-0.767c-0.468,0-0.923,0.272-1.196,0.754
		c-0.273,0.507-0.286,1.118-0.286,1.755v2.717h-1.547V827.747z"/>
	<path style="fill:#E52420;" d="M330.269,829.659c0.026-0.325,0.053-0.598,0.261-0.976c0.624-1.131,2.171-1.131,2.587-1.131
		c0.624,0,1.378,0.078,1.95,0.416c0.767,0.469,0.779,1.079,0.779,1.781v3.445c0,0.494,0,0.663,0.286,1.053h-1.846
		c-0.013-0.156-0.039-0.416-0.039-0.507c-0.338,0.286-1.027,0.663-1.924,0.663c-1.47,0-2.354-0.91-2.354-2.028
		c0-0.325,0.078-0.624,0.208-0.884c0.468-0.937,1.469-1.145,2.093-1.261c1.34-0.273,1.443-0.3,2.016-0.481
		c0-0.325-0.026-0.988-1.105-0.988c-0.649,0-1.001,0.208-1.157,0.416c-0.169,0.208-0.155,0.391-0.155,0.572L330.269,829.659z
		 M334.286,831.01c-0.312,0.156-0.663,0.273-1.365,0.391c-0.559,0.078-1.3,0.208-1.3,0.896c0,0.508,0.429,0.768,1.053,0.768
		c0.793,0,1.353-0.364,1.521-0.754c0.091-0.195,0.091-0.391,0.091-0.585V831.01z"/>
	<path style="fill:#E52420;" d="M343.387,825.07v9.178h-1.547v-0.624c-0.48,0.585-1.131,0.819-1.807,0.819
		c-1.548,0-2.887-1.157-2.887-3.302c0-1.938,1.092-3.589,2.951-3.589c0.637,0,1.248,0.183,1.742,0.729v-3.211H343.387z
		 M341.476,829.593c-0.233-0.351-0.624-0.598-1.144-0.598c-1.053,0-1.561,0.949-1.561,1.976c0,0.117,0.014,2.067,1.534,2.067
		c0.807,0,1.534-0.598,1.521-2.002C341.813,830.621,341.762,830.023,341.476,829.593z"/>
	<path style="fill:#E52420;" d="M351.212,832.791c-0.806,1.079-1.846,1.651-3.172,1.651c-1.703,0-3.341-1.079-3.341-3.472
		c0-2.184,1.403-3.419,3.236-3.419c1.717,0,2.432,1.027,2.562,1.223c0.533,0.754,0.65,1.885,0.663,2.535h-4.811
		c0.183,1.026,0.819,1.611,1.847,1.611c1.065,0,1.495-0.624,1.689-0.896L351.212,832.791z M349.444,830.165
		c-0.144-1.014-0.768-1.365-1.456-1.365c-0.832,0-1.404,0.481-1.586,1.365H349.444z"/>
	<path style="fill:#E52420;" d="M358.285,827.747v6.5h-1.561v-0.663c-0.273,0.261-0.91,0.819-2.106,0.819
		c-1.065,0-1.572-0.455-1.807-0.754c-0.442-0.56-0.442-1.17-0.442-2.146v-3.757h1.573v3.731c0,0.26,0,0.48,0.052,0.649
		c0.17,0.572,0.638,0.819,1.209,0.819c0.65,0,1.054-0.351,1.262-0.689c0.233-0.429,0.247-0.845,0.26-1.755v-2.756H358.285z"/>
	<path style="fill:#E52420;" d="M360.585,832.324c0.39,0.481,0.975,0.832,1.872,0.832c0.896,0,1.287-0.442,1.287-0.767
		c0-0.416-0.469-0.521-0.677-0.56c-0.221-0.052-1.287-0.247-1.521-0.312c-1.547-0.364-1.833-1.262-1.833-1.847
		c0-1.104,1.001-2.119,2.782-2.119c0.987,0,1.703,0.312,2.145,0.624c0.325,0.208,0.533,0.43,0.663,0.585l-1.104,1.027
		c-0.183-0.351-0.624-0.988-1.769-0.988c-0.741,0-1.079,0.325-1.079,0.663c0,0.468,0.481,0.599,1.313,0.741
		c1.352,0.247,1.729,0.312,2.145,0.637c0.403,0.312,0.663,0.832,0.663,1.378c0,1.015-0.91,2.224-2.925,2.224
		c-1.157,0-2.301-0.364-3.12-1.157L360.585,832.324z"/>
	<path style="fill:#E52420;" d="M371.805,825.07v3.341c0.494-0.494,1.17-0.858,2.067-0.858c0.806,0,1.43,0.312,1.78,0.702
		c0.533,0.572,0.547,1.235,0.547,1.977v4.017h-1.534v-3.575c-0.026-0.585-0.026-0.728-0.104-0.923
		c-0.052-0.13-0.272-0.715-1.131-0.715c-1.001,0-1.469,0.806-1.573,1.183c-0.052,0.208-0.052,0.312-0.052,1.04v2.99h-1.561v-9.178
		H371.805z"/>
	<path style="fill:#E52420;" d="M377.653,829.659c0.026-0.325,0.053-0.598,0.261-0.976c0.624-1.131,2.171-1.131,2.587-1.131
		c0.624,0,1.378,0.078,1.95,0.416c0.767,0.469,0.779,1.079,0.779,1.781v3.445c0,0.494,0,0.663,0.286,1.053h-1.846
		c-0.013-0.156-0.039-0.416-0.039-0.507c-0.338,0.286-1.027,0.663-1.924,0.663c-1.47,0-2.354-0.91-2.354-2.028
		c0-0.325,0.078-0.624,0.208-0.884c0.468-0.937,1.469-1.145,2.093-1.261c1.34-0.273,1.443-0.3,2.016-0.481
		c0-0.325-0.026-0.988-1.105-0.988c-0.649,0-1.001,0.208-1.157,0.416c-0.169,0.208-0.155,0.391-0.155,0.572L377.653,829.659z
		 M381.671,831.01c-0.312,0.156-0.663,0.273-1.365,0.391c-0.559,0.078-1.3,0.208-1.3,0.896c0,0.508,0.429,0.768,1.053,0.768
		c0.793,0,1.353-0.364,1.521-0.754c0.091-0.195,0.091-0.391,0.091-0.585V831.01z"/>
	<path style="fill:#E52420;" d="M386.403,827.747v0.923c0.195-0.338,0.624-1.104,2.08-1.065v1.599
		c-0.338,0.013-0.923,0.026-1.403,0.39c-0.663,0.508-0.677,1.17-0.677,2.249v2.405h-1.508v-6.5H386.403z"/>
	<path style="fill:#E52420;" d="M391.227,828.866v2.938c0,0.807,0,1.157,0.74,1.157c0.234,0,0.43-0.013,0.65-0.078v1.313
		c-0.468,0.078-0.78,0.104-1.131,0.104c-0.325,0-1.417,0-1.716-0.793c-0.104-0.26-0.104-0.676-0.104-1.325v-3.315h-0.949v-1.118
		h0.949v-2.301h1.561v2.301h1.391v1.118H391.227z"/>
	<path style="fill:#E52420;" d="M393.565,827.747h1.547v0.728c0.521-0.649,1.443-0.923,2.055-0.923c0.61,0,1.378,0.234,1.807,1.001
		c0.26-0.363,0.937-1.001,2.08-1.001c0.65,0,1.274,0.183,1.716,0.663c0.521,0.572,0.507,1.262,0.507,1.938v4.095h-1.547v-3.588
		c0-0.611,0.091-1.638-1.092-1.638c-0.494,0-0.897,0.272-1.105,0.61c-0.299,0.481-0.338,1.001-0.338,1.561v3.055h-1.547v-3.627
		c0-0.468,0-0.637-0.052-0.832c-0.117-0.429-0.455-0.767-1.001-0.767c-0.468,0-0.923,0.272-1.196,0.754
		c-0.273,0.507-0.286,1.118-0.286,1.755v2.717h-1.547V827.747z"/>
	<path style="fill:#E52420;" d="M404.745,829.659c0.026-0.325,0.053-0.598,0.261-0.976c0.624-1.131,2.171-1.131,2.587-1.131
		c0.624,0,1.378,0.078,1.95,0.416c0.767,0.469,0.779,1.079,0.779,1.781v3.445c0,0.494,0,0.663,0.286,1.053h-1.846
		c-0.013-0.156-0.039-0.416-0.039-0.507c-0.338,0.286-1.027,0.663-1.924,0.663c-1.47,0-2.354-0.91-2.354-2.028
		c0-0.325,0.078-0.624,0.208-0.884c0.468-0.937,1.469-1.145,2.093-1.261c1.34-0.273,1.443-0.3,2.016-0.481
		c0-0.325-0.026-0.988-1.105-0.988c-0.649,0-1.001,0.208-1.157,0.416c-0.169,0.208-0.155,0.391-0.155,0.572L404.745,829.659z
		 M408.763,831.01c-0.312,0.156-0.663,0.273-1.365,0.391c-0.559,0.078-1.3,0.208-1.3,0.896c0,0.508,0.429,0.768,1.053,0.768
		c0.793,0,1.353-0.364,1.521-0.754c0.091-0.195,0.091-0.391,0.091-0.585V831.01z"/>
	<path style="fill:#E52420;" d="M411.973,827.747h1.572v0.767c0.078-0.116,0.234-0.324,0.508-0.507
		c0.39-0.286,0.987-0.455,1.495-0.455c0.74,0,1.378,0.338,1.703,0.78c0.402,0.546,0.402,1.248,0.402,2.093v3.822h-1.547v-3.314
		c0-0.481,0-0.807-0.052-0.988c-0.144-0.572-0.56-0.871-1.066-0.871s-0.975,0.299-1.196,0.728c-0.247,0.481-0.247,1.145-0.247,1.625
		v2.821h-1.572V827.747z"/>
	<path style="fill:#E52420;" d="M419.279,827.747h1.572v0.767c0.078-0.116,0.234-0.324,0.508-0.507
		c0.39-0.286,0.987-0.455,1.495-0.455c0.74,0,1.378,0.338,1.703,0.78c0.402,0.546,0.402,1.248,0.402,2.093v3.822h-1.547v-3.314
		c0-0.481,0-0.807-0.052-0.988c-0.144-0.572-0.56-0.871-1.066-0.871s-0.975,0.299-1.196,0.728c-0.247,0.481-0.247,1.145-0.247,1.625
		v2.821h-1.572V827.747z"/>
	<path style="fill:#E52420;" d="M430.731,832.324c0.39,0.481,0.975,0.832,1.872,0.832c0.896,0,1.287-0.442,1.287-0.767
		c0-0.416-0.469-0.521-0.677-0.56c-0.221-0.052-1.287-0.247-1.521-0.312c-1.547-0.364-1.833-1.262-1.833-1.847
		c0-1.104,1.001-2.119,2.782-2.119c0.987,0,1.703,0.312,2.145,0.624c0.325,0.208,0.533,0.43,0.663,0.585l-1.104,1.027
		c-0.183-0.351-0.624-0.988-1.769-0.988c-0.741,0-1.079,0.325-1.079,0.663c0,0.468,0.481,0.599,1.313,0.741
		c1.352,0.247,1.729,0.312,2.145,0.637c0.403,0.312,0.663,0.832,0.663,1.378c0,1.015-0.91,2.224-2.925,2.224
		c-1.157,0-2.301-0.364-3.12-1.157L430.731,832.324z"/>
	<path style="fill:#E52420;" d="M438.453,825.161v1.573h-1.547v-1.573H438.453z M438.453,827.747v6.5h-1.547v-6.5H438.453z"/>
	<path style="fill:#E52420;" d="M446.267,832.791c-0.806,1.079-1.846,1.651-3.172,1.651c-1.703,0-3.341-1.079-3.341-3.472
		c0-2.184,1.403-3.419,3.236-3.419c1.717,0,2.432,1.027,2.562,1.223c0.533,0.754,0.65,1.885,0.663,2.535h-4.811
		c0.183,1.026,0.819,1.611,1.847,1.611c1.065,0,1.495-0.624,1.689-0.896L446.267,832.791z M444.499,830.165
		c-0.144-1.014-0.768-1.365-1.456-1.365c-0.832,0-1.404,0.481-1.586,1.365H444.499z"/>
	<path style="fill:#E52420;" d="M448.995,825.07v3.224c0.521-0.48,1.17-0.741,1.886-0.741c1.469,0,2.847,1.353,2.847,3.419
		c0,2.119-1.404,3.472-2.951,3.472c-0.858,0-1.443-0.481-1.781-0.871v0.676h-1.547v-9.178H448.995z M450.503,828.969
		c-0.701,0-1.533,0.533-1.533,1.925c0,0.402,0.052,0.676,0.104,0.832c0.312,1.234,1.365,1.234,1.495,1.234
		c1.145,0,1.521-1.157,1.547-2.015C452.154,829.659,451.349,828.969,450.503,828.969z"/>
	<path style="fill:#E52420;" d="M461.151,832.791c-0.806,1.079-1.846,1.651-3.172,1.651c-1.703,0-3.341-1.079-3.341-3.472
		c0-2.184,1.403-3.419,3.236-3.419c1.717,0,2.432,1.027,2.562,1.223c0.533,0.754,0.65,1.885,0.663,2.535h-4.811
		c0.183,1.026,0.819,1.611,1.847,1.611c1.065,0,1.495-0.624,1.689-0.896L461.151,832.791z M459.384,830.165
		c-0.144-1.014-0.768-1.365-1.456-1.365c-0.832,0-1.404,0.481-1.586,1.365H459.384z"/>
	<path style="fill:#E52420;" d="M462.32,827.747h1.572v0.767c0.078-0.116,0.234-0.324,0.508-0.507
		c0.39-0.286,0.987-0.455,1.495-0.455c0.74,0,1.378,0.338,1.703,0.78c0.402,0.546,0.402,1.248,0.402,2.093v3.822h-1.547v-3.314
		c0-0.481,0-0.807-0.052-0.988c-0.144-0.572-0.56-0.871-1.066-0.871s-0.975,0.299-1.196,0.728c-0.247,0.481-0.247,1.145-0.247,1.625
		v2.821h-1.572V827.747z"/>
	<path style="fill:#E52420;" d="M471.369,828.866v2.938c0,0.807,0,1.157,0.74,1.157c0.234,0,0.43-0.013,0.65-0.078v1.313
		c-0.468,0.078-0.78,0.104-1.131,0.104c-0.325,0-1.417,0-1.716-0.793c-0.104-0.26-0.104-0.676-0.104-1.325v-3.315h-0.949v-1.118
		h0.949v-2.301h1.561v2.301h1.391v1.118H471.369z"/>
	<path style="fill:#E52420;" d="M479.831,832.791c-0.806,1.079-1.846,1.651-3.172,1.651c-1.703,0-3.341-1.079-3.341-3.472
		c0-2.184,1.403-3.419,3.236-3.419c1.717,0,2.432,1.027,2.562,1.223c0.533,0.754,0.65,1.885,0.663,2.535h-4.811
		c0.183,1.026,0.819,1.611,1.847,1.611c1.065,0,1.495-0.624,1.689-0.896L479.831,832.791z M478.063,830.165
		c-0.144-1.014-0.768-1.365-1.456-1.365c-0.832,0-1.404,0.481-1.586,1.365H478.063z"/>
	<path style="fill:#E52420;" d="M485.147,832.324c0.39,0.481,0.975,0.832,1.872,0.832c0.896,0,1.287-0.442,1.287-0.767
		c0-0.416-0.469-0.521-0.677-0.56c-0.221-0.052-1.287-0.247-1.521-0.312c-1.547-0.364-1.833-1.262-1.833-1.847
		c0-1.104,1.001-2.119,2.782-2.119c0.987,0,1.703,0.312,2.145,0.624c0.325,0.208,0.533,0.43,0.663,0.585l-1.104,1.027
		c-0.183-0.351-0.624-0.988-1.769-0.988c-0.741,0-1.079,0.325-1.079,0.663c0,0.468,0.481,0.599,1.313,0.741
		c1.352,0.247,1.729,0.312,2.145,0.637c0.403,0.312,0.663,0.832,0.663,1.378c0,1.015-0.91,2.224-2.925,2.224
		c-1.157,0-2.301-0.364-3.12-1.157L485.147,832.324z"/>
	<path style="fill:#E52420;" d="M492.869,825.161v1.573h-1.547v-1.573H492.869z M492.869,827.747v6.5h-1.547v-6.5H492.869z"/>
	<path style="fill:#E52420;" d="M494.547,827.747h1.572v0.767c0.078-0.116,0.234-0.324,0.508-0.507
		c0.39-0.286,0.987-0.455,1.495-0.455c0.74,0,1.378,0.338,1.703,0.78c0.402,0.546,0.402,1.248,0.402,2.093v3.822h-1.547v-3.314
		c0-0.481,0-0.807-0.052-0.988c-0.144-0.572-0.56-0.871-1.066-0.871s-0.975,0.299-1.196,0.728c-0.247,0.481-0.247,1.145-0.247,1.625
		v2.821h-1.572V827.747z"/>
	<path style="fill:#E52420;" d="M503.619,828.853v5.395h-1.56v-5.395h-0.976v-1.118h0.976v-0.741
		c-0.014-0.923-0.014-1.938,2.093-1.938c0.312,0,0.598,0.026,0.884,0.053v1.325c-0.13-0.025-0.272-0.039-0.494-0.039
		c-0.416,0-0.663,0.092-0.818,0.325c-0.053,0.091-0.104,0.286-0.104,0.481v0.533h1.417v1.118H503.619z"/>
	<path style="fill:#E52420;" d="M508.938,834.443c-2.028,0-3.38-1.482-3.38-3.472c0-1.988,1.378-3.419,3.315-3.419
		c1.807,0,3.354,1.262,3.367,3.419C512.24,832.999,510.9,834.443,508.938,834.443z M508.859,828.956
		c-0.975,0-1.677,0.78-1.677,1.977c0,1.339,0.819,2.08,1.755,2.08c1.131,0,1.703-0.988,1.664-2.067
		C510.576,829.867,509.952,828.956,508.859,828.956z"/>
	<path style="fill:#E52420;" d="M513.5,827.747h1.572v0.767c0.078-0.116,0.234-0.324,0.508-0.507
		c0.39-0.286,0.987-0.455,1.495-0.455c0.74,0,1.378,0.338,1.703,0.78c0.402,0.546,0.402,1.248,0.402,2.093v3.822h-1.547v-3.314
		c0-0.481,0-0.807-0.052-0.988c-0.144-0.572-0.56-0.871-1.066-0.871s-0.975,0.299-1.196,0.728c-0.247,0.481-0.247,1.145-0.247,1.625
		v2.821H513.5V827.747z"/>
	<path style="fill:#E52420;" d="M522.379,825.161v1.573h-1.547v-1.573H522.379z M522.379,827.747v6.5h-1.547v-6.5H522.379z"/>
	<path style="fill:#E52420;" d="M530.192,832.791c-0.806,1.079-1.846,1.651-3.172,1.651c-1.703,0-3.341-1.079-3.341-3.472
		c0-2.184,1.403-3.419,3.236-3.419c1.717,0,2.432,1.027,2.562,1.223c0.533,0.754,0.65,1.885,0.663,2.535h-4.811
		c0.183,1.026,0.819,1.611,1.847,1.611c1.065,0,1.495-0.624,1.689-0.896L530.192,832.791z M528.425,830.165
		c-0.144-1.014-0.768-1.365-1.456-1.365c-0.832,0-1.404,0.481-1.586,1.365H528.425z"/>
	<path d="M496.877,856.014v2.381l1.169-1.146h0.918l-1.146,1.146l1.259,1.853h-0.875l-0.905-1.343l-0.42,0.413v0.93h-0.714v-4.233
		H496.877z"/>
	<path d="M499.451,858.131c0.012-0.15,0.023-0.276,0.12-0.45c0.287-0.521,1.001-0.521,1.193-0.521c0.287,0,0.636,0.036,0.899,0.191
		c0.354,0.216,0.359,0.498,0.359,0.822v1.589c0,0.228,0,0.306,0.132,0.485h-0.852c-0.006-0.071-0.018-0.191-0.018-0.233
		c-0.156,0.132-0.474,0.306-0.888,0.306c-0.678,0-1.085-0.42-1.085-0.936c0-0.15,0.036-0.288,0.096-0.408
		c0.216-0.432,0.678-0.527,0.966-0.581c0.617-0.126,0.665-0.138,0.929-0.222c0-0.15-0.012-0.456-0.51-0.456
		c-0.3,0-0.461,0.096-0.533,0.191c-0.078,0.097-0.072,0.181-0.072,0.265L499.451,858.131z M501.304,858.754
		c-0.144,0.072-0.306,0.126-0.629,0.18c-0.258,0.036-0.6,0.097-0.6,0.414c0,0.234,0.197,0.354,0.485,0.354
		c0.365,0,0.624-0.167,0.701-0.348c0.042-0.09,0.042-0.18,0.042-0.27V858.754z"/>
	<path d="M503.488,857.249v0.426c0.09-0.156,0.288-0.51,0.96-0.492v0.738c-0.156,0.006-0.426,0.012-0.647,0.18
		c-0.307,0.233-0.312,0.54-0.312,1.037v1.109h-0.695v-2.998H503.488z"/>
	<path d="M505.715,857.765v1.355c0,0.372,0,0.533,0.342,0.533c0.107,0,0.197-0.006,0.3-0.036v0.606
		c-0.216,0.036-0.36,0.048-0.521,0.048c-0.15,0-0.654,0-0.792-0.366c-0.048-0.12-0.048-0.312-0.048-0.611v-1.529h-0.438v-0.516
		h0.438v-1.062h0.72v1.062h0.642v0.516H505.715z"/>
	<path d="M509.619,859.576c-0.371,0.498-0.852,0.762-1.463,0.762c-0.785,0-1.541-0.497-1.541-1.601c0-1.008,0.647-1.577,1.493-1.577
		c0.791,0,1.121,0.474,1.181,0.563c0.246,0.348,0.301,0.869,0.307,1.169h-2.219c0.084,0.475,0.377,0.744,0.852,0.744
		c0.491,0,0.689-0.288,0.779-0.414L509.619,859.576z M508.804,858.365c-0.065-0.468-0.354-0.63-0.672-0.63
		c-0.384,0-0.647,0.223-0.731,0.63H508.804z"/>
	<path d="M510.161,857.249h0.726v0.354c0.036-0.054,0.107-0.149,0.233-0.233c0.181-0.132,0.456-0.21,0.69-0.21
		c0.342,0,0.635,0.155,0.785,0.359c0.186,0.252,0.186,0.576,0.186,0.966v1.763h-0.713v-1.529c0-0.222,0-0.371-0.024-0.455
		c-0.066-0.264-0.258-0.402-0.492-0.402c-0.233,0-0.449,0.139-0.551,0.336c-0.114,0.222-0.114,0.528-0.114,0.75v1.301h-0.726
		V857.249z"/>
	<path d="M517.534,857.249v0.558l-1.59,1.805h1.59v0.636h-2.567v-0.552l1.619-1.805h-1.457v-0.642H517.534z"/>
	<path d="M520.882,857.249v2.998h-0.72v-0.306c-0.126,0.12-0.42,0.378-0.972,0.378c-0.491,0-0.726-0.21-0.833-0.348
		c-0.204-0.258-0.204-0.54-0.204-0.989v-1.733h0.726v1.721c0,0.12,0,0.222,0.023,0.3c0.078,0.265,0.294,0.378,0.558,0.378
		c0.3,0,0.486-0.162,0.582-0.317c0.108-0.198,0.114-0.39,0.12-0.81v-1.271H520.882z"/>
	<path d="M524.099,857.759v2.488h-0.72v-2.488h-0.449v-0.516h0.449v-0.342c-0.006-0.426-0.006-0.894,0.966-0.894
		c0.144,0,0.275,0.012,0.407,0.023v0.612c-0.06-0.013-0.126-0.019-0.228-0.019c-0.192,0-0.306,0.042-0.378,0.15
		c-0.023,0.042-0.048,0.132-0.048,0.222v0.246h0.653v0.516H524.099z"/>
	<path d="M525.862,857.249v0.426c0.09-0.156,0.288-0.51,0.96-0.492v0.738c-0.156,0.006-0.426,0.012-0.647,0.18
		c-0.307,0.233-0.312,0.54-0.312,1.037v1.109h-0.695v-2.998H525.862z"/>
	<path d="M527.676,859.426v0.821h-0.792v-0.821H527.676z"/>
	<path d="M531.005,859.624v0.623h-2.753v-0.581c0.516-0.354,1.025-0.84,1.266-1.086c0.222-0.228,0.594-0.617,0.594-1.151
		c0-0.312-0.156-0.605-0.534-0.605c-0.594,0-0.575,0.647-0.569,0.936l-0.756-0.066c0-0.569,0.186-0.936,0.342-1.121
		c0.222-0.258,0.605-0.438,1.043-0.438c0.768,0,1.302,0.497,1.302,1.265c0,0.654-0.401,1.122-0.846,1.523
		c-0.09,0.078-0.63,0.534-0.857,0.702H531.005z"/>
	<path d="M532.297,859.426v0.821h-0.792v-0.821H532.297z"/>
	<path d="M535.35,856.866h-1.577l-0.138,0.894c0.18-0.18,0.468-0.3,0.779-0.3c0.72,0,1.229,0.533,1.229,1.349
		c0,0.834-0.546,1.494-1.505,1.494c-0.271,0-0.534-0.049-0.768-0.168c-0.564-0.3-0.606-0.822-0.624-1.02l0.84-0.061
		c0.018,0.414,0.275,0.6,0.581,0.6c0.139,0,0.258-0.029,0.354-0.096c0.18-0.12,0.306-0.401,0.306-0.72
		c0-0.504-0.312-0.762-0.672-0.762c-0.275,0-0.51,0.126-0.605,0.378l-0.678-0.042l0.288-2.225h2.249L535.35,856.866z"/>
	<path d="M538.326,860.176c-0.192,0.09-0.402,0.126-0.611,0.126c-0.696,0-1.038-0.414-1.176-0.63
		c-0.252-0.402-0.294-0.96-0.294-1.428c0-0.413,0.03-1.085,0.36-1.541c0.222-0.306,0.623-0.569,1.145-0.569
		c0.36,0,0.804,0.12,1.116,0.588c0.312,0.468,0.335,1.085,0.335,1.48C539.201,858.928,539.1,859.822,538.326,860.176z
		 M537.744,856.793c-0.647,0-0.72,0.768-0.72,1.464c0,0.659,0.061,1.379,0.708,1.379c0.569,0,0.695-0.558,0.695-1.409
		C538.428,857.303,538.248,856.793,537.744,856.793z"/>
	<path d="M542.125,856.014v1.487c0.239-0.222,0.539-0.342,0.869-0.342c0.678,0,1.313,0.623,1.313,1.577
		c0,0.978-0.647,1.601-1.361,1.601c-0.396,0-0.666-0.222-0.821-0.401v0.312h-0.714v-4.233H542.125z M542.82,857.813
		c-0.324,0-0.708,0.246-0.708,0.888c0,0.186,0.024,0.312,0.049,0.384c0.144,0.569,0.629,0.569,0.689,0.569
		c0.527,0,0.701-0.533,0.713-0.929C543.582,858.131,543.21,857.813,542.82,857.813z"/>
	<path d="M545.629,856.056v0.726h-0.714v-0.726H545.629z M545.629,857.249v2.998h-0.714v-2.998H545.629z"/>
	<path d="M546.691,859.36c0.18,0.223,0.449,0.384,0.863,0.384s0.594-0.203,0.594-0.354c0-0.191-0.216-0.239-0.312-0.258
		c-0.102-0.023-0.593-0.114-0.701-0.144c-0.714-0.168-0.846-0.582-0.846-0.852c0-0.51,0.462-0.978,1.283-0.978
		c0.456,0,0.786,0.144,0.989,0.288c0.15,0.096,0.246,0.197,0.307,0.27l-0.51,0.474c-0.084-0.162-0.288-0.456-0.815-0.456
		c-0.342,0-0.498,0.15-0.498,0.306c0,0.217,0.222,0.276,0.605,0.343c0.624,0.113,0.798,0.144,0.989,0.293
		c0.187,0.145,0.306,0.384,0.306,0.636c0,0.468-0.419,1.025-1.349,1.025c-0.534,0-1.062-0.168-1.439-0.533L546.691,859.36z"/>
	<path d="M553.038,857.249c-0.012-0.366-0.3-0.456-0.474-0.456c-0.588,0-0.689,0.702-0.72,1.254c0.21-0.265,0.492-0.408,0.852-0.408
		c0.575,0,1.157,0.401,1.157,1.26c0,0.833-0.582,1.403-1.361,1.403c-0.588,0-0.941-0.312-1.115-0.576
		c-0.252-0.384-0.312-0.936-0.312-1.385c0-0.564,0.078-2.207,1.505-2.207c0.527,0,0.888,0.252,1.067,0.533
		c0.12,0.192,0.15,0.366,0.168,0.474L553.038,857.249z M552.522,858.317c-0.414,0-0.605,0.317-0.605,0.653
		c0,0.126,0.029,0.66,0.587,0.66c0.456,0,0.594-0.354,0.594-0.654C553.098,858.581,552.882,858.317,552.522,858.317z"/>
	<path d="M555.162,859.426v0.821h-0.792v-0.821H555.162z"/>
	<path d="M557.201,858.029v0.672h-1.487v-0.672H557.201z"/>
</g>
</svg>
