<?xml version="1.0" encoding="utf-8"?>
<!-- Generator: Adobe Illustrator 20.1.0, SVG Export Plug-In . SVG Version: 6.00 Build 0)  -->
<svg version="1.1" id="Calque_1" xmlns="http://www.w3.org/2000/svg" xmlns:xlink="http://www.w3.org/1999/xlink" x="0px" y="0px"
	 viewBox="0 0 1080 1620" style="enable-background:new 0 0 1080 1620;" xml:space="preserve">
<style type="text/css">
	.st0{fill:#FFFFFF;stroke:#000000;stroke-miterlimit:10;}
</style>
<polygon id="Shade1" class="st0" points="180,224.2 360,405 0,405 "/>
<rect id="Shade2" x="540" y="131.9" class="st0" width="180" height="153.8"/>
<rect id="Shade3" x="944.1" y="180.8" class="st0" width="135.9" height="224.2"/>
<rect id="Shade4" x="77.3" y="716.5" class="st0" width="282.7" height="66.7"/>
<rect id="Shade5" y="441.7" class="st0" width="282.7" height="66.7"/>
<polygon id="Shade6" class="st0" points="720,491.2 456.8,810 720,810 "/>
<polygon id="Shade7" class="st0" points="599.8,636.8 720,810 456.8,810 "/>
<rect id="Shade8" x="826.3" y="660.7" class="st0" width="167.3" height="149.3"/>
<polygon id="Shade9" class="st0" points="360,1215 180,1028 360,1028 "/>
<polygon id="Shade10" class="st0" points="360,945.4 540,1012.5 588.4,889.3 402.5,810 360,810 "/>
<polygon id="Shade11" class="st0" points="720,997.6 876.3,1121.5 798.1,1215 720,1215 "/>
<polygon id="Shade12" class="st0" points="976.2,1215 1080,1106.3 1080,1215 "/>
<polygon id="Shade13" class="st0" points="93.8,1215 228.6,1356.2 135.1,1447.5 0,1447.5 0,1215 "/>
<rect id="Shade14" x="456.8" y="1456.1" class="st0" width="263.2" height="163.9"/>
<polygon id="Shade15" class="st0" points="1080,1331.2 930.6,1456.1 1080,1593.1 "/>
</svg>
