<svg xmlns="http://www.w3.org/2000/svg" viewBox="0 0 202.08 274.74"><title>Fichier 1</title><path d="M77.36,76.57C72.75,85.06,63.49,93,51.78,99.22c-7.64,4.08-27.74,4.66-34.61-2.14-6.22-6.16-7.89-17.48-3.36-34.58,3.53-13.31,3.6-11.66,10-20.11,4.64-6.15,12-7.68,19.64-8.56,11.78-1.36,20.89,7.52,22.11,9.27,5.69,8.23,9.32,18.09,11.25,29.5.78,4.62,1.15,9.51,1.15,9.51s.27,3.52.3,7.1c.17,17.79-1.34,77.57-1.34,77.57-.19,7.63-2.85,8.86,1.17,13.87,5.61,7,18.67,11.36,25.2,10.37,5.59-.85,1.79-16.32,2.14-21.69.7-10.82,3.24-5.44,2.67-45.55-.13-9.39-5.11-38-6.24-54-.4-5.62-1.17-9.49-.39-14.25,2.23-13.6,2.23-32.91,21.09-46.8C134.83-.36,144.3.09,148.27.9c24.5,5,42.27,31,45.06,36.2,2.67,5,4.53,12.94,7.63,53.5,1.79,23.36-.15,45.77-7.39,75.71-6.8,28.1-12.05,49.82-30.44,71.05-16.32,18.85-33.75,26.63-37.85,28.38-10.4,4.44-28,12-48.08,6.69-15.31-4-24.4-13.42-38.15-27.64-8.26-8.54-18.61-19.25-25.24-35.72-5.44-13.51-2.13-22.29-5.92-44.62C.5,120.91,2.67,124.34,1,88.32s0-50.13,9.11-62.82c8.49-11.87,19.66-21.33,28.17-21,6.83.26,20.22,6.66,24.62,11.89C69.09,23.68,73.28,32.67,75,36.76c.78,1.85,1.64,3.65,2.57,5.43h0a85.88,85.88,0,0,1,9.67,36.05c.15,3.48.25,7.19.27,11.12.08,14.84-1,19.11-1.51,37.68-.57,21.62-1.23,41.78,8.74,42.56,2.4.19.6-2,1.91-5.7,1.84-5.2,1-11,1-20.7,0-5.91-1.93-4.25-1.08-12.11s4.8-40,5.21-61.34c-.16,2.19-1,15.5,8.31,23.47,5.6,4.81,12,5.25,20.07,5.8,9.71.66,19.59,1.34,27.58-5.38,9.2-7.74,9.6-20,9.73-23.95a35.68,35.68,0,0,0-6.35-22.12c-1.71-2.39-7.7-10.53-18.31-12.85a24,24,0,0,0-14.91,1,21.51,21.51,0,0,0-5.17,3.17" fill="none" stroke="#000" stroke-miterlimit="10"/><path d="M128.4,50.84c1.51-.6,7.29-2.71,13-.07,9.29,4.33,9,17.11,8.91,18.31-.25,6.08-3.29,16.22-12,18.63a16,16,0,0,1-15-4.07c-6.55-6.28-4.67-15.09-4.57-15.52" fill="none" stroke="#000" stroke-miterlimit="10"/><path d="M36.77,48.15a22.13,22.13,0,0,1,10.09.18c1.35.35,9,2.31,12.87,9.3,3.55,6.4,2.7,14.79-2,21.44" fill="none" stroke="#000" stroke-miterlimit="10"/><path d="M43.17,59.35" fill="none" stroke="#000" stroke-miterlimit="10"/><polygon points="53.81 68.48 38.87 81.14 33.09 72.51 44.17 59.35 53.81 68.48" fill="none" stroke="#000" stroke-miterlimit="10"/><path d="M49.65,238.62a41.09,41.09,0,0,1,10-16.1c7.7-7.5,16.42-9.6,30.88-12.89,13.62-3.1,20.43-4.65,27.67-2.91,0,0,15.32,3.66,26.12,20.22a11.78,11.78,0,0,1,2.26,6.24c.18,6.81-7,11.92-8.84,13.23-6.74,4.79-12.42,4.22-34.22,4.76-23.76.59-27.35,1.52-35.2-1.21A53.71,53.71,0,0,1,49.65,238.62Z" fill="none" stroke="#000" stroke-miterlimit="10"/><path d="M62.07,233.1c6.54-5.76,9.14-9.44,15.09-12.29,7.93-3.79,14.67-5.94,16.91-6.27,9.14-1.38,16.2-.81,22.53,2.24,4.35,2.1,4.86,7.87,5.59,10.65,1.12,4.26,2,7.59.34,10.27-1.86,3-7.84,3.2-19.8,3.64-1.92.07-4.24.11-4.53-.75-.61-1.83,8.86-4.63,9-9.3.07-3-3.87-5.57-6.18-6.54-.77-.32-4-1.58-10.78.25-3.61,1-5.39,2.08-13.39,6.49-9.36,5.16-12.34,6.64-13.88,5.43C61.74,236,61.53,233.57,62.07,233.1Z" fill="none" stroke="#000" stroke-miterlimit="10"/></svg>