<svg xmlns="http://www.w3.org/2000/svg" viewBox="0 0 271.86 250.18"><title>Fichier 2</title><path d="M111.47,2.36s.78-.16,2.29-.43,3.76-.65,6.72-1A135.85,135.85,0,0,1,146.23.35a142,142,0,0,1,39.08,8.39A136.27,136.27,0,0,1,229.6,35.49c1.76,1.61,3.45,3.33,5.21,5s3.33,3.59,5,5.41a143.9,143.9,0,0,1,9.51,11.82A126.74,126.74,0,0,1,257.75,71a125.17,125.17,0,0,1,6.81,14.71c.5,1.28.91,2.59,1.38,3.89l.68,2c.21.66.39,1.33.59,2l1.16,4,.94,4.11.47,2.06.35,2.09.71,4.21.46,4.27c.16,1.42.32,2.86.39,4.3a119.52,119.52,0,0,1-3.43,35.05c-.39,1.45-.73,2.92-1.16,4.36l-1.33,4.33-1.53,4.29c-.49,1.44-1.13,2.82-1.7,4.24-.3.7-.57,1.42-.88,2.11l-1,2.08-1,2.08-.51,1.06-.53,1c-1.38,2.69-2.93,5.4-4.56,8a121.11,121.11,0,0,1-24.56,28.19c-19.3,16.33-43.37,27.29-68.52,32.12s-51.64,3-75.44-5.5a138.29,138.29,0,0,1-33.13-17.29,139.67,139.67,0,0,1-27-24.49,119.74,119.74,0,0,1-10.4-14.49,108.22,108.22,0,0,1-7.81-15.65,102.37,102.37,0,0,1-5-16.35c-.33-1.37-.56-2.76-.81-4.14-.12-.7-.26-1.35-.35-2.09l-.24-2.06-.48-4.1-.12-1,0-1L.1,137.28a107.54,107.54,0,0,1,3.46-31.67A132.58,132.58,0,0,1,8.33,91.2a130.62,130.62,0,0,1,6.09-13.28c2.2-4.23,4.6-8.25,7.08-12.08S26.58,58.39,29.27,55A156.52,156.52,0,0,1,45.9,36.78,142.24,142.24,0,0,1,62.79,23.2a138.66,138.66,0,0,1,15.79-9.44,137,137,0,0,1,24-9.31Zm0,0L102.6,4.49a136.85,136.85,0,0,0-24,9.4,138.45,138.45,0,0,0-15.72,9.5A142,142,0,0,0,46.12,37,156.15,156.15,0,0,0,29.61,55.24a142.85,142.85,0,0,0-14.6,23A129.87,129.87,0,0,0,9.1,91.5a131.69,131.69,0,0,0-4.58,14.35,106.43,106.43,0,0,0-3.08,31.32l.1,2,.05,1,.13,1,.52,4.1.26,2.06c.08.63.25,1.34.36,2,.26,1.36.5,2.72.84,4.07a100.74,100.74,0,0,0,5.12,16,106.39,106.39,0,0,0,7.85,15.3,117.76,117.76,0,0,0,10.38,14.13,137.37,137.37,0,0,0,26.82,23.79l3.8,2.55,3.89,2.4c1.31.78,2.57,1.64,3.92,2.36l4.05,2.17,2,1.09,2.09,1,4.19,1.93c1.41.63,2.86,1.15,4.29,1.73s2.86,1.17,4.34,1.63c23.34,8.28,49.33,9.82,74,5.08s48.39-15.29,67.35-31.21A120.06,120.06,0,0,0,252,185.94c1.62-2.55,3.13-5.13,4.56-7.84l.54-1,.48-1,1-2,1-2c.31-.68.59-1.38.89-2.06.57-1.38,1.21-2.74,1.71-4.14l1.54-4.19,1.35-4.24c.44-1.41.79-2.85,1.19-4.27A117.67,117.67,0,0,0,270,118.72c-.05-1.43-.2-2.83-.34-4.24l-.41-4.21-.66-4.15-.33-2.07-.44-2-.88-4.06-1.1-4c-.19-.66-.36-1.33-.56-2L264.63,90c-.44-1.29-.84-2.59-1.32-3.86a123.93,123.93,0,0,0-6.58-14.63,125.69,125.69,0,0,0-8.19-13.25,143,143,0,0,0-9.33-11.85c-1.66-1.82-3.24-3.7-4.93-5.43s-3.39-3.43-5.13-5A132.78,132.78,0,0,0,185.2,9a141.76,141.76,0,0,0-39-8.55A135.76,135.76,0,0,0,120.49,1c-3,.34-5.21.7-6.72,1S111.47,2.36,111.47,2.36Z"/><path d="M43.62,55.9l.86-.3c.57-.19,1.43-.44,2.56-.72a61.29,61.29,0,0,1,10-1.41,71.58,71.58,0,0,1,7.21-.09,50.1,50.1,0,0,1,8.44,1,18.86,18.86,0,0,1,2.25.56c.75.23,1.54.4,2.3.68a43.54,43.54,0,0,1,4.61,1.9A49.48,49.48,0,0,1,91,63.14a63.22,63.22,0,0,1,8.53,8c1.32,1.53,2.65,3.12,3.87,4.83.61.86,1.21,1.73,1.77,2.66s1.07,1.85,1.56,2.82A54.32,54.32,0,0,1,111.29,94a48.87,48.87,0,0,1,1.21,13.91A46,46,0,0,1,109.44,122a42.35,42.35,0,0,1-7.93,12.66,52,52,0,0,1-11.64,9.67c-1.1.68-2.13,1.29-3.31,1.92l-1.65.86-.83.43-.89.4c-1.18.53-2.37,1.07-3.57,1.49-.6.22-1.2.46-1.8.66L76,150.7c-1.22.4-2.48.63-3.72.94s-2.51.51-3.78.65a55,55,0,0,1-7.62.54,58.12,58.12,0,0,1-7.58-.45c-1.27-.16-2.46-.34-3.76-.61l-.9-.2-.94-.26c-.64-.17-1.25-.35-1.84-.55a71,71,0,0,1-25.22-14.47,48.19,48.19,0,0,1-8.92-10.75l-.84-1.49-.42-.74c-.08-.14-.12-.2-.22-.41l-.17-.38-1.31-3c-.1-.25-.23-.5-.32-.76l-.25-.81-.49-1.6-.48-1.59c-.13-.53-.21-1.07-.32-1.61-.18-1.07-.46-2.12-.54-3.19l-.27-3.18a46,46,0,0,1,.24-6.2A49.89,49.89,0,0,1,8.93,89.12a62.42,62.42,0,0,1,4.53-9.74,44.29,44.29,0,0,1,2.71-4.18l1.42-1.91,1.5-1.77a50.91,50.91,0,0,1,12.07-10,59.77,59.77,0,0,1,9.09-4.39Zm0,0-3.35,1.26a59.71,59.71,0,0,0-9.06,4.44A48.2,48.2,0,0,0,19.29,71.67,52.47,52.47,0,0,0,9.56,89.33a49.06,49.06,0,0,0-2.27,11.29,45,45,0,0,0-.07,6l.35,3.07c.1,1,.41,2,.61,3.07.12.51.21,1,.35,1.54l.5,1.49.5,1.5.25.75c.09.25.23.5.34.75l1.4,3c.44.91,1.09,1.86,1.63,2.8A46.29,46.29,0,0,0,22,134.72a64.21,64.21,0,0,0,11.52,7.83,72.06,72.06,0,0,0,13.13,5.58c.57.18,1.14.34,1.69.48l.84.22.9.18c1.11.21,2.36.38,3.54.52a55.23,55.23,0,0,0,7.22.39,52.07,52.07,0,0,0,7.22-.56c1.2-.14,2.38-.42,3.57-.63s2.36-.53,3.51-.91l1.74-.52c.57-.18,1.14-.41,1.71-.61,1.15-.39,2.23-.88,3.32-1.35l.82-.36.83-.43,1.66-.85c1-.53,2.13-1.17,3.14-1.79a54.87,54.87,0,0,0,5.9-4.16,46,46,0,0,0,5.24-4.88,43.69,43.69,0,0,0,4.37-5.57c.61-1,1.24-2,1.79-3l.78-1.57.39-.78.33-.79a43.7,43.7,0,0,0,3.28-13.4A50.38,50.38,0,0,0,105.55,82a48,48,0,0,0-6.76-10.26,62.41,62.41,0,0,0-8.2-8.14,45.66,45.66,0,0,0-8.91-5.8,43.2,43.2,0,0,0-4.54-2c-.75-.29-1.52-.47-2.26-.71a18.6,18.6,0,0,0-2.22-.59,47,47,0,0,0-8.4-1.09,71.48,71.48,0,0,0-7.2.05,61.25,61.25,0,0,0-10,1.35c-1.14.27-2,.52-2.57.7Z"/><path d="M20.66,76.9l.52-.6c.33-.4.86-1,1.58-1.68a30.8,30.8,0,0,1,7-5.15A132,132,0,0,1,42.24,64a52.17,52.17,0,0,1,17.23-3.74A49,49,0,0,1,80,64.08a45,45,0,0,1,10,5.84,41.24,41.24,0,0,1,8.43,8.73c.59.85,1.17,1.72,1.7,2.62l.21.34.2.39.35.68.71,1.36a25.24,25.24,0,0,1,1.28,2.91c.2.5.41,1,.6,1.51l.46,1.54a41.55,41.55,0,0,1,1.65,12.84,48.13,48.13,0,0,1-.59,6.54,53,53,0,0,1-1.52,6.43c-.34,1.06-.69,2.11-1.12,3.16l-.17.41-.11.24-.09.18-.36.72c-.24.49-.45,1-.75,1.46a39.42,39.42,0,0,1-3.68,5.63,43.69,43.69,0,0,1-9.74,9.06c-.46.31-.92.62-1.38.91l-.69.44-.4.25-.35.19L81.83,140a46.9,46.9,0,0,1-6.14,2.51A47.88,47.88,0,0,1,63,144.87,55.65,55.65,0,0,1,50.48,144a49.11,49.11,0,0,1-21.41-9.64,43.71,43.71,0,0,1-12.74-16.57,41.44,41.44,0,0,1-3.68-17.2,42.35,42.35,0,0,1,2.22-13.38,33.06,33.06,0,0,1,3.93-7.8c.56-.84,1-1.45,1.37-1.85Zm0,0-.49.62c-.33.41-.8,1-1.36,1.86a33,33,0,0,0-3.87,7.81,39.85,39.85,0,0,0-2,13.35,39.4,39.4,0,0,0,4,16.92,42.7,42.7,0,0,0,13,15.79,47.4,47.4,0,0,0,20.95,8.63,50.12,50.12,0,0,0,24-2,46,46,0,0,0,5.62-2.41l2.79-1.57.35-.2.28-.18.66-.42c.44-.28.87-.58,1.3-.87a41,41,0,0,0,9-8.5,36.66,36.66,0,0,0,3.42-5.14c.26-.42.49-.93.73-1.41l.36-.72.09-.18,0,0,0-.08.14-.34c.39-.93.73-1.92,1-2.91a48.18,48.18,0,0,0,2.15-12.2,39.93,39.93,0,0,0-1.29-12.08l-.38-1.46c-.16-.47-.33-.93-.5-1.39a22.43,22.43,0,0,0-1.11-2.78l-.66-1.39L98.58,83l-.14-.3-.18-.32c-.47-.87-1-1.71-1.53-2.53A41.74,41.74,0,0,0,79.5,65.3a48,48,0,0,0-20-4.39,49.27,49.27,0,0,0-17.15,3.31,111.48,111.48,0,0,0-12.49,5.33,30.76,30.76,0,0,0-7.07,5.09c-.72.71-1.25,1.27-1.59,1.67Z"/><path d="M41,81.39l.42-.29c.28-.19.68-.49,1.24-.82a26.39,26.39,0,0,1,5.06-2.47A33.25,33.25,0,0,1,56.3,76a38.55,38.55,0,0,1,11.38.56A27.07,27.07,0,0,1,79.9,82.42,26.79,26.79,0,0,1,88.13,95.3a25.75,25.75,0,0,1,1.13,8.19c0,.68,0,1.32-.12,2l-.32,2.16-.51,2.08c-.19.69-.45,1.36-.67,2a31.38,31.38,0,0,1-10.38,13.65c-.3.22-.59.44-.9.65l-.12.08-.18.11-.22.13-.45.27c-.61.35-1.17.72-1.81,1.06l-2,1c-.68.33-1.37.51-2.06.77A29,29,0,0,1,61,131a34.69,34.69,0,0,1-16.11-3.45A31.44,31.44,0,0,1,33,118a22.89,22.89,0,0,1-4.41-12.8A25.41,25.41,0,0,1,30.85,94a32,32,0,0,1,4.62-7.44,33.18,33.18,0,0,1,4-4Zm0,0-1.56,1.24a33.12,33.12,0,0,0-3.93,4,28.79,28.79,0,0,0-4.45,7.48,27.1,27.1,0,0,0-1.53,5.12,23.73,23.73,0,0,0-.3,5.88,21.88,21.88,0,0,0,4.82,12,29.73,29.73,0,0,0,11.7,8.48,31.87,31.87,0,0,0,7.34,2.13,32.7,32.7,0,0,0,7.78.48,29.39,29.39,0,0,0,7.67-1.53c.6-.24,1.25-.42,1.82-.7l1.72-.82c.58-.31,1.18-.71,1.77-1.06l.44-.27.22-.14.06,0h0l.1-.07.79-.57a31.47,31.47,0,0,0,5.66-5.52,28.8,28.8,0,0,0,4-6.73c.22-.61.48-1.2.66-1.82l.52-1.86.33-1.84c.12-.61.12-1.32.2-2a23.54,23.54,0,0,0-.66-7.49A25.08,25.08,0,0,0,79,83.41,26.08,26.08,0,0,0,67.53,77.2a35,35,0,0,0-11.21-1,29.81,29.81,0,0,0-8.56,1.64,26.34,26.34,0,0,0-5.08,2.41c-.56.32-1,.63-1.24.81Z"/><path d="M52,95.95l.5-.44a9.87,9.87,0,0,1,1.59-1,13,13,0,0,1,4.56-1.28c.32,0,.67,0,1,0h.51l.54,0a12.19,12.19,0,0,1,4.48,1.33,7.79,7.79,0,0,1,2.15,1.6,7.16,7.16,0,0,1,.89,1.14,8.34,8.34,0,0,1,.67,1.29,11,11,0,0,1,.71,5.87,10.05,10.05,0,0,1-2.67,5.68,9.25,9.25,0,0,1-5.74,2.72,11.84,11.84,0,0,1-5.82-.88A11.26,11.26,0,0,1,51,108.78a8.77,8.77,0,0,1-1.95-4.28,10.22,10.22,0,0,1,.23-3.85,10.75,10.75,0,0,1,1.12-2.71,9.64,9.64,0,0,1,1.11-1.52Zm0,0-.46.48A8.43,8.43,0,0,0,50.47,98a8.57,8.57,0,0,0-.93,2.74,8.37,8.37,0,0,0,.17,3.67A7.18,7.18,0,0,0,52,107.85a9.87,9.87,0,0,0,4.08,2.07,11.23,11.23,0,0,0,4.72.18,7.45,7.45,0,0,0,4-2.08,8.63,8.63,0,0,0,2.13-4.08,9.55,9.55,0,0,0,.26-2.37,8.33,8.33,0,0,0-.28-2.32,6.12,6.12,0,0,0-2.41-3.61,10.07,10.07,0,0,0-3.86-1.8,10.73,10.73,0,0,0-1.94-.22,12.49,12.49,0,0,0-1.77.13,9.89,9.89,0,0,0-2.78.8,8.65,8.65,0,0,0-1.6,1Z"/><path d="M60,95a9.21,9.21,0,0,1,1,1c.62.64,1.44,1.62,2.43,2.81A24,24,0,0,1,65,100.84a3.67,3.67,0,0,1,.46,1.64,4.13,4.13,0,0,1-.4,1.78,12.46,12.46,0,0,1-.79,1.43A4.25,4.25,0,0,1,64,106c-.08.11-.13.18-.24.32a5.16,5.16,0,0,1-.73.7,5.67,5.67,0,0,1-3.7,1.25,5.82,5.82,0,0,1-1-.13c-.19-.05-.28-.06-.55-.15l-.35-.14a5.14,5.14,0,0,1-1.72-1.18,5.74,5.74,0,0,1-1.56-3.26,5.5,5.5,0,0,1,0-1.69l0-.2v-.05a.27.27,0,0,1,0-.08l0-.08.11-.36a4,4,0,0,1,.33-.74,6.43,6.43,0,0,1,1.84-2c.63-.46,1.27-.81,1.71-1.2a4.89,4.89,0,0,0,.84-1.32c.2-.39.35-.73.58-.84A.36.36,0,0,1,60,95Zm0,0a.36.36,0,0,0-.34-.06,1.74,1.74,0,0,0-.53.86,6.56,6.56,0,0,1-.72,1.46c-.43.5-1,.92-1.43,1.52a4.51,4.51,0,0,0-1.05,2,2.52,2.52,0,0,0-.06.52v.39s0,.07,0,0v0l0,.14a4.57,4.57,0,0,0,.32,1.09,4.3,4.3,0,0,0,1.36,1.74,3.61,3.61,0,0,0,.81.44l.36.11.19,0a3.34,3.34,0,0,0,.5,0,3.83,3.83,0,0,0,2-.5c.15-.08.31-.2.41-.26s.17-.16.26-.23l.22-.21a10.72,10.72,0,0,0,.89-.94,2.83,2.83,0,0,0,.52-.85,2.14,2.14,0,0,0,0-1,13.28,13.28,0,0,0-.86-2.23A14.57,14.57,0,0,0,61,96a7.94,7.94,0,0,0-.71-.75Z"/><path d="M111.47,2.36l.27,10.56c.11,6.72.36,16.33.51,27.85l.22,18.61.16,20.77c0,7.2.05,14.65.08,22.21s0,15.25,0,22.93-.07,15.37-.1,22.93l-.18,22.21c-.14,14.4-.33,27.85-.54,39.37s-.49,21.13-.63,27.85l-.31,10.56-.27-10.56c-.11-6.72-.37-16.33-.51-27.85s-.3-25-.38-39.37c0-7.2-.05-14.65-.08-22.21s0-15.25,0-22.93.07-15.37.1-22.93L110,80.15l.25-20.77.3-18.61c.19-11.52.48-21.13.63-27.85Z"/><path d="M156.67,2.36,157,12.82c.17,6.66.5,16.16.75,27.57l.38,18.42.34,20.56.27,22,.2,22.7.1,22.7c0,7.49,0,14.86,0,22,0,14.26-.09,27.58-.2,39s-.3,20.92-.39,27.58l-.22,10.46-.36-10.46c-.17-6.66-.51-16.16-.75-27.57s-.52-24.72-.71-39l-.27-22-.2-22.7-.1-22.7c0-7.49,0-14.86,0-22l.07-20.56.14-18.42c.09-11.41.3-20.92.39-27.58Z"/><path d="M112.57,167s.11-.52.38-1.47a21.6,21.6,0,0,1,1.61-4,19.79,19.79,0,0,1,4.08-5.29,18.84,18.84,0,0,1,7.63-4.17,21.65,21.65,0,0,1,5-.82,27.87,27.87,0,0,1,5.4.2,25,25,0,0,1,5.6,1.36,32.31,32.31,0,0,1,5.44,2.6,21.6,21.6,0,0,1,8.76,9.31,11.27,11.27,0,0,1,.62,1.58,9.46,9.46,0,0,1,.49,1.64l.33,1.68.13,1.66a18.79,18.79,0,0,1-1,6.83,23.72,23.72,0,0,1-8,10.63,26.93,26.93,0,0,1-5.58,3.33,25.46,25.46,0,0,1-6.08,1.74,24.34,24.34,0,0,1-11.72-.94,19.22,19.22,0,0,1-4.87-2.44,20.79,20.79,0,0,1-2-1.57l-.9-.87c-.15-.15-.29-.27-.45-.45L117,187a20.28,20.28,0,0,1-4.13-7.65,25.83,25.83,0,0,1-.9-6.63,26.88,26.88,0,0,1,.31-4.29C112.43,167.48,112.57,167,112.57,167Zm0,0s-.13.51-.27,1.5a26.84,26.84,0,0,0-.25,4.29,22.34,22.34,0,0,0,1.06,6.56,18.62,18.62,0,0,0,4.38,7.29l.41.44c.11.12.29.26.43.38l.91.79a19.85,19.85,0,0,0,2,1.38,18.09,18.09,0,0,0,4.75,2,22.94,22.94,0,0,0,10.94.11,24.22,24.22,0,0,0,10.33-5.13,22.06,22.06,0,0,0,6.85-9.48,15.94,15.94,0,0,0,1-5.63l-.09-1.5-.26-1.42a7.31,7.31,0,0,0-.35-1.39,8.93,8.93,0,0,0-.47-1.35,16.68,16.68,0,0,0-3.08-4.83,22.41,22.41,0,0,0-4.32-3.8,32.34,32.34,0,0,0-4.93-2.79,23.51,23.51,0,0,0-5.17-1.65,23.79,23.79,0,0,0-10-.05,17.38,17.38,0,0,0-7.62,3.73,17.66,17.66,0,0,0-4.17,5.14,21.55,21.55,0,0,0-1.66,4C112.68,166.45,112.57,167,112.57,167Z"/><path d="M123.83,169.27l.3-.58a13.67,13.67,0,0,1,1-1.55,12.42,12.42,0,0,1,1.95-2.1,10.36,10.36,0,0,1,3.32-1.81,10.58,10.58,0,0,1,9.42,1.64,10.27,10.27,0,0,1,3.61,4.58,8,8,0,0,1,.55,3.15l0,.41v.28l0,.17c0,.24-.06.42-.13.7s-.15.59-.24.86l-.3.76a10.12,10.12,0,0,1-4.25,4.45,11,11,0,0,1-2.78,1.12,10.47,10.47,0,0,1-2.89.24,13.33,13.33,0,0,1-5-1.4,13.72,13.72,0,0,1-3.79-2.5,6.47,6.47,0,0,1-1.87-3.28,5.82,5.82,0,0,1,.2-2.86,12,12,0,0,1,.7-1.7Zm0,0-.28.58a10.15,10.15,0,0,0-.66,1.71,5,5,0,0,0,0,2.78,5.43,5.43,0,0,0,2.06,2.85,11.19,11.19,0,0,0,3.83,1.74,12.09,12.09,0,0,0,4.53.51,9.26,9.26,0,0,0,7.22-4.93l.21-.5.14-.44c0-.15.08-.43.13-.63l0-.17v-.06l0-.27a6.49,6.49,0,0,0-.21-2.13,9.77,9.77,0,0,0-6.17-6.18,8.61,8.61,0,0,0-4.13-.3,8.48,8.48,0,0,0-3.31,1.38,9.58,9.58,0,0,0-2.06,1.94,11.37,11.37,0,0,0-1,1.53Z"/><path d="M133.6,165.39a2,2,0,0,1,.39,0,2.16,2.16,0,0,1,1,.54,15.64,15.64,0,0,1,2.4,3.16c.43.71.92,1.42,1.4,2.32a3.4,3.4,0,0,1,.47,1.77l0,.15,0,.15a1.13,1.13,0,0,1-.06.24,2.41,2.41,0,0,1-.28.57,4,4,0,0,1-.68.76c-.85.75-1.61,1.37-2.43,2l-1.24,1c-.22.17-.42.34-.72.53a3.56,3.56,0,0,1-.61.33,2.34,2.34,0,0,1-1.09.16h-.12l-.16,0h0l-.1,0h0l-.15,0-.29-.12a2.69,2.69,0,0,1-.74-.54,4.48,4.48,0,0,1-.67-.91c-.28-.48-.5-.86-.76-1.24l-.41-.55-.2-.25-.26-.29a6.33,6.33,0,0,0-1-.92,2.83,2.83,0,0,1-.86-.88,1.63,1.63,0,0,1-.19-.8l0-.24a2.33,2.33,0,0,1,.1-.43,3.12,3.12,0,0,1,1.29-1.35c.82-.52,1.55-1,2.19-1.46a13.91,13.91,0,0,0,2.77-2.74,3.1,3.1,0,0,1,.75-.8A.88.88,0,0,1,133.6,165.39Zm0,0a.88.88,0,0,0-.37.12,2.72,2.72,0,0,0-.71.82,38.08,38.08,0,0,1-2.37,3.19c-.53.63-1.17,1.3-1.77,2-.29.32-.56.74-.5.84a.08.08,0,0,0,0-.07l0,.12s0,0,0-.09.06,0,.3.06a8.78,8.78,0,0,1,1.54.88l.32.24.36.31a7.87,7.87,0,0,1,.65.64,11.31,11.31,0,0,1,1.09,1.41,3.39,3.39,0,0,0,.3.39s0,0-.09-.06l-.1,0h0l.1,0h0l-.12,0h0a.76.76,0,0,0-.3,0l.1-.06.61-.4c.44-.3.92-.61,1.38-.88.92-.57,1.94-1.05,2.75-1.48l.43-.25s.09-.07.1-.06,0-.05.07-.11l0,0c0,.07,0,0,0,0l0,0a1.89,1.89,0,0,0,0-1,18.7,18.7,0,0,0-.74-2.48,9.11,9.11,0,0,0-1.86-3.4,2,2,0,0,0-.92-.56A2,2,0,0,0,133.6,165.39Z"/><path d="M159,70.14s.71-1.05,2.18-2.92a59.56,59.56,0,0,1,7.07-7.52,59.54,59.54,0,0,1,33.33-15,62.66,62.66,0,0,1,24.69,2,52.47,52.47,0,0,1,12.63,5.22,51.15,51.15,0,0,1,11.22,8.88,50.2,50.2,0,0,1,8.6,12.08,47.45,47.45,0,0,1,2.84,7.06c.22.6.35,1.23.51,1.85s.32,1.18.47,1.92c.21,1.23.44,2.44.63,3.69,1.32,10.4-1.19,21-6.19,30.11a55.08,55.08,0,0,1-4.22,6.57c-.86,1.09-1.55,2-2.45,3L249,128.56l-1.38,1.38a51.12,51.12,0,0,1-12.57,9,58.64,58.64,0,0,1-14.29,5,69.89,69.89,0,0,1-14.66,1.59c-1.21,0-2.42,0-3.63-.1-.61,0-1.19-.08-1.84-.15l-1.75-.22a59.68,59.68,0,0,1-7-1.3,42.07,42.07,0,0,1-12.62-5.39,37.82,37.82,0,0,1-9.48-8.88c-1.27-1.69-2.38-3.31-3.52-5s-2.2-3.3-3.14-5c-4-6.55-6.51-13.38-7.13-19.62a63.68,63.68,0,0,1,.53-16.07c.62-4.4,1.31-7.83,1.75-10.16l.71-3.58-.55,3.6c-.35,2.35-.84,5.8-1.33,10.2a62.87,62.87,0,0,0,0,15.85c.83,6.06,3.46,12.53,7.47,18.89,1,1.62,2.08,3.18,3.17,4.8s2.35,3.27,3.57,4.83a35.76,35.76,0,0,0,9.12,8.21c7.18,4.48,16.38,6.33,25.6,6.37a63.06,63.06,0,0,0,27.65-6.56,48.19,48.19,0,0,0,11.83-8.51l1.29-1.3,1.21-1.35c.79-.88,1.63-2,2.34-2.89a53,53,0,0,0,4-6.23,58.46,58.46,0,0,0,3.12-6.7,49.09,49.09,0,0,0,2.1-7.05,43.89,43.89,0,0,0,1-7.24c.09-1.21,0-2.43,0-3.64s-.19-2.37-.27-3.55-.41-2.45-.61-3.68c-.1-.48-.28-1.14-.42-1.69s-.27-1.17-.47-1.73a44.63,44.63,0,0,0-2.59-6.65,47.49,47.49,0,0,0-8-11.51A50.86,50.86,0,0,0,237.66,54a50.15,50.15,0,0,0-12-5.23,60.71,60.71,0,0,0-23.91-2.38,65.53,65.53,0,0,0-10.59,2A54.2,54.2,0,0,0,182,51.65a59.33,59.33,0,0,0-13.38,8.49,64.7,64.7,0,0,0-7.33,7.18C159.76,69.12,159,70.14,159,70.14Z"/><path d="M174.12,66.19s.83-.73,2.45-2a57.81,57.81,0,0,1,7.42-5.1,49.5,49.5,0,0,1,13-5.16,48.58,48.58,0,0,1,8.53-1.25,51.18,51.18,0,0,1,29.82,7.71,48.36,48.36,0,0,1,9.33,7.36A41.42,41.42,0,0,1,252,77.77a41,41,0,0,1,4.26,25.62,37.07,37.07,0,0,1-1.71,6.58c-.33,1-.86,2.13-1.31,3.18s-1,2.06-1.61,3a41.43,41.43,0,0,1-8.82,10.49,53,53,0,0,1-5.5,4.09c-1,.58-1.82,1.21-2.85,1.76s-2,1.14-3.06,1.61a51,51,0,0,1-12.84,4.2,52.86,52.86,0,0,1-25.92-1.57,53.49,53.49,0,0,1-20.76-12.36,41.31,41.31,0,0,1-6.92-8.84,39.61,39.61,0,0,1-4-9.68,42.82,42.82,0,0,1-.66-18.1,34.46,34.46,0,0,1,5.28-12.89,35.93,35.93,0,0,1,6.06-6.64C173.26,66.89,174.12,66.19,174.12,66.19Zm0,0s-.85.71-2.41,2.09a35.89,35.89,0,0,0-6,6.66,32.83,32.83,0,0,0-5.1,12.88,40.77,40.77,0,0,0,1.07,17.88,38.78,38.78,0,0,0,4.18,9.34,40.14,40.14,0,0,0,7,8.38,51.81,51.81,0,0,0,20.44,11.33,51,51,0,0,0,12.2,1.91,51.81,51.81,0,0,0,24.68-5.15c1-.44,1.86-1,2.8-1.49s1.86-1.17,2.79-1.74a51.88,51.88,0,0,0,5.14-3.87,38.48,38.48,0,0,0,8.26-9.7c.56-.9,1-1.85,1.51-2.8s.86-1.84,1.22-2.91a34.26,34.26,0,0,0,1.71-6.09,37.68,37.68,0,0,0,.18-12.47,40.67,40.67,0,0,0-3.6-11.73,43.43,43.43,0,0,0-15.57-17.23A50.73,50.73,0,0,0,215,53.69a47.1,47.1,0,0,0-9.45-.64,48.28,48.28,0,0,0-8.5,1.08,46.37,46.37,0,0,0-13,5,57.75,57.75,0,0,0-7.45,5C175,65.46,174.12,66.19,174.12,66.19Z"/><path d="M186.44,77.46,187.9,76a41.28,41.28,0,0,1,4.41-3.67,33,33,0,0,1,7.87-4.18,29.76,29.76,0,0,1,11.46-1.64,30.78,30.78,0,0,1,13.29,3.7A26.49,26.49,0,0,1,231,74.92,19.61,19.61,0,0,1,233.57,78a32.55,32.55,0,0,1,2.11,3.47,31.16,31.16,0,0,1,2.92,7.82,26.77,26.77,0,0,1,.47,8.62,27.49,27.49,0,0,1-7.28,15.87,31.19,31.19,0,0,1-15,8.83,28,28,0,0,1-4.3.75c-.7,0-1.34.15-2.09.13s-1.48,0-2.19,0a29,29,0,0,1-8.19-1.73,35.16,35.16,0,0,1-7.14-3.61,52.56,52.56,0,0,1-6-4.68,32.44,32.44,0,0,1-8.44-10.89,19,19,0,0,1-1.56-5.93,18.82,18.82,0,0,1-.06-2.85L177,92.4l.25-1.3a21.16,21.16,0,0,1,3.95-8A43.72,43.72,0,0,1,185,78.88Zm0,0L185,78.89a43.65,43.65,0,0,0-3.79,4.3,19.67,19.67,0,0,0-3.77,8l-.2,1.28-.11,1.35a18.57,18.57,0,0,0,.15,2.78,17.07,17.07,0,0,0,1.76,5.7,31.46,31.46,0,0,0,8.71,10.15,51,51,0,0,0,6,4.25,33.25,33.25,0,0,0,6.91,3.08,26.67,26.67,0,0,0,7.61,1.22c.65,0,1.27,0,1.91,0s1.35-.13,2-.19a25.4,25.4,0,0,0,3.85-.79,29.5,29.5,0,0,0,13.55-8.2,25.47,25.47,0,0,0,4.5-6.57,23.55,23.55,0,0,0,1.41-3.73l.16-.5.08-.25,0-.06s0,.07,0,0l0-.12.21-1a14.27,14.27,0,0,0,.35-1.95,27.21,27.21,0,0,0-2.52-15.19,24.42,24.42,0,0,0-4.06-6.3,25,25,0,0,0-5.52-4.67,29.79,29.79,0,0,0-12.66-4.19,27.51,27.51,0,0,0-11.33,1.21,29.73,29.73,0,0,0-7.9,4,41.24,41.24,0,0,0-4.44,3.62Z"/><path d="M201.72,87.23l.57-.36a10.37,10.37,0,0,1,1.73-.81,11.55,11.55,0,0,1,2.91-.65,11.43,11.43,0,0,1,3.9.35,13.22,13.22,0,0,1,4.28,2,9,9,0,0,1,3.32,4.44,4.48,4.48,0,0,1,.2.74,5.49,5.49,0,0,1,.14.81l.06.67c0,.24,0,.55,0,.83a9,9,0,0,1-.84,3.12,12.38,12.38,0,0,1-4.11,4.72l-.34.23-.36.21c-.2.11-.4.23-.67.36a10.63,10.63,0,0,1-1.49.62,11.6,11.6,0,0,1-3.07.62,10.33,10.33,0,0,1-5.92-1.27,8.48,8.48,0,0,1-2.26-1.84,11.54,11.54,0,0,1-1.48-2.22,9.79,9.79,0,0,1-.86-2.34,8.38,8.38,0,0,1-.26-2.29,9.19,9.19,0,0,1,.9-3.82,10.11,10.11,0,0,1,1.7-2.45,11.14,11.14,0,0,1,1.42-1.29C201.52,87.36,201.72,87.23,201.72,87.23Zm0,0s-.2.13-.55.4a9.61,9.61,0,0,0-1.38,1.31,8.2,8.2,0,0,0-1.52,2.51,7.63,7.63,0,0,0-.48,3.69,8.08,8.08,0,0,0,1.6,4,10,10,0,0,0,1.58,1.7,7.29,7.29,0,0,0,2,1.14,7.38,7.38,0,0,0,2.28.52,9.74,9.74,0,0,0,2.4-.07,12.12,12.12,0,0,0,2.37-.64,11.79,11.79,0,0,0,1.1-.49,5.94,5.94,0,0,0,.57-.31l.25-.15.24-.16a12,12,0,0,0,3.38-3.51,7.11,7.11,0,0,0,.8-2.11c0-.17.08-.31.1-.52l0-.68a3.36,3.36,0,0,0,0-.52,2.86,2.86,0,0,0-.07-.56,7.43,7.43,0,0,0-2.12-4,11.8,11.8,0,0,0-1.73-1.42,13.14,13.14,0,0,0-1.89-1,9.33,9.33,0,0,0-3.69-.71,9.18,9.18,0,0,0-2.91.45,9.07,9.07,0,0,0-1.74.77Z"/><path d="M207.48,90H208a3.41,3.41,0,0,1,.49.06,3.56,3.56,0,0,1,.48.1,4.76,4.76,0,0,1,.48.13c.31.1.62.21.93.34s.6.27.9.42A19.18,19.18,0,0,1,213,92l.84.57.42.3.21.16.1.08.05,0a.61.61,0,0,0-.45-.19.64.64,0,0,0-.52.27l1.17.65a18,18,0,0,1-.91,3.24c-.06.14-.12.28-.19.42l-.22.4a6.42,6.42,0,0,1-.56.81,7.57,7.57,0,0,1-1.36,1.31,6.51,6.51,0,0,1-3.69,1.33,5.6,5.6,0,0,1-2-.31,6.39,6.39,0,0,1-.93-.42,5.58,5.58,0,0,1-.82-.54A6.21,6.21,0,0,1,201.93,97a5.19,5.19,0,0,1-.2-1.87c0-.15,0-.31.06-.46l0-.11v0c0-.08,0,0,0-.06v0l.06-.19a5.74,5.74,0,0,1,.31-.84,5.82,5.82,0,0,1,2.27-2.43A6.44,6.44,0,0,1,207.48,90Zm0,0a4.94,4.94,0,0,0-2.87,1.18,4.42,4.42,0,0,0-1.52,2.53,4.07,4.07,0,0,0,0,.7v.25s0,.05,0,0v.11c0,.11,0,.23.06.33a3.56,3.56,0,0,0,.52,1.21,4.85,4.85,0,0,0,1.89,1.66,6,6,0,0,0,.56.24,1.52,1.52,0,0,0,.25.08l.11,0,.19,0a3.63,3.63,0,0,0,1.09.09,5.14,5.14,0,0,0,2.23-.72A7.31,7.31,0,0,0,211,97l.46-.41.23-.25.21-.26a23.15,23.15,0,0,0,1.59-2.6l1.17.65a.73.73,0,0,1-.56.23.72.72,0,0,1-.49-.24l0,0-.07-.09-.14-.19-.29-.38c-.2-.25-.41-.49-.63-.73A10.88,10.88,0,0,0,211,91.32a7.33,7.33,0,0,0-1.67-1,4.68,4.68,0,0,0-.46-.16,2.14,2.14,0,0,0-.47-.12A3.38,3.38,0,0,0,208,90Z"/></svg>