<svg xmlns="http://www.w3.org/2000/svg" viewBox="0 0 1085.67 1663.94">
  <title>faces2</title>
  <g>
    <path d="M95.62,53.54c-5.78-.13-12.9,4.25-15.87,8.24-5.65,7.63-8.61,5.94-10.94,40.52-.75,11.17,4.09,39.57,4.62,43.07,2.59,16.82,3,27,12.45,43.14,5.94,10.11,21.09,26.64,50.37,25.19,34.11-1.69,52-30.1,57.65-48.12,8.05-25.85,10.56-46.29,9.47-65.65-1.71-30.46-7.71-35.4-15.06-42.91C179.6,48.11,172.55,48,162.85,48c-4.58,0-11.64,1.56-16,6.61-15.77,18.41-12.64,98.32-12.64,98.32l-5.21-.42s-2.47-26-2.57-32.76C126,90.91,129.18,84,119.69,68.56,115.27,61.35,104.94,53.75,95.62,53.54Z" style="fill: #fff;stroke: #1d1d1b;stroke-miterlimit: 10"/>
    <g>
      <circle cx="96.76" cy="90.86" r="21.59" style="fill: none;stroke: #1d1d1b;stroke-miterlimit: 10"/>
      <circle cx="159.07" cy="89.76" r="21.59" style="fill: none;stroke: #1d1d1b;stroke-miterlimit: 10"/>
      <circle cx="98.6" cy="90.56" r="11.47" style="fill: none;stroke: #1d1d1b;stroke-miterlimit: 10"/>
      <circle cx="159.03" cy="90.91" r="11.63" style="fill: none;stroke: #1d1d1b;stroke-miterlimit: 10"/>
      <rect x="92" y="88.34" width="11.11" height="7.97" transform="translate(-36.63 86.51) rotate(-40.94)" style="fill: #000100;stroke: #1d1d1b;stroke-miterlimit: 10"/>
    </g>
    <path d="M118.36,90.86c.24,9.26.25,49.36.42,57.12,0,2.15.07,6.43,1.91,9.25,3.37,5.17,10.05,7.17,12.08,7.5,2.25.37,5.24-.42,6.1-2.42,2.33-5.41.34-52.26-2.4-72.15" style="fill: none;stroke: #1d1d1b;stroke-miterlimit: 10"/>
    <g>
      <path d="M165.59,190.27c0,6.66-17.24,12.06-33,12.06s-33.1-6.12-29.12-11.45c4.88-6.53,15.67-12.78,31-16.56C150.86,170.24,165.59,183.61,165.59,190.27Z" style="fill: none;stroke: #1d1d1b;stroke-miterlimit: 10"/>
      <path d="M150.38,186.62c1,7.65-3,9.45-18.72,9.45-10.49,0-21.62-4-19-5.79,4.61-3.22,9-10.14,19.45-10.14S149.59,180.47,150.38,186.62Z" style="fill: none;stroke: #1d1d1b;stroke-miterlimit: 10"/>
      <path d="M141.24,188.35c.2.65-1.93,3.21-4.85,6a6.44,6.44,0,0,1-5.24,1.7l-15.83-2.85c2.34-1.78,6.22-5.76,11.45-6.8C132.32,185.24,140.35,185.5,141.24,188.35Z" style="fill: #000100;stroke: #1d1d1b;stroke-miterlimit: 10"/>
    </g>
  </g>
  <g>
    <rect x="276.48" y="49.27" width="123.86" height="75.11" rx="12" ry="12" transform="translate(-5.14 23.32) rotate(-3.92)" style="fill: #fff;stroke: #1d1d1b;stroke-miterlimit: 10"/>
    <rect x="289.32" y="49.47" width="95.5" height="169.93" rx="12" ry="12" transform="translate(-8.4 23.34) rotate(-3.92)" style="fill: #fff;stroke: #1d1d1b;stroke-miterlimit: 10"/>
    <rect x="323.6" y="72.64" width="18.07" height="12.79" transform="translate(-7.32 42.62) rotate(-7.25)" style="fill: none;stroke: #1d1d1b;stroke-miterlimit: 10"/>
    <polygon points="344.2 102.07 326.16 103.2 324.24 86.47 342.71 84.12 344.2 102.07" style="fill: none;stroke: #1d1d1b;stroke-miterlimit: 10"/>
    <g>
      <polygon points="318.45 106.18 300.41 107.31 298.5 90.57 316.97 88.23 318.45 106.18" style="fill: none;stroke: #1d1d1b;stroke-miterlimit: 10"/>
      <polygon points="373.48 101.05 355.44 102.17 353.53 85.44 372 83.1 373.48 101.05" style="fill: none;stroke: #1d1d1b;stroke-miterlimit: 10"/>
    </g>
    <polygon points="345.24 124 325.65 125.35 326.16 103.2 344.2 102.07 345.24 124" style="fill: none;stroke: #1d1d1b;stroke-miterlimit: 10"/>
    <polygon points="345.24 165.72 327.61 165.72 326.74 125.76 344.72 124.38 345.24 165.72" style="fill: none;stroke: #1d1d1b;stroke-miterlimit: 10"/>
    <g>
      <rect x="310.03" y="165.72" width="62.06" height="24.41" style="fill: none;stroke: #1d1d1b;stroke-miterlimit: 10"/>
      <line x1="310.03" y1="182.05" x2="372.09" y2="182.05" style="fill: none;stroke: #1d1d1b;stroke-miterlimit: 10"/>
    </g>
    <polygon points="381.67 79.67 287.41 90.82 287.41 105.61 382.55 99.69 381.67 79.67" style="fill: none;stroke: #1d1d1b;stroke-miterlimit: 10"/>
  </g>
  <g>
    <rect x="488.86" y="60.12" width="106.5" height="126.36" style="fill: #fff"/>
    <path d="M528.42,73.91c4.31,8.34,10.74,23.71,10.83,28.77.16,9.11-2.54,23.22-2.54,23.22s-.66,1.8-5.12.13c-5.2-1.95-6.35,1-6.73,1.42a4.24,4.24,0,0,0,.06,5.17c1.29,1.3,3.72.75,6.76.06,2.86-.65,3.23-1.28,4.94-1.4,2.77-.19,4.55,1.28,6.82,2.52,4.82,2.62,12.48,4.51,17,1.63,2-1.27,3.75-3.68,3.23-5.31-.41-1.28-1.94-1.22-5.72-3.28-2.63-1.43-4.43-2.43-5.47-4.34a8.07,8.07,0,0,1-.76-4.79c.44-4.59,1.6-22.68,1.33-38.54" style="fill: none;stroke: #1d1d1b;stroke-miterlimit: 10"/>
    <g>
      <path d="M512.27,169.27l19-20.09a4.5,4.5,0,0,1,2.84-1.52c1.17-.09,2.13.45,4,1.87a52.31,52.31,0,0,1,5.15,4.53l9.13-4.17a16,16,0,0,1,7.79-2.24,11.35,11.35,0,0,1,6.1,1.21c1,.59,2.68,1.81,5.56,8.41a78,78,0,0,1,3.46,9.59c-1.05.71-2.62,1.78-4.49,3.12-5,3.58-6.45,5-9.13,6.95-4.14,3-7.72,5.54-12.45,6.51-5.17,1.06-9.42-.4-14.06-1.92a45.87,45.87,0,0,1-13.08-6.8Z" style="fill: none;stroke: #1d1d1b;stroke-miterlimit: 10"/>
      <path d="M574.58,164.94c-9.82,1-20.72,3.07-25.86,4.79-4.48,1.5-7.09,2.73-11.36,3.12-7.28.67-20.94-1.47-25.09-3.58" style="fill: none;stroke: #1d1d1b;stroke-miterlimit: 10"/>
    </g>
    <g>
      <path d="M530.49,78.79c0,4.27-7.64,5.85-18.22,5.85S488.86,82,488.86,77.69s9.88-16.11,20.46-16.11S530.49,74.51,530.49,78.79Z" style="fill: none;stroke: #1d1d1b;stroke-miterlimit: 10"/>
      <path d="M592.51,74.28C592.51,78.55,588.63,85,578,85s-20.9-1.07-24.44-4c-3.3-2.71,9.08-20.89,19.67-20.89S592.51,70,592.51,74.28Z" style="fill: none;stroke: #1d1d1b;stroke-miterlimit: 10"/>
      <circle cx="508.25" cy="74.91" r="5.16" style="fill: none;stroke: #1d1d1b;stroke-miterlimit: 10"/>
      <rect x="563.8" y="72.56" width="16.96" height="7.29" transform="translate(11.14 211.97) rotate(-21.19)" style="fill: #000100;stroke: #1d1d1b;stroke-miterlimit: 10"/>
    </g>
  </g>
  <g>
    <path d="M674.48,78.65c6.78-7.84,18.41-4.28,20.78-4,3.88.45,11.4,1.32,17.55,6.72,3,2.67,4.32,5.19,7.44,5.58,4.06.5,7.47-3.07,9.21-4.69,10.11-9.42,27.15-11.84,36.91-10.12,1.88.33,16,3,22.49,15.48,5.52,10.68,4,25.84-4.15,32-5.17,3.88-11.71,3.15-24.71,1.7-16.82-1.88-24.06-6.24-27.31-2.62-3.93,4.38-.45,14.35-1.29,19.47-.6,3.68-6.82,2.78-9,2.8-3.52,0-6.83,3.54-7.91.14-.75-2.36-3.43-10.34-1.54-17.34,1.74-6.46.74-11.41,1.25-9.71,0,0-3-2.36-14.19.06-13.83,3-16,6.49-23.2,6.18-.82,0-15.62-3.15-15-11.64C662.65,98.23,665.13,89.45,674.48,78.65Z" style="fill: #fff;stroke: #000100;stroke-miterlimit: 10"/>
    <g>
      <circle cx="688.57" cy="102.87" r="7.59" style="fill: none;stroke: #000100;stroke-miterlimit: 10"/>
      <circle cx="759.43" cy="102.28" r="9.11" style="fill: none;stroke: #000100;stroke-miterlimit: 10"/>
    </g>
    <ellipse cx="722.86" cy="166.85" rx="12.87" ry="14.16" style="fill: #fff;stroke: #000100;stroke-miterlimit: 10"/>
  </g>
  <g>
    <rect x="872.13" y="57.43" width="139.22" height="158.03" style="fill: #fff;stroke: #000100;stroke-miterlimit: 10"/>
    <rect x="887.95" y="74.15" width="111.54" height="126.02" style="fill: none;stroke: #000100;stroke-miterlimit: 10"/>
    <line x1="924.93" y1="74.15" x2="923.38" y2="200.17" style="fill: none;stroke: #000100;stroke-miterlimit: 10"/>
    <line x1="965.39" y1="74.15" x2="966.26" y2="200.17" style="fill: none;stroke: #000100;stroke-miterlimit: 10"/>
    <line x1="887.88" y1="157.8" x2="999.49" y2="159.58" style="fill: none;stroke: #000100;stroke-miterlimit: 10"/>
    <line x1="887.88" y1="111.12" x2="999.49" y2="111.15" style="fill: none;stroke: #000100;stroke-miterlimit: 10"/>
    <line x1="937.47" y1="110.96" x2="939.08" y2="182.3" style="fill: none;stroke: #000100;stroke-miterlimit: 10"/>
    <line x1="951.04" y1="110.96" x2="951.04" y2="181.7" style="fill: none;stroke: #000100;stroke-miterlimit: 10"/>
    <g>
      <path d="M916.37,133.33s-4.08,6.6-8.82,6.6-8.35-4.29-8.35-6.6a6.34,6.34,0,0,1,6.43-6.37C910.37,127,916.37,133.33,916.37,133.33Z" style="fill: none;stroke: #000100;stroke-miterlimit: 10"/>
      <path d="M991.06,136.44c2.42,2.29-5.14,3.49-8.91,8.42-3.1,4-9.93-7.57-9.93-7.57s4.27-6.89,9.37-6.89S987.27,132.86,991.06,136.44Z" style="fill: none;stroke: #000100;stroke-miterlimit: 10"/>
    </g>
    <g>
      <line x1="923.6" y1="181.7" x2="966.13" y2="181.7" style="fill: none;stroke: #000100;stroke-miterlimit: 10"/>
      <line x1="923.52" y1="188.21" x2="966.18" y2="188.21" style="fill: none;stroke: #000100;stroke-miterlimit: 10"/>
      <rect x="923.89" y="158.37" width="42.37" height="41.79" style="fill: none;stroke: #000100;stroke-miterlimit: 10"/>
    </g>
  </g>
  <g>
    <polyline points="66.09 323.65 65.27 293.8 202.03 290.49 202.03 311.46" style="fill: #fff;stroke: #000100;stroke-miterlimit: 10"/>
    <path d="M202,311.46H189.21A10.24,10.24,0,0,0,179,321.67v4c0,5.62,5.67,8.28,11.28,8.28l13.17.78.72,22.38-51.51,5.6,3.89,58.49h-37l-3.05-61.53-49.38,1.45-.49-17.79H81.59a9.85,9.85,0,0,0,9.82-9.82h0a9.85,9.85,0,0,0-9.82-9.82H66.09" style="fill: #fff;stroke: #000100;stroke-miterlimit: 10"/>
    <rect x="73.96" y="330.19" width="9.57" height="6.56" transform="translate(-193.38 125.27) rotate(-39.29)" style="fill: #1d1d1b;stroke: #000100;stroke-miterlimit: 10"/>
    <polygon points="129.94 414.34 119.14 412.68 119.14 406.6 131.19 409.47 129.94 414.34" style="fill: #1d1d1b;stroke: #000100;stroke-miterlimit: 10"/>
    <g>
      <path d="M156.56,421.17l14.62,11.91a44.71,44.71,0,0,1-9.64,11.1,49.93,49.93,0,0,1-22,9.78c-21.32,3.5-38.18-10.15-40.88-12.41l20.95-20.38Z" style="fill: #fff;stroke: #000100;stroke-miterlimit: 10"/>
      <line x1="98.62" y1="441.55" x2="171.18" y2="433.08" style="fill: #fff;stroke: #000100;stroke-miterlimit: 10"/>
    </g>
  </g>
  <g>
    <path d="M414.66,357.12c-6.21,3.57-11.58,9.74-23,14.6-12.75,5.4-24.16,7.35-33.16,8.63-19.35,2.74-41.87-5.24-48.57-15.1s20.62-35,51-37C390.52,326.4,414.66,357.12,414.66,357.12Z" style="fill: #fff;stroke: #000100;stroke-miterlimit: 10"/>
    <g>
      <ellipse cx="390.63" cy="357.07" rx="6.62" ry="8.18" style="fill: none;stroke: #000100;stroke-miterlimit: 10"/>
      <polygon points="335.62 351.58 323.81 363.39 331.75 367.61 343.03 360.31 335.62 351.58" style="fill: none;stroke: #000100;stroke-miterlimit: 10"/>
    </g>
    <path d="M357.19,426.87c1.72-1.23,6.31-.27,19.21,10.15a23.64,23.64,0,0,1-11.53,7.55c-2.29.64-6.1,1.7-10.24.07-3-1.18-7.36-4.24-7.16-7.94a7.62,7.62,0,0,1,2.36-4.55c1.13-1.09,1.87-1.1,4-2.54A33.59,33.59,0,0,0,357.19,426.87Z" style="fill: #1d1d1b;stroke: #000100;stroke-miterlimit: 10"/>
    <line x1="359.73" y1="314.91" x2="357.19" y2="426.87" style="fill: none;stroke: #000100;stroke-miterlimit: 10"/>
  </g>
  <g>
    <rect x="479.45" y="315.79" width="120.67" height="124.35" style="fill: #fff"/>
    <g>
      <path d="M480,320.37s45.92-2.37,47.93-1.84c-3.14,10.62-6.79,18.9-9.95,22.94-2.3,2.94-4,4.46-6.19,5.47-7.15,3.24-15.13-1.06-17.19-2.17C484.72,339.43,480,320.37,480,320.37Z" style="fill: none;stroke: #000100;stroke-miterlimit: 10"/>
      <path d="M552,316.82s46.83-1.05,48.84-.52c-3.14,10.62-4.1,20.44-7.26,24.48-5.39,7.33-8.51,6.9-10.94,7.18-7.9.93-15.84.13-20.07-5.38C554.38,332,552,316.82,552,316.82Z" style="fill: none;stroke: #000100;stroke-miterlimit: 10"/>
      <path d="M563.8,316.58c0,.95,2,10.56,6.21,14.48.71.66,4.94,4.65,9.56,3.74,4.9-1,9.06-10.74,8.51-18.61" style="fill: #1d1d1b;stroke: #000100;stroke-miterlimit: 10"/>
      <path d="M491.52,320.13c.19,1.23,1.46,10.58,7.83,14.25,1.31.75,5.28,3,9.23,1.59,4.33-1.6,7.37-11,6.68-17.52" style="fill: #1d1d1b;stroke: #000100;stroke-miterlimit: 10"/>
    </g>
    <line x1="526.53" y1="318.51" x2="551.95" y2="316.82" style="fill: none;stroke: #000100;stroke-miterlimit: 10"/>
    <line x1="539.55" y1="317.65" x2="536.94" y2="419.65" style="fill: none;stroke: #000100;stroke-miterlimit: 10"/>
    <path d="M575.58,421.31c-14.11-.69-12,3.45-19.11,1.42-24-6.85-34.89-.53-41.22,2.34,1.38,1.51,3.43,3.73,6,6.35,7.86,8.06,9.66,8.91,10.86,9.36.46.17,6.66,2.36,12.61-.64,4.88-2.46,7.31-7.26,8.91-10.43.87-1.73.76-1.91,1.23-2.74C559.63,418.51,576.12,421.33,575.58,421.31Z" style="fill: none;stroke: #000100;stroke-miterlimit: 10"/>
  </g>
  <g>
    <polygon points="640.93 294.88 761.62 294.04 695.52 438.79 640.93 294.88" style="fill: #fff;stroke: #000100;stroke-miterlimit: 10"/>
    <line x1="695.52" y1="438.79" x2="695.52" y2="294.04" style="fill: none;stroke: #000100;stroke-miterlimit: 10"/>
    <path d="M743.79,333.23c-26.19,0-51.85-.63-78-.63-4,0-6.15.82-10.13.82a9.82,9.82,0,0,0-1.21-4l90.48,1Z" style="fill: #1d1d1b;stroke: #000100;stroke-miterlimit: 10"/>
    <g>
      <path d="M702.07,424.46l19,11.06a39.29,39.29,0,0,1-9.08,7.19c-3.2,1.84-11.35,6.36-22.13,5.09a34.6,34.6,0,0,1-21.2-11.15l22.5-9.4,4.38,11.54Z" style="fill: #000100;stroke: #000100;stroke-miterlimit: 10"/>
      <polygon points="675.38 436.24 687.29 432.18 692.92 438.83 676.3 439.26 675.38 436.24" style="fill: #fff;stroke: #000100;stroke-miterlimit: 10"/>
      <path d="M704.34,430.16c-2.33.45-5.26,8.19-5.26,8.19l17-2.12S707.51,429.55,704.34,430.16Z" style="fill: #fff;stroke: #000100;stroke-miterlimit: 10"/>
    </g>
    <g>
      <path d="M712,331.93l1.39,8.29a10.35,10.35,0,0,0,5.87,7.83q.32.14.66.26c3.24,1.13,6.78-.26,8.86-3.63a10.7,10.7,0,0,0,1.73-4.1l1.28-8.31" style="fill: none;stroke: #000100;stroke-miterlimit: 10"/>
      <path d="M664.24,332.59a20,20,0,0,0,4.67,9.2c1.81,2,4.62,5.07,8.44,5.07,7.86,0,8.09-9.88,10-15.12" style="fill: none;stroke: #000100;stroke-miterlimit: 10"/>
    </g>
  </g>
  <g>
    <rect x="823.01" y="298.49" width="142.37" height="150.43" style="fill: none"/>
    <path d="M922.48,350.61c1.32,2.45,13.06,11.55,26,6.38,10.13-4,14.23-14.94,14.41-22.81,0-.53.09-12.8-9-20.41-5.34-4.47-9.61-3.8-24.61-7.2-15.37-3.49-14.38-5-23.41-6.6-17.55-3.15-32.09.56-39,2.4-14.48,3.85-26.73,7.1-34.82,18.61-1.46,2.07-8.4,12.4-6.6,25.81.4,3,1.95,14.51,10.81,19.81,4.4,2.63,8.85,2.67,14.41,2.4,21.28-1,26.35-4.9,39.62-5.4,6.51-.25,21.94-.62,34.82,9,2.31,1.72,13.88,10.37,12,19.21-1.09,5.14-6.25,8-9,9.61-8,4.53-13.72,2.79-28.82,3.6-13.78.74-21.14,1.13-28.22,5.4-2.35,1.42-13.15,7.6-14.41,18-.18,1.53,1.21,7.72,3.48,10.63" style="fill: none;stroke: #343434;stroke-miterlimit: 10"/>
    <g>
      <circle cx="854.33" cy="338.46" r="12.95" style="fill: none;stroke: #343434;stroke-miterlimit: 10"/>
      <path d="M946,341.58c0,7.36-6,12.41-13.33,13.33s-13.2-4.9-13.33-13.33a13.33,13.33,0,1,1,26.66,0Z" style="fill: none;stroke: #343434;stroke-miterlimit: 10"/>
      <ellipse cx="853.46" cy="340.58" rx="8.35" ry="5.85" style="fill: none;stroke: #343434;stroke-miterlimit: 10"/>
      <ellipse cx="936.54" cy="342.07" rx="8.72" ry="8.1" style="fill: none;stroke: #343434;stroke-miterlimit: 10"/>
    </g>
    <circle cx="882.36" cy="385.42" r="5.85" style="fill: none;stroke: #343434;stroke-miterlimit: 10"/>
    <g>
      <path d="M924.83,429.64c0,5.92-13.92,17.94-32.64,17.94s-33.63-6-33.63-12,13.67-16.69,32.39-16.69S924.83,423.72,924.83,429.64Z" style="fill: none;stroke: #343434;stroke-miterlimit: 10"/>
      <line x1="924.58" y1="428.89" x2="860" y2="438.97" style="fill: none;stroke: #343434;stroke-miterlimit: 10"/>
    </g>
  </g>
  <g>
    <path d="M152.55,654.74s.66-21,0-35.41c-.48-10.44,2.76-22.37,9.23-46.23,5.49-20.25,9-26.55,14.77-31.55a30.34,30.34,0,0,1,16.24-7.7,32.53,32.53,0,0,1,18.09,3.67C224,544.92,227.18,561.69,229,572c4,23.47-1.91,42.34-8.49,62.37-7.71,23.46-11.56,35.19-23.62,46.23-17.58,16.08-38.81,18.13-45.77,18.71-28.27,2.34-49-10.73-55-14.67-40.71-26.55-43.54-75.76-43.93-82.55a104.86,104.86,0,0,1,4.43-35.59c4.32-14.19,9.6-20.35,11.44-22.38s7.3-8,14.4-10.64c17-6.29,41.24,7,52.42,24.95,12.28,19.74,9.15,45.82,8.49,50.63l.74,45.31Z" style="fill: #fff;stroke: #1d1d1b;stroke-miterlimit: 10"/>
    <g>
      <path d="M124.49,676.75c.9-4.6,7-6.95,8.12-7.34,1.66-.59,4.86-1.74,7.75-.37s3.31,4.44,5.17,4.4,2-2.71,4.43-4.77c3.05-2.54,8.29-3.1,12.55-1.1a12.15,12.15,0,0,1,7,9.54c.6,6.38-5,10.83-6.64,12.11-8.38,6.64-21.29,5.3-29.53,0C131.94,688.32,123.31,682.78,124.49,676.75Z" style="fill: #fff;stroke: #1d1d1b;stroke-miterlimit: 10"/>
      <line x1="126.34" y1="683.36" x2="169.89" y2="677.12" style="fill: #fff;stroke: #1d1d1b;stroke-miterlimit: 10"/>
    </g>
    <g>
      <path d="M79.25,582.41c-2.37,2.83-3,6.17-3.62,8.37l14.53.15L95.49,600l-1.13-8.78,15.21.38-3,12.07,7.6-12.37,13.81-.1a18.7,18.7,0,0,0-3.32-8.44C115.65,570.52,89.47,570.19,79.25,582.41Z" style="fill: #fff;stroke: #1d1d1b;stroke-miterlimit: 10"/>
      <path d="M171,585.93c-1,2.37-.32,3.94-.3,5.39,2-.27,6.51.35,11,.66,1.79.12,3.27.81,7.28,2.58,3.12,1.38.65,5.9,2.38,7,3.31,2.08,8.87,1.17,11.44-1.83,1.74-2,.89-3.57,2.21-5.5s4.21-4,13.36-3c-.78-2.59-1.44-6.22-3.76-10.24-2.41-4.18-4.37-7.57-7.75-9.91-7.26-5-18.33-3.23-25.47,1.47A33.36,33.36,0,0,0,171,585.93Z" style="fill: #fff;stroke: #1d1d1b;stroke-miterlimit: 10"/>
      <line x1="170.26" y1="589.44" x2="217.73" y2="589.17" style="fill: #fff;stroke: #1d1d1b;stroke-miterlimit: 10;stroke-width: 5px"/>
      <line x1="76.01" y1="589.14" x2="127.62" y2="589.79" style="fill: #fff;stroke: #1d1d1b;stroke-miterlimit: 10;stroke-width: 4px"/>
    </g>
  </g>
  <g>
    <polygon points="466.78 695.64 316.58 699.41 311.67 519.02 461.87 519.02 466.78 695.64" style="fill: #fff;stroke: #1d1d1b;stroke-miterlimit: 10"/>
    <polygon points="412 664.61 406.29 664.61 406.1 667.57 394.48 667.47 393.3 667.66 382.57 667.47 381.29 667.37 369.77 667.17 369.77 660.48 369.57 656.44 380.99 656.54 381.09 655.85 393.3 656.05 393.3 655.36 404.32 655.65 404.62 657.92 414.86 657.82 415.73 658.02 415.75 664.61 412 664.61" style="fill: #1d1d1b;stroke: #1d1d1b;stroke-miterlimit: 10"/>
    <rect x="316.2" y="519.4" width="6.42" height="179.63" style="fill: none;stroke: #1d1d1b;stroke-miterlimit: 10"/>
    <rect x="322.73" y="519.07" width="13.87" height="179.8" style="fill: none;stroke: #1d1d1b;stroke-miterlimit: 10"/>
    <rect x="336.87" y="519.07" width="10.14" height="45.08" style="fill: none;stroke: #1d1d1b;stroke-miterlimit: 10"/>
    <rect x="336.45" y="563.88" width="10.8" height="134.38" style="fill: none;stroke: #1d1d1b;stroke-miterlimit: 10"/>
    <rect x="347.27" y="519.33" width="9.87" height="43.75" style="fill: none;stroke: #1d1d1b;stroke-miterlimit: 10"/>
    <rect x="346.74" y="563.35" width="12.66" height="134.18" style="fill: none;stroke: #1d1d1b;stroke-miterlimit: 10"/>
    <rect x="359.28" y="563.35" width="10.14" height="133.92" style="fill: none;stroke: #1d1d1b;stroke-miterlimit: 10"/>
    <rect x="404.1" y="563.61" width="12.27" height="94.7" style="fill: #fff;stroke: #1d1d1b;stroke-miterlimit: 10"/>
    <rect x="370.12" y="666.88" width="11.57" height="30.12" style="fill: #fff;stroke: #1d1d1b;stroke-miterlimit: 10"/>
    <rect x="382.22" y="667.13" width="11.47" height="30.09" style="fill: #fff;stroke: #1d1d1b;stroke-miterlimit: 10"/>
    <rect x="393.96" y="667.11" width="11.74" height="29.62" style="fill: #fff;stroke: #1d1d1b;stroke-miterlimit: 10"/>
    <rect x="405.7" y="664.16" width="10.14" height="32.03" style="fill: #fff;stroke: #1d1d1b;stroke-miterlimit: 10"/>
    <rect x="393.68" y="563.88" width="10.19" height="92.03" style="fill: #fff;stroke: #1d1d1b;stroke-miterlimit: 10"/>
    <rect x="381.66" y="563.92" width="12.04" height="92.53" style="fill: #fff;stroke: #1d1d1b;stroke-miterlimit: 10"/>
    <rect x="370.22" y="563.88" width="11.2" height="93.1" style="fill: #fff;stroke: #1d1d1b;stroke-miterlimit: 10"/>
    <rect x="416.63" y="595.36" width="8.86" height="101.36" style="fill: none;stroke: #1d1d1b;stroke-miterlimit: 10"/>
    <rect x="425.17" y="563.88" width="10.23" height="132.85" style="fill: none;stroke: #1d1d1b;stroke-miterlimit: 10"/>
    <rect x="435.57" y="564.15" width="9.03" height="131.99" style="fill: none;stroke: #1d1d1b;stroke-miterlimit: 10"/>
    <rect x="444.91" y="519.6" width="11.2" height="176.45" style="fill: none;stroke: #1d1d1b;stroke-miterlimit: 10"/>
    <polygon points="456.38 519.07 462.37 519.07 466.52 695.13 456.11 695.66 456.38 519.07" style="fill: none;stroke: #1d1d1b;stroke-miterlimit: 10"/>
    <rect x="435.31" y="519.07" width="9.34" height="44.02" style="fill: none;stroke: #1d1d1b;stroke-miterlimit: 10"/>
    <rect x="424.37" y="519.33" width="10.14" height="43.75" style="fill: none;stroke: #1d1d1b;stroke-miterlimit: 10"/>
    <rect x="413.7" y="519.27" width="10.14" height="44.08" style="fill: none;stroke: #1d1d1b;stroke-miterlimit: 10"/>
    <rect x="404.63" y="519.07" width="8.8" height="44.28" style="fill: none;stroke: #1d1d1b;stroke-miterlimit: 10"/>
    <rect x="393.69" y="519.07" width="10.14" height="44.28" style="fill: none;stroke: #1d1d1b;stroke-miterlimit: 10"/>
    <rect x="382.49" y="519.07" width="11.2" height="44.28" style="fill: none;stroke: #1d1d1b;stroke-miterlimit: 10"/>
    <rect x="369.42" y="518.8" width="13.07" height="44.55" style="fill: none;stroke: #1d1d1b;stroke-miterlimit: 10"/>
    <rect x="357.68" y="519.07" width="11.47" height="44.02" style="fill: none;stroke: #1d1d1b;stroke-miterlimit: 10"/>
    <g>
      <rect x="415.97" y="580.04" width="8.63" height="15.42" style="fill: #1d1d1b;stroke: #1d1d1b;stroke-miterlimit: 10"/>
      <rect x="416.67" y="583.83" width="6.44" height="8.16" transform="translate(538.7 -124.71) rotate(45)" style="fill: #fff;stroke: #1d1d1b;stroke-miterlimit: 10"/>
      <rect x="346.8" y="579.16" width="12.53" height="17.44" style="fill: #1d1d1b;stroke: #1d1d1b;stroke-miterlimit: 10"/>
      <path d="M347.61,582v14.24l2.12-.91c5.47-2.31,6.22-2.34,7.19-3.43a6.61,6.61,0,0,0,1.52-5.16,4.94,4.94,0,0,0-1.88-3.28c-1.07-.7-1.92-.39-5.28-.94-.82-.13-1.47-.27-1.88-.35Z" style="fill: #fff;stroke: #1d1d1b;stroke-miterlimit: 10"/>
    </g>
  </g>
  <g>
    <path d="M546,574.57c-.67-6.12-1.26-11.08-1.63-14.17H523.13a59.93,59.93,0,0,1,3.27-15.8c6.13-17.33,18.35-27.4,23.43-30.51,26.7-16.35,70.29-18,101.35,1.63,17.32,10.94,16.6,34.22,16.89,45.23l-14.71.54-.54,15.26a304.78,304.78,0,0,1-1.63,38.14c-1.84,17.22-3.95,22.75-4.9,25.07-2,4.88-7.48,18.09-20.71,26.16-17.83,10.87-43.27,8.45-57.76-4.9-6.63-6.11-8.91-12.61-13.08-24.52C549.59,622,550.27,613.16,546,574.57Z" style="fill: #fff;stroke: #1d1d1b;stroke-miterlimit: 10"/>
    <g>
      <ellipse cx="554.39" cy="559.58" rx="10.08" ry="12.81" style="fill: none;stroke: #1d1d1b;stroke-miterlimit: 10"/>
      <ellipse cx="642.76" cy="559.94" rx="10.57" ry="13.35" style="fill: none;stroke: #1d1d1b;stroke-miterlimit: 10"/>
    </g>
    <path d="M564.68,559.85c3.78.94,10.76.62,16.78,1.56,3.52.55,2.93,6,4.55,15.52,2.55,15,5,29.51,2.82,46.9-.22,1.74-.67,5,1.25,7.45,3.7,4.71,14.2,3,18.64,1.71,2.56-.72.82-6.85.8-7.62-.49-30.69.15-32.26-1.44-50.79-.12-1.44.32-8.79-.13-11.33s5-1,12.23-1.24c3.39-.1,10-.7,11.68-.93" style="fill: none;stroke: #1d1d1b;stroke-miterlimit: 10"/>
    <path d="M585.56,667.44c-1.11-4.28,8-10.41,9.22-11.23,3.42-2.3,5.75-3.87,8.82-3.61,5.13.44,8.29,5.63,13.63,14.44,1.17,1.93.56,1.56.22,2C614.72,672.81,587.39,674.51,585.56,667.44Z" style="fill: none;stroke: #1d1d1b;stroke-miterlimit: 10"/>
  </g>
  <g>
    <polygon points="721.3 512.35 758.3 512.35 760.54 609.33 810.43 611.01 812.67 511.79 855.84 513.47 854.15 679.97 717.37 677.16 721.3 512.35" style="fill: #fff;stroke: #1d1d1b;stroke-miterlimit: 10"/>
    <g>
      <circle cx="740.08" cy="564.21" r="10.37" style="fill: none;stroke: #1d1d1b;stroke-miterlimit: 10"/>
      <circle cx="832.85" cy="570.09" r="9.53" style="fill: none;stroke: #1d1d1b;stroke-miterlimit: 10"/>
    </g>
    <polygon points="753.81 645.77 760.54 658.1 810.43 660.9 810.43 646.89 753.81 645.77" style="fill: none;stroke: #1d1d1b;stroke-miterlimit: 10"/>
  </g>
  <g>
    <ellipse cx="972.78" cy="592.85" rx="63.97" ry="65.06" style="fill: #fff;stroke: #1d1d1b;stroke-miterlimit: 10"/>
    <g>
      <path d="M1036.81,590.74H929.29c-6.86,0-13.54.18-20.4.18l.3-2.71,127.62.25Z" style="fill: #1d1d1b;stroke: #1d1d1b;stroke-miterlimit: 10"/>
      <path d="M928.46,590.37l3.6,4.61c2.59,3.32,3,3.84,3.71,4.16,3,1.33,7.74-1.18,9.89-4.72a10,10,0,0,0,1.35-3.93" style="fill: #1d1d1b;stroke: #1d1d1b;stroke-miterlimit: 10"/>
      <path d="M995.88,590.47c-.08.62,3.58,4.2,4.13,5.1,1.7,2.79,3.11,4.83,5.22,6.19a10.41,10.41,0,0,0,13.23-2.31c2-2.52,2.46-7.87,2.43-9" style="fill: #1d1d1b;stroke: #1d1d1b;stroke-miterlimit: 10"/>
    </g>
    <rect x="980.83" y="590.71" width="2.91" height="50.6" style="fill: #1d1d1b;stroke: #1d1d1b;stroke-miterlimit: 10"/>
    <polygon points="964.67 637.93 962.12 637.93 957.28 591.2 965.17 591.44 964.67 637.93" style="fill: #1d1d1b;stroke: #1d1d1b;stroke-miterlimit: 10"/>
    <polygon points="983.68 641.62 930.09 640.43 927.89 638.41 983.26 639.01 983.68 641.62" style="fill: #1d1d1b;stroke: #1d1d1b;stroke-miterlimit: 10"/>
    <path d="M1013.85,643l-30.08-1.33c.89-.55,2.52-.08,3.74-.61,6.21-2.73,11.62-.38,16.51-.12a25.65,25.65,0,0,0,17-5.22" style="fill: #1d1d1b;stroke: #1d1d1b;stroke-miterlimit: 10"/>
    <path d="M930.8,640.82l81.17,2.65q-1.18,1.08-2.47,2.12c-13,10.42-28.42,11.45-33.3,11.66a63.8,63.8,0,0,1-33.65-7.68c-4.38-2.35-8.33-5.75-10.69-7.6Z" style="fill: #fff;stroke: #1d1d1b;stroke-miterlimit: 10"/>
  </g>
  <g>
    <path d="M218.47,810.7c0,46.31-35.37,86.68-86.68,86.68s-84.24-33.29-84.24-79.6,39.52-63.73,90.83-63.73S218.47,764.39,218.47,810.7Z" style="fill: #fff"/>
    <g>
      <ellipse cx="110.38" cy="781.46" rx="9.08" ry="9.54" style="fill: none;stroke: #1d1d1b;stroke-miterlimit: 10"/>
      <ellipse cx="163.52" cy="779.34" rx="9.84" ry="8.02" style="fill: none;stroke: #1d1d1b;stroke-miterlimit: 10"/>
    </g>
    <path d="M105.84,763.14c6.29.61,13.31,1.4,18.77,7,1.09,1.11,7.47,7.62,5.75,15.75-1.43,6.77-7.7,11-12.72,12.41-4.09,1.15-5.53-.1-20.29-2.42-11-1.74-13-1.47-14.84-.91C75.73,797,72,803,70.11,806.14c-5.86,9.5-5.09,19.53-4.54,27.55.48,6.92.95,13.82,4.54,20.89C77.44,869,92.76,874.34,100.39,877c2,.71,37.31,12.32,67.22-8.78,4.29-3,15.89-11.44,22.1-26.95,2.71-6.76,8.22-20.53,1.51-31.19-5.18-8.22-16.38-12.59-25.13-13-7.33-.36-11.38,2.12-17-.91-6-3.25-7.91-9.67-8.18-10.6-3.12-11,6.12-20.36,6.66-20.89,9.27-9.1,23.48-6.81,28.16-6.06,16.27,2.62,31,14.5,37.85,29.67,9.71,21.55.36,42.82-5.45,56-3.74,8.5-13,29.44-36,42.09-23.9,13.1-47.4,8.94-60.25,6.66-14.66-2.6-32.26-5.71-46-20.59-22-23.75-15.47-57.23-14.23-63.59,2-10.23,5.63-29,22.1-39.36C86.78,761.29,101,762.67,105.84,763.14Z" style="fill: none;stroke: #1d1d1b;stroke-miterlimit: 10"/>
    <path d="M96.15,846.41l-2.73,7.87,6.06,1.51a60.22,60.22,0,0,0,9.39,5.15c5,2.21,14.91,6.52,27.25,4.84a44.29,44.29,0,0,0,21.5-9.39l7.27-.91-6.66-9.08-2.42,7.27a48.78,48.78,0,0,1-4.54,3c-3.38,2-12,6.91-23,6.86-13.21-.05-22.57-7.17-25.59-9.68Z" style="fill: #1d1d1b;stroke: #1d1d1b;stroke-miterlimit: 10"/>
  </g>
  <g>
    <polygon points="376.99 751.61 438.41 834.26 366.66 923.8 300.08 817.04 376.99 751.61" style="fill: #fff;stroke: #1d1d1b;stroke-miterlimit: 10"/>
    <line x1="376.42" y1="753.33" x2="366.58" y2="923.73" style="fill: none;stroke: #1d1d1b;stroke-miterlimit: 10"/>
    <g>
      <polygon points="300.65 817.27 371.7 826.5 331.27 861.65 300.65 817.27" style="fill: none;stroke: #1d1d1b;stroke-miterlimit: 10"/>
      <line x1="331.18" y1="821.72" x2="331.27" y2="860.97" style="fill: none;stroke: #1d1d1b;stroke-miterlimit: 10"/>
      <polygon points="373.21 826.55 438.17 834.07 412.64 860.74 373.21 826.55" style="fill: none;stroke: #1d1d1b;stroke-miterlimit: 10"/>
      <line x1="413.55" y1="831.34" x2="412.76" y2="860.29" style="fill: none;stroke: #1d1d1b;stroke-miterlimit: 10"/>
    </g>
    <polygon points="369.33 880.12 380.96 896.07 367.74 910.66 352.69 890.6 369.33 880.12" style="fill: #1d1d1b;stroke: #1d1d1b;stroke-miterlimit: 10"/>
  </g>
  <g>
    <rect x="500.92" y="749.9" width="172.69" height="166.46" style="fill: #fff"/>
    <circle cx="577.22" cy="776.2" r="22.86" style="fill: none;stroke: #1d1d1b;stroke-miterlimit: 10"/>
    <circle cx="642.48" cy="828.15" r="22.68" style="fill: none;stroke: #1d1d1b;stroke-miterlimit: 10"/>
    <circle cx="582.21" cy="831.23" r="20.3" style="fill: none;stroke: #1d1d1b;stroke-miterlimit: 10"/>
    <circle cx="526.14" cy="831.76" r="21.4" style="fill: none;stroke: #1d1d1b;stroke-miterlimit: 10"/>
    <circle cx="522.28" cy="892.74" r="22.13" style="fill: none;stroke: #1d1d1b;stroke-miterlimit: 10"/>
    <circle cx="643.22" cy="887.46" r="21.03" style="fill: none;stroke: #1d1d1b;stroke-miterlimit: 10"/>
    <g>
      <circle cx="522.17" cy="774.56" r="22.31" style="fill: none;stroke: #1d1d1b;stroke-miterlimit: 10"/>
      <circle cx="636.84" cy="776.94" r="21.4" style="fill: none;stroke: #1d1d1b;stroke-miterlimit: 10"/>
      <ellipse cx="522.9" cy="775.47" rx="9.14" ry="9.33" style="fill: #1d1d1b;stroke: #1d1d1b;stroke-miterlimit: 10"/>
      <ellipse cx="634.1" cy="776.2" rx="9.88" ry="7.5" style="fill: none;stroke: #1d1d1b;stroke-miterlimit: 10"/>
      <polygon points="627.61 770.88 632.4 777.98 634.7 777.2 632.68 769.59 627.61 770.88" style="fill: #1d1d1b;stroke: #1d1d1b;stroke-miterlimit: 10"/>
      <path d="M516,773.12l1.72,8.86a8.86,8.86,0,0,0,8.07-.79,8.41,8.41,0,0,0,3.44-8.2l.4-2.38-8.07-1.85Z" style="fill: #fff;stroke: #1d1d1b;stroke-miterlimit: 10"/>
    </g>
    <g>
      <circle cx="581.61" cy="894.72" r="18.47" style="fill: none;stroke: #1d1d1b;stroke-miterlimit: 10"/>
      <path d="M574.75,894c-.28-4.38,4-7,5.12-7.68a10.84,10.84,0,0,1,4.93-1.58c1.38-.09,5-.33,7.29,2.36a6.75,6.75,0,0,1,1.38,6.5c-.61,1.6-2.45,2.6-6.11,4.53s-5.38,2.82-6.9,2.56A7.47,7.47,0,0,1,574.75,894Z" style="fill: none;stroke: #1d1d1b;stroke-miterlimit: 10"/>
    </g>
  </g>
  <g>
    <path d="M808.9,746.16c-7.81-5.28-17.34-3.58-20-3.12-18.16,3.24-26.25,21.51-27.43,24.31-5.23,12.36-3.2,24-1.87,31.17,4.83,25.87,8.18,45.78,14,75.28.33,1.67,2.5,9.38,4.06,13.76l5.6,17q9.69-22.28,17.46-43c16-42.41,19.12-60,19.33-76.68C820.5,754.73,811.22,747.73,808.9,746.16Z" style="fill: #fff;stroke: #1d1d1b;stroke-miterlimit: 10"/>
    <g>
      <path d="M726.84,788.91a33.23,33.23,0,0,1,6.73-5.66c2.36-1.5,3.21-2.26,4.58-2.42a7.64,7.64,0,0,1,5.65,1.88,7.24,7.24,0,0,1,2.42,5.39c-.14,2.87-2.35,4.63-4.31,6.19-1.75,1.4-3.27,2.61-5.39,2.42a6.66,6.66,0,0,1-4.58-3Z" style="fill: #1d1d1b;stroke: #1d1d1b;stroke-miterlimit: 10"/>
      <path d="M744.62,787.29a7.17,7.17,0,0,0-5.39-3c-.45,0-3.61-.07-5.12,2.42a5.33,5.33,0,0,0-.27,4.58,4.84,4.84,0,0,0,3,2.69c2.15.51,4.82-1.07,5.92-4Z" style="fill: #fff;stroke: #1d1d1b;stroke-miterlimit: 10"/>
      <ellipse cx="839.68" cy="791.18" rx="9.37" ry="9.74" style="fill: #1d1d1b;stroke: #1d1d1b;stroke-miterlimit: 10"/>
      <polygon points="837.52 786.22 843.44 786.22 845.33 794.57 842.64 796.99 837.52 786.22" style="fill: #fff;stroke: #1d1d1b;stroke-miterlimit: 10"/>
    </g>
    <path d="M773.37,871.72a30.79,30.79,0,0,1,8.08-3.28,13.23,13.23,0,0,1,4.74-.82c2.4.1,3.21,1.55,6,2.13,1.56.32,4.53-.4,5.4-.49l-1.8,4.58c-.6.5-3.77,2.18-4.9,2.94a19.56,19.56,0,0,1-5.23,2.78,18.59,18.59,0,0,1-10.46-1.31Z" style="fill: #1d1d1b;stroke: #1d1d1b;stroke-miterlimit: 10"/>
  </g>
  <g>
    <path d="M954.29,867.26c4.89,14.39,9.38,26.95,13.15,37.25,1.83-8.52,4.57-21.26,7.89-36.82,5.78-27,5.41-25.5,5.7-26.74,9.4-39.87,18.62-50.41,15.78-73.19-1.57-12.59-5.36-17.2-7.45-19.28-9.75-9.69-29-10.28-39-1.31-1.58,1.41-4.1,4.11-7.45,13.59a106.43,106.43,0,0,0-6.14,35.94C937.09,811,939.67,824.24,954.29,867.26Z" style="fill: #fff;stroke: #1d1d1b;stroke-miterlimit: 10"/>
    <g>
      <path d="M939.27,818.14c-.89-.73-4.14-4-6.1-5-6.37-3.38-10.24-1.74-19.55-3.95-6.9-1.64-11.41-3-12.91-6.64a7.79,7.79,0,0,1-.36-4.3c.41-2.31,1.91-5.05,8.25-9,4.74-2.92,6-2.7,11.48-5.38,5.09-2.5,11-5.46,15.6-11.3,2.34-2.95,5.32-6.86,6.1-8.79l-3.16,11.32A44.44,44.44,0,0,0,937,786l-.41,17.39Z" style="fill: #fff;stroke: #1d1d1b;stroke-miterlimit: 10"/>
      <path d="M922.23,790.7l-7.71,9.15a13,13,0,0,0,3.77,3.23,7.86,7.86,0,0,0,4.48,1.43c2.76-.2,6.16-2.74,5.92-5.92-.22-2.83-3.18-4.37-3.41-4.48Z" style="fill: #1d1d1b;stroke: #1d1d1b;stroke-miterlimit: 10"/>
      <path d="M997.6,780.92a35.69,35.69,0,0,1,15.28,2.33c4.05,1.59,11.57,4.53,15,12.17.57,1.27,3.79,8.4.52,14-.67,1.14-2.79,4.24-16.57,7.25-8.81,1.93-13.71-1.07-19.94,2.59-2.19,1.29-5,2.6-5.93,3.65l8-25.41Z" style="fill: #fff;stroke: #1d1d1b;stroke-miterlimit: 10"/>
      <path d="M1007.58,793s4.52,3.43,6,8.4a14.12,14.12,0,0,1-3.36,3.92c-1.77,1.42-3.79,3-6.16,2.52a5.87,5.87,0,0,1-4.34-5.88c.08-.72.35-1.23,2.94-4.2C1006.68,793.17,1007.58,793,1007.58,793Z" style="fill: #1d1d1b;stroke: #1d1d1b;stroke-miterlimit: 10"/>
    </g>
    <g>
      <path d="M965.18,898.17a27.21,27.21,0,0,0-2.91,5.62c-1.57,4.08-4.55,6.7-6.82,8.7-4,3.53-6.63,6.45-6.82,8.47-.24,2.54,3.54,3.4,4.62,3.73,9.26,2.87,25.54-5.11,30.66-5.61a7.49,7.49,0,0,0-1.18-4.94c-2.06-2.92-6.91-4.17-9.88-4.94-1.85-.48-5-2.1-5.5-3.82C966.45,902,965.18,898.17,965.18,898.17Z" style="fill: none;stroke: #1d1d1b;stroke-miterlimit: 10"/>
      <path d="M964.68,924.3l-8.08-3.73a17,17,0,0,1,2.36-2.49c1.36-1.17,6.28-5.39,11.81-4,4.2,1.07,6.38,4.78,7,5.84Z" style="fill: #1d1d1b;stroke: #1d1d1b;stroke-miterlimit: 10"/>
    </g>
  </g>
  <g>
    <path d="M125.59,963.18a108,108,0,0,0-42.9,13.37c-11.85,6.65-21.71,12.2-27.94,24.69-8,16.12-4.13,32-3.49,34.46,1.14,4.38,3.52,13.46,11.47,20.57,10.46,9.34,29,13.86,41.9,4.11,9.39-7.08,13.68-20.2,12-21.6-.52-.43-1.52.29-5.54,2.55-4.52,2.54-9.94,5.4-11.61,6.12-7.21,3.08-18.6-2.13-24.51-9.31-10.79-13.09-6.95-37.09,6.71-46a25,25,0,0,1,21.42-2.66c2.69.93,11.41,3.12,16.26,16,9.55,25.27,8.26,62.78-5.42,94.44-5.65,13.09-14.45,21.95-20.9,28.47a49.35,49.35,0,0,0,9.55,9c3.3,2.37,12.2,8.77,24.26,8.78,11.22,0,25.8-6.26,27.22-14.58.57-3.34-1.47-5.42-2.19-6.71,0,0-8.16-17.14-9.81-44.16-.1-1.71.53-9.3,1.81-24.48,1.81-21.57,2.77-26.66,4.13-31.66,3.31-12.19,5.3-19.51,12.13-24.21,8.21-5.65,21-5.88,29.42,1.06,12.25,10.12,8.71,30.17,1.81,40.7-2.09,3.19-7.72,11.78-16.77,11.44-6.76-.25-13.07-5.39-16.26-13l-3.1-.8a17.65,17.65,0,0,0-2.32,10.91c1,7.76,7.62,12,9.29,13,10.65,6.81,27.75,2.91,37.93-6.65,16.51-15.5,10.62-41.92,9.55-46.29-5.68-23.21-24.59-34.62-30.71-38.31C158.69,960.22,138.54,962,125.59,963.18Z" style="fill: #fff;stroke: #1d1d1b;stroke-miterlimit: 10"/>
    <g>
      <ellipse cx="92.62" cy="1021.62" rx="6.78" ry="6.43" style="fill: none;stroke: #1d1d1b;stroke-miterlimit: 10"/>
      <ellipse cx="174.07" cy="1026.84" rx="6.12" ry="6.88" style="fill: none;stroke: #1d1d1b;stroke-miterlimit: 10"/>
    </g>
    <g>
      <path d="M93.24,1128.42s7.2-5.94,9.45-7.55a16,16,0,0,1,22.49,2.9,24.48,24.48,0,0,1,4.22-2.9,23.08,23.08,0,0,1,6.33-2.36c4.65-.83,13.43,6.35,18.34,12.88-.17,1.8-2.76,5.23-4.7,7.45-2.71,3.11-20.24,8.82-30.59,6.33C105.89,1142.08,93.24,1128.42,93.24,1128.42Z" style="fill: none;stroke: #1d1d1b;stroke-miterlimit: 10"/>
      <line x1="93.6" y1="1128.29" x2="153.89" y2="1131.63" style="fill: none;stroke: #1d1d1b;stroke-miterlimit: 10"/>
    </g>
  </g>
  <g>
    <rect x="303.81" y="990.83" width="121.01" height="144.58" style="fill: #fff"/>
    <polyline points="429.03 1062.43 385.82 992.55 360.07 1102.89 327.43 1000.36 299.85 1051.85" style="fill: none;stroke: #1d1d1b;stroke-miterlimit: 10"/>
    <g>
      <polygon points="326.39 1037.56 334.63 1043.05 323.09 1052.76 316.68 1045.25 326.39 1037.56" style="fill: #1d1d1b;stroke: #1d1d1b;stroke-miterlimit: 10"/>
      <path d="M393.77,1038.48a16.12,16.12,0,0,0-6.23,6c-1.09,1.91-2.77,4.85-1.65,7.32,1.59,3.5,8.34,5.12,11.54,2,2.37-2.3,1.85-6.3.92-8.61S393.77,1038.48,393.77,1038.48Z" style="fill: #1d1d1b;stroke: #1d1d1b;stroke-miterlimit: 10"/>
    </g>
    <g>
      <path d="M360.81,1105.69c9.06,6.49,17.34,11.24,26.4,17.73a56.62,56.62,0,0,1-6.07,3.47c-5,2.48-16.14,7.94-29.29,5.59a40.12,40.12,0,0,1-20.43-10.69,33.43,33.43,0,0,1,4.43-4.91c3.51-3.18,9.13-8.29,15.61-8,1.62.07,3.47.49,4.91-.67a7.52,7.52,0,0,0,2.41-3.66c.19-1.79.79-3.49.48-4.14Z" style="fill: none;stroke: #1d1d1b;stroke-miterlimit: 10"/>
      <polygon points="386.44 1123.13 331.91 1121.59 333.74 1119.38 381.43 1119.38 386.44 1123.13" style="fill: #1d1d1b;stroke: #1d1d1b;stroke-miterlimit: 10"/>
    </g>
  </g>
  <g>
    <rect x="495.33" y="999.01" width="178.16" height="125.24" rx="12" ry="12" style="fill: #fff"/>
    <path d="M533.86,1026.87c0,1.22-.34,12.75-8.49,18.58-1,.69-6.63,4.6-13.61,3.63-11.07-1.54-19.48-14.53-19.3-26.5.2-13.32,11-26.54,22.15-26.63,4.29,0,10.49,1.87,14,7.26a17,17,0,0,1,2.5,11.8" style="fill: none;stroke: #1d1d1b;stroke-miterlimit: 10"/>
    <path d="M622.81,1011.62a24.51,24.51,0,0,1,6.74-12.83c7.7-7.55,17.94-6.83,19.87-6.7,12.68.88,28.64,11.66,28.64,28.86,0,15.91-13.63,29.42-28.64,28.86-10.68-.39-22.93-11-27.43-22" style="fill: none;stroke: #1d1d1b;stroke-miterlimit: 10"/>
    <g>
      <ellipse cx="512.48" cy="1025.44" rx="13.43" ry="12.31" style="fill: none;stroke: #1d1d1b;stroke-miterlimit: 10"/>
      <ellipse cx="647.4" cy="1019.84" rx="18.57" ry="13.87" style="fill: none;stroke: #1d1d1b;stroke-miterlimit: 10"/>
    </g>
    <line x1="530.45" y1="1015.33" x2="622.88" y2="1011.48" style="fill: none;stroke: #1d1d1b;stroke-miterlimit: 10"/>
    <path d="M533.53,1026.89l29.36,4.28a23.38,23.38,0,0,0,2.74.21,11.64,11.64,0,0,1,3.72,1c2.62,1.5,3.13,5.08,3.34,6.55.81,5.68.65,28.59-.51,59.57a9.31,9.31,0,0,1-1,2.18c-2.81,4.37-7.7,3.64-15.66,7.19-3.06,1.36-6.37,2.88-9.24,6.29a20.08,20.08,0,0,0-3.34,5.65,27,27,0,0,0,5,4.88c19.17,14.3,51.62-2.27,55.85-4.49a13.28,13.28,0,0,0-.51-4.49c-1.29-4.36-5.09-8.64-9.76-9.76-3.61-.86-5.62.67-7.7-1-1.57-1.28-1.92-3.36-2.05-4.75-.55-5.61-.72-31-.39-65.47l38.77-6.55" style="fill: none;stroke: #1d1d1b;stroke-miterlimit: 10"/>
    <g>
      <path d="M555.52,1122.37a37.29,37.29,0,0,1,7.08-5.2c3.65-2.06,10.59-6,18.92-4.43a22.59,22.59,0,0,1,10.18,4.87,46.94,46.94,0,0,1-6.64,3,50.55,50.55,0,0,1-26.23,1.88Z" style="fill: #1d1d1b;stroke: #1d1d1b;stroke-miterlimit: 10"/>
      <polygon points="564.37 1118.27 565.26 1121.04 584.4 1118.6 583.29 1114.51 564.37 1118.27" style="fill: #fff;stroke: #1d1d1b;stroke-miterlimit: 10"/>
    </g>
  </g>
  <g>
    <path d="M778.92,988.46a14.5,14.5,0,0,0-9.41-.43c-16.59,4.3-28.41,31.5-32.07,40.62-14.82,36.95-4.57,48.88-10.26,91.94-.31,2.38-1.1,8,2.14,11.12,5.33,5.07,18.5.28,26.08-4.7a40.88,40.88,0,0,0,13.68-15.39,30.32,30.32,0,0,0,6,14.54c1.28,1.65,8.47,10.94,19.67,11.12,10,.16,19.68-7,23.95-18a29.53,29.53,0,0,0,9,11.55c3,2.28,9,6.88,16.68,5.56a19.26,19.26,0,0,0,11.55-7.27c1.24-25.29,2.77-45.36,3.85-58.16,3.12-37.14,5.92-55.24-4.7-72.27-2.7-4.33-8.61-13.5-19.67-16.68a33.49,33.49,0,0,0-18.81.86c-14.41,5.29-25.38,22.41-26.08,43.62C790.47,1026.51,785.39,991.3,778.92,988.46Z" style="fill: #fff;stroke: #1d1d1b;stroke-miterlimit: 10"/>
    <g>
      <ellipse cx="760.11" cy="1034.64" rx="11.12" ry="10.26" style="fill: none;stroke: #1d1d1b;stroke-miterlimit: 10"/>
      <ellipse cx="822.97" cy="1034.42" rx="14.54" ry="11.76" style="fill: none;stroke: #1d1d1b;stroke-miterlimit: 10"/>
      <polygon points="822.97 1034.42 828.95 1028.65 834.08 1033.78 827.67 1041.05 822.97 1034.42" style="fill: #1d1d1b;stroke: #1d1d1b;stroke-miterlimit: 10"/>
    </g>
    <ellipse cx="792.18" cy="1105.41" rx="17.53" ry="10.9" style="fill: #1d1d1b;stroke: #1d1d1b;stroke-miterlimit: 10"/>
  </g>
  <g>
    <polygon points="1014.11 1105.62 918.32 1105.62 918.32 1000 958.07 1000 1014.11 1000 1014.11 1105.62" style="fill: #fff"/>
    <g>
      <path d="M957.26,1006.59l8.61,1.38-12.06,15.16-9-.34,1.38-5.74L935,1025.42l3.67-7.12-1.15-1.26-8.27,7.58-1-.57,3-5.51-6.77-3.1a12,12,0,0,1,3.79-5.28c1.67-1.28,2.81-1.34,5.51-2.41,5.23-2.07,4.42-3.2,8.38-4.48,1.34-.43,7.1-2.28,10-.34a2.63,2.63,0,0,0,1.61.57c1.29-.06,2.27-1.38,2.87-2.41l1.49-1.08Z" style="fill: #1d1d1b"/>
      <path d="M1009.39,1005.79c-2.3-.09-5.63-.17-9.64-.11-5.22.07-7.83.11-9.64.57-7.15,1.84-11.32,8-12.29,9.53-3,4.72-3.33,9.22-3.9,17a103.37,103.37,0,0,0,0,12.06c.13,5.15.17,12.55-.34,21.7l2.87,6.43,3-.8A88.16,88.16,0,0,0,980,1057c-.4-8-1.66-10.75-1.38-18.83s1.76-11.38,2.53-12.86a23.14,23.14,0,0,1,7-8l1.61-.11-1.61,5.28,1.49,1.72,12.63-10.33-3.44,12.4a16.3,16.3,0,0,0,1.61-.8c1.11-.64,5.45-3.11,6.77-7.58.31-1.06,0-.77.57-4.25.33-2.06.67-3.73.92-4.82Z" style="fill: #1d1d1b"/>
    </g>
    <path d="M980.69,1089.79l6.15,8-32.46,2.73-.1-2.14-10.62,4.09c.33-.65.84-1.67,1.46-2.92,3-6,3.08-6.93,4.48-8.48a9.54,9.54,0,0,1,5.56-3.41c1.84-.27,3.28.26,5.65,1.17,4.07,1.56,3.88,2.65,6.92,3.51a12.68,12.68,0,0,0,7.6-.1,11.62,11.62,0,0,0,3.12-1.66Z" style="fill: #1d1d1b"/>
  </g>
  <g>
    <polygon points="89.26 1250.4 140.37 1252.69 171.64 1282.7 170.63 1347.54 140.11 1372.71 87.23 1373.47 57.22 1347.79 57.98 1284.99 89.26 1250.4" style="fill: #fff;stroke: #1d1d1b;stroke-miterlimit: 10"/>
    <line x1="89.5" y1="1250.91" x2="87.41" y2="1373.19" style="fill: none;stroke: #1d1d1b;stroke-miterlimit: 10"/>
    <line x1="140.37" y1="1253.2" x2="139.86" y2="1372.2" style="fill: none;stroke: #1d1d1b;stroke-miterlimit: 10"/>
    <line x1="58.49" y1="1284.73" x2="171.9" y2="1282.95" style="fill: none;stroke: #1d1d1b;stroke-miterlimit: 10"/>
    <line x1="57.22" y1="1343.44" x2="170.69" y2="1345.91" style="fill: none;stroke: #1d1d1b;stroke-miterlimit: 10"/>
    <line x1="58.24" y1="1308.12" x2="87.23" y2="1308.12" style="fill: none;stroke: #1d1d1b;stroke-miterlimit: 10"/>
    <line x1="140.62" y1="1310.41" x2="170.88" y2="1310.67" style="fill: none;stroke: #1d1d1b;stroke-miterlimit: 10"/>
    <polygon points="120.03 1344.74 111.27 1344.35 111.13 1283.71 120.03 1283.71 120.03 1344.74" style="fill: none;stroke: #1d1d1b;stroke-miterlimit: 10"/>
    <g>
      <polygon points="140.04 1309.9 120.03 1310.67 120.03 1297.19 140.04 1296.72 140.04 1309.9" style="fill: none;stroke: #1d1d1b;stroke-miterlimit: 10"/>
      <polygon points="109.42 1309.54 85.84 1309.7 86.2 1295.8 109.79 1295.59 109.42 1309.54" style="fill: #1d1d1b;stroke: #1d1d1b;stroke-miterlimit: 10"/>
      <polygon points="107.36 1308.74 101.52 1301.69 106 1298.53 111 1307.51 107.36 1308.74" style="fill: #fff;stroke: #1d1d1b;stroke-miterlimit: 10"/>
    </g>
    <path d="M99.53,1344.64a261.94,261.94,0,0,1,28.43.57c-.13,1.4-.36,5.68-2.09,7.93-3.62,4.68-10.48,5.26-15.26,3.81a16.18,16.18,0,0,1-8.14-5.85Z" style="fill: none;stroke: #1d1d1b;stroke-miterlimit: 10"/>
  </g>
  <g>
    <path d="M235.12,1221.1c.67-11,2.89-15.94,5.13-19.34,5.67-8.61,17.53-16.63,30.3-14.22,6.75,1.28,16.75,6,18.88,13.75.65,2.36,1.68,6.94,1.68,6.94s3.29-5,5.08-8.1c.49-.84,7.18-12.07,17-15.38,8.56-2.88,18.91.45,25.17,6.53,5.53,5.37,6.72,11.77,8.39,21.44a98.32,98.32,0,0,1,.23,31.46s-5.21,34.3-29.36,59.2a30.94,30.94,0,0,1-4.19,3.73c-11.59,8.45-28.71,8-40.55,1.86-8-4.17-11.83-10-18.88-21.21C233.6,1255.36,234.77,1226.94,235.12,1221.1Z" style="fill: #fff;stroke: #1d1d1b;stroke-miterlimit: 10"/>
    <path d="M291.06,1207.11l-.33,10.86c-.67,22.17-1.1,41.55-1.77,63.72,3.5-.93,11.17-5.16,14.17-12.48,3.24-7.88-1.83-21.38-2.81-23.49-3.32-7.12-6.56-11.73-7.87-19.82-1.36-8.41-.69-7.6-.93-13.42Z" style="fill: none;stroke: #1d1d1b;stroke-miterlimit: 10"/>
    <path d="M290.8,1221.63c-1.4,7.46-7.66,16-12.09,22.54-5.7,8.4-8.35,17.86-4.89,24.94,2.63,5.39,12.6,11.25,15.38,12.82" style="fill: none;stroke: #1d1d1b;stroke-miterlimit: 10"/>
    <g>
      <path d="M289.89,1281.92,261.69,1298c2.23,3.23,3.49,5.92,5.59,7.46,14.22,10.42,36.15,7.36,40.87,4.57,7.68-4.54,9.88-7.63,13.43-11.57Z" style="fill: none;stroke: #1d1d1b;stroke-miterlimit: 10"/>
      <line x1="261.51" y1="1298.19" x2="321.12" y2="1300.1" style="fill: none;stroke: #1d1d1b;stroke-miterlimit: 10"/>
    </g>
    <g>
      <path d="M288,1228.32c0,5.34-13.67,12.82-26.8,12.82s-25.4-5.15-25.4-10.49,12.51-14.92,25.64-14.92S288,1223,288,1228.32Z" style="fill: none;stroke: #1d1d1b;stroke-miterlimit: 10"/>
      <path d="M348.16,1227.15c0,8.17-4.33,16.08-18.88,16.08S293,1225.9,293,1225.9s19.54-12.49,33.05-15.52C340.21,1207.19,348.16,1219,348.16,1227.15Z" style="fill: none;stroke: #1d1d1b;stroke-miterlimit: 10"/>
      <polygon points="287.29 1226.16 239.16 1225.44 236.07 1229.55 287.29 1229.55 287.29 1226.16" style="fill: #1d1d1b;stroke: #1d1d1b;stroke-miterlimit: 10"/>
      <polygon points="347.74 1228.97 298.45 1229.45 293.8 1225.58 347.74 1225.58 347.74 1228.97" style="fill: #1d1d1b;stroke: #1d1d1b;stroke-miterlimit: 10"/>
    </g>
  </g>
  <g>
    <path d="M417.71,1207l3.24,25.11,53.46,23.49,5.67,71.27a23.36,23.36,0,0,1-6.48,4.86c-3.28,1.65-5,1.48-7.58,2.54-4.25,1.73-9.35,6.06-9.45,9.73-.17,6.48,15.18,13.42,28.92,14.89,16.36,1.74,34.27-3.88,34.64-9.73.06-1-.34-2.26-9.73-9.45-6.16-4.71-11.59-8.44-15.75-11.17l-2-74.44,56.4-24.34-1.72-27.48-62.41,34.64Z" style="fill: #fff;stroke: #1d1d1b;stroke-miterlimit: 10"/>
    <g>
      <circle cx="444.54" cy="1269.52" r="11.17" style="fill: none;stroke: #1d1d1b;stroke-miterlimit: 10"/>
      <ellipse cx="522.98" cy="1269.66" rx="11.17" ry="11.31" style="fill: none;stroke: #1d1d1b;stroke-miterlimit: 10"/>
    </g>
    <ellipse cx="488.06" cy="1344.53" rx="16.89" ry="6.58" style="fill: none;stroke: #1d1d1b;stroke-miterlimit: 10"/>
  </g>
  <g>
    <ellipse cx="664.62" cy="1310.86" rx="8.23" ry="8.53" style="fill: #fff;stroke: #1d1d1b;stroke-miterlimit: 10"/>
    <g>
      <ellipse cx="629.91" cy="1228.42" rx="7.63" ry="6.88" style="fill: #fff;stroke: #1d1d1b;stroke-miterlimit: 10"/>
      <path d="M704.27,1224.23c-.38-.18-4.58-2.17-7.18-.3-3.57,2.56-2.38,11.12,1.8,12.57,2.26.79,5.23-.57,7.48-3l5.39-3Z" style="fill: #fff;stroke: #1d1d1b;stroke-miterlimit: 10"/>
    </g>
  </g>
  <g>
    <path d="M930.81,1244.89c-1.62,17.63-2.13,32.71-2.22,44.38-.27,34.28,3,48,4.44,53.66,1.67,6.38,1.85,16,8.46,25.76,2.67,4,6,8.9,11.94,12.17,14.25,7.85,36.44,2.16,48.79-8.88,8.16-7.29,10.64-16.49,12.86-38.73a450,450,0,0,0,1.33-72.22l-2.22-14.93-24.4-1.21L988,1265.06c-6.24,44.45-4.35,52.15-5.36,61.34.16.8-.68,12.92-2.36,15.32-3.52,5-14.57,5.53-21.56,0a14.33,14.33,0,0,1-4.88-7.67l-3.11-92Z" style="fill: #fff;stroke: #1d1d1b;stroke-miterlimit: 10"/>
    <path d="M940.11,1366.81c4.26.94,15.88,2.12,20-.47,7.6-4.8,7.68-20.49,10.51-20.55,1.3,0,.29,5.82,2.74,9.44a29.4,29.4,0,0,0,17,11.36c2.31.52,12.3-.88,17.91-2" style="fill: none;stroke: #1d1d1b;stroke-miterlimit: 10"/>
    <path d="M973.46,1355.37c-1.19-1.47-2-7.9-2.88-9.31-.67-1.13-2.62,6.4-3.11,8.49a27.4,27.4,0,0,1-3.22,7.89A11.57,11.57,0,0,1,957,1368c-4.45,1.11-12.05.12-15.34-.4-1.47-.23,4.3,6.52,5.22,7.58a74.09,74.09,0,0,0,7.45,6c10.56,5.56,21.86,2.32,24.9,1.82,9.22-1.5,24.45-9.91,28.57-17.49.62-1.14-7.94.73-9.34.61-.78-.07-7.7.86-8.56.61C981.14,1364.05,978.58,1361.71,973.46,1355.37Z" style="fill: none;stroke: #1d1d1b;stroke-miterlimit: 10"/>
    <g>
      <ellipse cx="1002.07" cy="1239.42" rx="13.4" ry="13.28" style="fill: #fff;stroke: #1d1d1b;stroke-miterlimit: 10"/>
      <ellipse cx="940.06" cy="1238.72" rx="10.95" ry="12.16" style="fill: #fff;stroke: #1d1d1b;stroke-miterlimit: 10"/>
    </g>
  </g>
  <g>
    <polygon points="749.45 1233.31 854.66 1232.61 854.88 1266.72 833.27 1266.72 832.61 1256.9 815.84 1257.84 817.83 1336.58 845.4 1336.11 845.62 1380.04 774.6 1379.8 769.52 1341.72 793.57 1338.21 792.02 1259.47 767.54 1260.41 767.36 1277.02 747.91 1282.37 749.45 1233.31" style="fill: #fff;stroke: #1d1d1b;stroke-miterlimit: 10"/>
    <g>
      <polygon points="767.32 1277 747.91 1281.67 748.64 1268.22 767.32 1267.65 767.32 1277" style="fill: #1d1d1b;stroke: #1d1d1b;stroke-miterlimit: 10"/>
      <polygon points="854.66 1274.43 834.39 1279.25 833.24 1266.11 854.93 1266.51 854.66 1274.43" style="fill: #1d1d1b;stroke: #1d1d1b;stroke-miterlimit: 10"/>
    </g>
    <polygon points="845.4 1364.62 772.65 1364.64 771.89 1359.52 845.4 1360.18 845.4 1364.62" style="fill: #1d1d1b;stroke: #1d1d1b;stroke-miterlimit: 10"/>
  </g>
  <g>
    <path d="M103.67,1446.76c-9.51-8.1-21.44-7-23.16-6.86-11.6,1.21-22.75,9.38-26.16,20.16-1.53,4.83-.73,9.51.86,18.87s3.46,20.38,10.29,31.31c5.43,8.69,7,6.15,19.3,20.58,9.38,11,18.09,21.43,15,28.73-1.12,2.65-3.22,3.54-6.86,10.29-2,3.68-2.71,7.54-1.6,8.79,1.31,1.46,5.88-.66,8.55-2.36,4.72-3,3.93-8.72,5.92-8.57,1.29.1,3.77,2,5.91,4.57,2.42,2.89,9.46,10,9.46,10s1.62-8.52,5.65-12c5.52-4.77,14.2-7.11,17.15-4.29,2,1.95,1.71,4.21,3.76,8.47,2.2,4.57,6.22,8.82,10,7,2.68-1.32,4.38-5.58,3.43-9-1.62-5.85-9.93-5.54-12.87-12.87-1-2.48-1.19-4.74-.86-5.58,2.38-5.93,3.39-10.86,27.88-27.45,8.8-6,8.95-5.56,10.29-7.29,7.82-10,6.06-27.57,3.86-35.17a19.41,19.41,0,0,1-.86-4.29c-.49-6.25,2.51-9.67,3.43-13.72,1.84-8.1-5.21-16.18-6.43-17.58a27.79,27.79,0,0,0-30.45-7.29c-6.89,2.82-10.33,8.18-14.58,15-1.89,3-8.43,14-11.15,34.31-1.27,9.48-3.49,25.9.86,43.31.86,3.43-14.15-.43-14.15-.43.12-5.55.21-13.37,0-22.73C115.31,1474.44,114.68,1456.14,103.67,1446.76Z" style="fill: #fff;stroke: #1d1d1b;stroke-miterlimit: 10"/>
    <g>
      <path d="M92.26,1473.31c0-4-4.1-11.54-13.46-9.46C67.34,1466.4,55.7,1475,55.7,1479s7.14,4,16.73,4S92.26,1477.28,92.26,1473.31Z" style="fill: none;stroke: #1d1d1b;stroke-miterlimit: 10"/>
      <path d="M188.3,1477.13c0,4.72-9.88,7.64-17.46,7.64s-14-5.46-14-10.19,7.49-9,14.73-6.73C179.21,1470.22,188.3,1472.41,188.3,1477.13Z" style="fill: none;stroke: #1d1d1b;stroke-miterlimit: 10"/>
    </g>
    <path d="M116.09,1533.34a18.85,18.85,0,0,0-7.09,3.27c-.91.78-1.57,1.91-2.91,4.18s-1.41,2.94-1.27,3.46a3.36,3.36,0,0,0,2.55,2.18c1.39.29,2.69-.4,7.09-4s4.85-4.36,6.55-4.91c.73-.24,4.12-1.25,7.09.36s2.3,4.24,5.64,7.09c2.28,2,6.35,3.93,8.37,2.36,1.51-1.17,1.64-4.16.55-6-.65-1.1-1.54-1.47-3.09-2.36s-6.45-2.65-8.91-4.73Z" style="fill: #1d1d1b;stroke: #1d1d1b;stroke-miterlimit: 10"/>
  </g>
  <g>
    <g>
      <ellipse cx="260.47" cy="1453.37" rx="25.87" ry="22.29" style="fill: #1d1d1b;stroke: #1d1d1b;stroke-miterlimit: 10"/>
      <ellipse cx="329.48" cy="1452.74" rx="23.69" ry="22.81" style="fill: #1d1d1b;stroke: #1d1d1b;stroke-miterlimit: 10"/>
      <polygon points="244.09 1438.73 252.55 1450.94 250.19 1453.49 239.56 1450.15 244.09 1438.73" style="fill: #fff;stroke: #1d1d1b;stroke-miterlimit: 10"/>
      <polygon points="246.64 1437.16 254.52 1437.55 256.68 1448.18 253.73 1447.98 246.64 1437.16" style="fill: #fff;stroke: #1d1d1b;stroke-miterlimit: 10"/>
      <polygon points="256.29 1434.4 270.86 1434.01 262 1445.23 256.29 1434.4" style="fill: #fff;stroke: #1d1d1b;stroke-miterlimit: 10"/>
      <polygon points="271.45 1436.57 278.73 1442.08 269.28 1448.77 266.92 1447 271.45 1436.57" style="fill: #fff;stroke: #1d1d1b;stroke-miterlimit: 10"/>
      <polygon points="271.25 1455.46 269.28 1458.42 276.37 1467.47 284.05 1457.83 281.29 1455.66 271.25 1455.46" style="fill: #fff;stroke: #1d1d1b;stroke-miterlimit: 10"/>
      <polygon points="321.85 1433.02 325.39 1434.99 323.62 1447.2 317.51 1440.5 321.85 1433.02" style="fill: #fff;stroke: #1d1d1b;stroke-miterlimit: 10"/>
      <polygon points="326.96 1430.27 338.77 1436.37 328.14 1447.79 326.96 1430.27" style="fill: #fff;stroke: #1d1d1b;stroke-miterlimit: 10"/>
      <polygon points="340.55 1437.35 348.81 1441.68 347.44 1444.83 336.41 1449.95 340.55 1437.35" style="fill: #fff;stroke: #1d1d1b;stroke-miterlimit: 10"/>
      <polygon points="348.03 1447.79 337.99 1454.87 338.77 1458.02 347.83 1457.04 348.03 1447.79" style="fill: #fff;stroke: #1d1d1b;stroke-miterlimit: 10"/>
      <path d="M320.66,1449.76a7.24,7.24,0,0,0-2.36,2,20.51,20.51,0,0,0,1.18,3.35c1,2.31,2,4.45,3.74,5.32,3.48,1.76,10-1.7,10-5.12,0-2.16-2.54-3.77-3.74-4.53C329,1450.38,324.6,1447.73,320.66,1449.76Z" style="fill: #fff;stroke: #1d1d1b;stroke-miterlimit: 10"/>
      <path d="M255.31,1453.3a13.33,13.33,0,0,0-1.38,1.77,20.38,20.38,0,0,1,2.36,2c2.35,2.28,2.6,3.63,3.74,4.13,1.55.68,3.49-.88,7.28-3.74,2-1.5,2.41-2.13,2.36-2.76s-.42-1.06-3.15-2.76c-2.46-1.53-3.69-2.3-4.33-2.36C259.06,1449.23,256.34,1452.18,255.31,1453.3Z" style="fill: #fff;stroke: #1d1d1b;stroke-miterlimit: 10"/>
    </g>
    <path d="M292.32,1456.65a6,6,0,0,1,4.33.39c3,1.71,2.83,6.54,3.15,9.65,1.38,13.39,3.67,24.74,3.74,39.57a4.94,4.94,0,0,0,1,3.35c1.62,1.86,4.27.85,9.84,1.57,3.57.46,5.8.75,7.48,2.36,2.82,2.71,2.26,7.24,2.17,8.07a14.67,14.67,0,0,1-3.54,7.48c-7.9,10.19-11.85,15.29-15.95,16.54-.92.28-7.31,2.12-12.8-1-1.9-1.08-2-1.81-5.32-5.32-7.17-7.66-9.5-7.31-12-12-.54-1-4-7.53-1.38-11,2.06-2.73,7.47-3.1,8.66-3.15,2.15-.09,2.79.33,3.94-.2,2.88-1.32,3.36-6.07,3.54-8.07.52-5.74,1.15-21,2.76-43.31Z" style="fill: #1d1d1b;stroke: #1d1d1b;stroke-miterlimit: 10"/>
    <polygon points="275.39 1517.87 277.16 1515.9 297.63 1532.63 295.46 1535.59 275.39 1517.87" style="fill: #fff;stroke: #1d1d1b;stroke-miterlimit: 10"/>
    <polygon points="274.8 1520.43 273.02 1522.79 294.09 1542.67 295.86 1540.51 274.8 1520.43" style="fill: #fff;stroke: #1d1d1b;stroke-miterlimit: 10"/>
    <path d="M320.86,1516.1a3.85,3.85,0,0,1,.79,3l-22,15.75a10.58,10.58,0,0,1,0-3.35c.58-3.57,2.71-4.58,11-12.6a11.76,11.76,0,0,1,4.33-3C315.76,1515.61,319.22,1514.35,320.86,1516.1Z" style="fill: #fff;stroke: #1d1d1b;stroke-miterlimit: 10"/>
    <path d="M301.57,1540.7a15.37,15.37,0,0,1-2.76,0l19.88-16.93a18.59,18.59,0,0,1-1,3.94C315.21,1534.44,308.62,1540.07,301.57,1540.7Z" style="fill: #fff;stroke: #1d1d1b;stroke-miterlimit: 10"/>
    <g>
      <path d="M265.66,1568.14c-1.48,1.27-2.73,2.29-3.57,3a43.74,43.74,0,0,0,5.94,10.1c12.57,16,32.07,17.34,33.68,17.43,2.82.16,21.89,1.21,32.88-11.89,2.1-2.5,7.56-9,6.14-17.23a17.46,17.46,0,0,0-8.72-12.28,17.87,17.87,0,0,0-11.09-1.78c-7.09,1-9.85,5.86-16.44,7.33-4.61,1-3.37,0-14.66-3-7.93-2.09-10.69-1-13.67.79C274.1,1561.85,272.08,1562.64,265.66,1568.14Z" style="fill: #1d1d1b;stroke: #1d1d1b;stroke-miterlimit: 10"/>
      <path d="M289.23,1562.59a14.44,14.44,0,0,0-2.18-1.39l5.55,20.21,2.58-1-.79-1.78a13,13,0,0,0,.79-3.76C295.58,1567.64,289.57,1562.85,289.23,1562.59Z" style="fill: #fff;stroke: #1d1d1b;stroke-miterlimit: 10"/>
      <path d="M300.13,1567.35a5.14,5.14,0,0,0-2.18-1.19l.2,16.84a17.69,17.69,0,0,0,2.77-5.55C301.37,1575.92,303.07,1570.12,300.13,1567.35Z" style="fill: #fff;stroke: #1d1d1b;stroke-miterlimit: 10"/>
      <path d="M318.75,1561.6V1559a20.52,20.52,0,0,0-8.32,4.75c-7.46,7.1-6.5,17.5-6.34,19Z" style="fill: #fff;stroke: #1d1d1b;stroke-miterlimit: 10"/>
      <path d="M329.05,1562.2l1.58-2a4.78,4.78,0,0,0-2.77-1.39c-5-.52-10.08,8.88-12.88,14.07-.8,1.49-1.4,2.74-1.78,3.57l2.18,1.39Z" style="fill: #fff;stroke: #1d1d1b;stroke-miterlimit: 10"/>
      <polygon points="329.05 1585.97 332.42 1578.84 326.28 1574.28 324.5 1576.86 329.05 1585.97" style="fill: #fff;stroke: #1d1d1b;stroke-miterlimit: 10"/>
      <path d="M320.73,1588.15l5.55,4.56,1.78-4.75a33.75,33.75,0,0,0-4.56-6.74c-2.31-2.64-3.3-2.92-4-3-2.54-.19-4.48,2.74-4.75,3.17Z" style="fill: #fff;stroke: #1d1d1b;stroke-miterlimit: 10"/>
    </g>
  </g>
  <g>
    <g>
      <rect x="431.98" y="1463.89" width="38.22" height="19.11" style="fill: none;stroke: #1d1d1b;stroke-miterlimit: 10"/>
      <rect x="493.66" y="1462.59" width="41.69" height="24.32" style="fill: none;stroke: #1d1d1b;stroke-miterlimit: 10"/>
    </g>
    <rect x="477.15" y="1463.89" width="11.73" height="91.21" style="fill: none;stroke: #1d1d1b;stroke-miterlimit: 10"/>
    <g>
      <rect x="457.17" y="1568.4" width="51.68" height="10.15" style="fill: #1d1d1b;stroke: #1d1d1b;stroke-miterlimit: 10"/>
      <path d="M460,1569.92h47.16a16.89,16.89,0,0,1-2.49,3.12c-12,11.77-38.23,1.51-42,0Z" style="fill: #fff;stroke: #1d1d1b;stroke-miterlimit: 10"/>
    </g>
  </g>
  <g>
    <rect x="596.49" y="1454.55" width="108.86" height="132.49" style="fill: #fff"/>
    <g>
      <circle cx="621.84" cy="1480.35" r="24.82" style="fill: none;stroke: #1d1d1b;stroke-miterlimit: 10"/>
      <circle cx="684.14" cy="1483.02" r="23.9" style="fill: none;stroke: #1d1d1b;stroke-miterlimit: 10"/>
      <ellipse cx="623.24" cy="1480.24" rx="14.5" ry="14.15" style="fill: none;stroke: #1d1d1b;stroke-miterlimit: 10"/>
      <ellipse cx="682.28" cy="1484.18" rx="10.44" ry="14.38" style="fill: none;stroke: #1d1d1b;stroke-miterlimit: 10"/>
    </g>
    <g>
      <ellipse cx="651.42" cy="1580.81" rx="11.37" ry="11.72" style="fill: none;stroke: #1d1d1b;stroke-miterlimit: 10"/>
      <ellipse cx="675.09" cy="1579.07" rx="7.89" ry="5.1" style="fill: none;stroke: #1d1d1b;stroke-miterlimit: 10"/>
      <ellipse cx="631.36" cy="1580" rx="4.99" ry="8.12" style="fill: #1d1d1b;stroke: #1d1d1b;stroke-miterlimit: 10"/>
    </g>
    <polygon points="643.07 1539.4 651.42 1547.75 644.7 1552.85 637.5 1544.73 643.07 1539.4" style="fill: #1d1d1b;stroke: #1d1d1b;stroke-miterlimit: 10"/>
    <polygon points="662.1 1541.25 656.29 1546.82 663.02 1555.17 669.52 1546.12 662.1 1541.25" style="fill: #1d1d1b;stroke: #1d1d1b;stroke-miterlimit: 10"/>
  </g>
  <g>
    <rect x="773.64" y="1437.89" width="57.16" height="107.25" style="fill: #fff;stroke: #1d1d1b;stroke-miterlimit: 10"/>
    <polygon points="805.78 1544.89 792.6 1544.89 792.65 1437.07 805.55 1437.07 805.78 1544.89" style="fill: none;stroke: #1d1d1b;stroke-miterlimit: 10"/>
    <g>
      <path d="M773.46,1465.28c-.66,0-8.47,3-11.63,6.64s-3.59,9.53.21,12.89,11.44,3.81,11.84,3.71Z" style="fill: none;stroke: #1d1d1b;stroke-miterlimit: 10"/>
      <path d="M831.26,1463.75c.28,8-.07,18.17.21,26.17,1.16-.62,3.27-2.33,5.29-3.52,4.39-2.6,6.6-3.93,7.4-5.47,1.81-3.5-.48-7.55-.85-8.2a15.63,15.63,0,0,0-7.49-6.43,22.46,22.46,0,0,1-4.09-2.22Z" style="fill: none;stroke: #1d1d1b;stroke-miterlimit: 10"/>
    </g>
    <polygon points="827.41 1560.45 831.22 1560.45 830.8 1574.52 827.41 1560.45" style="fill: none;stroke: #1d1d1b;stroke-miterlimit: 10"/>
    <polygon points="773.58 1560.2 778.23 1560.4 772.52 1571.14 773.58 1560.2" style="fill: none;stroke: #1d1d1b;stroke-miterlimit: 10"/>
    <g>
      <rect x="773.52" y="1545.14" width="57.4" height="7.62" style="fill: #1d1d1b;stroke: #1d1d1b;stroke-miterlimit: 10"/>
      <rect x="773.5" y="1552.96" width="57.42" height="7.23" style="fill: #1d1d1b;stroke: #1d1d1b;stroke-miterlimit: 10"/>
      <polygon points="774.77 1548.48 775.77 1545.83 829.17 1546.76 831.04 1549.14 826.45 1550.87 778.79 1552.46 774.77 1548.48" style="fill: #fff;stroke: #1d1d1b;stroke-miterlimit: 10"/>
      <path d="M780.37,1557.5c-1.42.72-2.5,1.37-2.87,1.59l53.72,1.37a33.76,33.76,0,0,0-4.49-3.22C812.57,1548.73,793.06,1551,780.37,1557.5Z" style="fill: #fff;stroke: #1d1d1b;stroke-miterlimit: 10"/>
    </g>
  </g>
  <g>
    <ellipse cx="973.82" cy="1532.18" rx="75.79" ry="68.37" style="fill: #fff;stroke: #1d1d1b;stroke-miterlimit: 10"/>
    <g>
      <ellipse cx="926.14" cy="1518.99" rx="25.95" ry="24.92" style="fill: none;stroke: #1d1d1b;stroke-miterlimit: 10"/>
      <path d="M997.33,1517.5c0-13.76,10-23.33,24-24.92,11.13-1.26,25.47,11.16,25.47,24.92s-11.4,24.92-25.47,24.92S997.33,1531.26,997.33,1517.5Z" style="fill: none;stroke: #1d1d1b;stroke-miterlimit: 10"/>
      <ellipse cx="923.02" cy="1520.32" rx="15.28" ry="14.39" style="fill: #1d1d1b;stroke: #1d1d1b;stroke-miterlimit: 10"/>
      <ellipse cx="1021.5" cy="1517.65" rx="16.76" ry="15.57" style="fill: none;stroke: #1d1d1b;stroke-miterlimit: 10"/>
    </g>
    <polygon points="955.5 1597.3 951.35 1597.3 951.67 1467.1 955.95 1466.24 955.5 1597.3" style="fill: #1d1d1b;stroke: #1d1d1b;stroke-miterlimit: 10"/>
    <polygon points="1002.23 1597.3 997.18 1597.3 997.18 1467.08 1002.34 1468.59 1002.23 1597.3" style="fill: #1d1d1b;stroke: #1d1d1b;stroke-miterlimit: 10"/>
    <polygon points="1047.46 1548.35 900.62 1548.45 899.47 1544.67 1047.46 1544.79 1047.46 1548.35" style="fill: #1d1d1b;stroke: #1d1d1b;stroke-miterlimit: 10"/>
    <path d="M954.82,1544.71c1.15-.68,3.37-3.25,5.43-5,3.09-2.56,3.89-4,5.34-3.86,1.61.18,1.6,2.12,4.75,4.75,1.71,1.43,2.74,2.3,4.15,2.37,3,.16,4.09-3.53,7.42-4.45,1.81-.5,4.54-.24,8.6,3l6.67,3.18Z" style="fill: #1d1d1b;stroke: #1d1d1b;stroke-miterlimit: 10"/>
    <g>
      <ellipse cx="976.52" cy="1578.97" rx="20.76" ry="21.59" style="fill: none;stroke: #1d1d1b;stroke-miterlimit: 10"/>
      <path d="M975.38,1569.41s-6.82,5.64-6.23,6.53,8.31,8.31,8.31,8.31l5.64-7.42Z" style="fill: #1d1d1b;stroke: #1d1d1b;stroke-miterlimit: 10"/>
    </g>
  </g>
</svg>
