<svg xmlns="http://www.w3.org/2000/svg" viewBox="0 0 1085.67 1663.94">
  <title>okk</title>
  <g>
    <path d="M97.81,45.31c-6-.14-13.36,4.4-16.43,8.54-5.86,7.9-8.92,6.15-11.33,42-.78,11.57,4.23,41,4.79,44.61,2.68,17.42,3.06,28,12.89,44.68,6.15,10.47,21.84,27.59,52.17,26.09,35.32-1.75,53.89-31.17,59.71-49.83,8.34-26.77,10.93-47.94,9.81-68-1.77-31.54-8-36.67-15.59-44.44-9-9.23-16.33-9.39-26.38-9.38-4.74,0-12.05,1.62-16.53,6.84-16.33,19.07-13.09,101.82-13.09,101.82l-5.39-.44s-2.56-26.92-2.66-33.93c-.44-29.82,2.81-36.93-7-53C118.16,53.4,107.46,45.53,97.81,45.31Z" style="fill: #fff;stroke: #1d1d1b;stroke-miterlimit: 10"/>
    <g>
      <circle cx="98.99" cy="83.96" r="22.36" style="fill: none;stroke: #1d1d1b;stroke-miterlimit: 10"/>
      <circle cx="163.52" cy="82.82" r="22.36" style="fill: none;stroke: #1d1d1b;stroke-miterlimit: 10"/>
      <circle cx="100.89" cy="83.66" r="11.88" style="fill: none;stroke: #1d1d1b;stroke-miterlimit: 10"/>
      <circle cx="163.48" cy="84.02" r="12.04" style="fill: none;stroke: #1d1d1b;stroke-miterlimit: 10"/>
      <rect x="94.06" y="81.35" width="11.51" height="8.25" transform="translate(-31.59 86.32) rotate(-40.94)" style="stroke: #1d1d1b;stroke-miterlimit: 10"/>
    </g>
    <path d="M121.35,84c.25,9.59.25,51.12.44,59.15.05,2.22.08,6.66,2,9.58,3.49,5.35,10.41,7.42,12.51,7.77,2.33.39,5.43-.44,6.32-2.5,2.41-5.61.36-54.12-2.48-74.73" style="fill: none;stroke: #1d1d1b;stroke-miterlimit: 10"/>
    <g>
      <path d="M170.27,186.92c0,6.9-17.85,12.49-34.16,12.49s-34.28-6.34-30.15-11.86c5.05-6.77,16.23-13.23,32.06-17.16C155,166.18,170.27,180,170.27,186.92Z" style="fill: none;stroke: #1d1d1b;stroke-miterlimit: 10"/>
      <path d="M154.52,183.13c1,7.92-3.08,9.78-19.39,9.78-10.87,0-22.39-4.1-19.68-6,4.77-3.33,9.28-10.5,20.14-10.5S153.7,176.77,154.52,183.13Z" style="fill: none;stroke: #1d1d1b;stroke-miterlimit: 10"/>
      <path d="M145.05,184.93c.21.67-2,3.33-5,6.17a6.67,6.67,0,0,1-5.43,1.76l-16.39-3c2.43-1.84,6.44-6,11.86-7C135.82,181.71,144.14,182,145.05,184.93Z" style="stroke: #1d1d1b;stroke-miterlimit: 10"/>
    </g>
  </g>
  <g>
    <rect x="283.7" y="50.81" width="128.28" height="77.79" rx="12" ry="12" transform="translate(-5.32 23.97) rotate(-3.92)" style="fill: #fff;stroke: #1d1d1b;stroke-miterlimit: 10"/>
    <rect x="296.99" y="51.03" width="98.9" height="175.99" rx="12" ry="12" transform="translate(-8.69 23.99) rotate(-3.92)" style="fill: #fff;stroke: #1d1d1b;stroke-miterlimit: 10"/>
    <rect x="332.5" y="75.01" width="18.72" height="13.24" transform="translate(-7.57 43.81) rotate(-7.25)" style="fill: none;stroke: #1d1d1b;stroke-miterlimit: 10"/>
    <polygon points="353.83 105.5 335.15 106.66 333.17 89.33 352.29 86.91 353.83 105.5" style="fill: none;stroke: #1d1d1b;stroke-miterlimit: 10"/>
    <g>
      <polygon points="327.17 109.76 308.49 110.92 306.5 93.59 325.63 91.16 327.17 109.76" style="fill: none;stroke: #1d1d1b;stroke-miterlimit: 10"/>
      <polygon points="384.16 104.44 365.48 105.61 363.49 88.28 382.62 85.85 384.16 104.44" style="fill: none;stroke: #1d1d1b;stroke-miterlimit: 10"/>
    </g>
    <polygon points="354.91 128.21 334.62 129.6 335.15 106.66 353.83 105.5 354.91 128.21" style="fill: none;stroke: #1d1d1b;stroke-miterlimit: 10"/>
    <polygon points="354.91 171.42 336.65 171.42 335.75 130.03 354.37 128.6 354.91 171.42" style="fill: none;stroke: #1d1d1b;stroke-miterlimit: 10"/>
    <g>
      <rect x="318.44" y="171.42" width="64.27" height="25.28" style="fill: none;stroke: #1d1d1b;stroke-miterlimit: 10"/>
      <line x1="318.44" y1="188.33" x2="382.72" y2="188.33" style="fill: none;stroke: #1d1d1b;stroke-miterlimit: 10"/>
    </g>
    <polygon points="392.63 82.29 295.02 93.85 295.02 109.16 393.55 103.03 392.63 82.29" style="fill: none;stroke: #1d1d1b;stroke-miterlimit: 10"/>
  </g>
  <g>
    <rect x="473.48" y="86.24" width="110.3" height="130.87" style="fill: #fff"/>
    <path d="M514.44,100.52c4.47,8.64,11.13,24.55,11.22,29.8.16,9.44-2.63,24-2.63,24s-.68,1.86-5.3.13c-5.38-2-6.57,1-7,1.47a4.39,4.39,0,0,0,.06,5.36c1.34,1.34,3.85.78,7,.06,3-.67,3.34-1.33,5.12-1.45,2.87-.2,4.71,1.33,7.06,2.61,5,2.72,12.92,4.67,17.63,1.69,2.07-1.31,3.88-3.81,3.34-5.5-.42-1.33-2-1.27-5.93-3.39-2.72-1.48-4.59-2.52-5.66-4.49a8.36,8.36,0,0,1-.78-5c.45-4.76,1.65-23.48,1.38-39.91" style="fill: none;stroke: #1d1d1b;stroke-miterlimit: 10"/>
    <g>
      <path d="M497.72,199.28l19.64-20.81a4.66,4.66,0,0,1,2.94-1.57c1.21-.09,2.2.46,4.13,1.94a54.17,54.17,0,0,1,5.33,4.69l9.46-4.32a16.54,16.54,0,0,1,8.06-2.32,11.75,11.75,0,0,1,6.32,1.25c1.07.61,2.77,1.87,5.75,8.71a80.78,80.78,0,0,1,3.58,9.93c-1.09.73-2.71,1.84-4.65,3.23-5.17,3.71-6.68,5.2-9.46,7.2-4.28,3.08-8,5.74-12.9,6.74-5.35,1.1-9.75-.41-14.56-2a47.51,47.51,0,0,1-13.55-7Z" style="fill: none;stroke: #1d1d1b;stroke-miterlimit: 10"/>
      <path d="M562.25,194.79c-10.17,1.07-21.46,3.18-26.78,5-4.64,1.55-7.34,2.83-11.77,3.23-7.54.69-21.69-1.53-26-3.71" style="fill: none;stroke: #1d1d1b;stroke-miterlimit: 10"/>
    </g>
    <g>
      <path d="M516.59,105.57c0,4.43-7.91,6.05-18.87,6.05s-24.24-2.77-24.24-7.19,10.23-16.69,21.19-16.69S516.59,101.14,516.59,105.57Z" style="fill: none;stroke: #1d1d1b;stroke-miterlimit: 10"/>
      <path d="M580.82,100.9c0,4.43-4,11.09-15,11.09s-21.65-1.11-25.31-4.12c-3.42-2.81,9.41-21.63,20.37-21.63S580.82,96.48,580.82,100.9Z" style="fill: none;stroke: #1d1d1b;stroke-miterlimit: 10"/>
      <circle cx="493.55" cy="101.56" r="5.35" style="fill: none;stroke: #1d1d1b;stroke-miterlimit: 10"/>
      <rect x="551.08" y="99.12" width="17.56" height="7.55" transform="translate(0.66 209.29) rotate(-21.19)" style="stroke: #1d1d1b;stroke-miterlimit: 10"/>
    </g>
  </g>
  <g>
    <path d="M643.08,70.52c7-8.12,19.07-4.43,21.52-4.15,4,.46,11.81,1.36,18.18,7,3.15,2.76,4.47,5.38,7.7,5.78,4.2.52,7.74-3.18,9.54-4.86C710.49,64.5,728.14,62,738.25,63.77c1.94.34,16.6,3.09,23.29,16,5.72,11.06,4.17,26.76-4.29,33.11-5.36,4-12.12,3.26-25.59,1.76-17.42-1.94-24.91-6.47-28.28-2.71-4.07,4.54-.46,14.86-1.33,20.16-.63,3.81-7.06,2.88-9.29,2.9-3.64,0-7.08,3.67-8.2.14-.77-2.44-3.55-10.71-1.6-18,1.8-6.69.77-11.82,1.3-10.06,0,0-3.11-2.44-14.69.06-14.32,3.09-16.59,6.72-24,6.4-.85,0-16.18-3.26-15.51-12.06C630.84,90.8,633.4,81.71,643.08,70.52Z" style="fill: #fff;stroke: #000;stroke-miterlimit: 10"/>
    <g>
      <circle cx="657.67" cy="95.61" r="7.86" style="fill: none;stroke: #000;stroke-miterlimit: 10"/>
      <circle cx="731.06" cy="95" r="9.44" style="fill: none;stroke: #000;stroke-miterlimit: 10"/>
    </g>
    <ellipse cx="693.19" cy="161.87" rx="13.33" ry="14.66" style="fill: #fff;stroke: #000;stroke-miterlimit: 10"/>
  </g>
  <g>
    <rect x="831.37" y="63.58" width="144.19" height="163.66" style="fill: #fff;stroke: #000;stroke-miterlimit: 10"/>
    <rect x="847.75" y="80.9" width="115.52" height="130.51" style="fill: none;stroke: #000;stroke-miterlimit: 10"/>
    <line x1="886.06" y1="80.9" x2="884.44" y2="211.41" style="fill: none;stroke: #000;stroke-miterlimit: 10"/>
    <line x1="927.95" y1="80.9" x2="928.86" y2="211.41" style="fill: none;stroke: #000;stroke-miterlimit: 10"/>
    <line x1="847.69" y1="167.53" x2="963.27" y2="169.38" style="fill: none;stroke: #000;stroke-miterlimit: 10"/>
    <line x1="847.69" y1="119.18" x2="963.27" y2="119.22" style="fill: none;stroke: #000;stroke-miterlimit: 10"/>
    <line x1="899.04" y1="119.02" x2="900.71" y2="192.9" style="fill: none;stroke: #000;stroke-miterlimit: 10"/>
    <line x1="913.09" y1="119.02" x2="913.09" y2="192.29" style="fill: none;stroke: #000;stroke-miterlimit: 10"/>
    <g>
      <path d="M877.19,142.19S873,149,868.06,149s-8.65-4.45-8.65-6.83a6.56,6.56,0,0,1,6.66-6.6C871,135.59,877.19,142.19,877.19,142.19Z" style="fill: none;stroke: #000;stroke-miterlimit: 10"/>
      <path d="M954.54,145.41c2.5,2.37-5.32,3.61-9.23,8.72-3.21,4.19-10.28-7.84-10.28-7.84s4.43-7.13,9.7-7.13S950.61,141.7,954.54,145.41Z" style="fill: none;stroke: #000;stroke-miterlimit: 10"/>
    </g>
    <g>
      <line x1="884.68" y1="192.29" x2="928.72" y2="192.29" style="fill: none;stroke: #000;stroke-miterlimit: 10"/>
      <line x1="884.6" y1="199.03" x2="928.77" y2="199.03" style="fill: none;stroke: #000;stroke-miterlimit: 10"/>
      <rect x="884.98" y="168.12" width="43.88" height="43.28" style="fill: none;stroke: #000;stroke-miterlimit: 10"/>
    </g>
  </g>
  <g>
    <polyline points="68.89 300.69 67.92 265.61 228.62 261.72 228.62 286.36" style="fill: #fff;stroke: #000;stroke-miterlimit: 10"/>
    <path d="M228.62,286.36H213.56a12,12,0,0,0-12,12V303c0,6.6,6.66,9.72,13.26,9.72l15.48.92.85,26.3-60.52,6.58,4.57,68.73H131.72L128.13,343l-58,1.7-.58-20.9H87.1a11.57,11.57,0,0,0,11.54-11.54h0A11.57,11.57,0,0,0,87.1,300.69H68.89" style="fill: #fff;stroke: #000;stroke-miterlimit: 10"/>
    <rect x="78.14" y="308.37" width="11.25" height="7.71" transform="translate(-178.79 123.64) rotate(-39.29)" style="fill: #1d1d1b;stroke: #000;stroke-miterlimit: 10"/>
    <polygon points="143.92 407.25 131.22 405.29 131.22 398.14 145.38 401.52 143.92 407.25" style="fill: #1d1d1b;stroke: #000;stroke-miterlimit: 10"/>
    <g>
      <path d="M175.19,415.27l17.18,14a52.54,52.54,0,0,1-11.32,13,58.67,58.67,0,0,1-25.9,11.49c-25,4.11-44.86-11.93-48-14.58l24.61-23.95Z" style="fill: #fff;stroke: #000;stroke-miterlimit: 10"/>
      <line x1="107.11" y1="439.21" x2="192.37" y2="429.26" style="fill: #fff;stroke: #000;stroke-miterlimit: 10"/>
    </g>
  </g>
  <g>
    <path d="M409.79,328.53c-6.44,3.7-12,10.09-23.86,15.12-13.2,5.6-25,7.61-34.34,8.93-20,2.84-43.36-5.43-50.3-15.64s21.35-36.26,52.81-38.27C384.79,296.72,409.79,328.53,409.79,328.53Z" style="fill: #fff;stroke: #000;stroke-miterlimit: 10"/>
    <g>
      <ellipse cx="384.91" cy="328.49" rx="6.86" ry="8.47" style="fill: none;stroke: #000;stroke-miterlimit: 10"/>
      <polygon points="327.94 322.8 315.71 335.03 323.93 339.4 335.62 331.83 327.94 322.8" style="fill: none;stroke: #000;stroke-miterlimit: 10"/>
    </g>
    <path d="M350.28,400.77c1.79-1.28,6.53-.28,19.9,10.51a24.49,24.49,0,0,1-11.94,7.82c-2.37.66-6.31,1.76-10.61.07-3.11-1.22-7.63-4.39-7.42-8.22a7.89,7.89,0,0,1,2.45-4.71c1.17-1.13,1.94-1.14,4.14-2.63A34.79,34.79,0,0,0,350.28,400.77Z" style="fill: #1d1d1b;stroke: #000;stroke-miterlimit: 10"/>
    <line x1="352.9" y1="284.82" x2="350.28" y2="400.77" style="fill: none;stroke: #000;stroke-miterlimit: 10"/>
  </g>
  <g>
    <rect x="476.9" y="285.73" width="124.97" height="128.79" style="fill: #fff"/>
    <g>
      <path d="M477.48,290.47S525,288,527.12,288.56c-3.25,11-7,19.57-10.3,23.76-2.38,3-4.1,4.62-6.41,5.66-7.41,3.35-15.67-1.1-17.8-2.24C482.35,310.21,477.48,290.47,477.48,290.47Z" style="fill: none;stroke: #000;stroke-miterlimit: 10"/>
      <path d="M552,286.8s48.5-1.09,50.58-.54c-3.25,11-4.25,21.16-7.52,25.35-5.58,7.6-8.82,7.14-11.33,7.44-8.18,1-16.4.13-20.79-5.58C554.49,302.51,552,286.8,552,286.8Z" style="fill: none;stroke: #000;stroke-miterlimit: 10"/>
      <path d="M564.26,286.55c0,1,2,10.94,6.43,15,.74.68,5.11,4.82,9.91,3.87,5.07-1,9.38-11.12,8.82-19.27" style="fill: #1d1d1b;stroke: #000;stroke-miterlimit: 10"/>
      <path d="M489.39,290.22c.2,1.27,1.51,11,8.11,14.76,1.36.78,5.47,3.15,9.55,1.64,4.48-1.65,7.63-11.41,6.92-18.15" style="fill: #1d1d1b;stroke: #000;stroke-miterlimit: 10"/>
    </g>
    <line x1="525.65" y1="288.55" x2="551.99" y2="286.8" style="fill: none;stroke: #000;stroke-miterlimit: 10"/>
    <line x1="539.14" y1="287.65" x2="536.43" y2="393.3" style="fill: none;stroke: #000;stroke-miterlimit: 10"/>
    <path d="M576.45,395c-14.62-.71-12.46,3.57-19.79,1.47-24.82-7.1-36.13-.55-42.69,2.43,1.43,1.56,3.56,3.86,6.21,6.58,8.14,8.35,10,9.23,11.25,9.69.48.18,6.89,2.44,13.06-.66,5.06-2.55,7.57-7.51,9.23-10.8.91-1.79.78-2,1.27-2.84C559.94,392.11,577,395,576.45,395Z" style="fill: none;stroke: #000;stroke-miterlimit: 10"/>
  </g>
  <g>
    <polygon points="644.13 264.08 769.12 263.2 700.67 413.12 644.13 264.08" style="fill: #fff;stroke: #000;stroke-miterlimit: 10"/>
    <line x1="700.67" y1="413.11" x2="700.67" y2="263.2" style="fill: none;stroke: #000;stroke-miterlimit: 10"/>
    <path d="M750.66,303.79c-27.12,0-53.69-.66-80.82-.66-4.12,0-6.37.85-10.49.85a10.17,10.17,0,0,0-1.25-4.13l93.71,1.06Z" style="fill: #1d1d1b;stroke: #000;stroke-miterlimit: 10"/>
    <g>
      <path d="M707.45,398.27l19.65,11.45a40.69,40.69,0,0,1-9.4,7.45c-3.32,1.9-11.75,6.59-22.91,5.27a35.84,35.84,0,0,1-22-11.55l23.31-9.73,4.53,12Z" style="stroke: #000;stroke-miterlimit: 10"/>
      <polygon points="679.81 410.47 692.14 406.27 697.98 413.15 680.77 413.6 679.81 410.47" style="fill: #fff;stroke: #000;stroke-miterlimit: 10"/>
      <path d="M709.8,404.18c-2.41.46-5.45,8.49-5.45,8.49l17.57-2.2S713.08,403.55,709.8,404.18Z" style="fill: #fff;stroke: #000;stroke-miterlimit: 10"/>
    </g>
    <g>
      <path d="M717.7,302.45l1.44,8.58a10.71,10.71,0,0,0,6.08,8.11q.33.15.68.27c3.36,1.17,7-.27,9.17-3.76a11.09,11.09,0,0,0,1.79-4.24l1.32-8.61" style="fill: none;stroke: #000;stroke-miterlimit: 10"/>
      <path d="M668.27,303.13a20.66,20.66,0,0,0,4.83,9.52c1.88,2.07,4.78,5.25,8.74,5.25,8.14,0,8.38-10.23,10.32-15.66" style="fill: none;stroke: #000;stroke-miterlimit: 10"/>
    </g>
  </g>
  <g>
    <rect x="832.7" y="267.82" width="147.45" height="155.79" style="fill: none"/>
    <path d="M935.72,321.79c1.36,2.53,13.52,12,26.91,6.61,10.49-4.19,14.74-15.48,14.92-23.63,0-.55.1-13.25-9.33-21.14-5.53-4.63-9.95-3.93-25.49-7.46-15.92-3.61-14.89-5.16-24.25-6.84-18.17-3.26-33.23.58-40.41,2.49-15,4-27.68,7.36-36.06,19.27-1.51,2.14-8.7,12.85-6.84,26.73.41,3.06,2,15,11.19,20.52,4.56,2.73,9.17,2.76,14.92,2.49,22-1.06,27.29-5.08,41-5.6,6.75-.25,22.72-.64,36.06,9.33,2.39,1.79,14.38,10.74,12.43,19.9-1.13,5.32-6.47,8.34-9.33,9.95-8.31,4.69-14.21,2.89-29.84,3.73-14.27.76-21.89,1.17-29.22,5.6-2.43,1.47-13.62,7.87-14.92,18.65-.19,1.59,1.25,8,3.6,11" style="fill: none;stroke: #333;stroke-miterlimit: 10"/>
    <g>
      <circle cx="865.14" cy="309.21" r="13.42" style="fill: none;stroke: #333;stroke-miterlimit: 10"/>
      <path d="M960.09,312.44c0,7.62-6.24,12.85-13.8,13.8s-13.68-5.07-13.8-13.8a13.8,13.8,0,1,1,27.61,0Z" style="fill: none;stroke: #333;stroke-miterlimit: 10"/>
      <ellipse cx="864.24" cy="311.4" rx="8.64" ry="6.06" style="fill: none;stroke: #333;stroke-miterlimit: 10"/>
      <ellipse cx="950.29" cy="312.95" rx="9.03" ry="8.39" style="fill: none;stroke: #333;stroke-miterlimit: 10"/>
    </g>
    <circle cx="894.17" cy="357.84" r="6.06" style="fill: none;stroke: #333;stroke-miterlimit: 10"/>
    <g>
      <path d="M938.16,403.64c0,6.13-14.42,18.58-33.8,18.58s-34.83-6.26-34.83-12.38,14.16-17.29,33.54-17.29S938.16,397.51,938.16,403.64Z" style="fill: none;stroke: #333;stroke-miterlimit: 10"/>
      <line x1="937.9" y1="402.87" x2="871.01" y2="413.3" style="fill: none;stroke: #333;stroke-miterlimit: 10"/>
    </g>
  </g>
  <g>
    <path d="M163,641.8s.71-22.75,0-38.36c-.52-11.31,3-24.23,9.94-50.08,5.92-21.94,9.68-28.76,15.9-34.18a32.59,32.59,0,0,1,17.49-8.35,34.83,34.83,0,0,1,19.47,4c14.18,8,17.56,26.18,19.47,37.36,4.36,25.43-2.06,45.86-9.14,67.56-8.3,25.41-12.45,38.12-25.44,50.08-18.92,17.42-41.79,19.65-49.28,20.27-30.44,2.53-52.71-11.62-59.22-15.9-43.83-28.77-46.87-82.07-47.29-89.42a114.26,114.26,0,0,1,4.77-38.55C64.35,530.83,70,524.16,72,522s7.86-8.68,15.5-11.53c18.27-6.81,44.41,7.56,56.43,27,13.22,21.39,9.85,49.64,9.14,54.85l.79,49.09Z" style="fill: #fff;stroke: #1d1d1b;stroke-miterlimit: 10"/>
    <g>
      <path d="M132.83,665.64c1-5,7.56-7.52,8.74-7.95,1.79-.64,5.23-1.88,8.35-.4s3.56,4.81,5.56,4.77,2.1-2.93,4.77-5.17c3.29-2.75,8.92-3.36,13.51-1.19A13.16,13.16,0,0,1,181.31,666c.64,6.91-5.42,11.73-7.15,13.12-9,7.19-22.92,5.74-31.79,0C140.85,678.17,131.56,672.17,132.83,665.64Z" style="fill: #fff;stroke: #1d1d1b;stroke-miterlimit: 10"/>
      <line x1="134.82" y1="672.8" x2="181.71" y2="666.04" style="fill: #fff;stroke: #1d1d1b;stroke-miterlimit: 10"/>
    </g>
    <g>
      <path d="M84.12,563.45c-2.55,3.07-3.27,6.69-3.89,9.07l15.64.16,5.74,9.84L100.39,573l16.38.41-3.24,13.08,8.18-13.4,14.87-.11a20.33,20.33,0,0,0-3.58-9.14C123.31,550.56,95.12,550.21,84.12,563.45Z" style="fill: #fff;stroke: #1d1d1b;stroke-miterlimit: 10"/>
      <path d="M182.85,567.25c-1.09,2.57-.34,4.27-.32,5.84,2.17-.29,7,.38,11.83.72,1.93.13,3.52.88,7.83,2.8,3.36,1.49.7,6.39,2.56,7.57,3.56,2.25,9.55,1.27,12.32-2,1.87-2.19,1-3.86,2.38-6S224,571.9,233.85,573c-.84-2.81-1.55-6.74-4.05-11.09-2.6-4.53-4.71-8.2-8.35-10.73-7.82-5.43-19.74-3.5-27.42,1.59A36.09,36.09,0,0,0,182.85,567.25Z" style="fill: #fff;stroke: #1d1d1b;stroke-miterlimit: 10"/>
      <line x1="182.11" y1="571.05" x2="233.21" y2="570.77" style="fill: #fff;stroke: #1d1d1b;stroke-miterlimit: 10;stroke-width: 5px"/>
      <line x1="80.63" y1="570.73" x2="136.2" y2="571.44" style="fill: #fff;stroke: #1d1d1b;stroke-miterlimit: 10;stroke-width: 4px"/>
    </g>
  </g>
  <g>
    <polygon points="463.77 679.12 308.22 683.03 303.13 496.21 458.69 496.21 463.77 679.12" style="fill: #fff;stroke: #1d1d1b;stroke-miterlimit: 10"/>
    <polygon points="407.05 646.99 401.13 646.99 400.93 650.05 388.9 649.95 387.67 650.15 376.56 649.95 375.23 649.85 363.3 649.64 363.3 642.71 363.1 638.53 374.93 638.63 375.03 637.91 387.67 638.12 387.67 637.4 399.09 637.71 399.4 640.06 410 639.95 410.91 640.16 410.92 646.99 407.05 646.99" style="fill: #1d1d1b;stroke: #1d1d1b;stroke-miterlimit: 10"/>
    <rect x="307.82" y="496.6" width="6.64" height="186.04" style="fill: none;stroke: #1d1d1b;stroke-miterlimit: 10"/>
    <rect x="314.59" y="496.25" width="14.37" height="186.21" style="fill: none;stroke: #1d1d1b;stroke-miterlimit: 10"/>
    <rect x="329.23" y="496.25" width="10.5" height="46.69" style="fill: none;stroke: #1d1d1b;stroke-miterlimit: 10"/>
    <rect x="328.8" y="542.67" width="11.18" height="139.17" style="fill: none;stroke: #1d1d1b;stroke-miterlimit: 10"/>
    <rect x="340.01" y="496.53" width="10.22" height="45.31" style="fill: none;stroke: #1d1d1b;stroke-miterlimit: 10"/>
    <rect x="339.46" y="542.11" width="13.11" height="138.97" style="fill: none;stroke: #1d1d1b;stroke-miterlimit: 10"/>
    <rect x="352.44" y="542.11" width="10.5" height="138.69" style="fill: none;stroke: #1d1d1b;stroke-miterlimit: 10"/>
    <rect x="398.85" y="542.39" width="12.71" height="98.08" style="fill: #fff;stroke: #1d1d1b;stroke-miterlimit: 10"/>
    <rect x="363.66" y="649.34" width="11.98" height="31.19" style="fill: #fff;stroke: #1d1d1b;stroke-miterlimit: 10"/>
    <rect x="376.2" y="649.59" width="11.88" height="31.17" style="fill: #fff;stroke: #1d1d1b;stroke-miterlimit: 10"/>
    <rect x="388.36" y="649.58" width="12.16" height="30.68" style="fill: #fff;stroke: #1d1d1b;stroke-miterlimit: 10"/>
    <rect x="400.51" y="646.52" width="10.5" height="33.18" style="fill: #fff;stroke: #1d1d1b;stroke-miterlimit: 10"/>
    <rect x="388.07" y="542.67" width="10.55" height="95.31" style="fill: #fff;stroke: #1d1d1b;stroke-miterlimit: 10"/>
    <rect x="375.62" y="542.7" width="12.46" height="95.83" style="fill: #fff;stroke: #1d1d1b;stroke-miterlimit: 10"/>
    <rect x="363.77" y="542.67" width="11.6" height="96.42" style="fill: #fff;stroke: #1d1d1b;stroke-miterlimit: 10"/>
    <rect x="411.84" y="575.27" width="9.18" height="104.97" style="fill: none;stroke: #1d1d1b;stroke-miterlimit: 10"/>
    <rect x="420.68" y="542.67" width="10.59" height="137.58" style="fill: none;stroke: #1d1d1b;stroke-miterlimit: 10"/>
    <rect x="431.45" y="542.94" width="9.35" height="136.69" style="fill: none;stroke: #1d1d1b;stroke-miterlimit: 10"/>
    <rect x="441.12" y="496.81" width="11.6" height="182.74" style="fill: none;stroke: #1d1d1b;stroke-miterlimit: 10"/>
    <polygon points="453 496.25 459.2 496.25 463.5 678.59 452.73 679.15 453 496.25" style="fill: none;stroke: #1d1d1b;stroke-miterlimit: 10"/>
    <rect x="431.18" y="496.25" width="9.67" height="45.59" style="fill: none;stroke: #1d1d1b;stroke-miterlimit: 10"/>
    <rect x="419.85" y="496.53" width="10.5" height="45.31" style="fill: none;stroke: #1d1d1b;stroke-miterlimit: 10"/>
    <rect x="408.8" y="496.46" width="10.5" height="45.65" style="fill: none;stroke: #1d1d1b;stroke-miterlimit: 10"/>
    <rect x="399.41" y="496.25" width="9.12" height="45.86" style="fill: none;stroke: #1d1d1b;stroke-miterlimit: 10"/>
    <rect x="388.08" y="496.25" width="10.5" height="45.86" style="fill: none;stroke: #1d1d1b;stroke-miterlimit: 10"/>
    <rect x="376.48" y="496.25" width="11.6" height="45.86" style="fill: none;stroke: #1d1d1b;stroke-miterlimit: 10"/>
    <rect x="362.94" y="495.98" width="13.54" height="46.14" style="fill: none;stroke: #1d1d1b;stroke-miterlimit: 10"/>
    <rect x="350.78" y="496.25" width="11.88" height="45.59" style="fill: none;stroke: #1d1d1b;stroke-miterlimit: 10"/>
    <g>
      <rect x="411.15" y="559.4" width="8.94" height="15.97" style="fill: #1d1d1b;stroke: #1d1d1b;stroke-miterlimit: 10"/>
      <rect x="411.88" y="563.33" width="6.67" height="8.46" transform="translate(522.94 -127.36) rotate(45)" style="fill: #fff;stroke: #1d1d1b;stroke-miterlimit: 10"/>
      <rect x="339.51" y="558.49" width="12.98" height="18.06" style="fill: #1d1d1b;stroke: #1d1d1b;stroke-miterlimit: 10"/>
      <path d="M340.36,561.41v14.75l2.2-.94c5.66-2.39,6.44-2.42,7.45-3.55a6.85,6.85,0,0,0,1.58-5.34,5.12,5.12,0,0,0-1.94-3.4c-1.11-.73-2-.41-5.46-1-.84-.14-1.53-.28-1.94-.36Z" style="fill: #fff;stroke: #1d1d1b;stroke-miterlimit: 10"/>
    </g>
  </g>
  <g>
    <path d="M545.84,553.73c-.7-6.33-1.31-11.48-1.69-14.67h-22a62.07,62.07,0,0,1,3.39-16.37c6.35-17.95,19-28.38,24.27-31.6,27.65-16.93,72.8-18.62,105,1.69,17.94,11.33,17.2,35.44,17.49,46.84l-15.24.56-.56,15.8a315.65,315.65,0,0,1-1.69,39.5c-1.9,17.83-4.09,23.56-5.08,26-2.09,5.06-7.74,18.73-21.44,27.09-18.47,11.26-44.81,8.76-59.82-5.08-6.87-6.33-9.23-13.06-13.54-25.39C549.54,602.84,550.24,593.7,545.84,553.73Z" style="fill: #fff;stroke: #1d1d1b;stroke-miterlimit: 10"/>
    <g>
      <ellipse cx="554.51" cy="538.21" rx="10.44" ry="13.26" style="fill: none;stroke: #1d1d1b;stroke-miterlimit: 10"/>
      <ellipse cx="646.03" cy="538.58" rx="10.95" ry="13.83" style="fill: none;stroke: #1d1d1b;stroke-miterlimit: 10"/>
    </g>
    <path d="M565.17,538.49c3.92,1,11.14.64,17.38,1.62,3.64.57,3,6.19,4.71,16.07,2.64,15.52,5.19,30.56,2.92,48.58-.23,1.8-.7,5.18,1.3,7.72,3.83,4.88,14.71,3.08,19.31,1.78,2.65-.75.84-7.1.83-7.89-.5-31.79.15-33.41-1.49-52.6-.13-1.49.33-9.11-.14-11.74s5.18-1.07,12.67-1.29c3.51-.1,10.33-.73,12.1-1" style="fill: none;stroke: #1d1d1b;stroke-miterlimit: 10"/>
    <path d="M586.79,649.92c-1.14-4.43,8.29-10.78,9.55-11.63,3.54-2.38,6-4,9.14-3.74,5.31.45,8.58,5.84,14.12,15,1.21,2,.58,1.62.22,2.11C617,655.48,588.69,657.24,586.79,649.92Z" style="fill: none;stroke: #1d1d1b;stroke-miterlimit: 10"/>
  </g>
  <g>
    <polygon points="727.37 489.3 765.68 489.3 768.01 589.74 819.68 591.48 822 488.72 866.7 490.46 864.96 662.89 723.3 659.99 727.37 489.3" style="fill: #fff;stroke: #1d1d1b;stroke-miterlimit: 10"/>
    <g>
      <circle cx="746.82" cy="543" r="10.74" style="fill: none;stroke: #1d1d1b;stroke-miterlimit: 10"/>
      <circle cx="842.9" cy="549.1" r="9.87" style="fill: none;stroke: #1d1d1b;stroke-miterlimit: 10"/>
    </g>
    <polygon points="761.04 627.48 768.01 640.25 819.68 643.15 819.68 628.64 761.04 627.48" style="fill: none;stroke: #1d1d1b;stroke-miterlimit: 10"/>
  </g>
  <g>
    <ellipse cx="987.82" cy="572.67" rx="66.26" ry="67.37" style="fill: #fff;stroke: #1d1d1b;stroke-miterlimit: 10"/>
    <g>
      <path d="M1054.13,570.49H942.77c-7.11,0-14,.18-21.13.18l.31-2.81,132.17.26Z" style="fill: #1d1d1b;stroke: #1d1d1b;stroke-miterlimit: 10"/>
      <path d="M941.91,570.1l3.72,4.77c2.68,3.44,3.09,4,3.84,4.31,3.12,1.38,8-1.23,10.24-4.89a10.31,10.31,0,0,0,1.4-4.07" style="fill: #1d1d1b;stroke: #1d1d1b;stroke-miterlimit: 10"/>
      <path d="M1011.74,570.2c-.09.64,3.71,4.35,4.27,5.28,1.76,2.89,3.22,5,5.41,6.41,4.28,2.76,10.56,1.54,13.7-2.39,2.08-2.61,2.54-8.15,2.51-9.3" style="fill: #1d1d1b;stroke: #1d1d1b;stroke-miterlimit: 10"/>
    </g>
    <rect x="996.15" y="570.46" width="3.02" height="52.4" style="fill: #1d1d1b;stroke: #1d1d1b;stroke-miterlimit: 10"/>
    <polygon points="979.42 619.36 976.78 619.36 971.76 570.96 979.93 571.21 979.42 619.36" style="fill: #1d1d1b;stroke: #1d1d1b;stroke-miterlimit: 10"/>
    <polygon points="999.11 623.18 943.6 621.95 941.33 619.85 998.67 620.48 999.11 623.18" style="fill: #1d1d1b;stroke: #1d1d1b;stroke-miterlimit: 10"/>
    <path d="M1030.35,624.64l-31.15-1.37c.92-.57,2.61-.08,3.87-.64,6.43-2.82,12-.39,17.1-.13a26.56,26.56,0,0,0,17.6-5.41" style="fill: #1d1d1b;stroke: #1d1d1b;stroke-miterlimit: 10"/>
    <path d="M944.34,622.35l84.06,2.74q-1.22,1.12-2.56,2.2c-13.5,10.79-29.43,11.86-34.48,12.07a66.08,66.08,0,0,1-34.85-8c-4.54-2.43-8.62-6-11.07-7.87Z" style="fill: #fff;stroke: #1d1d1b;stroke-miterlimit: 10"/>
  </g>
  <g>
    <path d="M206.61,789.75c0,48-36.63,89.77-89.77,89.77S29.59,845,29.59,797.08s40.93-66,94.07-66S206.61,741.79,206.61,789.75Z" style="fill: #fff"/>
    <g>
      <ellipse cx="94.66" cy="759.47" rx="9.41" ry="9.88" style="fill: none;stroke: #1d1d1b;stroke-miterlimit: 10"/>
      <ellipse cx="149.7" cy="757.28" rx="10.19" ry="8.31" style="fill: none;stroke: #1d1d1b;stroke-miterlimit: 10"/>
    </g>
    <path d="M90,740.5c6.52.63,13.79,1.45,19.44,7.21,1.13,1.15,7.74,7.89,6,16.31-1.48,7-8,11.4-13.17,12.86-4.24,1.19-5.73-.11-21-2.51-11.44-1.8-13.49-1.52-15.37-.94C58.78,775.6,55,781.8,53,785c-6.07,9.84-5.27,20.23-4.7,28.54.49,7.16,1,14.31,4.7,21.64,7.59,14.95,23.46,20.46,31.36,23.21,2.1.73,38.64,12.76,69.62-9.09,4.44-3.13,16.46-11.85,22.89-27.91,2.8-7,8.52-21.27,1.57-32.3-5.36-8.51-17-13-26-13.48-7.59-.37-11.78,2.2-17.56-.94-6.2-3.36-8.19-10-8.47-11-3.24-11.39,6.34-21.09,6.9-21.64,9.6-9.43,24.32-7.05,29.16-6.27,16.85,2.72,32.11,15,39.2,30.73,10.06,22.32.37,44.35-5.64,58-3.87,8.8-13.42,30.49-37.32,43.59-24.75,13.56-49.09,9.26-62.4,6.9C81,872.34,62.82,869.11,48.57,853.7c-22.76-24.6-16-59.27-14.74-65.85,2.06-10.59,5.83-30,22.89-40.77C70.23,738.58,84.94,740,90,740.5Z" style="fill: none;stroke: #1d1d1b;stroke-miterlimit: 10"/>
    <path d="M79.93,826.73l-2.82,8.15,6.27,1.57a62.37,62.37,0,0,0,9.72,5.33c5.22,2.29,15.44,6.76,28.22,5a45.87,45.87,0,0,0,22.26-9.72l7.53-.94-6.9-9.41-2.51,7.53a50.52,50.52,0,0,1-4.7,3.14c-3.5,2.06-12.39,7.15-23.82,7.11-13.68-.05-23.38-7.42-26.5-10Z" style="fill: #1d1d1b;stroke: #1d1d1b;stroke-miterlimit: 10"/>
  </g>
  <g>
    <polygon points="370.78 728.55 434.39 814.15 360.08 906.88 291.13 796.32 370.78 728.55" style="fill: #fff;stroke: #1d1d1b;stroke-miterlimit: 10"/>
    <line x1="370.19" y1="730.33" x2="360" y2="906.81" style="fill: none;stroke: #1d1d1b;stroke-miterlimit: 10"/>
    <g>
      <polygon points="291.72 796.55 365.3 806.12 323.43 842.52 291.72 796.55" style="fill: none;stroke: #1d1d1b;stroke-miterlimit: 10"/>
      <line x1="323.34" y1="801.17" x2="323.43" y2="841.81" style="fill: none;stroke: #1d1d1b;stroke-miterlimit: 10"/>
      <polygon points="366.86 806.17 434.14 813.96 407.7 841.58 366.86 806.17" style="fill: none;stroke: #1d1d1b;stroke-miterlimit: 10"/>
      <line x1="408.65" y1="811.12" x2="407.83" y2="841.11" style="fill: none;stroke: #1d1d1b;stroke-miterlimit: 10"/>
    </g>
    <polygon points="362.85 861.64 374.89 878.16 361.2 893.27 345.62 872.5 362.85 861.64" style="fill: #1d1d1b;stroke: #1d1d1b;stroke-miterlimit: 10"/>
  </g>
  <g>
    <rect x="499.13" y="726.78" width="178.85" height="172.4" style="fill: #fff"/>
    <circle cx="578.15" cy="754.02" r="23.68" style="fill: none;stroke: #1d1d1b;stroke-miterlimit: 10"/>
    <circle cx="645.74" cy="807.82" r="23.49" style="fill: none;stroke: #1d1d1b;stroke-miterlimit: 10"/>
    <circle cx="583.32" cy="811.01" r="21.02" style="fill: none;stroke: #1d1d1b;stroke-miterlimit: 10"/>
    <circle cx="525.25" cy="811.56" r="22.16" style="fill: none;stroke: #1d1d1b;stroke-miterlimit: 10"/>
    <circle cx="521.25" cy="874.72" r="22.92" style="fill: none;stroke: #1d1d1b;stroke-miterlimit: 10"/>
    <circle cx="646.51" cy="869.25" r="21.78" style="fill: none;stroke: #1d1d1b;stroke-miterlimit: 10"/>
    <g>
      <circle cx="521.14" cy="752.32" r="23.11" style="fill: none;stroke: #1d1d1b;stroke-miterlimit: 10"/>
      <circle cx="639.9" cy="754.78" r="22.16" style="fill: none;stroke: #1d1d1b;stroke-miterlimit: 10"/>
      <ellipse cx="521.9" cy="753.27" rx="9.47" ry="9.66" style="fill: #1d1d1b;stroke: #1d1d1b;stroke-miterlimit: 10"/>
      <ellipse cx="637.06" cy="754.02" rx="10.23" ry="7.77" style="fill: none;stroke: #1d1d1b;stroke-miterlimit: 10"/>
      <polygon points="630.34 748.51 635.3 755.86 637.68 755.05 635.6 747.17 630.34 748.51" style="fill: #1d1d1b;stroke: #1d1d1b;stroke-miterlimit: 10"/>
      <path d="M514.79,750.83l1.78,9.18a9.17,9.17,0,0,0,8.35-.82,8.71,8.71,0,0,0,3.56-8.49l.41-2.47-8.35-1.92Z" style="fill: #fff;stroke: #1d1d1b;stroke-miterlimit: 10"/>
    </g>
    <g>
      <circle cx="582.7" cy="876.76" r="19.13" style="fill: none;stroke: #1d1d1b;stroke-miterlimit: 10"/>
      <path d="M575.6,876c-.29-4.53,4.14-7.24,5.3-8a11.22,11.22,0,0,1,5.1-1.63c1.43-.09,5.17-.34,7.55,2.45a7,7,0,0,1,1.43,6.73c-.64,1.66-2.54,2.69-6.33,4.69s-5.57,2.92-7.14,2.65A7.74,7.74,0,0,1,575.6,876Z" style="fill: none;stroke: #1d1d1b;stroke-miterlimit: 10"/>
    </g>
  </g>
  <g>
    <path d="M818.09,722.91c-8.09-5.47-18-3.71-20.66-3.23C778.63,723,770.25,742,769,744.86c-5.42,12.8-3.32,24.9-1.94,32.28,5,26.79,8.47,47.41,14.53,78,.34,1.73,2.59,9.71,4.21,14.25l5.8,17.56q10-23.07,18.08-44.55c16.57-43.93,19.8-62.09,20-79.42C830.11,731.78,820.5,724.54,818.09,722.91Z" style="fill: #fff;stroke: #1d1d1b;stroke-miterlimit: 10"/>
    <g>
      <path d="M733.11,767.18a34.42,34.42,0,0,1,7-5.86c2.44-1.55,3.32-2.34,4.74-2.51a7.91,7.91,0,0,1,5.86,2,7.49,7.49,0,0,1,2.51,5.58c-.14,3-2.43,4.79-4.46,6.41-1.81,1.45-3.39,2.7-5.58,2.51a6.89,6.89,0,0,1-4.74-3.07Z" style="fill: #1d1d1b;stroke: #1d1d1b;stroke-miterlimit: 10"/>
      <path d="M751.52,765.51a7.42,7.42,0,0,0-5.58-3.07c-.47,0-3.74-.07-5.3,2.51a5.52,5.52,0,0,0-.28,4.74,5,5,0,0,0,3.07,2.79c2.23.52,5-1.11,6.14-4.18Z" style="fill: #fff;stroke: #1d1d1b;stroke-miterlimit: 10"/>
      <ellipse cx="849.97" cy="769.53" rx="9.7" ry="10.09" style="fill: #1d1d1b;stroke: #1d1d1b;stroke-miterlimit: 10"/>
      <polygon points="847.73 764.39 853.87 764.39 855.82 773.04 853.03 775.55 847.73 764.39" style="fill: #fff;stroke: #1d1d1b;stroke-miterlimit: 10"/>
    </g>
    <path d="M781.29,852.95c2.81-1.87,6.61-2.86,8.37-3.4a13.7,13.7,0,0,1,4.91-.85c2.48.11,3.32,1.6,6.26,2.2,1.62.33,4.69-.41,5.59-.51l-1.86,4.74c-.62.52-3.91,2.26-5.08,3a20.26,20.26,0,0,1-5.42,2.88,19.25,19.25,0,0,1-10.84-1.35Z" style="fill: #1d1d1b;stroke: #1d1d1b;stroke-miterlimit: 10"/>
  </g>
  <g>
    <path d="M968.67,848.33c5.06,14.9,9.71,27.91,13.62,38.58,1.9-8.82,4.73-22,8.17-38.13,6-28,5.6-26.41,5.9-27.69,9.73-41.29,19.28-52.2,16.34-75.8-1.62-13-5.55-17.82-7.72-20-10.1-10-30-10.65-40.4-1.36-1.63,1.46-4.24,4.25-7.72,14.07a110.23,110.23,0,0,0-6.35,37.22C950.85,790,953.52,803.77,968.67,848.33Z" style="fill: #fff;stroke: #1d1d1b;stroke-miterlimit: 10"/>
    <g>
      <path d="M953.11,797.45c-.92-.76-4.29-4.13-6.32-5.2-6.6-3.5-10.61-1.8-20.25-4.09-7.15-1.7-11.82-3.08-13.37-6.87a8.07,8.07,0,0,1-.37-4.46c.42-2.4,2-5.23,8.54-9.29,4.91-3,6.23-2.79,11.89-5.57,5.27-2.59,11.35-5.65,16.16-11.7,2.42-3.05,5.51-7.11,6.32-9.1l-3.28,11.72a46,46,0,0,0-1.69,11.31l-.42,18Z" style="fill: #fff;stroke: #1d1d1b;stroke-miterlimit: 10"/>
      <path d="M935.46,769l-8,9.47a13.5,13.5,0,0,0,3.9,3.34,8.14,8.14,0,0,0,4.64,1.49c2.86-.21,6.38-2.83,6.13-6.13-.23-2.93-3.29-4.52-3.53-4.64Z" style="fill: #1d1d1b;stroke: #1d1d1b;stroke-miterlimit: 10"/>
      <path d="M1013.53,758.91a37,37,0,0,1,15.82,2.41c4.2,1.64,12,4.69,15.55,12.6.59,1.31,3.93,8.7.54,14.48-.69,1.18-2.89,4.39-17.16,7.51-9.13,2-14.2-1.11-20.65,2.68-2.27,1.33-5.19,2.69-6.14,3.78l8.31-26.31Z" style="fill: #fff;stroke: #1d1d1b;stroke-miterlimit: 10"/>
      <path d="M1023.85,771.42s4.68,3.56,6.23,8.7a14.62,14.62,0,0,1-3.48,4.06c-1.84,1.47-3.92,3.15-6.38,2.61a6.08,6.08,0,0,1-4.49-6.09c.09-.75.37-1.27,3-4.35C1022.92,771.59,1023.85,771.42,1023.85,771.42Z" style="fill: #1d1d1b;stroke: #1d1d1b;stroke-miterlimit: 10"/>
    </g>
    <g>
      <path d="M979.95,880.34a28.18,28.18,0,0,0-3,5.82c-1.62,4.22-4.71,6.94-7.06,9-4.16,3.66-6.87,6.68-7.06,8.77-.25,2.63,3.67,3.52,4.79,3.87,9.59,3,26.45-5.29,31.75-5.81a7.75,7.75,0,0,0-1.22-5.12c-2.13-3-7.15-4.32-10.23-5.12-1.92-.49-5.22-2.18-5.69-4C981.26,884.28,979.95,880.34,979.95,880.34Z" style="fill: none;stroke: #1d1d1b;stroke-miterlimit: 10"/>
      <path d="M979.43,907.4l-8.37-3.86A17.55,17.55,0,0,1,973.5,901c1.41-1.21,6.5-5.58,12.23-4.12,4.35,1.11,6.61,5,7.21,6.05Z" style="fill: #1d1d1b;stroke: #1d1d1b;stroke-miterlimit: 10"/>
    </g>
  </g>
  <g>
    <path d="M121.09,903.45A149.13,149.13,0,0,0,63.2,921c-16,8.71-29.29,16-37.69,32.31-10.84,21.09-5.57,41.91-4.71,45.1,1.54,5.73,4.74,17.62,15.48,26.92,14.11,12.23,39.09,18.14,56.54,5.38,12.67-9.26,18.46-26.44,16.15-28.27-.7-.56-2.05.38-7.47,3.34-6.1,3.33-13.41,7.07-15.67,8-9.72,4-25.1-2.79-33.07-12.19C38.2,984.43,43.38,953,61.81,941.33a34.64,34.64,0,0,1,28.9-3.48c3.63,1.22,15.39,4.08,21.93,20.89,12.88,33.07,11.14,82.17-7.31,123.6-7.63,17.13-19.5,28.72-28.2,37.25A65.75,65.75,0,0,0,90,1131.42c4.45,3.1,16.46,11.48,32.73,11.49,15.14,0,34.82-8.2,36.72-19.08.77-4.37-2-7.1-3-8.78,0,0-11-22.43-13.23-57.79-.14-2.23.72-12.17,2.44-32,2.44-28.22,3.74-34.89,5.57-41.43,4.47-16,7.15-25.53,16.36-31.68,11.07-7.39,28.36-7.69,39.69,1.39,16.52,13.24,11.76,39.48,2.44,53.27-2.82,4.17-10.42,15.41-22.63,15-9.12-.33-17.63-7-21.93-17.06l-4.18-1a22.55,22.55,0,0,0-3.13,14.27c1.4,10.15,10.28,15.66,12.53,17.06,14.37,8.92,37.44,3.81,51.18-8.7,22.27-20.29,14.33-54.85,12.88-60.58-7.66-30.38-33.17-45.3-41.43-50.13C165.75,899.59,138.56,901.94,121.09,903.45Z" style="fill: #fff;stroke: #1d1d1b;stroke-miterlimit: 10"/>
    <g>
      <ellipse cx="76.61" cy="979.94" rx="9.15" ry="8.42" style="fill: none;stroke: #1d1d1b;stroke-miterlimit: 10"/>
      <ellipse cx="186.5" cy="986.76" rx="8.26" ry="9" style="fill: none;stroke: #1d1d1b;stroke-miterlimit: 10"/>
    </g>
    <g>
      <path d="M77.44,1119.7s9.71-7.77,12.75-9.88c1.73-1.2,8.44-5.71,17.31-4a22.63,22.63,0,0,1,13,7.82,33.08,33.08,0,0,1,5.69-3.79,31.78,31.78,0,0,1,8.53-3.08c6.28-1.09,18.12,8.31,24.74,16.86-.23,2.36-3.72,6.84-6.34,9.75-3.66,4.07-27.31,11.55-41.27,8.29C94.5,1137.57,77.44,1119.7,77.44,1119.7Z" style="fill: none;stroke: #1d1d1b;stroke-miterlimit: 10"/>
      <line x1="77.93" y1="1119.54" x2="159.27" y2="1123.9" style="fill: none;stroke: #1d1d1b;stroke-miterlimit: 10"/>
    </g>
  </g>
  <g>
    <rect x="294.99" y="969.77" width="125.32" height="149.74" style="fill: #fff"/>
    <polyline points="424.68 1043.93 379.93 971.55 353.26 1085.83 319.46 979.65 290.89 1032.97" style="fill: none;stroke: #1d1d1b;stroke-miterlimit: 10"/>
    <g>
      <polygon points="318.38 1018.17 326.91 1023.86 314.96 1033.91 308.32 1026.13 318.38 1018.17" style="fill: #1d1d1b;stroke: #1d1d1b;stroke-miterlimit: 10"/>
      <path d="M388.16,1019.12a16.69,16.69,0,0,0-6.45,6.26c-1.13,2-2.87,5-1.71,7.59,1.64,3.62,8.64,5.3,11.95,2.09,2.45-2.39,1.92-6.53.95-8.91S388.16,1019.12,388.16,1019.12Z" style="fill: #1d1d1b;stroke: #1d1d1b;stroke-miterlimit: 10"/>
    </g>
    <g>
      <path d="M354,1088.73c9.38,6.72,18,11.64,27.34,18.36a58.64,58.64,0,0,1-6.29,3.59c-5.22,2.57-16.72,8.23-30.33,5.79a41.56,41.56,0,0,1-21.15-11.08,34.62,34.62,0,0,1,4.59-5.09c3.63-3.3,9.46-8.59,16.16-8.28,1.68.08,3.59.51,5.09-.7a7.79,7.79,0,0,0,2.49-3.79c.2-1.86.82-3.62.5-4.29Z" style="fill: none;stroke: #1d1d1b;stroke-miterlimit: 10"/>
      <polygon points="380.57 1106.8 324.09 1105.2 325.99 1102.9 375.38 1102.9 380.57 1106.8" style="fill: #1d1d1b;stroke: #1d1d1b;stroke-miterlimit: 10"/>
    </g>
  </g>
  <g>
    <rect x="493.34" y="978.25" width="184.52" height="129.71" rx="12" ry="12" style="fill: #fff"/>
    <path d="M533.25,1007.1c0,1.26-.35,13.21-8.8,19.24-1,.72-6.87,4.76-14.09,3.76-11.47-1.59-20.17-15-20-27.45.2-13.79,11.42-27.48,22.94-27.58,4.44,0,10.86,1.93,14.49,7.52a17.58,17.58,0,0,1,2.59,12.22" style="fill: none;stroke: #1d1d1b;stroke-miterlimit: 10"/>
    <path d="M625.37,991.31a25.38,25.38,0,0,1,7-13.29c8-7.82,18.58-7.08,20.57-6.94,13.13.91,29.66,12.07,29.66,29.89,0,16.47-14.11,30.47-29.66,29.89-11.06-.41-23.75-11.38-28.41-22.83" style="fill: none;stroke: #1d1d1b;stroke-miterlimit: 10"/>
    <g>
      <ellipse cx="511.1" cy="1005.61" rx="13.9" ry="12.75" style="fill: none;stroke: #1d1d1b;stroke-miterlimit: 10"/>
      <ellipse cx="650.84" cy="999.82" rx="19.23" ry="14.37" style="fill: none;stroke: #1d1d1b;stroke-miterlimit: 10"/>
    </g>
    <line x1="529.71" y1="995.15" x2="625.44" y2="991.16" style="fill: none;stroke: #1d1d1b;stroke-miterlimit: 10"/>
    <path d="M532.9,1007.12l30.41,4.43a24.22,24.22,0,0,0,2.83.22,12.05,12.05,0,0,1,3.86,1.06c2.71,1.56,3.24,5.27,3.46,6.78.84,5.89.68,29.61-.53,61.69a9.64,9.64,0,0,1-1.06,2.26c-2.91,4.52-8,3.77-16.22,7.45-3.16,1.41-6.59,3-9.57,6.52a20.8,20.8,0,0,0-3.46,5.85,28,28,0,0,0,5.19,5.05c19.85,14.81,53.46-2.35,57.84-4.65a13.76,13.76,0,0,0-.53-4.65c-1.34-4.52-5.27-8.95-10.1-10.1-3.74-.9-5.82.7-8-1.06-1.63-1.33-2-3.48-2.13-4.92-.57-5.81-.74-32.07-.4-67.81l40.15-6.78" style="fill: none;stroke: #1d1d1b;stroke-miterlimit: 10"/>
    <g>
      <path d="M555.67,1106a38.62,38.62,0,0,1,7.34-5.39c3.78-2.14,11-6.21,19.6-4.58a23.39,23.39,0,0,1,10.54,5,48.61,48.61,0,0,1-6.88,3.09,52.36,52.36,0,0,1-27.16,1.95Z" style="fill: #1d1d1b;stroke: #1d1d1b;stroke-miterlimit: 10"/>
      <polygon points="564.84 1101.76 565.76 1104.63 585.59 1102.1 584.44 1097.86 564.84 1101.76" style="fill: #fff;stroke: #1d1d1b;stroke-miterlimit: 10"/>
    </g>
  </g>
  <g>
    <path d="M787,967.32a15,15,0,0,0-9.74-.44c-17.18,4.46-29.43,32.63-33.21,42.07-15.34,38.26-4.74,50.63-10.63,95.21-.33,2.46-1.14,8.32,2.21,11.51,5.52,5.26,19.16.29,27-4.87a42.34,42.34,0,0,0,14.17-15.94,31.4,31.4,0,0,0,6.2,15.06c1.32,1.71,8.77,11.33,20.37,11.51,10.37.17,20.38-7.27,24.8-18.6a30.58,30.58,0,0,0,9.3,12c3.08,2.36,9.3,7.13,17.27,5.76,6.53-1.12,10.55-5.73,12-7.53,1.29-26.19,2.87-47,4-60.23,3.23-38.46,6.13-57.21-4.87-74.84-2.8-4.49-8.91-14-20.37-17.27a34.69,34.69,0,0,0-19.49.89c-14.92,5.47-26.29,23.2-27,45.17C799,1006.73,793.74,970.26,787,967.32Z" style="fill: #fff;stroke: #1d1d1b;stroke-miterlimit: 10"/>
    <g>
      <ellipse cx="767.56" cy="1015.14" rx="11.51" ry="10.63" style="fill: none;stroke: #1d1d1b;stroke-miterlimit: 10"/>
      <ellipse cx="832.66" cy="1014.92" rx="15.06" ry="12.18" style="fill: none;stroke: #1d1d1b;stroke-miterlimit: 10"/>
      <polygon points="832.66 1014.92 838.86 1008.95 844.17 1014.26 837.53 1021.79 832.66 1014.92" style="fill: #1d1d1b;stroke: #1d1d1b;stroke-miterlimit: 10"/>
    </g>
    <ellipse cx="800.77" cy="1088.44" rx="18.16" ry="11.29" style="fill: #1d1d1b;stroke: #1d1d1b;stroke-miterlimit: 10"/>
  </g>
  <g>
    <polygon points="1030.62 1088.66 931.42 1088.66 931.42 979.27 972.58 979.27 1030.62 979.27 1030.62 1088.66" style="fill: #fff"/>
    <g>
      <path d="M971.74,986.1l8.92,1.43-12.49,15.7-9.27-.36,1.43-5.95-11.65,8.68,3.81-7.37-1.19-1.31-8.56,7.85-1.07-.59,3.09-5.71-7-3.21a12.37,12.37,0,0,1,3.92-5.47c1.73-1.32,2.91-1.39,5.71-2.5,5.41-2.14,4.58-3.32,8.68-4.64,1.39-.45,7.35-2.36,10.35-.36a2.72,2.72,0,0,0,1.66.59c1.34-.06,2.35-1.43,3-2.5l1.55-1.12Z" style="fill: #1d1d1b"/>
      <path d="M1025.73,985.26c-2.38-.09-5.83-.18-10-.12-5.41.07-8.11.11-10,.59-7.41,1.91-11.73,8.3-12.72,9.87-3.1,4.89-3.44,9.55-4,17.6a107.06,107.06,0,0,0,0,12.49c.14,5.33.18,13-.36,22.47l3,6.66,3.09-.83a91.3,91.3,0,0,0,.59-15.7c-.41-8.3-1.72-11.14-1.43-19.5s1.83-11.79,2.62-13.32a24,24,0,0,1,7.25-8.32l1.66-.12-1.66,5.47,1.55,1.78,13.08-10.7-3.57,12.84a16.88,16.88,0,0,0,1.66-.83c1.15-.66,5.65-3.22,7-7.85.32-1.1,0-.8.59-4.4.34-2.13.7-3.86,1-5Z" style="fill: #1d1d1b"/>
    </g>
    <path d="M996,1072.26l6.37,8.28-33.61,2.83-.1-2.22-11,4.24c.34-.67.87-1.73,1.51-3,3.06-6.22,3.19-7.17,4.64-8.78a9.88,9.88,0,0,1,5.75-3.53c1.91-.28,3.39.27,5.85,1.21,4.22,1.62,4,2.74,7.17,3.63a13.13,13.13,0,0,0,7.87-.1,12,12,0,0,0,3.23-1.72Z" style="fill: #1d1d1b"/>
  </g>
  <g>
    <polygon points="84.94 1217.21 137.87 1219.58 170.26 1250.65 169.21 1317.8 137.61 1343.87 82.83 1344.66 51.76 1318.07 52.55 1253.02 84.94 1217.21" style="fill: #fff;stroke: #1d1d1b;stroke-miterlimit: 10"/>
    <line x1="85.19" y1="1217.73" x2="83.03" y2="1344.37" style="fill: none;stroke: #1d1d1b;stroke-miterlimit: 10"/>
    <line x1="137.87" y1="1220.1" x2="137.35" y2="1343.35" style="fill: none;stroke: #1d1d1b;stroke-miterlimit: 10"/>
    <line x1="53.08" y1="1252.76" x2="170.53" y2="1250.91" style="fill: none;stroke: #1d1d1b;stroke-miterlimit: 10"/>
    <line x1="51.76" y1="1313.56" x2="169.28" y2="1316.12" style="fill: none;stroke: #1d1d1b;stroke-miterlimit: 10"/>
    <line x1="52.81" y1="1276.99" x2="82.83" y2="1276.99" style="fill: none;stroke: #1d1d1b;stroke-miterlimit: 10"/>
    <line x1="138.14" y1="1279.36" x2="169.47" y2="1279.62" style="fill: none;stroke: #1d1d1b;stroke-miterlimit: 10"/>
    <polygon points="116.81 1314.91 107.73 1314.5 107.59 1251.7 116.81 1251.7 116.81 1314.91" style="fill: none;stroke: #1d1d1b;stroke-miterlimit: 10"/>
    <g>
      <polygon points="137.53 1278.82 116.81 1279.62 116.81 1265.66 137.53 1265.18 137.53 1278.82" style="fill: none;stroke: #1d1d1b;stroke-miterlimit: 10"/>
      <polygon points="105.82 1278.45 81.39 1278.62 81.77 1264.22 106.2 1264.01 105.82 1278.45" style="fill: #1d1d1b;stroke: #1d1d1b;stroke-miterlimit: 10"/>
      <polygon points="103.68 1277.62 97.64 1270.32 102.28 1267.05 107.46 1276.35 103.68 1277.62" style="fill: #fff;stroke: #1d1d1b;stroke-miterlimit: 10"/>
    </g>
    <path d="M95.58,1314.8a271.28,271.28,0,0,1,29.44.59c-.13,1.45-.37,5.89-2.16,8.21-3.75,4.85-10.85,5.44-15.8,4a16.76,16.76,0,0,1-8.43-6.06Z" style="fill: none;stroke: #1d1d1b;stroke-miterlimit: 10"/>
  </g>
  <g>
    <path d="M236,1186.85c.69-11.39,3-16.51,5.31-20,5.87-8.92,18.15-17.23,31.38-14.72,7,1.32,17.35,6.26,19.55,14.24.67,2.45,1.74,7.19,1.74,7.19s3.4-5.2,5.26-8.39c.51-.87,7.43-12.5,17.62-15.93,8.87-3,19.59.47,26.07,6.76,5.72,5.56,7,12.19,8.69,22.21a101.83,101.83,0,0,1,.24,32.58s-5.4,35.53-30.41,61.31a32,32,0,0,1-4.34,3.86c-12,8.75-29.73,8.3-42,1.93-8.32-4.32-12.25-10.38-19.55-22C234.42,1222.34,235.64,1192.9,236,1186.85Z" style="fill: #fff;stroke: #1d1d1b;stroke-miterlimit: 10"/>
    <path d="M293.93,1172.37l-.34,11.24c-.69,23-1.14,43-1.83,66,3.63-1,11.57-5.35,14.68-12.92,3.35-8.16-1.89-22.15-2.91-24.33-3.44-7.37-6.79-12.15-8.15-20.53-1.41-8.71-.72-7.87-1-13.9Z" style="fill: none;stroke: #1d1d1b;stroke-miterlimit: 10"/>
    <path d="M293.67,1187.41c-1.45,7.72-7.94,16.58-12.52,23.34-5.9,8.7-8.65,18.49-5.07,25.83,2.72,5.58,13,11.65,15.93,13.27" style="fill: none;stroke: #1d1d1b;stroke-miterlimit: 10"/>
    <g>
      <path d="M292.73,1249.85l-29.2,16.65c2.31,3.34,3.62,6.13,5.79,7.72,14.72,10.8,37.44,7.63,42.33,4.74,8-4.7,10.23-7.9,13.91-12Z" style="fill: none;stroke: #1d1d1b;stroke-miterlimit: 10"/>
      <line x1="263.33" y1="1266.7" x2="325.07" y2="1268.67" style="fill: none;stroke: #1d1d1b;stroke-miterlimit: 10"/>
    </g>
    <g>
      <path d="M290.8,1194.34c0,5.53-14.16,13.27-27.76,13.27s-26.31-5.33-26.31-10.86,13-15.45,26.55-15.45S290.8,1188.8,290.8,1194.34Z" style="fill: none;stroke: #1d1d1b;stroke-miterlimit: 10"/>
      <path d="M353.07,1193.13c0,8.46-4.49,16.65-19.55,16.65s-37.61-18-37.61-18,20.23-12.94,34.23-16.07C344.84,1172.46,353.07,1184.66,353.07,1193.13Z" style="fill: none;stroke: #1d1d1b;stroke-miterlimit: 10"/>
      <polygon points="290.04 1192.1 240.19 1191.36 236.98 1195.61 290.04 1195.61 290.04 1192.1" style="fill: #1d1d1b;stroke: #1d1d1b;stroke-miterlimit: 10"/>
      <polygon points="352.64 1195.01 301.59 1195.51 296.77 1191.49 352.64 1191.49 352.64 1195.01" style="fill: #1d1d1b;stroke: #1d1d1b;stroke-miterlimit: 10"/>
    </g>
  </g>
  <g>
    <path d="M408,1176l3.51,27.18,57.87,25.43,6.14,77.16a25.29,25.29,0,0,1-7,5.26c-3.55,1.78-5.37,1.6-8.21,2.75-4.6,1.87-10.12,6.56-10.23,10.54-.19,7,16.43,14.53,31.3,16.12,17.71,1.89,37.1-4.2,37.5-10.54.07-1-.36-2.45-10.54-10.23-6.67-5.1-12.54-9.14-17-12.09L489.13,1227l61.05-26.34-1.86-29.75-67.56,37.5Z" style="fill: #fff;stroke: #1d1d1b;stroke-miterlimit: 10"/>
    <g>
      <circle cx="437.06" cy="1243.72" r="12.09" style="fill: none;stroke: #1d1d1b;stroke-miterlimit: 10"/>
      <ellipse cx="521.98" cy="1243.87" rx="12.09" ry="12.24" style="fill: none;stroke: #1d1d1b;stroke-miterlimit: 10"/>
    </g>
    <ellipse cx="484.17" cy="1324.92" rx="18.29" ry="7.13" style="fill: none;stroke: #1d1d1b;stroke-miterlimit: 10"/>
  </g>
  <g>
    <ellipse cx="680.82" cy="1279.82" rx="8.52" ry="8.83" style="fill: #fff;stroke: #1d1d1b;stroke-miterlimit: 10"/>
    <g>
      <ellipse cx="644.87" cy="1194.44" rx="7.9" ry="7.13" style="fill: #fff;stroke: #1d1d1b;stroke-miterlimit: 10"/>
      <path d="M721.88,1190.1c-.39-.19-4.74-2.24-7.44-.31-3.7,2.65-2.47,11.51,1.86,13,2.35.81,5.42-.6,7.75-3.1l5.58-3.1Z" style="fill: #fff;stroke: #1d1d1b;stroke-miterlimit: 10"/>
    </g>
  </g>
  <g>
    <path d="M957,1199.32c-2,24.23-2.66,45-2.77,61-.34,47.11,3.7,66,5.55,73.76,2.09,8.77,2.31,21.94,10.58,35.41,3.34,5.44,7.5,12.23,14.93,16.73,17.82,10.79,45.56,3,61-12.2,10.2-10,13.3-22.67,16.08-53.24a679.71,679.71,0,0,0,1.66-99.28l-2.77-20.52-30.5-1.66-2.22,27.73c-7.81,61.1-5.44,71.68-6.7,84.32.2,1.09-.85,17.77-2.95,21.06-4.41,6.93-18.21,7.6-27,0a20.09,20.09,0,0,1-6.1-10.54l-3.88-126.45Z" style="fill: #fff;stroke: #1d1d1b;stroke-miterlimit: 10"/>
    <path d="M968.6,1366.9c5.33,1.29,19.86,2.92,25-.64,9.5-6.6,9.61-28.16,13.14-28.25,1.62,0,.36,8,3.43,13,.62,1,7.79,12.31,21.22,15.62,2.89.71,15.38-1.21,22.39-2.81" style="fill: none;stroke: #1d1d1b;stroke-miterlimit: 10"/>
    <path d="M1010.3,1351.17c-1.48-2-2.55-10.86-3.6-12.8-.84-1.55-3.27,8.79-3.89,11.67a39.88,39.88,0,0,1-4,10.84c-2.53,4.64-5.91,6.79-9,7.64-5.56,1.53-15.07.16-19.18-.56-1.84-.32,5.37,9,6.53,10.42a94.78,94.78,0,0,0,9.31,8.2c13.2,7.64,27.33,3.18,31.13,2.5,11.53-2.06,30.58-13.62,35.72-24,.77-1.57-9.93,1-11.67.83-1-.09-9.63,1.19-10.7.83C1019.9,1363.11,1016.7,1359.89,1010.3,1351.17Z" style="fill: none;stroke: #1d1d1b;stroke-miterlimit: 10"/>
    <g>
      <ellipse cx="1046.07" cy="1191.79" rx="16.75" ry="18.25" style="fill: #fff;stroke: #1d1d1b;stroke-miterlimit: 10"/>
      <ellipse cx="968.54" cy="1190.84" rx="13.7" ry="16.72" style="fill: #fff;stroke: #1d1d1b;stroke-miterlimit: 10"/>
    </g>
  </g>
  <g>
    <polygon points="764.65 1162.83 912.49 1161.89 912.79 1207.14 882.42 1207.14 881.49 1194.13 857.94 1195.37 860.73 1299.81 899.47 1299.19 899.78 1357.46 799.98 1357.15 792.86 1306.63 826.64 1301.98 824.47 1197.54 790.07 1198.78 789.82 1220.8 762.48 1227.91 764.65 1162.83" style="fill: #fff;stroke: #1d1d1b;stroke-miterlimit: 10"/>
    <g>
      <polygon points="789.75 1220.78 762.48 1226.98 763.52 1209.14 789.75 1208.38 789.75 1220.78" style="fill: #1d1d1b;stroke: #1d1d1b;stroke-miterlimit: 10"/>
      <polygon points="912.49 1217.37 883.99 1223.77 882.38 1206.34 912.85 1206.87 912.49 1217.37" style="fill: #1d1d1b;stroke: #1d1d1b;stroke-miterlimit: 10"/>
    </g>
    <polygon points="899.47 1337 797.24 1337.04 796.18 1330.25 899.47 1331.11 899.47 1337" style="fill: #1d1d1b;stroke: #1d1d1b;stroke-miterlimit: 10"/>
  </g>
  <g>
    <path d="M90.18,1412.64c-9.85-8.39-22.2-7.29-24-7.11-12,1.25-23.56,9.71-27.09,20.87-1.58,5-.76,9.85.89,19.54s3.59,21.11,10.66,32.42c5.63,9,7.24,6.37,20,21.32,9.72,11.39,18.74,22.19,15.54,29.76-1.16,2.74-3.33,3.66-7.11,10.66-2.05,3.81-2.81,7.81-1.66,9.1,1.35,1.52,6.09-.68,8.85-2.45,4.89-3.13,4.07-9,6.13-8.88,1.33.1,3.91,2.09,6.12,4.73,2.51,3,9.8,10.36,9.8,10.36s1.68-8.83,5.85-12.43c5.72-4.94,14.71-7.36,17.77-4.44,2.11,2,1.77,4.36,3.89,8.77,2.28,4.73,6.44,9.13,10.32,7.22,2.78-1.37,4.53-5.78,3.55-9.33-1.68-6.06-10.29-5.74-13.32-13.32-1-2.57-1.24-4.91-.89-5.77,2.46-6.15,3.51-11.25,28.87-28.43,9.12-6.17,9.27-5.76,10.66-7.55,8.1-10.4,6.28-28.56,4-36.42a20.1,20.1,0,0,1-.89-4.44c-.5-6.47,2.6-10,3.55-14.21,1.9-8.39-5.4-16.76-6.66-18.21a28.78,28.78,0,0,0-31.53-7.55c-7.13,2.92-10.7,8.47-15.1,15.55-2,3.14-8.73,14.54-11.55,35.53-1.32,9.81-3.62,26.83.89,44.86.89,3.55-14.66-.44-14.66-.44.13-5.74.21-13.84,0-23.54C102.23,1441.31,101.58,1422.35,90.18,1412.64Z" style="fill: #fff;stroke: #1d1d1b;stroke-miterlimit: 10"/>
    <g>
      <path d="M78.36,1440.14c0-4.11-4.24-12-13.94-9.8C52.55,1433,40.5,1441.87,40.5,1446s7.4,4.14,17.33,4.14S78.36,1444.25,78.36,1440.14Z" style="fill: none;stroke: #1d1d1b;stroke-miterlimit: 10"/>
      <path d="M177.83,1444.1c0,4.89-10.23,7.91-18.08,7.91s-14.51-5.66-14.51-10.55,7.76-9.29,15.26-7C168.41,1436.94,177.83,1439.21,177.83,1444.1Z" style="fill: none;stroke: #1d1d1b;stroke-miterlimit: 10"/>
    </g>
    <path d="M103,1502.31a19.53,19.53,0,0,0-7.35,3.39c-.94.8-1.63,2-3,4.33s-1.46,3-1.32,3.58a3.48,3.48,0,0,0,2.64,2.26c1.44.3,2.78-.41,7.35-4.14s5-4.51,6.78-5.09c.76-.25,4.27-1.29,7.35.38s2.38,4.39,5.84,7.35c2.36,2,6.58,4.07,8.67,2.45,1.56-1.21,1.7-4.3.57-6.22-.67-1.14-1.6-1.53-3.2-2.45s-6.68-2.74-9.23-4.9Z" style="fill: #1d1d1b;stroke: #1d1d1b;stroke-miterlimit: 10"/>
  </g>
  <g>
    <g>
      <ellipse cx="252.57" cy="1419.49" rx="26.8" ry="23.09" style="fill: #1d1d1b;stroke: #1d1d1b;stroke-miterlimit: 10"/>
      <ellipse cx="324.04" cy="1418.84" rx="24.53" ry="23.63" style="fill: #1d1d1b;stroke: #1d1d1b;stroke-miterlimit: 10"/>
      <polygon points="235.6 1404.33 244.37 1416.96 241.92 1419.62 230.91 1416.15 235.6 1404.33" style="fill: #fff;stroke: #1d1d1b;stroke-miterlimit: 10"/>
      <polygon points="238.25 1402.69 246.41 1403.1 248.65 1414.11 245.59 1413.91 238.25 1402.69" style="fill: #fff;stroke: #1d1d1b;stroke-miterlimit: 10"/>
      <polygon points="248.24 1399.84 263.33 1399.43 254.15 1411.05 248.24 1399.84" style="fill: #fff;stroke: #1d1d1b;stroke-miterlimit: 10"/>
      <polygon points="263.94 1402.08 271.48 1407.79 261.7 1414.72 259.25 1412.89 263.94 1402.08" style="fill: #fff;stroke: #1d1d1b;stroke-miterlimit: 10"/>
      <polygon points="263.74 1421.65 261.7 1424.71 269.04 1434.09 276.99 1424.1 274.13 1421.86 263.74 1421.65" style="fill: #fff;stroke: #1d1d1b;stroke-miterlimit: 10"/>
      <polygon points="316.13 1398.41 319.8 1400.45 317.97 1413.09 311.65 1406.16 316.13 1398.41" style="fill: #fff;stroke: #1d1d1b;stroke-miterlimit: 10"/>
      <polygon points="321.43 1395.56 333.67 1401.88 322.66 1413.7 321.43 1395.56" style="fill: #fff;stroke: #1d1d1b;stroke-miterlimit: 10"/>
      <polygon points="335.5 1402.9 344.06 1407.38 342.64 1410.64 331.22 1415.95 335.5 1402.9" style="fill: #fff;stroke: #1d1d1b;stroke-miterlimit: 10"/>
      <polygon points="343.25 1413.7 332.85 1421.04 333.67 1424.31 343.04 1423.29 343.25 1413.7" style="fill: #fff;stroke: #1d1d1b;stroke-miterlimit: 10"/>
      <path d="M314.91,1415.74a7.5,7.5,0,0,0-2.45,2,21.24,21.24,0,0,0,1.22,3.47c1.09,2.39,2.09,4.61,3.87,5.5,3.61,1.82,10.36-1.77,10.4-5.3,0-2.23-2.63-3.91-3.87-4.69C323.5,1416.39,319,1413.65,314.91,1415.74Z" style="fill: #fff;stroke: #1d1d1b;stroke-miterlimit: 10"/>
      <path d="M247.22,1419.41a13.81,13.81,0,0,0-1.43,1.83,21.11,21.11,0,0,1,2.45,2c2.43,2.36,2.69,3.76,3.87,4.28,1.6.71,3.62-.91,7.54-3.87,2.06-1.56,2.49-2.2,2.45-2.85s-.43-1.09-3.26-2.85c-2.55-1.59-3.82-2.38-4.49-2.45C251.11,1415.2,248.29,1418.26,247.22,1419.41Z" style="fill: #fff;stroke: #1d1d1b;stroke-miterlimit: 10"/>
    </g>
    <path d="M285.55,1422.88a6.22,6.22,0,0,1,4.49.41c3.07,1.77,2.93,6.77,3.26,10,1.43,13.86,3.8,25.63,3.87,41a5.12,5.12,0,0,0,1,3.47c1.68,1.93,4.42.88,10.19,1.63,3.7.48,6,.78,7.75,2.45,2.93,2.8,2.34,7.5,2.24,8.36a15.2,15.2,0,0,1-3.67,7.75c-8.18,10.56-12.27,15.84-16.51,17.13-.95.29-7.58,2.2-13.25-1-2-1.12-2.11-1.88-5.5-5.5-7.43-7.94-9.84-7.57-12.44-12.44-.56-1-4.16-7.79-1.43-11.42,2.14-2.83,7.73-3.21,9-3.26,2.23-.09,2.89.34,4.08-.2,3-1.37,3.48-6.28,3.67-8.36.54-5.94,1.19-21.78,2.85-44.85Z" style="fill: #1d1d1b;stroke: #1d1d1b;stroke-miterlimit: 10"/>
    <polygon points="268.02 1486.28 269.85 1484.24 291.06 1501.58 288.81 1504.63 268.02 1486.28" style="fill: #fff;stroke: #1d1d1b;stroke-miterlimit: 10"/>
    <polygon points="267.4 1488.93 265.57 1491.38 287.38 1511.97 289.22 1509.73 267.4 1488.93" style="fill: #fff;stroke: #1d1d1b;stroke-miterlimit: 10"/>
    <path d="M315.11,1484.45a4,4,0,0,1,.82,3.06l-22.83,16.31a11,11,0,0,1,0-3.47c.6-3.7,2.81-4.74,11.42-13a12.18,12.18,0,0,1,4.49-3.06C309.83,1483.94,313.41,1482.64,315.11,1484.45Z" style="fill: #fff;stroke: #1d1d1b;stroke-miterlimit: 10"/>
    <path d="M295.13,1509.93a15.92,15.92,0,0,1-2.85,0l20.59-17.53a19.25,19.25,0,0,1-1,4.08C309.27,1503.45,302.43,1509.28,295.13,1509.93Z" style="fill: #fff;stroke: #1d1d1b;stroke-miterlimit: 10"/>
    <g>
      <path d="M257.94,1538.35c-1.54,1.31-2.82,2.37-3.69,3.08a45.3,45.3,0,0,0,6.15,10.46c13,16.53,33.22,18,34.88,18.05,2.93.16,22.67,1.25,34.06-12.31,2.17-2.59,7.83-9.33,6.36-17.85a18.08,18.08,0,0,0-9-12.72,18.5,18.5,0,0,0-11.49-1.85c-7.34,1.07-10.2,6.07-17,7.59-4.77,1.06-3.49,0-15.18-3.08-8.21-2.16-11.07-1-14.16.82C266.68,1531.84,264.59,1532.66,257.94,1538.35Z" style="fill: #1d1d1b;stroke: #1d1d1b;stroke-miterlimit: 10"/>
      <path d="M282.36,1532.6a15,15,0,0,0-2.26-1.44l5.74,20.93,2.67-1-.82-1.85a13.42,13.42,0,0,0,.82-3.9C288.93,1537.83,282.71,1532.87,282.36,1532.6Z" style="fill: #fff;stroke: #1d1d1b;stroke-miterlimit: 10"/>
      <path d="M293.64,1537.53a5.32,5.32,0,0,0-2.26-1.23l.21,17.44a18.33,18.33,0,0,0,2.87-5.74C294.92,1546.41,296.69,1540.4,293.64,1537.53Z" style="fill: #fff;stroke: #1d1d1b;stroke-miterlimit: 10"/>
      <path d="M312.93,1531.58v-2.67a21.25,21.25,0,0,0-8.62,4.92c-7.72,7.36-6.73,18.12-6.57,19.7Z" style="fill: #fff;stroke: #1d1d1b;stroke-miterlimit: 10"/>
      <path d="M323.6,1532.19l1.64-2.05a5,5,0,0,0-2.87-1.44c-5.2-.54-10.44,9.19-13.34,14.57-.83,1.54-1.45,2.84-1.85,3.69l2.26,1.44Z" style="fill: #fff;stroke: #1d1d1b;stroke-miterlimit: 10"/>
      <polygon points="323.6 1556.81 327.08 1549.42 320.72 1544.71 318.88 1547.37 323.6 1556.81" style="fill: #fff;stroke: #1d1d1b;stroke-miterlimit: 10"/>
      <path d="M315,1559.07l5.74,4.72,1.85-4.92a35,35,0,0,0-4.72-7c-2.39-2.74-3.42-3-4.1-3.08-2.63-.19-4.64,2.84-4.92,3.28Z" style="fill: #fff;stroke: #1d1d1b;stroke-miterlimit: 10"/>
    </g>
  </g>
  <g>
    <g>
      <rect x="411.26" y="1404.62" width="39.58" height="19.79" style="fill: none;stroke: #1d1d1b;stroke-miterlimit: 10"/>
      <rect x="475.13" y="1403.27" width="43.18" height="25.19" style="fill: none;stroke: #1d1d1b;stroke-miterlimit: 10"/>
    </g>
    <rect x="458.04" y="1404.62" width="12.14" height="94.46" style="fill: none;stroke: #1d1d1b;stroke-miterlimit: 10"/>
    <g>
      <rect x="437.35" y="1512.85" width="53.53" height="10.51" style="fill: #1d1d1b;stroke: #1d1d1b;stroke-miterlimit: 10"/>
      <path d="M440.24,1514.43h48.84a17.49,17.49,0,0,1-2.58,3.23c-12.41,12.19-39.59,1.56-43.46,0Z" style="fill: #fff;stroke: #1d1d1b;stroke-miterlimit: 10"/>
    </g>
  </g>
  <g>
    <rect x="579.51" y="1387.01" width="112.75" height="137.22" style="fill: #fff"/>
    <g>
      <circle cx="605.76" cy="1413.73" r="25.71" style="fill: none;stroke: #1d1d1b;stroke-miterlimit: 10"/>
      <circle cx="670.28" cy="1416.49" r="24.75" style="fill: none;stroke: #1d1d1b;stroke-miterlimit: 10"/>
      <ellipse cx="607.21" cy="1413.61" rx="15.02" ry="14.66" style="fill: none;stroke: #1d1d1b;stroke-miterlimit: 10"/>
      <ellipse cx="668.36" cy="1417.69" rx="10.81" ry="14.9" style="fill: none;stroke: #1d1d1b;stroke-miterlimit: 10"/>
    </g>
    <g>
      <ellipse cx="636.4" cy="1517.77" rx="11.77" ry="12.13" style="fill: none;stroke: #1d1d1b;stroke-miterlimit: 10"/>
      <ellipse cx="660.91" cy="1515.96" rx="8.17" ry="5.29" style="fill: none;stroke: #1d1d1b;stroke-miterlimit: 10"/>
      <ellipse cx="615.62" cy="1516.93" rx="5.17" ry="8.41" style="fill: #1d1d1b;stroke: #1d1d1b;stroke-miterlimit: 10"/>
    </g>
    <polygon points="627.75 1474.88 636.4 1483.53 629.43 1488.81 621.99 1480.4 627.75 1474.88" style="fill: #1d1d1b;stroke: #1d1d1b;stroke-miterlimit: 10"/>
    <polygon points="647.45 1476.8 641.45 1482.57 648.41 1491.22 655.14 1481.85 647.45 1476.8" style="fill: #1d1d1b;stroke: #1d1d1b;stroke-miterlimit: 10"/>
  </g>
  <g>
    <rect x="783.27" y="1399.68" width="56.15" height="114.04" style="fill: #fff;stroke: #1d1d1b;stroke-miterlimit: 10"/>
    <polygon points="814.85 1513.45 801.9 1513.45 801.95 1398.81 814.62 1398.81 814.85 1513.45" style="fill: none;stroke: #1d1d1b;stroke-miterlimit: 10"/>
    <g>
      <path d="M783.09,1428.81c-.65,0-8.32,3.24-11.42,7.06s-3.53,10.14.21,13.71,11.24,4,11.63,3.95Z" style="fill: none;stroke: #1d1d1b;stroke-miterlimit: 10"/>
      <path d="M839.87,1427.17c.28,8.52-.07,19.32.21,27.83,1.13-.66,3.22-2.47,5.19-3.74,4.31-2.76,6.48-4.17,7.27-5.82,1.78-3.72-.47-8-.83-8.72a15.71,15.71,0,0,0-7.36-6.84,21.6,21.6,0,0,1-4-2.37Z" style="fill: none;stroke: #1d1d1b;stroke-miterlimit: 10"/>
    </g>
    <polygon points="836.1 1530 839.84 1530 839.42 1544.95 836.1 1530" style="fill: none;stroke: #1d1d1b;stroke-miterlimit: 10"/>
    <polygon points="783.21 1529.73 787.78 1529.94 782.17 1541.36 783.21 1529.73" style="fill: none;stroke: #1d1d1b;stroke-miterlimit: 10"/>
    <g>
      <rect x="783.15" y="1513.72" width="56.39" height="8.1" style="fill: #1d1d1b;stroke: #1d1d1b;stroke-miterlimit: 10"/>
      <rect x="783.13" y="1522.03" width="56.41" height="7.68" style="fill: #1d1d1b;stroke: #1d1d1b;stroke-miterlimit: 10"/>
      <polygon points="784.38 1517.27 785.37 1514.45 837.83 1515.43 839.66 1517.97 835.15 1519.81 788.33 1521.5 784.38 1517.27" style="fill: #fff;stroke: #1d1d1b;stroke-miterlimit: 10"/>
      <path d="M789.88,1526.86c-1.39.77-2.45,1.45-2.82,1.69l52.78,1.45a33.34,33.34,0,0,0-4.41-3.43C821.52,1517.54,802.35,1520,789.88,1526.86Z" style="fill: #fff;stroke: #1d1d1b;stroke-miterlimit: 10"/>
    </g>
  </g>
  <g>
    <ellipse cx="991.36" cy="1501.11" rx="78.49" ry="70.81" style="fill: #fff;stroke: #1d1d1b;stroke-miterlimit: 10"/>
    <g>
      <ellipse cx="941.98" cy="1487.45" rx="26.88" ry="25.8" style="fill: none;stroke: #1d1d1b;stroke-miterlimit: 10"/>
      <path d="M1015.7,1485.91c0-14.25,10.39-24.16,24.87-25.8,11.53-1.31,26.38,11.55,26.38,25.8s-11.81,25.8-26.38,25.8S1015.7,1500.16,1015.7,1485.91Z" style="fill: none;stroke: #1d1d1b;stroke-miterlimit: 10"/>
      <ellipse cx="938.75" cy="1488.82" rx="15.82" ry="14.9" style="fill: #1d1d1b;stroke: #1d1d1b;stroke-miterlimit: 10"/>
      <ellipse cx="1040.74" cy="1486.06" rx="17.36" ry="16.13" style="fill: none;stroke: #1d1d1b;stroke-miterlimit: 10"/>
    </g>
    <polygon points="972.38 1568.54 968.08 1568.54 968.41 1433.7 972.84 1432.82 972.38 1568.54" style="fill: #1d1d1b;stroke: #1d1d1b;stroke-miterlimit: 10"/>
    <polygon points="1020.77 1568.54 1015.55 1568.54 1015.55 1433.68 1020.89 1435.25 1020.77 1568.54" style="fill: #1d1d1b;stroke: #1d1d1b;stroke-miterlimit: 10"/>
    <polygon points="1067.62 1517.85 915.55 1517.96 914.35 1514.05 1067.62 1514.17 1067.62 1517.85" style="fill: #1d1d1b;stroke: #1d1d1b;stroke-miterlimit: 10"/>
    <path d="M971.68,1514.08c1.19-.71,3.49-3.37,5.62-5.14,3.2-2.65,4-4.17,5.53-4,1.67.19,1.66,2.19,4.92,4.92,1.77,1.48,2.84,2.38,4.3,2.46,3.14.17,4.24-3.66,7.68-4.61,1.88-.52,4.7-.25,8.91,3.07l6.91,3.29Z" style="fill: #1d1d1b;stroke: #1d1d1b;stroke-miterlimit: 10"/>
    <g>
      <ellipse cx="994.15" cy="1549.57" rx="21.5" ry="22.36" style="fill: none;stroke: #1d1d1b;stroke-miterlimit: 10"/>
      <path d="M993,1539.67s-7.07,5.84-6.45,6.76,8.6,8.6,8.6,8.6l5.84-7.68Z" style="fill: #1d1d1b;stroke: #1d1d1b;stroke-miterlimit: 10"/>
    </g>
  </g>
</svg>
